<svg xmlns="http://www.w3.org/2000/svg" xmlns:xlink="http://www.w3.org/1999/xlink" width="143.859" height="115.613" viewBox="0 0 143.859 115.613"><defs><clipPath id="a"><rect width="120.89" height="61.672" fill="#9000f9"/></clipPath><clipPath id="b"><rect width="143.859" height="115.613" transform="translate(0 8)" fill="none"/></clipPath><clipPath id="c"><rect width="156.859" height="123.613" fill="none"/></clipPath><clipPath id="d"><path d="M27.7,45.094l6.642,1.689,6.388.536,8.305,6.232a8.988,8.988,0,0,0,4.724-4.006c1.442-2.861-.057-5.822-3.471-7.792a17.413,17.413,0,0,0-5.758-1.975,22.879,22.879,0,0,0-3.85-.324c-5.86,0-11.256,2.217-12.98,5.639" transform="translate(-27.699 -39.455)" fill="none"/></clipPath><linearGradient id="e" x1="-0.844" y1="6.423" x2="-0.814" y2="6.423" gradientUnits="objectBoundingBox"><stop offset="0" stop-color="#ff98ff"/><stop offset="1" stop-color="#ffaff5"/></linearGradient><clipPath id="g"><rect width="18.502" height="5.416" fill="none"/></clipPath><clipPath id="h"><path d="M32.579,75.275a3.328,3.328,0,0,1-.2.662,5.118,5.118,0,0,1-1.505,1.91,8.945,8.945,0,0,1-3.055,1.588,15.479,15.479,0,0,1-3.919.658,15.2,15.2,0,0,1-3.965-.275,12.012,12.012,0,0,1-3.27-1.148,7.456,7.456,0,0,1-1.98-1.448,3.967,3.967,0,0,1-.572-.743,4,4,0,0,0,.53.781,7.031,7.031,0,0,0,1.931,1.577,11.5,11.5,0,0,0,3.3,1.267,15.5,15.5,0,0,0,4.042.326,15.713,15.713,0,0,0,3.993-.717A8.729,8.729,0,0,0,31,77.991a4.956,4.956,0,0,0,1.434-2.033,3.3,3.3,0,0,0,.161-.681c.021-.159.023-.246.023-.246a2.465,2.465,0,0,1-.037.244" transform="translate(-14.114 -75.031)" fill="none"/></clipPath><radialGradient id="i" cx="0.535" cy="0.937" r="2.351" gradientTransform="matrix(0.295, 0, 0, -1, -0.451, 22.228)" gradientUnits="objectBoundingBox"><stop offset="0" stop-color="#ff9412"/><stop offset="0.23" stop-color="#c1700d"/><stop offset="0.766" stop-color="#372003"/><stop offset="1"/></radialGradient><clipPath id="j"><rect width="26.306" height="7.486" fill="none"/></clipPath><clipPath id="k"><path d="M54.236,49.941a5.3,5.3,0,0,1-.328.916,7.162,7.162,0,0,1-2.189,2.625,14.863,14.863,0,0,1-4.362,2.145,19.921,19.921,0,0,1-5.5.949,23.692,23.692,0,0,1-5.582-.427,17.758,17.758,0,0,1-4.637-1.514,10.186,10.186,0,0,1-2.8-2.016,8.052,8.052,0,0,1-.631-.744l-.2-.282s.062.1.179.3a6.681,6.681,0,0,0,.582.794,9.737,9.737,0,0,0,2.738,2.2,16.886,16.886,0,0,0,4.684,1.691,24.219,24.219,0,0,0,5.689.5,20.352,20.352,0,0,0,5.62-1.036,14.3,14.3,0,0,0,4.4-2.337A7.015,7.015,0,0,0,54,50.9a4.649,4.649,0,0,0,.264-.949c.039-.224.046-.344.046-.344s-.018.12-.072.339" transform="translate(-28.002 -49.602)" fill="none"/></clipPath><radialGradient id="l" cx="0.5" cy="0.496" r="1.283" gradientTransform="matrix(0.287, 0, 0, -1, -0.636, 21.763)" xlink:href="#i"/><clipPath id="m"><rect width="46.964" height="27.203" fill="none"/></clipPath><clipPath id="n"><rect width="74.707" height="43.229" fill="none"/></clipPath><clipPath id="o"><rect width="2.335" height="2.28" fill="none"/></clipPath><clipPath id="ac"><path d="M29.092,91.458l56.3,32.508L122.9,102.312,66.6,69.8Z" transform="translate(-29.092 -69.803)" fill="none"/></clipPath><clipPath id="ae"><rect width="74.706" height="43.229" fill="none"/></clipPath><clipPath id="ag"><rect width="49.044" height="33.466" fill="none"/></clipPath><clipPath id="ah"><path d="M112.355,63.662l-.014,5.066c.01-3.507-2.3-7.018-6.922-9.687-9.192-5.307-24.1-5.307-33.227,0-4.534,2.635-6.8,6.092-6.814,9.553l.014-5.066c.01-3.462,2.28-6.918,6.814-9.553,9.133-5.307,24.035-5.307,33.227,0,4.623,2.67,6.932,6.181,6.922,9.687" transform="translate(-65.377 -49.994)" fill="none"/></clipPath><linearGradient id="ai" x1="-1.166" y1="4.14" x2="-1.148" y2="4.14" gradientUnits="objectBoundingBox"><stop offset="0" stop-color="#d473f1"/><stop offset="1" stop-color="#962dcc"/></linearGradient><clipPath id="ak"><path d="M72.32,76.841c9.189,5.3,24.092,5.3,33.22,0s9.084-13.939-.1-19.245-24.094-5.306-33.227,0-9.08,13.937.111,19.244" transform="translate(-65.394 -53.617)" fill="none"/></clipPath><linearGradient id="al" x1="-1.018" y1="2.68" x2="-1.001" y2="2.68" gradientUnits="objectBoundingBox"><stop offset="0" stop-color="#ffc5ff"/><stop offset="1" stop-color="#ffdeff"/></linearGradient><clipPath id="am"><path d="M113.188,66.278l-.014,5.066c-.01,3.615-2.381,7.225-7.117,9.977-9.53,5.538-25.092,5.538-34.684,0-4.829-2.788-7.24-6.456-7.23-10.118l.014-5.066c-.01,3.662,2.4,7.33,7.23,10.118,9.592,5.538,25.154,5.538,34.684,0,4.736-2.752,7.107-6.362,7.117-9.977" transform="translate(-64.144 -66.137)" fill="none"/></clipPath><linearGradient id="an" x1="-1.096" y1="3.29" x2="-1.079" y2="3.29" gradientUnits="objectBoundingBox"><stop offset="0" stop-color="#962dcc"/><stop offset="1" stop-color="#d473f1"/></linearGradient><clipPath id="ao"><path d="M105.965,53.435c9.592,5.538,9.642,14.552.11,20.092s-25.092,5.538-34.684,0-9.645-14.554-.117-20.091,25.1-5.54,34.69,0M72.12,73.1c9.189,5.306,24.092,5.306,33.22,0s9.084-13.939-.1-19.244-24.094-5.307-33.227,0S62.929,67.8,72.12,73.1" transform="translate(-64.161 -49.28)" fill="none"/></clipPath><linearGradient id="ap" x1="-0.954" y1="2.685" x2="-0.938" y2="2.685" gradientUnits="objectBoundingBox"><stop offset="0" stop-color="#f5abff"/><stop offset="0.456" stop-color="#ffc5ff"/><stop offset="1" stop-color="#ffdeff"/></linearGradient><clipPath id="aq"><path d="M121.574,82.08l-.024-.013Zm-7.781-3.55a4.353,4.353,0,0,0-1.97,3.412,1.392,1.392,0,0,0,.565,1.268l6.374,3.681a1.4,1.4,0,0,1-.564-1.268,4.354,4.354,0,0,1,1.97-3.412,1.39,1.39,0,0,1,1.382-.144L115.2,78.4a1.016,1.016,0,0,0-.526-.138,1.785,1.785,0,0,0-.88.269" transform="translate(-111.822 -78.261)" fill="none"/></clipPath><linearGradient id="ar" x1="-7.484" y1="4.715" x2="-7.416" y2="4.715" gradientUnits="objectBoundingBox"><stop offset="0" stop-color="#ffdefa"/><stop offset="0.517" stop-color="#ffbbfa"/><stop offset="0.764" stop-color="#f1adf6"/><stop offset="1" stop-color="#e09df1"/></linearGradient><clipPath id="at"><rect width="5.124" height="6.338" fill="none"/></clipPath><clipPath id="au"><path d="M147.035,103.671c.838-4.1,3.6-6.274,5.09-6.254-1.913-.667-5.51,2.763-5.09,6.254" transform="translate(-147.002 -97.333)" fill="none"/></clipPath><radialGradient id="av" cx="0.829" cy="0.085" r="1.192" gradientTransform="matrix(1.256, 0, 0, -1, 5.71, 12.314)" gradientUnits="objectBoundingBox"><stop offset="0" stop-color="#ffa962"/><stop offset="0.007" stop-color="#f5a25e"/><stop offset="0.048" stop-color="#c7844c"/><stop offset="0.093" stop-color="#9c673c"/><stop offset="0.142" stop-color="#774e2d"/><stop offset="0.195" stop-color="#563921"/><stop offset="0.254" stop-color="#3b2716"/><stop offset="0.32" stop-color="#25180e"/><stop offset="0.398" stop-color="#140d07"/><stop offset="0.493" stop-color="#080503"/><stop offset="0.627" stop-color="#010100"/><stop offset="1"/></radialGradient><clipPath id="aw"><rect width="6.067" height="6.822" fill="none"/></clipPath><clipPath id="ax"><rect width="62.852" height="47.757" fill="#9000f9"/></clipPath><clipPath id="ay"><path d="M95.513,34.591l3.918,2.262L99.4,48.319,95.48,46.057Zm9.063,1.579-3.919-2.262-.043,15.114,3.919,2.262Zm-10.3,4.257-3.918-2.262-.014,4.929,3.919,2.262ZM114.8,57.211l.057-19.938-3.918-2.263-.057,19.939Zm5.2-19.6-3.919-2.262-.064,22.565,3.918,2.262Zm-10.292,2.534-3.918-2.262-.04,14.1,3.919,2.263Zm-24.493-.015,3.919,2.263.018-6.5-3.919-2.262Zm39.927-2.736-3.918-2.262-.073,25.746,3.918,2.263Zm15.326,35.483c-.285-.165-.521-.088-.607.153L79.028,37.91l.067-9.591c.256.05.439-.118.44-.443a1.4,1.4,0,0,0-.639-1.107c-.354-.2-.643-.042-.644.367a1.428,1.428,0,0,0,.437.95l-.068,9.824a.449.449,0,0,0,.2.35L139.857,73.5a1.426,1.426,0,0,0,.6.853c.354.2.643.039.644-.366a1.412,1.412,0,0,0-.64-1.107M84.009,35.723,80.09,33.461l-.011,3.7L84,39.427Zm56.565-.769-3.919-2.262-.1,37.077,3.918,2.262Zm-5.147,1.535-3.918-2.262L131.416,66.8l3.918,2.262Zm-5.145,1.151-3.919-2.263-.08,28.464L130.2,66.1Z" transform="translate(-78.253 -26.68)" fill="#9000f9"/></clipPath><clipPath id="az"><path d="M2.228,84.937v18.242a1.906,1.906,0,0,0,1.116,1.535,5.952,5.952,0,0,0,5.387,0,1.883,1.883,0,0,0,1.116-1.575V84.9Z" transform="translate(-2.228 -84.896)" fill="none"/></clipPath><linearGradient id="ba" x1="-0.245" y1="2.536" x2="-0.135" y2="2.536" gradientUnits="objectBoundingBox"><stop offset="0" stop-color="#d66ee5"/><stop offset="1" stop-color="#ea82f5"/></linearGradient><clipPath id="bc"><path d="M10.5,93.639v14.953a1.906,1.906,0,0,0,1.116,1.534,5.952,5.952,0,0,0,5.387,0,1.881,1.881,0,0,0,1.115-1.575V93.6Z" transform="translate(-10.503 -93.598)" fill="none"/></clipPath><linearGradient id="bd" x1="-1.154" y1="2.597" x2="-1.044" y2="2.597" xlink:href="#ba"/><clipPath id="bf"><path d="M18.778,102.21v11.773a1.9,1.9,0,0,0,1.116,1.535,5.95,5.95,0,0,0,5.386,0,1.879,1.879,0,0,0,1.116-1.575V102.17Z" transform="translate(-18.778 -102.17)" fill="none"/></clipPath><linearGradient id="bg" x1="-2.064" y1="2.673" x2="-1.954" y2="2.673" xlink:href="#ba"/><clipPath id="bi"><path d="M27.181,112.151v7.507a1.9,1.9,0,0,0,1.115,1.535,5.957,5.957,0,0,0,5.387,0,1.881,1.881,0,0,0,1.116-1.576V112.11Z" transform="translate(-27.181 -112.11)" fill="none"/></clipPath><linearGradient id="bj" x1="-2.987" y1="2.981" x2="-2.877" y2="2.981" xlink:href="#ba"/><clipPath id="bl"><path d="M35.583,121.531v3.712a1.906,1.906,0,0,0,1.116,1.534,5.952,5.952,0,0,0,5.387,0A1.879,1.879,0,0,0,43.2,125.2v-3.711Z" transform="translate(-35.583 -121.491)" fill="none"/></clipPath><linearGradient id="bm" x1="-3.91" y1="3.543" x2="-3.8" y2="3.543" xlink:href="#ba"/><clipPath id="bo"><path d="M61.161,129.176l-4.99,2.9,11.865,10.2,4.99-2.9a.778.778,0,0,0,.324-.714l.005-1.546a2.091,2.091,0,0,0-.193-.835,2.671,2.671,0,0,0-.43-.676,1.993,1.993,0,0,0-.492-.413l-10.282-5.937a1.024,1.024,0,0,0-.5-.153.574.574,0,0,0-.294.076" transform="translate(-56.171 -129.1)" fill="none"/></clipPath><linearGradient id="bp" x1="-2.093" y1="0.925" x2="-2.054" y2="0.925" gradientUnits="objectBoundingBox"><stop offset="0" stop-color="#ffebff"/><stop offset="1" stop-color="#e8bdf1"/></linearGradient></defs><g transform="translate(15522.023 8170.545)"><g transform="translate(-15890.34 -10767.393)"><g transform="translate(386.301 2597.461)" clip-path="url(#a)"><path d="M57.56,90.884A33.324,33.324,0,1,1,90.884,57.56,33.362,33.362,0,0,1,57.56,90.884m0,24.236A57.56,57.56,0,1,0,0,57.56,57.56,57.56,0,0,0,57.56,115.12Z" transform="translate(2.497 4.113)" fill="#91b3fa"/></g><g transform="translate(430.653 2627.309)"><path d="M38.27,0A38.27,38.27,0,1,1,0,38.27,38.27,38.27,0,0,1,38.27,0Z" transform="translate(0 0)" fill="#31313c" opacity="0.444" style="mix-blend-mode:multiply;isolation:isolate"/><g transform="translate(14.942 15.821)"><path d="M415.253,50.721a.52.52,0,1,1-.52-.5A.509.509,0,0,1,415.253,50.721Z" transform="translate(-414.214 -50.224)" fill="#fff"/><path d="M423.7,50.721a.52.52,0,1,1-.519-.5A.509.509,0,0,1,423.7,50.721Z" transform="translate(-417.983 -50.224)" fill="#fff"/><path d="M432.145,50.721a.52.52,0,1,1-.519-.5A.509.509,0,0,1,432.145,50.721Z" transform="translate(-421.752 -50.224)" fill="#fff"/><path d="M440.592,50.721a.52.52,0,1,1-.52-.5A.509.509,0,0,1,440.592,50.721Z" transform="translate(-425.522 -50.224)" fill="#fff"/><path d="M449.038,50.721a.52.52,0,1,1-.519-.5A.509.509,0,0,1,449.038,50.721Z" transform="translate(-429.292 -50.224)" fill="#fff"/><path d="M457.484,50.721a.52.52,0,1,1-.519-.5A.508.508,0,0,1,457.484,50.721Z" transform="translate(-433.061 -50.224)" fill="#fff"/><path d="M465.931,50.721a.52.52,0,1,1-.52-.5A.509.509,0,0,1,465.931,50.721Z" transform="translate(-436.831 -50.224)" fill="#fff"/><path d="M474.377,50.721a.52.52,0,1,1-.519-.5A.508.508,0,0,1,474.377,50.721Z" transform="translate(-440.6 -50.224)" fill="#fff"/><path d="M482.823,50.721a.52.52,0,1,1-.519-.5A.509.509,0,0,1,482.823,50.721Z" transform="translate(-444.369 -50.224)" fill="#fff"/><path d="M491.27,50.721a.52.52,0,1,1-.52-.5A.509.509,0,0,1,491.27,50.721Z" transform="translate(-448.139 -50.224)" fill="#fff"/><path d="M499.716,50.721a.52.52,0,1,1-.52-.5A.509.509,0,0,1,499.716,50.721Z" transform="translate(-451.908 -50.224)" fill="#fff"/><g transform="translate(0 3.976)"><path d="M415.253,58.229a.52.52,0,1,1-.52-.5A.509.509,0,0,1,415.253,58.229Z" transform="translate(-414.214 -57.732)" fill="#fff"/><path d="M423.7,58.229a.52.52,0,1,1-.519-.5A.509.509,0,0,1,423.7,58.229Z" transform="translate(-417.983 -57.732)" fill="#fff"/><path d="M432.145,58.229a.52.52,0,1,1-.519-.5A.509.509,0,0,1,432.145,58.229Z" transform="translate(-421.752 -57.732)" fill="#fff"/><path d="M440.592,58.229a.52.52,0,1,1-.52-.5A.509.509,0,0,1,440.592,58.229Z" transform="translate(-425.522 -57.732)" fill="#fff"/><path d="M449.038,58.229a.52.52,0,1,1-.519-.5A.509.509,0,0,1,449.038,58.229Z" transform="translate(-429.292 -57.732)" fill="#fff"/><path d="M457.484,58.229a.52.52,0,1,1-.519-.5A.508.508,0,0,1,457.484,58.229Z" transform="translate(-433.061 -57.732)" fill="#fff"/><path d="M465.931,58.229a.52.52,0,1,1-.52-.5A.509.509,0,0,1,465.931,58.229Z" transform="translate(-436.831 -57.732)" fill="#fff"/><path d="M474.377,58.229a.52.52,0,1,1-.519-.5A.508.508,0,0,1,474.377,58.229Z" transform="translate(-440.6 -57.732)" fill="#fff"/><path d="M482.823,58.229a.52.52,0,1,1-.519-.5A.509.509,0,0,1,482.823,58.229Z" transform="translate(-444.369 -57.732)" fill="#fff"/><path d="M491.27,58.229a.52.52,0,1,1-.52-.5A.509.509,0,0,1,491.27,58.229Z" transform="translate(-448.139 -57.732)" fill="#fff"/><path d="M499.716,58.229a.52.52,0,1,1-.52-.5A.509.509,0,0,1,499.716,58.229Z" transform="translate(-451.908 -57.732)" fill="#fff"/></g><g transform="translate(0 7.951)"><ellipse cx="0.52" cy="0.497" rx="0.52" ry="0.497" fill="#fff"/><path d="M423.7,65.737a.52.52,0,1,1-.519-.5A.509.509,0,0,1,423.7,65.737Z" transform="translate(-417.983 -65.24)" fill="#fff"/><ellipse cx="0.52" cy="0.497" rx="0.52" ry="0.497" transform="translate(9.354)" fill="#fff"/><path d="M440.592,65.737a.52.52,0,1,1-.52-.5A.509.509,0,0,1,440.592,65.737Z" transform="translate(-425.522 -65.24)" fill="#fff"/><path d="M449.038,65.737a.52.52,0,1,1-.519-.5A.509.509,0,0,1,449.038,65.737Z" transform="translate(-429.292 -65.24)" fill="#fff"/><ellipse cx="0.52" cy="0.497" rx="0.52" ry="0.497" transform="translate(23.384)" fill="#fff"/><path d="M465.931,65.737a.52.52,0,1,1-.52-.5A.509.509,0,0,1,465.931,65.737Z" transform="translate(-436.831 -65.24)" fill="#fff"/><ellipse cx="0.52" cy="0.497" rx="0.52" ry="0.497" transform="translate(32.738)" fill="#fff"/><ellipse cx="0.52" cy="0.497" rx="0.52" ry="0.497" transform="translate(37.415)" fill="#fff"/><path d="M491.27,65.737a.52.52,0,1,1-.52-.5A.509.509,0,0,1,491.27,65.737Z" transform="translate(-448.139 -65.24)" fill="#fff"/><path d="M499.716,65.737a.52.52,0,1,1-.52-.5A.509.509,0,0,1,499.716,65.737Z" transform="translate(-451.908 -65.24)" fill="#fff"/></g><g transform="translate(0 11.927)"><ellipse cx="0.52" cy="0.497" rx="0.52" ry="0.497" transform="translate(0 0)" fill="#fff"/><path d="M423.7,73.244a.52.52,0,1,1-.519-.5A.508.508,0,0,1,423.7,73.244Z" transform="translate(-417.983 -72.747)" fill="#fff"/><ellipse cx="0.52" cy="0.497" rx="0.52" ry="0.497" transform="translate(9.354 0)" fill="#fff"/><path d="M440.592,73.244a.52.52,0,1,1-.52-.5A.509.509,0,0,1,440.592,73.244Z" transform="translate(-425.522 -72.747)" fill="#fff"/><path d="M449.038,73.244a.52.52,0,1,1-.519-.5A.509.509,0,0,1,449.038,73.244Z" transform="translate(-429.292 -72.747)" fill="#fff"/><ellipse cx="0.52" cy="0.497" rx="0.52" ry="0.497" transform="translate(23.384 0)" fill="#fff"/><path d="M465.931,73.244a.52.52,0,1,1-.52-.5A.509.509,0,0,1,465.931,73.244Z" transform="translate(-436.831 -72.747)" fill="#fff"/><ellipse cx="0.52" cy="0.497" rx="0.52" ry="0.497" transform="translate(32.738 0)" fill="#fff"/><ellipse cx="0.52" cy="0.497" rx="0.52" ry="0.497" transform="translate(37.415 0)" fill="#fff"/><path d="M491.27,73.244a.52.52,0,1,1-.52-.5A.509.509,0,0,1,491.27,73.244Z" transform="translate(-448.139 -72.747)" fill="#fff"/><path d="M499.716,73.244a.52.52,0,1,1-.52-.5A.509.509,0,0,1,499.716,73.244Z" transform="translate(-451.908 -72.747)" fill="#fff"/></g><g transform="translate(0 15.902)"><path d="M415.253,80.752a.52.52,0,1,1-.52-.5A.509.509,0,0,1,415.253,80.752Z" transform="translate(-414.214 -80.255)" fill="#fff"/><path d="M423.7,80.752a.52.52,0,1,1-.519-.5A.508.508,0,0,1,423.7,80.752Z" transform="translate(-417.983 -80.255)" fill="#fff"/><path d="M432.145,80.752a.52.52,0,1,1-.519-.5A.508.508,0,0,1,432.145,80.752Z" transform="translate(-421.752 -80.255)" fill="#fff"/><path d="M440.592,80.752a.52.52,0,1,1-.52-.5A.509.509,0,0,1,440.592,80.752Z" transform="translate(-425.522 -80.255)" fill="#fff"/><path d="M449.038,80.752a.52.52,0,1,1-.519-.5A.509.509,0,0,1,449.038,80.752Z" transform="translate(-429.292 -80.255)" fill="#fff"/><path d="M457.484,80.752a.52.52,0,1,1-.519-.5A.508.508,0,0,1,457.484,80.752Z" transform="translate(-433.061 -80.255)" fill="#fff"/><path d="M465.931,80.752a.52.52,0,1,1-.52-.5A.509.509,0,0,1,465.931,80.752Z" transform="translate(-436.831 -80.255)" fill="#fff"/><path d="M474.377,80.752a.52.52,0,1,1-.519-.5A.508.508,0,0,1,474.377,80.752Z" transform="translate(-440.6 -80.255)" fill="#fff"/><path d="M482.823,80.752a.52.52,0,1,1-.519-.5A.509.509,0,0,1,482.823,80.752Z" transform="translate(-444.369 -80.255)" fill="#fff"/><path d="M491.27,80.752a.52.52,0,1,1-.52-.5A.509.509,0,0,1,491.27,80.752Z" transform="translate(-448.139 -80.255)" fill="#fff"/><path d="M499.716,80.752a.52.52,0,1,1-.52-.5A.509.509,0,0,1,499.716,80.752Z" transform="translate(-451.908 -80.255)" fill="#fff"/></g><g transform="translate(0 19.878)"><ellipse cx="0.52" cy="0.497" rx="0.52" ry="0.497" transform="translate(0 0)" fill="#fff"/><path d="M423.7,88.26a.52.52,0,1,1-.519-.5A.508.508,0,0,1,423.7,88.26Z" transform="translate(-417.983 -87.763)" fill="#fff"/><ellipse cx="0.52" cy="0.497" rx="0.52" ry="0.497" transform="translate(9.354 0)" fill="#fff"/><path d="M440.592,88.26a.52.52,0,1,1-.52-.5A.509.509,0,0,1,440.592,88.26Z" transform="translate(-425.522 -87.763)" fill="#fff"/><path d="M449.038,88.26a.52.52,0,1,1-.519-.5A.509.509,0,0,1,449.038,88.26Z" transform="translate(-429.292 -87.763)" fill="#fff"/><ellipse cx="0.52" cy="0.497" rx="0.52" ry="0.497" transform="translate(23.384 0)" fill="#fff"/><path d="M465.931,88.26a.52.52,0,1,1-.52-.5A.509.509,0,0,1,465.931,88.26Z" transform="translate(-436.831 -87.763)" fill="#fff"/><ellipse cx="0.52" cy="0.497" rx="0.52" ry="0.497" transform="translate(32.738 0)" fill="#fff"/><ellipse cx="0.52" cy="0.497" rx="0.52" ry="0.497" transform="translate(37.415 0)" fill="#fff"/><path d="M491.27,88.26a.52.52,0,1,1-.52-.5A.509.509,0,0,1,491.27,88.26Z" transform="translate(-448.139 -87.763)" fill="#fff"/><path d="M499.716,88.26a.52.52,0,1,1-.52-.5A.509.509,0,0,1,499.716,88.26Z" transform="translate(-451.908 -87.763)" fill="#fff"/></g><g transform="translate(0 23.854)"><ellipse cx="0.52" cy="0.497" rx="0.52" ry="0.497" fill="#fff"/><path d="M423.7,95.768a.52.52,0,1,1-.519-.5A.509.509,0,0,1,423.7,95.768Z" transform="translate(-417.983 -95.271)" fill="#fff"/><ellipse cx="0.52" cy="0.497" rx="0.52" ry="0.497" transform="translate(9.354)" fill="#fff"/><path d="M440.592,95.768a.52.52,0,1,1-.52-.5A.509.509,0,0,1,440.592,95.768Z" transform="translate(-425.522 -95.271)" fill="#fff"/><path d="M449.038,95.768a.52.52,0,1,1-.519-.5A.509.509,0,0,1,449.038,95.768Z" transform="translate(-429.292 -95.271)" fill="#fff"/><ellipse cx="0.52" cy="0.497" rx="0.52" ry="0.497" transform="translate(23.384)" fill="#fff"/><path d="M465.931,95.768a.52.52,0,1,1-.52-.5A.509.509,0,0,1,465.931,95.768Z" transform="translate(-436.831 -95.271)" fill="#fff"/><ellipse cx="0.52" cy="0.497" rx="0.52" ry="0.497" transform="translate(32.738)" fill="#fff"/><ellipse cx="0.52" cy="0.497" rx="0.52" ry="0.497" transform="translate(37.415)" fill="#fff"/><path d="M491.27,95.768a.52.52,0,1,1-.52-.5A.509.509,0,0,1,491.27,95.768Z" transform="translate(-448.139 -95.271)" fill="#fff"/><path d="M499.716,95.768a.52.52,0,1,1-.52-.5A.509.509,0,0,1,499.716,95.768Z" transform="translate(-451.908 -95.271)" fill="#fff"/></g><g transform="translate(0 27.83)"><path d="M415.253,103.276a.52.52,0,1,1-.52-.5A.509.509,0,0,1,415.253,103.276Z" transform="translate(-414.214 -102.779)" fill="#fff"/><path d="M423.7,103.276a.52.52,0,1,1-.519-.5A.509.509,0,0,1,423.7,103.276Z" transform="translate(-417.983 -102.779)" fill="#fff"/><path d="M432.145,103.276a.52.52,0,1,1-.519-.5A.509.509,0,0,1,432.145,103.276Z" transform="translate(-421.752 -102.779)" fill="#fff"/><path d="M440.592,103.276a.52.52,0,1,1-.52-.5A.509.509,0,0,1,440.592,103.276Z" transform="translate(-425.522 -102.779)" fill="#fff"/><path d="M449.038,103.276a.52.52,0,1,1-.519-.5A.509.509,0,0,1,449.038,103.276Z" transform="translate(-429.292 -102.779)" fill="#fff"/><path d="M457.484,103.276a.52.52,0,1,1-.519-.5A.508.508,0,0,1,457.484,103.276Z" transform="translate(-433.061 -102.779)" fill="#fff"/><path d="M465.931,103.276a.52.52,0,1,1-.52-.5A.509.509,0,0,1,465.931,103.276Z" transform="translate(-436.831 -102.779)" fill="#fff"/><path d="M474.377,103.276a.52.52,0,1,1-.519-.5A.508.508,0,0,1,474.377,103.276Z" transform="translate(-440.6 -102.779)" fill="#fff"/><path d="M482.823,103.276a.52.52,0,1,1-.519-.5A.509.509,0,0,1,482.823,103.276Z" transform="translate(-444.369 -102.779)" fill="#fff"/><path d="M491.27,103.276a.52.52,0,1,1-.52-.5A.509.509,0,0,1,491.27,103.276Z" transform="translate(-448.139 -102.779)" fill="#fff"/><path d="M499.716,103.276a.52.52,0,1,1-.52-.5A.509.509,0,0,1,499.716,103.276Z" transform="translate(-451.908 -102.779)" fill="#fff"/></g><g transform="translate(0 31.805)"><ellipse cx="0.52" cy="0.497" rx="0.52" ry="0.497" fill="#fff"/><path d="M423.7,110.784a.52.52,0,1,1-.519-.5A.509.509,0,0,1,423.7,110.784Z" transform="translate(-417.983 -110.287)" fill="#fff"/><ellipse cx="0.52" cy="0.497" rx="0.52" ry="0.497" transform="translate(9.354)" fill="#fff"/><path d="M440.592,110.784a.52.52,0,1,1-.52-.5A.509.509,0,0,1,440.592,110.784Z" transform="translate(-425.522 -110.287)" fill="#fff"/><path d="M449.038,110.784a.52.52,0,1,1-.519-.5A.509.509,0,0,1,449.038,110.784Z" transform="translate(-429.292 -110.287)" fill="#fff"/><ellipse cx="0.52" cy="0.497" rx="0.52" ry="0.497" transform="translate(23.384)" fill="#fff"/><path d="M465.931,110.784a.52.52,0,1,1-.52-.5A.509.509,0,0,1,465.931,110.784Z" transform="translate(-436.831 -110.287)" fill="#fff"/><ellipse cx="0.52" cy="0.497" rx="0.52" ry="0.497" transform="translate(32.738)" fill="#fff"/><ellipse cx="0.52" cy="0.497" rx="0.52" ry="0.497" transform="translate(37.415)" fill="#fff"/><path d="M491.27,110.784a.52.52,0,1,1-.52-.5A.509.509,0,0,1,491.27,110.784Z" transform="translate(-448.139 -110.287)" fill="#fff"/><path d="M499.716,110.784a.52.52,0,1,1-.52-.5A.509.509,0,0,1,499.716,110.784Z" transform="translate(-451.908 -110.287)" fill="#fff"/></g><g transform="translate(0 35.781)"><path d="M415.253,118.291a.52.52,0,1,1-.52-.5A.509.509,0,0,1,415.253,118.291Z" transform="translate(-414.214 -117.794)" fill="#fff"/><path d="M423.7,118.291a.52.52,0,1,1-.519-.5A.509.509,0,0,1,423.7,118.291Z" transform="translate(-417.983 -117.794)" fill="#fff"/><path d="M432.145,118.291a.52.52,0,1,1-.519-.5A.509.509,0,0,1,432.145,118.291Z" transform="translate(-421.752 -117.794)" fill="#fff"/><path d="M440.592,118.291a.52.52,0,1,1-.52-.5A.509.509,0,0,1,440.592,118.291Z" transform="translate(-425.522 -117.794)" fill="#fff"/><path d="M449.038,118.291a.52.52,0,1,1-.519-.5A.509.509,0,0,1,449.038,118.291Z" transform="translate(-429.292 -117.794)" fill="#fff"/><path d="M457.484,118.291a.52.52,0,1,1-.519-.5A.509.509,0,0,1,457.484,118.291Z" transform="translate(-433.061 -117.794)" fill="#fff"/><path d="M465.931,118.291a.52.52,0,1,1-.52-.5A.509.509,0,0,1,465.931,118.291Z" transform="translate(-436.831 -117.794)" fill="#fff"/><path d="M474.377,118.291a.52.52,0,1,1-.519-.5A.509.509,0,0,1,474.377,118.291Z" transform="translate(-440.6 -117.794)" fill="#fff"/><path d="M482.823,118.291a.52.52,0,1,1-.519-.5A.509.509,0,0,1,482.823,118.291Z" transform="translate(-444.369 -117.794)" fill="#fff"/><path d="M491.27,118.291a.52.52,0,1,1-.52-.5A.509.509,0,0,1,491.27,118.291Z" transform="translate(-448.139 -117.794)" fill="#fff"/><path d="M499.716,118.291a.52.52,0,1,1-.52-.5A.509.509,0,0,1,499.716,118.291Z" transform="translate(-451.908 -117.794)" fill="#fff"/></g><g transform="translate(0 39.756)"><ellipse cx="0.52" cy="0.497" rx="0.52" ry="0.497" transform="translate(0 0)" fill="#fff"/><path d="M423.7,125.8a.52.52,0,1,1-.519-.5A.508.508,0,0,1,423.7,125.8Z" transform="translate(-417.983 -125.302)" fill="#fff"/><ellipse cx="0.52" cy="0.497" rx="0.52" ry="0.497" transform="translate(9.354 0)" fill="#fff"/><path d="M440.592,125.8a.52.52,0,1,1-.52-.5A.509.509,0,0,1,440.592,125.8Z" transform="translate(-425.522 -125.302)" fill="#fff"/><path d="M449.038,125.8a.52.52,0,1,1-.519-.5A.509.509,0,0,1,449.038,125.8Z" transform="translate(-429.292 -125.302)" fill="#fff"/><ellipse cx="0.52" cy="0.497" rx="0.52" ry="0.497" transform="translate(23.384 0)" fill="#fff"/><path d="M465.931,125.8a.52.52,0,1,1-.52-.5A.509.509,0,0,1,465.931,125.8Z" transform="translate(-436.831 -125.302)" fill="#fff"/><ellipse cx="0.52" cy="0.497" rx="0.52" ry="0.497" transform="translate(32.738 0)" fill="#fff"/><ellipse cx="0.52" cy="0.497" rx="0.52" ry="0.497" transform="translate(37.415 0)" fill="#fff"/><path d="M491.27,125.8a.52.52,0,1,1-.52-.5A.509.509,0,0,1,491.27,125.8Z" transform="translate(-448.139 -125.302)" fill="#fff"/><path d="M499.716,125.8a.52.52,0,1,1-.52-.5A.509.509,0,0,1,499.716,125.8Z" transform="translate(-451.908 -125.302)" fill="#fff"/></g><g transform="translate(0 43.732)"><ellipse cx="0.52" cy="0.497" rx="0.52" ry="0.497" transform="translate(0 0)" fill="#fff"/><path d="M423.7,133.307a.52.52,0,1,1-.519-.5A.508.508,0,0,1,423.7,133.307Z" transform="translate(-417.983 -132.81)" fill="#fff"/><ellipse cx="0.52" cy="0.497" rx="0.52" ry="0.497" transform="translate(9.354 0)" fill="#fff"/><path d="M440.592,133.307a.52.52,0,1,1-.52-.5A.509.509,0,0,1,440.592,133.307Z" transform="translate(-425.522 -132.81)" fill="#fff"/><path d="M449.038,133.307a.52.52,0,1,1-.519-.5A.509.509,0,0,1,449.038,133.307Z" transform="translate(-429.292 -132.81)" fill="#fff"/><ellipse cx="0.52" cy="0.497" rx="0.52" ry="0.497" transform="translate(23.384 0)" fill="#fff"/><path d="M465.931,133.307a.52.52,0,1,1-.52-.5A.509.509,0,0,1,465.931,133.307Z" transform="translate(-436.831 -132.81)" fill="#fff"/><ellipse cx="0.52" cy="0.497" rx="0.52" ry="0.497" transform="translate(32.738 0)" fill="#fff"/><ellipse cx="0.52" cy="0.497" rx="0.52" ry="0.497" transform="translate(37.415 0)" fill="#fff"/><path d="M491.27,133.307a.52.52,0,1,1-.52-.5A.509.509,0,0,1,491.27,133.307Z" transform="translate(-448.139 -132.81)" fill="#fff"/><path d="M499.716,133.307a.52.52,0,1,1-.52-.5A.509.509,0,0,1,499.716,133.307Z" transform="translate(-451.908 -132.81)" fill="#fff"/></g></g></g></g><g transform="translate(-15522.023 -8178.545)"><g clip-path="url(#b)"><g clip-path="url(#c)"><path d="M27.087,48.826V72.163c-.032,2.026,1.291,4.058,3.968,5.6,5.291,3.055,13.871,3.055,19.162,0,2.613-1.509,3.936-3.481,3.968-5.459V48.97Z" transform="translate(-4.384 -7.902)" fill="#6d00ba"/><path d="M27.892,48.83l-.8,0V72.163a4.963,4.963,0,0,0,.8,2.71Z" transform="translate(-4.384 -7.902)" fill="#6d00ba"/><path d="M53,48.964l-14.34-.076V79.74c4.607.785,9.792.135,13.427-1.964q.487-.282.913-.582Z" transform="translate(-6.257 -7.912)" fill="#e29700"/><path d="M53.18,48.965V78.427a14.043,14.043,0,0,0,1.259-.639c2.614-1.509,3.937-3.481,3.968-5.459V48.993Z" transform="translate(-8.607 -7.925)" fill="#d66ee5"/><path d="M42.512,48.838l8.305,6.232A21.068,21.068,0,0,1,38.71,56.377Z" transform="translate(-6.265 -7.904)" fill="#ffd03b"/></g><g transform="translate(23.216 33.069)"><g clip-path="url(#d)"><rect width="27.502" height="14.096" transform="translate(0)" fill="url(#e)"/></g></g><g clip-path="url(#c)"><path d="M40.779,48.838l-3.8,7.539a17.472,17.472,0,0,1-5.784-1.95A8.893,8.893,0,0,1,28,51.469Z" transform="translate(-4.532 -7.904)" fill="#8a18ed"/><path d="M40.619,48.408,27.842,51.039a4.6,4.6,0,0,1-.254-4.856Z" transform="translate(-4.372 -7.475)" fill="#8a18ed"/><path d="M24.525,74.838v19.11a13.862,13.862,0,0,0,7.008-1.6c1.831-1.057,2.756-2.438,2.778-3.823V74.89Z" transform="translate(-3.969 -12.112)" fill="#e29700"/><path d="M16.09,74.793V91.921q.308.219.66.423a14.359,14.359,0,0,0,8.226,1.53V74.84Z" transform="translate(-2.604 -12.105)" fill="#d66ee5"/><path d="M34.934,74.893V91A3.787,3.787,0,0,0,36,88.537V74.9Z" transform="translate(-5.654 -12.121)" fill="#e29700"/><path d="M16.413,74.794l-2.851-.015V88.418c-.023,1.418.9,2.84,2.778,3.923l.072.039Z" transform="translate(-2.195 -12.103)" fill="#6d00ba"/><path d="M23.594,74.756l1.511,5.41a13.842,13.842,0,0,1-8.175-1.537Z" transform="translate(-2.74 -12.099)" fill="#ffacf6"/><path d="M31.545,70.135c2.964,1.712,3.66,4.2,1.774,6.36l-8.439-2.487Z" transform="translate(-4.027 -11.351)" fill="#ffd03b"/><path d="M33.32,77.243c-1.414,1.618-3.836,2.639-6.928,2.923l-1.51-5.41Z" transform="translate(-4.027 -12.099)" fill="#ffd03b"/><path d="M23.049,74.276l-6.664,3.873c-2.963-1.711-3.659-4.2-1.774-6.359Z" transform="translate(-2.195 -11.619)" fill="#8a18ed"/><path d="M24.7,68.288,23.251,73.7l-8.437-2.486c1.882-2.156,5.759-3.3,9.886-2.923" transform="translate(-2.398 -11.041)" fill="#e467e8"/><path d="M31.545,69.838l-6.664,3.873L26.329,68.3a12.4,12.4,0,0,1,5.216,1.536" transform="translate(-4.027 -11.055)" fill="#9e5bf4"/><g transform="translate(11.83 62.888)" style="mix-blend-mode:screen;isolation:isolate"><g clip-path="url(#g)"><g transform="translate(0 0)"><g clip-path="url(#h)"><rect width="18.502" height="5.464" transform="translate(0)" fill="url(#i)"/></g></g></g></g><g transform="translate(23.47 41.574)" style="mix-blend-mode:screen;isolation:isolate"><g clip-path="url(#j)"><g transform="translate(0 0)"><g clip-path="url(#k)"><rect width="26.306" height="7.539" transform="translate(0 0)" fill="url(#l)"/></g></g></g></g><g transform="translate(55.809 63.506)" opacity="0.2" style="mix-blend-mode:screen;isolation:isolate"><g clip-path="url(#m)"><path d="M73.512,98.994C64.32,93.687,64.271,85.055,73.4,79.75s24.035-5.307,33.226,0,9.237,13.937.106,19.244-24.032,5.3-33.22,0" transform="translate(-66.586 -75.77)" fill="#db4dff"/></g></g><g transform="translate(54.776 62.908)" opacity="0.6" style="mix-blend-mode:multiply;isolation:isolate"><g clip-path="url(#n)"><path d="M139.7,114.576l-23.724-13.7a1.912,1.912,0,0,0-1.732,0l-.14.08-4.978-2.874c7.613-5.573,6.949-13.726-1.97-18.875-9.6-5.54-25.157-5.54-34.69,0s-9.479,14.552.117,20.092c8.889,5.131,22.895,5.5,32.485,1.12l4.984,2.877-.14.08a.528.528,0,0,0,0,1l23.724,13.7a1.912,1.912,0,0,0,1.732,0l4.332-2.5a.528.528,0,0,0,0-1m-66.388-15.7c-9.192-5.307-9.241-13.939-.111-19.244s24.035-5.307,33.226,0,9.237,13.937.106,19.244-24.032,5.3-33.22,0" transform="translate(-65.353 -75.056)" fill="#3a0155"/></g></g><path d="M85.4,128.147,29.091,95.639v3.32L85.4,131.467Z" transform="translate(-4.708 -15.479)" fill="#c6a1ce"/><path d="M33.3,98.069l-4.209-2.43v3.32l4.209,2.43Z" transform="translate(-4.708 -15.479)" fill="#962dcc"/><path d="M133.775,111.909,96.269,133.562v-3.32l37.506-21.654Z" transform="translate(-15.581 -17.575)" fill="#e8bdf1"/><path d="M85.4,123.965,29.091,91.457,66.6,69.8,122.9,102.311Z" transform="translate(-4.708 -11.297)" fill="#ffebff"/><path d="M33.291,93.882l-4.2-2.425L66.6,69.8l4.2,2.425Z" transform="translate(-4.708 -11.298)" fill="#ffbbfa"/><path d="M75.769,72.23l-1.463.845-2.253-1.3,1.463-.845Z" transform="translate(-11.662 -11.48)" fill="#d473f1"/><path d="M69.035,71.774l.515-.3a4.6,4.6,0,0,1-.308-.586,2.218,2.218,0,0,1-.11-1.954.779.779,0,0,1,.7-.343c1,0,2.34,1.16,2.934,2.532a3.349,3.349,0,0,1,.285,1.1l.589.34a3.549,3.549,0,0,0-.33-1.68C72.607,69.271,71.079,68,69.83,68a1.37,1.37,0,0,0-1.192.609,2.7,2.7,0,0,0,.061,2.514,5.326,5.326,0,0,0,.336.648" transform="translate(-11.064 -11.006)" fill="#ffebff"/><g transform="translate(59.596 57.343)" style="mix-blend-mode:screen;isolation:isolate"><g clip-path="url(#o)"><path d="M71.112,68.45c-.047.11.112.152.177.18a3.219,3.219,0,0,1,.655.392,4.4,4.4,0,0,1,1.3,1.645c.037.08.226-.022.192-.092-.774-1.6-2.235-2.329-2.322-2.126" transform="translate(-71.104 -68.416)" fill="#fff"/></g></g><path d="M72.646,74.033l-1.463.844-2.253-1.3,1.463-.845Z" transform="translate(-11.156 -11.771)" fill="#d473f1"/><path d="M65.912,73.577l.515-.3a4.7,4.7,0,0,1-.308-.586,2.218,2.218,0,0,1-.11-1.954.779.779,0,0,1,.7-.343c1,0,2.34,1.16,2.934,2.532a3.326,3.326,0,0,1,.284,1.1l.59.34a3.559,3.559,0,0,0-.33-1.68c-.7-1.619-2.229-2.888-3.478-2.888a1.373,1.373,0,0,0-1.193.609,2.7,2.7,0,0,0,.062,2.514,5.327,5.327,0,0,0,.336.648" transform="translate(-10.558 -11.298)" fill="#ffebff"/><g transform="translate(56.978 58.854)" style="mix-blend-mode:screen;isolation:isolate"><g clip-path="url(#o)"><path d="M67.989,70.253c-.047.11.112.152.177.18a3.219,3.219,0,0,1,.655.392,4.4,4.4,0,0,1,1.3,1.645c.037.08.226-.022.192-.092-.774-1.6-2.234-2.329-2.322-2.126" transform="translate(-67.981 -70.219)" fill="#fff"/></g></g><path d="M69.523,75.836l-1.463.844-2.253-1.3,1.463-.845Z" transform="translate(-10.651 -12.063)" fill="#d473f1"/><path d="M62.789,75.38l.515-.3A4.7,4.7,0,0,1,63,74.5a2.218,2.218,0,0,1-.11-1.954.779.779,0,0,1,.7-.343c1,0,2.34,1.16,2.934,2.532a3.326,3.326,0,0,1,.284,1.1l.59.34a3.559,3.559,0,0,0-.33-1.68c-.7-1.619-2.229-2.888-3.478-2.888a1.373,1.373,0,0,0-1.193.609,2.7,2.7,0,0,0,.062,2.514,5.328,5.328,0,0,0,.336.648" transform="translate(-10.053 -11.59)" fill="#ffebff"/><g transform="translate(54.361 60.366)" style="mix-blend-mode:screen;isolation:isolate"><g clip-path="url(#o)"><path d="M64.866,72.056c-.047.11.112.152.177.18a3.219,3.219,0,0,1,.655.392A4.4,4.4,0,0,1,67,74.273c.037.08.226-.022.192-.092-.774-1.6-2.235-2.329-2.322-2.126" transform="translate(-64.858 -72.022)" fill="#fff"/></g></g><path d="M66.4,77.639l-1.463.844-2.253-1.3,1.463-.845Z" transform="translate(-10.145 -12.355)" fill="#d473f1"/><path d="M59.666,77.183l.514-.3a4.811,4.811,0,0,1-.307-.586,2.218,2.218,0,0,1-.11-1.954.778.778,0,0,1,.7-.343c1,0,2.34,1.16,2.934,2.532a3.308,3.308,0,0,1,.285,1.1l.589.34a3.548,3.548,0,0,0-.329-1.68c-.7-1.619-2.229-2.888-3.478-2.888a1.373,1.373,0,0,0-1.193.609,2.7,2.7,0,0,0,.062,2.514,5.211,5.211,0,0,0,.336.648" transform="translate(-9.547 -11.881)" fill="#ffebff"/><g transform="translate(51.743 61.877)" style="mix-blend-mode:screen;isolation:isolate"><g clip-path="url(#o)"><path d="M61.743,73.859c-.047.11.112.152.177.18a3.185,3.185,0,0,1,.655.393,4.387,4.387,0,0,1,1.3,1.644c.037.08.226-.022.193-.092-.775-1.6-2.235-2.329-2.323-2.126" transform="translate(-61.735 -73.825)" fill="#fff"/></g></g><path d="M63.277,79.442l-1.463.844-2.253-1.3,1.463-.845Z" transform="translate(-9.64 -12.647)" fill="#d473f1"/><path d="M56.542,78.986l.515-.3a4.6,4.6,0,0,1-.308-.586,2.218,2.218,0,0,1-.11-1.954.779.779,0,0,1,.7-.343c1,0,2.34,1.16,2.934,2.532a3.349,3.349,0,0,1,.285,1.1l.589.34a3.549,3.549,0,0,0-.33-1.68c-.7-1.619-2.229-2.888-3.478-2.888a1.37,1.37,0,0,0-1.192.609,2.7,2.7,0,0,0,.061,2.514,5.328,5.328,0,0,0,.336.648" transform="translate(-9.042 -12.173)" fill="#ffebff"/><g transform="translate(49.125 63.388)" style="mix-blend-mode:screen;isolation:isolate"><g clip-path="url(#o)"><path d="M58.62,75.662c-.047.11.112.152.177.18a3.185,3.185,0,0,1,.655.393,4.387,4.387,0,0,1,1.3,1.644c.037.08.226-.022.192-.092-.774-1.6-2.234-2.329-2.322-2.126" transform="translate(-58.612 -75.628)" fill="#fff"/></g></g><path d="M60.154,81.245l-1.463.844-2.253-1.3,1.463-.845Z" transform="translate(-9.134 -12.939)" fill="#d473f1"/><path d="M53.419,80.789l.515-.3a4.7,4.7,0,0,1-.308-.586,2.218,2.218,0,0,1-.11-1.954.779.779,0,0,1,.7-.343c1,0,2.34,1.16,2.934,2.532a3.326,3.326,0,0,1,.284,1.1l.59.34a3.559,3.559,0,0,0-.33-1.681c-.7-1.619-2.229-2.888-3.478-2.888a1.373,1.373,0,0,0-1.193.609,2.7,2.7,0,0,0,.062,2.514,5.327,5.327,0,0,0,.336.648" transform="translate(-8.536 -12.465)" fill="#ffebff"/><g transform="translate(46.508 64.899)" style="mix-blend-mode:screen;isolation:isolate"><g clip-path="url(#o)"><path d="M55.5,77.466c-.047.11.112.152.177.18a3.186,3.186,0,0,1,.655.393,4.387,4.387,0,0,1,1.3,1.644c.037.08.226-.022.192-.092-.774-1.6-2.235-2.329-2.322-2.126" transform="translate(-55.489 -77.432)" fill="#fff"/></g></g><path d="M57.031,83.048l-1.463.844-2.253-1.3,1.463-.845Z" transform="translate(-8.629 -13.231)" fill="#d473f1"/><path d="M50.3,82.592l.515-.3a4.7,4.7,0,0,1-.308-.586,2.218,2.218,0,0,1-.11-1.954.779.779,0,0,1,.7-.343c1,0,2.34,1.16,2.934,2.532a3.326,3.326,0,0,1,.284,1.1l.59.34a3.56,3.56,0,0,0-.33-1.681c-.7-1.619-2.229-2.888-3.478-2.888a1.373,1.373,0,0,0-1.193.609,2.7,2.7,0,0,0,.062,2.514,5.327,5.327,0,0,0,.336.648" transform="translate(-8.031 -12.757)" fill="#ffebff"/><g transform="translate(43.89 66.411)" style="mix-blend-mode:screen;isolation:isolate"><g clip-path="url(#o)"><path d="M52.374,79.269c-.047.11.112.152.177.18a3.186,3.186,0,0,1,.655.393,4.387,4.387,0,0,1,1.3,1.644c.037.08.226-.022.192-.092-.774-1.6-2.234-2.329-2.322-2.126" transform="translate(-52.365 -79.235)" fill="#fff"/></g></g><path d="M53.908,84.851l-1.463.844-2.253-1.3,1.463-.845Z" transform="translate(-8.123 -13.522)" fill="#d473f1"/><path d="M47.173,84.395l.515-.3a4.7,4.7,0,0,1-.308-.586,2.218,2.218,0,0,1-.11-1.954.779.779,0,0,1,.7-.343c1,0,2.34,1.16,2.934,2.532a3.326,3.326,0,0,1,.284,1.1l.59.34a3.559,3.559,0,0,0-.33-1.68c-.7-1.619-2.229-2.888-3.478-2.888a1.373,1.373,0,0,0-1.193.609,2.7,2.7,0,0,0,.062,2.514,5.327,5.327,0,0,0,.336.648" transform="translate(-7.525 -13.049)" fill="#ffebff"/><g transform="translate(41.273 67.922)" style="mix-blend-mode:screen;isolation:isolate"><g clip-path="url(#o)"><path d="M49.251,81.072c-.047.11.112.152.177.18a3.185,3.185,0,0,1,.655.393,4.387,4.387,0,0,1,1.3,1.644c.037.08.226-.022.192-.092-.774-1.6-2.235-2.329-2.322-2.126" transform="translate(-49.242 -81.038)" fill="#fff"/></g></g><path d="M50.785,86.654l-1.463.845-2.253-1.3,1.463-.845Z" transform="translate(-7.618 -13.814)" fill="#d473f1"/><path d="M44.05,86.2l.515-.3a4.6,4.6,0,0,1-.308-.586,2.218,2.218,0,0,1-.11-1.954.779.779,0,0,1,.7-.344c1,0,2.34,1.161,2.934,2.533a3.326,3.326,0,0,1,.284,1.1l.59.34a3.56,3.56,0,0,0-.33-1.68c-.7-1.619-2.229-2.889-3.478-2.889a1.373,1.373,0,0,0-1.193.61,2.7,2.7,0,0,0,.062,2.514,5.328,5.328,0,0,0,.336.648" transform="translate(-7.02 -13.34)" fill="#ffebff"/><g transform="translate(38.655 69.433)" style="mix-blend-mode:screen;isolation:isolate"><g clip-path="url(#o)"><path d="M46.128,82.875c-.047.11.112.152.177.18a3.185,3.185,0,0,1,.655.393,4.387,4.387,0,0,1,1.3,1.644c.037.08.226-.022.192-.092-.774-1.6-2.235-2.329-2.322-2.126" transform="translate(-46.119 -82.841)" fill="#fff"/></g></g><path d="M47.662,88.457,46.2,89.3,43.946,88l1.463-.845Z" transform="translate(-7.113 -14.106)" fill="#d473f1"/><path d="M40.927,88l.515-.3a4.7,4.7,0,0,1-.308-.586,2.218,2.218,0,0,1-.11-1.954.779.779,0,0,1,.7-.343c1,0,2.34,1.16,2.934,2.532a3.346,3.346,0,0,1,.284,1.1l.59.34a3.559,3.559,0,0,0-.33-1.68c-.7-1.619-2.229-2.888-3.478-2.888a1.373,1.373,0,0,0-1.193.609,2.7,2.7,0,0,0,.062,2.514,5.327,5.327,0,0,0,.336.648" transform="translate(-6.514 -13.632)" fill="#ffebff"/><g transform="translate(36.037 70.945)" style="mix-blend-mode:screen;isolation:isolate"><g clip-path="url(#o)"><path d="M43.005,84.678c-.047.11.111.152.176.18a3.2,3.2,0,0,1,.655.392,4.4,4.4,0,0,1,1.3,1.644c.036.08.226-.021.192-.091-.774-1.6-2.235-2.329-2.322-2.126" transform="translate(-42.996 -84.644)" fill="#fff"/></g></g><path d="M44.539,90.261l-1.463.845-2.253-1.3,1.463-.845Z" transform="translate(-6.607 -14.398)" fill="#d473f1"/><path d="M37.8,89.8l.515-.3a4.7,4.7,0,0,1-.308-.586,2.218,2.218,0,0,1-.11-1.954.779.779,0,0,1,.7-.343c1,0,2.34,1.16,2.934,2.532a3.326,3.326,0,0,1,.284,1.1l.59.34a3.559,3.559,0,0,0-.33-1.68c-.7-1.62-2.229-2.888-3.478-2.888a1.373,1.373,0,0,0-1.193.609,2.7,2.7,0,0,0,.062,2.514,5.326,5.326,0,0,0,.336.648" transform="translate(-6.009 -13.924)" fill="#ffebff"/><g transform="translate(33.42 72.456)" style="mix-blend-mode:screen;isolation:isolate"><g clip-path="url(#o)"><path d="M39.881,86.481c-.047.11.112.152.177.18a3.219,3.219,0,0,1,.655.392,4.4,4.4,0,0,1,1.3,1.644c.037.08.226-.021.192-.091-.774-1.6-2.235-2.329-2.322-2.126" transform="translate(-39.873 -86.447)" fill="#fff"/></g></g><path d="M41.415,92.064l-1.463.845-2.253-1.3,1.463-.845Z" transform="translate(-6.102 -14.69)" fill="#d473f1"/><path d="M34.681,91.608l.515-.3a4.7,4.7,0,0,1-.308-.586,2.218,2.218,0,0,1-.11-1.954.779.779,0,0,1,.7-.343c1,0,2.34,1.16,2.934,2.532a3.326,3.326,0,0,1,.284,1.1l.59.34a3.558,3.558,0,0,0-.33-1.68c-.7-1.62-2.229-2.888-3.478-2.888a1.373,1.373,0,0,0-1.193.609,2.7,2.7,0,0,0,.062,2.514,5.327,5.327,0,0,0,.336.648" transform="translate(-5.503 -14.216)" fill="#ffebff"/><g transform="translate(30.802 73.967)" style="mix-blend-mode:screen;isolation:isolate"><g clip-path="url(#o)"><path d="M36.758,88.284c-.047.11.112.152.177.18a3.219,3.219,0,0,1,.655.392,4.4,4.4,0,0,1,1.3,1.644c.037.08.226-.021.192-.091-.774-1.6-2.235-2.329-2.322-2.126" transform="translate(-36.75 -88.25)" fill="#fff"/></g></g><path d="M38.292,93.867l-1.463.845-2.253-1.3,1.463-.845Z" transform="translate(-5.596 -14.982)" fill="#d473f1"/><path d="M31.558,93.411l.515-.3a4.6,4.6,0,0,1-.308-.586,2.218,2.218,0,0,1-.11-1.954.779.779,0,0,1,.7-.343c1,0,2.34,1.16,2.934,2.532a3.326,3.326,0,0,1,.284,1.1l.59.34a3.559,3.559,0,0,0-.33-1.68c-.7-1.619-2.229-2.888-3.478-2.888a1.373,1.373,0,0,0-1.193.609,2.7,2.7,0,0,0,.062,2.514,5.327,5.327,0,0,0,.336.648" transform="translate(-4.998 -14.508)" fill="#ffebff"/><g transform="translate(28.185 75.478)" style="mix-blend-mode:screen;isolation:isolate"><g clip-path="url(#o)"><path d="M33.635,90.087c-.047.11.112.152.177.18a3.219,3.219,0,0,1,.655.392,4.4,4.4,0,0,1,1.3,1.645c.037.08.226-.022.192-.092-.774-1.6-2.235-2.329-2.322-2.126" transform="translate(-33.627 -90.053)" fill="#fff"/></g></g><path d="M35.169,95.67l-1.463.845-2.253-1.3,1.463-.845Z" transform="translate(-5.091 -15.273)" fill="#d473f1"/><path d="M28.1,94.572a4.5,4.5,0,0,0,.664,1.043l.11.134v-.791l.075-.043a4.762,4.762,0,0,1-.308-.586,2.216,2.216,0,0,1-.11-1.954.779.779,0,0,1,.7-.343c1,0,2.34,1.16,2.934,2.532a3.347,3.347,0,0,1,.284,1.1l.59.341a3.558,3.558,0,0,0-.33-1.68c-.7-1.62-2.229-2.889-3.478-2.889a1.373,1.373,0,0,0-1.193.61,2.7,2.7,0,0,0,.062,2.514l0,.007" transform="translate(-4.493 -14.8)" fill="#ffebff"/><g transform="translate(25.567 76.99)" style="mix-blend-mode:screen;isolation:isolate"><g clip-path="url(#o)"><path d="M30.512,91.89c-.047.11.112.152.177.18a3.219,3.219,0,0,1,.655.392,4.4,4.4,0,0,1,1.3,1.645c.037.08.226-.022.192-.092-.774-1.6-2.235-2.329-2.322-2.126" transform="translate(-30.504 -91.856)" fill="#fff"/></g></g><path d="M62.144,98.319a1.588,1.588,0,0,0,.676.121,1.425,1.425,0,0,0,.651-.077c.034-.019.039-.061.016-.126-.017-.035-.045-.087-.087-.156s-.38-.432-1.014-1.087a3.063,3.063,0,0,0,1.123-1.717,1.224,1.224,0,0,0-.7-1.333,2.715,2.715,0,0,0-1.561-.356,4.107,4.107,0,0,0-1.786.593,3.178,3.178,0,0,0-.884.752q-.367.453-.126.593a2.02,2.02,0,0,0,.693.13,11.684,11.684,0,0,1,2.4,2.1,3.121,3.121,0,0,0,.593.563M60.091,95.2a1.452,1.452,0,0,1,.521-.5,1.577,1.577,0,0,1,.681-.215,1.175,1.175,0,0,1,.676.164.58.58,0,0,1,.262.643,2.118,2.118,0,0,1-.513,1,6.391,6.391,0,0,0-1.135-.945,1.388,1.388,0,0,0-.493-.149" transform="translate(-9.445 -15.146)" fill="#bfacbf"/><path d="M62.206,91.509c-.15.087-.142.179.024.275a16.019,16.019,0,0,1,2.224,1.549q1.055.874,1.7,1.51a6.5,6.5,0,0,0,.813.735,1.589,1.589,0,0,0,.664.113,1.421,1.421,0,0,0,.65-.077q.243-.14-1.778-2.019A17.172,17.172,0,0,0,65.177,92.5a13.659,13.659,0,0,0-1.268-.877,2.058,2.058,0,0,0-.905-.2,1.744,1.744,0,0,0-.8.08" transform="translate(-10.051 -14.797)" fill="#bfacbf"/><path d="M70.161,90.5a2.659,2.659,0,0,0-1.223.253,1.082,1.082,0,0,0-.517.722,1.774,1.774,0,0,0,.046.986,3.57,3.57,0,0,0,.467.93,2.1,2.1,0,0,0,.647.634,2.29,2.29,0,0,0,1.118.188A2.413,2.413,0,0,0,71.834,94a1.268,1.268,0,0,0,.534-1.271,3.417,3.417,0,0,0,.814.215.955.955,0,0,0,.546-.036q.151-.087,0-.241c-.061-.061-.115-.113-.163-.157s-.127-.108-.238-.2-.224-.177-.338-.272a5.088,5.088,0,0,1-.425-.41,2.144,2.144,0,0,0-.355-.325.923.923,0,0,0-.384-.068,1.284,1.284,0,0,0-.513-.566,2.361,2.361,0,0,0-1.152-.168m.68,1.053a1.35,1.35,0,0,1,.451.78,1.2,1.2,0,0,1-.075.718.909.909,0,0,1-.346.412.359.359,0,0,1-.38.018,1.8,1.8,0,0,1-.688-1.121q-.246-.865.254-1.154.209-.121.8.193c-.072.049-.077.1-.017.154" transform="translate(-11.066 -14.648)" fill="#bfacbf"/><path d="M72.673,88.616a1.633,1.633,0,0,0-.785.174.058.058,0,0,0-.034.067,3.717,3.717,0,0,0,.926.7,7.278,7.278,0,0,1,1.31,1.031q.117.124.255.306c.092.121.169.217.234.289a.84.84,0,0,0,.209.174,1.752,1.752,0,0,0,.614.08,1.46,1.46,0,0,0,.655-.075.336.336,0,0,0,.137-.345,1.49,1.49,0,0,0-.1-.455c-.053-.133-.108-.266-.167-.4s-.116-.259-.171-.378-.1-.209-.125-.27-.066-.145-.113-.253-.082-.192-.1-.253-.048-.136-.079-.224a1.039,1.039,0,0,1-.054-.215c-.005-.054-.009-.122-.012-.2a.2.2,0,0,1,.111-.19c.079-.045.239,0,.48.142a5.283,5.283,0,0,1,1.006.884,5.74,5.74,0,0,0,.851.8.581.581,0,0,0,.6.058q.517-.3-.618-1.532a5.281,5.281,0,0,0-1.21-.969,2.476,2.476,0,0,0-1.118-.279,1.977,1.977,0,0,0-1.085.193q-.543.313.425,2.385a6.867,6.867,0,0,0-1.335-1.127,1.448,1.448,0,0,0-.709-.111" transform="translate(-11.629 -14.125)" fill="#bfacbf"/><path d="M61.478,88.182c-.3.144-.4.646.125.394,3.084-1.486,10.151-5.435,14.91-4.407,2.462.531,2.832,2.277,2.487,3.582-.676,2.564-3.592,4.889-6.688,6.685-3.384,1.965-12.625,6.01-17.424,3.185-2.474-1.457-1.344-3.805-.064-5.44,1.986-2.539,5.49-4.653,9.34-6.284.26-.111.515-.673.051-.476-5.176,2.194-14.157,7.493-11,11.764,3.3,4.464,14.789.039,18.371-1.881,3.726-2,12.292-8.133,6.734-11.182-4.556-2.5-13.766,2.578-16.839,4.059" transform="translate(-8.506 -13.505)" fill="#bfacbf"/><path d="M81.227,99.789l8.6-4.964a.381.381,0,0,0,0-.723,1.383,1.383,0,0,0-1.254,0l-8.6,4.963a.382.382,0,0,0,0,.724,1.388,1.388,0,0,0,1.254,0" transform="translate(-12.901 -15.206)" fill="#bfacbf"/><path d="M74.481,102.778l-3.726,2.152a.382.382,0,0,0,0,.724,1.39,1.39,0,0,0,1.255,0l3.726-2.152a.382.382,0,0,0,0-.724,1.385,1.385,0,0,0-1.255,0" transform="translate(-11.409 -16.61)" fill="#bfacbf"/><path d="M65.664,109.535l1.773-1.023a.382.382,0,0,0,0-.724,1.381,1.381,0,0,0-1.253,0l-1.774,1.023a.382.382,0,0,0,0,.724,1.385,1.385,0,0,0,1.255,0" transform="translate(-10.382 -17.421)" fill="#bfacbf"/><path d="M87.076,99.986a1.383,1.383,0,0,0,1.254,0l5.419-3.128a.383.383,0,0,0,0-.725,1.386,1.386,0,0,0-1.254,0l-5.419,3.128a.382.382,0,0,0,0,.724" transform="translate(-14.051 -15.535)" fill="#bfacbf"/><path d="M83.68,103.057a.382.382,0,0,0,0-.724,1.383,1.383,0,0,0-1.254,0l-1.955,1.128a.383.383,0,0,0,0,.724,1.387,1.387,0,0,0,1.256,0Z" transform="translate(-12.982 -16.538)" fill="#bfacbf"/><path d="M69.081,110.9l7.18-4.146a.382.382,0,0,0,0-.724,1.383,1.383,0,0,0-1.254,0l-7.18,4.146a.382.382,0,0,0,0,.724,1.383,1.383,0,0,0,1.254,0" transform="translate(-10.935 -17.137)" fill="#bfacbf"/><path d="M86.8,103.46a.382.382,0,0,0,0,.724,1.383,1.383,0,0,0,1.254,0L92.6,101.56a.382.382,0,0,0,0-.724,1.383,1.383,0,0,0-1.254,0Z" transform="translate(-14.007 -16.296)" fill="#bfacbf"/><path d="M81.673,106.722,79.81,107.8a.382.382,0,0,0,0,.724,1.388,1.388,0,0,0,1.254,0l1.863-1.076a.382.382,0,0,0,0-.724,1.383,1.383,0,0,0-1.254,0" transform="translate(-12.875 -17.248)" fill="#bfacbf"/><path d="M74.969,110.385l-3.727,2.152a.382.382,0,0,0,0,.724,1.385,1.385,0,0,0,1.255,0l3.726-2.152a.382.382,0,0,0,0-.724,1.383,1.383,0,0,0-1.254,0" transform="translate(-11.488 -17.841)" fill="#bfacbf"/><path d="M82.866,109.978,81,111.053a.382.382,0,0,0,0,.724,1.383,1.383,0,0,0,1.254,0l1.863-1.075a.382.382,0,0,0,0-.724,1.385,1.385,0,0,0-1.255,0" transform="translate(-13.068 -17.775)" fill="#bfacbf"/><path d="M76.431,113.7l-1.773,1.023a.382.382,0,0,0,0,.724,1.383,1.383,0,0,0,1.254,0l1.774-1.023a.382.382,0,0,0,0-.724,1.385,1.385,0,0,0-1.255,0" transform="translate(-12.041 -18.378)" fill="#bfacbf"/><path d="M94.81,107.849l6.636-3.831a.382.382,0,0,0,0-.724,1.383,1.383,0,0,0-1.254,0l-6.636,3.831a.382.382,0,0,0,0,.724,1.383,1.383,0,0,0,1.254,0" transform="translate(-15.1 -16.694)" fill="#bfacbf"/><path d="M88.064,110.62l-3.726,2.152a.382.382,0,0,0,0,.724,1.39,1.39,0,0,0,1.255,0l3.726-2.152a.382.382,0,0,0,0-.724,1.383,1.383,0,0,0-1.254,0" transform="translate(-13.608 -17.879)" fill="#bfacbf"/><path d="M79.248,117.377l1.773-1.023a.382.382,0,0,0,0-.724,1.383,1.383,0,0,0-1.254,0l-1.774,1.023a.382.382,0,0,0,0,.724,1.385,1.385,0,0,0,1.255,0" transform="translate(-12.581 -18.69)" fill="#bfacbf"/><path d="M100.659,108.034a1.383,1.383,0,0,0,1.254,0l3.57-2.061a.382.382,0,0,0,0-.724,1.385,1.385,0,0,0-1.255,0l-3.57,2.061a.382.382,0,0,0,0,.724" transform="translate(-16.249 -17.01)" fill="#bfacbf"/><path d="M97.263,110.9a.382.382,0,0,0,0-.724,1.383,1.383,0,0,0-1.254,0L94.055,111.3a.382.382,0,0,0,0,.724,1.385,1.385,0,0,0,1.255,0Z" transform="translate(-15.181 -17.807)" fill="#bfacbf"/><path d="M82.664,118.746l7.18-4.146a.382.382,0,0,0,0-.724,1.383,1.383,0,0,0-1.254,0l-7.181,4.145a.382.382,0,0,0,0,.724,1.385,1.385,0,0,0,1.255,0" transform="translate(-13.134 -18.406)" fill="#bfacbf"/><path d="M100.388,111.3a.382.382,0,0,0,0,.724,1.383,1.383,0,0,0,1.254,0l4.545-2.624a.382.382,0,0,0,0-.724,1.383,1.383,0,0,0-1.254,0Z" transform="translate(-16.206 -17.565)" fill="#bfacbf"/><path d="M88.552,118.228l-3.727,2.152a.382.382,0,0,0,0,.724,1.385,1.385,0,0,0,1.255,0l3.726-2.152a.382.382,0,0,0,0-.724,1.383,1.383,0,0,0-1.254,0" transform="translate(-13.687 -19.111)" fill="#bfacbf"/><path d="M103.426,113.782l-1.954,1.128a.382.382,0,0,0,0,.724,1.383,1.383,0,0,0,1.254,0l1.954-1.128a.382.382,0,0,0,0-.724,1.383,1.383,0,0,0-1.254,0" transform="translate(-16.381 -18.391)" fill="#bfacbf"/><path d="M96.449,117.821,94.587,118.9a.382.382,0,0,0,0,.724,1.383,1.383,0,0,0,1.254,0l1.863-1.075a.382.382,0,0,0,0-.724,1.385,1.385,0,0,0-1.255,0" transform="translate(-15.267 -19.045)" fill="#bfacbf"/><path d="M90.015,121.546l-1.773,1.023a.382.382,0,0,0,0,.724,1.383,1.383,0,0,0,1.254,0l1.774-1.023a.382.382,0,0,0,0-.724,1.385,1.385,0,0,0-1.255,0" transform="translate(-14.24 -19.648)" fill="#bfacbf"/><path d="M108.394,115.691l6.636-3.831a.382.382,0,0,0,0-.724,1.383,1.383,0,0,0-1.254,0l-6.636,3.831a.382.382,0,0,0,0,.724,1.385,1.385,0,0,0,1.255,0" transform="translate(-17.298 -17.963)" fill="#bfacbf"/><path d="M101.647,118.462l-3.726,2.152a.382.382,0,0,0,0,.724,1.39,1.39,0,0,0,1.255,0l3.726-2.152a.382.382,0,0,0,0-.724,1.383,1.383,0,0,0-1.254,0" transform="translate(-15.806 -19.148)" fill="#bfacbf"/><path d="M92.831,125.22,94.6,124.2a.382.382,0,0,0,0-.724,1.383,1.383,0,0,0-1.254,0L91.577,124.5a.382.382,0,0,0,0,.724,1.383,1.383,0,0,0,1.254,0" transform="translate(-14.779 -19.959)" fill="#bfacbf"/><path d="M96.247,126.589l7.18-4.146a.382.382,0,0,0,0-.724,1.383,1.383,0,0,0-1.254,0l-7.181,4.145a.382.382,0,0,0,0,.724,1.385,1.385,0,0,0,1.255,0" transform="translate(-15.332 -19.676)" fill="#bfacbf"/><path d="M94.065,91.226l3.017,1.741,3.016-1.741-3.016-1.742Zm5.415,0-2.4,1.385-2.4-1.385,2.4-1.385Z" transform="translate(-15.224 -14.483)" fill="#bfacbf"/><path d="M101.277,95.389l3.017,1.742,3.016-1.742-3.016-1.742Zm5.415,0-2.4,1.385-2.4-1.385,2.4-1.385Z" transform="translate(-16.391 -15.157)" fill="#bfacbf"/><path d="M108.488,99.552l3.017,1.742,3.016-1.742L111.5,97.81Zm5.415,0-2.4,1.385-2.4-1.385,2.4-1.385Z" transform="translate(-17.559 -15.83)" fill="#bfacbf"/><path d="M115.7,103.716l3.017,1.742,3.016-1.742-3.016-1.742Zm5.415,0-2.4,1.385-2.4-1.385,2.4-1.385Z" transform="translate(-18.726 -16.504)" fill="#bfacbf"/><path d="M122.91,107.879l3.017,1.742,3.016-1.742-3.016-1.742Zm5.415,0-2.4,1.385-2.4-1.385,2.4-1.385Z" transform="translate(-19.893 -17.178)" fill="#bfacbf"/></g><g transform="translate(24.384 58.506)"><g clip-path="url(#ac)"><g transform="translate(30.426 1.112)" opacity="0.2" style="mix-blend-mode:screen;isolation:isolate"><g clip-path="url(#m)"><path d="M72.32,94.354c-9.192-5.307-9.241-13.939-.111-19.244s24.035-5.307,33.227,0,9.236,13.937.1,19.244-24.032,5.3-33.22,0" transform="translate(-65.394 -71.13)" fill="#db4dff"/></g></g><g transform="translate(29.393 0.513)" opacity="0.3" style="mix-blend-mode:multiply;isolation:isolate"><g clip-path="url(#ae)"><path d="M138.508,109.936l-23.724-13.7a1.912,1.912,0,0,0-1.732,0l-.14.08-4.978-2.874c7.613-5.573,6.949-13.726-1.97-18.875-9.6-5.54-25.157-5.54-34.69,0s-9.479,14.552.117,20.091c8.889,5.132,22.895,5.5,32.485,1.121l4.984,2.877-.14.08a.528.528,0,0,0,0,1l23.724,13.7a1.912,1.912,0,0,0,1.732,0l4.332-2.5a.528.528,0,0,0,0-1M72.12,94.239c-9.192-5.307-9.241-13.939-.111-19.244s24.035-5.307,33.227,0,9.236,13.937.1,19.244-24.032,5.3-33.22,0" transform="translate(-64.161 -70.416)" fill="#3a0155"/></g></g></g></g><g clip-path="url(#c)"><g transform="translate(53.762 41.304)" style="isolation:isolate"><g clip-path="url(#ag)"><g transform="translate(1.033 0.598)"><g clip-path="url(#ah)"><rect width="46.988" height="20.06" transform="translate(0 -1.327)" fill="url(#ai)"/></g></g><path d="M72.209,57.273c9.132-5.307,24.035-5.307,33.227,0,4.24,2.448,6.53,5.606,6.873,8.818.4-3.772-1.893-7.625-6.873-10.5-9.192-5.306-24.1-5.306-33.227,0-4.915,2.856-7.165,6.676-6.765,10.422.335-3.185,2.585-6.312,6.765-8.741" transform="translate(-64.347 -49.658)" fill="#6c0099"/><g transform="translate(1.048 3.635)" opacity="0.2" style="mix-blend-mode:screen;isolation:isolate"><g clip-path="url(#m)"><g transform="translate(0 0)"><g clip-path="url(#ak)"><rect width="51.592" height="29.856" transform="translate(-2.314 -1.327)" fill="url(#al)"/></g></g></g></g><g transform="translate(0 14.128)"><g clip-path="url(#am)"><rect width="49.055" height="20.722" transform="translate(-0.01 0)" fill="url(#an)"/></g></g><g transform="translate(0.014 0)"><g clip-path="url(#ao)"><rect width="53.861" height="31.169" transform="translate(-2.416 -1.385)" fill="url(#ap)"/></g></g></g></g><path d="M119.428,86.334c0,1.256.882,1.766,1.97,1.137a4.354,4.354,0,0,0,1.97-3.412c0-1.256-.883-1.766-1.97-1.138a4.355,4.355,0,0,0-1.97,3.413" transform="translate(-19.329 -13.377)" fill="#8712ba"/></g><g transform="translate(93.724 65.595)"><g clip-path="url(#aq)"><rect width="12.35" height="12.761" transform="translate(-3.737 6.473) rotate(-60)" fill="url(#ar)"/></g></g><g clip-path="url(#c)"><path d="M147.042,103.685c0,2.139,1.5,3.006,3.354,1.937a7.415,7.415,0,0,0,3.354-5.81c0-1.406-.649-2.262-1.619-2.381a2.845,2.845,0,0,0-1.735.444,7.415,7.415,0,0,0-3.354,5.81" transform="translate(-23.798 -15.767)" fill="#442a44"/><path d="M148.162,94.98,124.193,81.141a2.344,2.344,0,0,0-2.394.222,7.415,7.415,0,0,0-3.354,5.81,2.373,2.373,0,0,0,.961,2.159l23.969,13.839a2.373,2.373,0,0,1-.961-2.159,7.415,7.415,0,0,1,3.354-5.81,2.342,2.342,0,0,1,2.394-.222" transform="translate(-19.17 -13.094)" fill="#563156"/><g transform="translate(123.21 81.58)" style="mix-blend-mode:screen;isolation:isolate"><g clip-path="url(#at)"><g transform="translate(0 0)"><g clip-path="url(#au)"><rect width="5.51" height="6.921" transform="translate(-0.386 -0.583)" fill="url(#av)"/></g></g></g></g><g transform="translate(110.594 91.899)" opacity="0.6" style="mix-blend-mode:multiply;isolation:isolate"><g clip-path="url(#aw)"><path d="M131.95,113.147v3.32l6.067-3.5v-3.321Z" transform="translate(-131.95 -109.645)" fill="#3a0155"/></g></g><g transform="translate(65.588 22.362)" opacity="0.568" style="isolation:isolate"><g clip-path="url(#ax)"><g transform="translate(0 0)"><g clip-path="url(#ay)"><rect width="72.987" height="78.428" transform="translate(-20.781 35.876) rotate(-60)" fill="#9000f9"/></g></g></g></g><path d="M87.221,140.157,43.028,114.546l0-.96L87.219,139.2Z" transform="translate(-6.964 -18.384)" fill="#ce7819"/><rect width="1.175" height="51.078" transform="matrix(0.501, -0.865, 0.865, 0.501, 36.061, 95.202)" fill="#ef9830"/><path d="M87.921,137.89,43.727,112.279l.834-.481,44.193,25.611Z" transform="translate(-7.077 -18.094)" fill="#ffac48"/><path d="M97.082,142.355a3.464,3.464,0,0,1,1.09,1.026c.814,1.045,2.02,2.622,2.02,2.622l-.254.22s-1.758-.448-2.911-.826a6.545,6.545,0,0,1-1.365-.583l-.48-1.236.547-1.041Z" transform="translate(-15.405 -23.04)" fill="#ffd671"/><path d="M100.759,146.228c-.522-.229-.659.321-.376.526l1.306.516Z" transform="translate(-16.223 -23.658)" fill="#442a44"/><path d="M33.419,121.47a.179.179,0,0,0-.282-.11l-.4.3L.888,103.276V76.809l.412-.237a.179.179,0,0,0,.045-.273l-.515-.6a.18.18,0,0,0-.163-.059.177.177,0,0,0-.137.106L.015,76.94a.178.178,0,0,0,.045.2.177.177,0,0,0,.209.022l.261-.15v26.362a.182.182,0,0,0,.09.156l31.8,18.358-.324.24a.18.18,0,0,0,.018.3.173.173,0,0,0,.09.024h1.189a.177.177,0,0,0,.138-.065.179.179,0,0,0,.038-.148Z" transform="translate(0 -12.243)" fill="#ea82f5"/></g><g transform="translate(1.867 71.156)"><g clip-path="url(#az)"><rect width="7.627" height="20.677" transform="translate(0 0)" fill="url(#ba)"/></g></g><g clip-path="url(#c)"><path d="M3.362,82.907a4.975,4.975,0,0,1,2.094-.617,4.827,4.827,0,0,1,3.969,1.173c.757.866.478,1.867-.712,2.553a5.558,5.558,0,0,1-3.283.618A4.128,4.128,0,0,1,2.65,85.46c-.757-.865-.478-1.866.712-2.553" transform="translate(-0.361 -13.314)" fill="#ffacf6"/></g><g transform="translate(8.803 78.449)"><g clip-path="url(#bc)"><rect width="7.626" height="17.387" transform="translate(0 0)" fill="url(#bd)"/></g></g><g clip-path="url(#c)"><path d="M11.636,91.609a4.975,4.975,0,0,1,2.094-.617A4.827,4.827,0,0,1,17.7,92.166c.757.866.477,1.867-.712,2.553a5.558,5.558,0,0,1-3.283.618,4.129,4.129,0,0,1-2.781-1.174c-.757-.865-.478-1.866.712-2.553" transform="translate(-1.7 -14.722)" fill="#ffacf6"/></g><g transform="translate(15.739 85.634)"><g clip-path="url(#bf)"><rect width="7.626" height="14.207" fill="url(#bg)"/></g></g><g clip-path="url(#c)"><path d="M19.911,100.18A4.975,4.975,0,0,1,22,99.563a4.827,4.827,0,0,1,3.969,1.173c.757.866.477,1.867-.712,2.553a5.555,5.555,0,0,1-3.282.618,4.128,4.128,0,0,1-2.781-1.174c-.757-.865-.478-1.866.712-2.553" transform="translate(-3.039 -16.109)" fill="#ffacf6"/></g><g transform="translate(22.782 93.965)"><g clip-path="url(#bi)"><rect width="7.626" height="9.941" fill="url(#bj)"/></g></g><g clip-path="url(#c)"><path d="M28.314,110.121a4.968,4.968,0,0,1,2.094-.617,4.827,4.827,0,0,1,3.969,1.173c.757.866.477,1.867-.712,2.553a5.555,5.555,0,0,1-3.282.618,4.127,4.127,0,0,1-2.781-1.174c-.757-.865-.478-1.866.712-2.553" transform="translate(-4.399 -17.718)" fill="#ffacf6"/></g><g transform="translate(29.824 101.828)"><g clip-path="url(#bl)"><rect width="7.627" height="6.145" fill="url(#bm)"/></g></g><g clip-path="url(#c)"><path d="M36.717,119.5a4.975,4.975,0,0,1,2.094-.617,4.827,4.827,0,0,1,3.969,1.173c.757.866.477,1.867-.712,2.553a5.558,5.558,0,0,1-3.283.618A4.129,4.129,0,0,1,36,122.054c-.757-.865-.478-1.866.712-2.553" transform="translate(-5.759 -19.237)" fill="#ffacf6"/></g><g transform="translate(47.08 108.205)"><g clip-path="url(#bo)"><rect width="21.468" height="19.999" transform="translate(-5.703 3.293) rotate(-30)" fill="url(#bp)"/></g></g><g clip-path="url(#c)"><path d="M67.187,138.647,56.9,132.709c-.616-.355-1.119-.073-1.121.634l0,1.546a2.45,2.45,0,0,0,1.114,1.924l10.283,5.937c.62.358,1.119.074,1.121-.634l0-1.545a2.444,2.444,0,0,0-1.114-1.924" transform="translate(-9.028 -21.454)" fill="#c6a1ce"/></g></g></g></g></svg>