<svg xmlns="http://www.w3.org/2000/svg" xmlns:xlink="http://www.w3.org/1999/xlink" width="141.921" height="122.657" viewBox="0 0 141.921 122.657"><defs><clipPath id="a"><rect width="120.89" height="61.672" fill="#9000f9"/></clipPath><clipPath id="b"><rect width="141.921" height="122.658" transform="translate(0 13)" fill="none"/></clipPath><clipPath id="c"><rect width="159.921" height="135.658" fill="none"/></clipPath><clipPath id="d"><rect width="41.756" height="24.195" fill="none"/></clipPath><clipPath id="e"><path d="M107.71,114.442l-.011,3.951a1.658,1.658,0,0,0,.978,1.367l16.98,9.8a5.162,5.162,0,0,0,4.682,0l16.979-9.875a1.642,1.642,0,0,0,.959-1.345l.012-3.951Z" transform="translate(-107.699 -114.389)" fill="none"/></clipPath><linearGradient id="f" x1="-2.185" y1="2.603" x2="-2.164" y2="2.603" gradientUnits="objectBoundingBox"><stop offset="0" stop-color="#8b3dce"/><stop offset="1" stop-color="#cb89f0"/></linearGradient><clipPath id="h"><path d="M125.5,61.345l.035,40.883a2.75,2.75,0,0,0,1.563,2.242,8.745,8.745,0,0,0,7.938.082,2.848,2.848,0,0,0,1.728-2.357l-.034-40.883Z" transform="translate(-125.496 -61.312)" fill="none"/></clipPath><linearGradient id="i" x1="-9.172" y1="1.914" x2="-9.099" y2="1.914" gradientUnits="objectBoundingBox"><stop offset="0" stop-color="#ef9dd7"/><stop offset="0.538" stop-color="#f6b7e2"/><stop offset="1" stop-color="#fccaeb"/></linearGradient><clipPath id="j"><path d="M129.892,47.051c-3.467,1.947-4.3,7.442-4.4,11.711A2.75,2.75,0,0,0,127.059,61a8.745,8.745,0,0,0,7.939.081,2.85,2.85,0,0,0,1.728-2.356c-.04-5.7-1.574-9.819-4.32-11.6a4.671,4.671,0,0,0-.674-.319,1.93,1.93,0,0,0-.659-.124,2.4,2.4,0,0,0-1.181.368" transform="translate(-125.496 -46.683)" fill="none"/></clipPath><linearGradient id="k" x1="-9.201" y1="6.211" x2="-9.128" y2="6.211" gradientUnits="objectBoundingBox"><stop offset="0" stop-color="#962dcc"/><stop offset="0.237" stop-color="#9d34cf"/><stop offset="0.588" stop-color="#b048d8"/><stop offset="1" stop-color="#d068e8"/></linearGradient><clipPath id="m"><path d="M133.333,51.322c1.093,6.928,2.484,6.234,3.05,3.917a7.519,7.519,0,0,0-1.756-6.653c-.535-.621-.935-.963-1.2-.963-.473,0-.506,1.108-.1,3.7" transform="translate(-133.048 -47.623)" fill="none"/></clipPath><linearGradient id="n" x1="-9.306" y1="12.777" x2="-9.234" y2="12.777" gradientUnits="objectBoundingBox"><stop offset="0" stop-color="#c55de3"/><stop offset="0.129" stop-color="#cf6ae3"/><stop offset="0.492" stop-color="#e98ae4"/><stop offset="0.795" stop-color="#f99ee4"/><stop offset="1" stop-color="#ffa6e5"/></linearGradient><clipPath id="p"><rect width="2.937" height="7.639" fill="none"/></clipPath><clipPath id="q"><path d="M126.578,54.861c-.128,2.012.574,2.33,2.544-4.265,1.588-5.322-2.321.73-2.544,4.265" transform="translate(-126.563 -48.496)" fill="none"/></clipPath><linearGradient id="r" x1="-13.883" y1="4.232" x2="-13.771" y2="4.232" xlink:href="#n"/><clipPath id="s"><rect width="11.229" height="24.583" fill="none"/></clipPath><clipPath id="t"><path d="M135.035,89.2a6.384,6.384,0,0,1-.941.422V68.781a6.3,6.3,0,0,0,.941-.423A2.817,2.817,0,0,0,136.74,66v-.238a2.82,2.82,0,0,1-1.7,2.353,8.747,8.747,0,0,1-7.939-.08,2.783,2.783,0,0,1-1.585-2.243v.24a2.782,2.782,0,0,0,1.585,2.243,8.829,8.829,0,0,0,6.8.567V89.682a8.829,8.829,0,0,1-6.8-.567,2.781,2.781,0,0,1-1.585-2.242v.24a2.781,2.781,0,0,0,1.585,2.242,8.747,8.747,0,0,0,7.939.081,2.819,2.819,0,0,0,1.7-2.356v-.237a2.821,2.821,0,0,1-1.7,2.353" transform="translate(-125.511 -65.765)" fill="none"/></clipPath><linearGradient id="u" x1="-9.202" y1="3.27" x2="-9.129" y2="3.27" gradientUnits="objectBoundingBox"><stop offset="0" stop-color="#cd76b4"/><stop offset="1" stop-color="#e596cf"/></linearGradient><clipPath id="v"><path d="M123.234,126.455l-1.532.889a6.689,6.689,0,0,0,2.267,2.642l1.532-.89a.127.127,0,0,0,.052-.116l0-1.036a.349.349,0,0,0-.032-.139.448.448,0,0,0-.071-.111.332.332,0,0,0-.077-.065l-2.013-1.162a.161.161,0,0,0-.082-.026.1.1,0,0,0-.049.013" transform="translate(-121.702 -126.442)" fill="none"/></clipPath><linearGradient id="w" x1="-19.486" y1="6.351" x2="-19.325" y2="6.351" gradientUnits="objectBoundingBox"><stop offset="0" stop-color="#40243f"/><stop offset="0.201" stop-color="#3d223c"/><stop offset="1" stop-color="#351d35"/></linearGradient><clipPath id="y"><rect width="79.198" height="29.011" fill="none"/></clipPath><clipPath id="z"><rect width="1.713" height="1.042" fill="none"/></clipPath><clipPath id="aa"><rect width="47.839" height="27.753" fill="none"/></clipPath><clipPath id="ab"><rect width="30.851" height="17.971" fill="none"/></clipPath><clipPath id="ac"><path d="M40.5,125.789l0,.939L53.7,134.345a5.373,5.373,0,0,0,4.878,0L70.528,127.4a1.712,1.712,0,0,0,1-1.4l0-.938Z" transform="translate(-40.501 -125.058)" fill="none"/></clipPath><linearGradient id="ad" x1="-1.075" y1="3.243" x2="-1.048" y2="3.243" xlink:href="#f"/><clipPath id="ae"><path d="M40.8,123.7a.172.172,0,0,0,0,.3l12.937,7.47a5.409,5.409,0,0,0,4.891-.007l11.93-6.933c1.344-.781,1.342-2.056,0-2.834l-13.194-7.617Z" transform="translate(-40.712 -114.079)" fill="none"/></clipPath><linearGradient id="af" x1="-1.073" y1="2.296" x2="-1.047" y2="2.296" gradientUnits="objectBoundingBox"><stop offset="0" stop-color="#f5abff"/><stop offset="0.456" stop-color="#ffc5ff"/><stop offset="1" stop-color="#ffdeff"/></linearGradient><clipPath id="ah"><rect width="24.915" height="26.125" fill="none"/></clipPath><clipPath id="ai"><path d="M81.359,26.818,15.752,63.184a1.408,1.408,0,0,0-.631,1.343l7.831,53.454a.655.655,0,0,0,.379.551l.417.163,58.542-91.77-.418-.163a.511.511,0,0,0-.188-.035.677.677,0,0,0-.326.091" transform="translate(-15.11 -26.727)" fill="none"/></clipPath><linearGradient id="aj" x1="0.09" y1="1.164" x2="0.097" y2="1.164" xlink:href="#f"/><clipPath id="al"><path d="M55.524,144.021l0,.942a.565.565,0,0,0,.33.463l11.539,6.662a1.738,1.738,0,0,0,1.586,0L103.032,132.3a.556.556,0,0,0,.328-.456l0-.94Z" transform="translate(-55.521 -130.9)" fill="none"/></clipPath><linearGradient id="am" x1="-0.956" y1="1.3" x2="-0.938" y2="1.3" xlink:href="#f"/><clipPath id="an"><path d="M89.905,122.207,55.85,142a.486.486,0,0,0,0,.919l11.538,6.662a1.733,1.733,0,0,0,1.586,0l34.055-19.79c.44-.255.437-.664,0-.919l-11.538-6.662a1.628,1.628,0,0,0-.8-.19,1.609,1.609,0,0,0-.791.19" transform="translate(-55.525 -122.017)" fill="none"/></clipPath><linearGradient id="ao" x1="-0.949" y1="1.265" x2="-0.932" y2="1.265" xlink:href="#af"/><clipPath id="aq"><path d="M68.032,146.6l-1.6.924a.171.171,0,0,0,0,.324l1.345.777a.623.623,0,0,0,.563,0l1.6-.923a.171.171,0,0,0,0-.324l-1.345-.777a.619.619,0,0,0-.562,0m2.582-1.491-1.6.924a.171.171,0,0,0,0,.324l1.346.777a.628.628,0,0,0,.563,0l1.6-.924a.172.172,0,0,0,0-.325l-1.346-.777a.619.619,0,0,0-.562,0m-4.028-.345-2.433,1.4a.171.171,0,0,0,0,.324l1.346.777a.623.623,0,0,0,.563,0l2.432-1.4a.171.171,0,0,0,0-.324l-1.346-.777a.626.626,0,0,0-.562,0m-3.238-.868-1.6.924a.171.171,0,0,0,0,.324l1.346.777a.621.621,0,0,0,.562,0l1.6-.924a.171.171,0,0,0,0-.324L63.91,143.9a.626.626,0,0,0-.562,0m9.849-.278-1.6.924a.172.172,0,0,0,0,.325l1.345.777a.623.623,0,0,0,.563,0l1.6-.924a.172.172,0,0,0,0-.325l-1.345-.777a.621.621,0,0,0-.563,0m-4.028-.344-1.6.923a.172.172,0,0,0,0,.325l1.346.777a.621.621,0,0,0,.562,0l1.6-.924a.171.171,0,0,0,0-.324l-1.346-.777a.567.567,0,0,0-.281-.068.575.575,0,0,0-.282.068m-3.238-.868-1.6.923a.171.171,0,0,0,0,.324l1.346.777a.623.623,0,0,0,.563,0l1.6-.923a.171.171,0,0,0,0-.324l-1.346-.777a.619.619,0,0,0-.562,0m9.849-.279-1.6.924a.172.172,0,0,0,0,.325l1.346.777a.623.623,0,0,0,.563,0l1.6-.923a.172.172,0,0,0,0-.326l-1.346-.777a.628.628,0,0,0-.563,0m-13.887-.072-2.433,1.4a.172.172,0,0,0,0,.325l1.346.777a.623.623,0,0,0,.563,0l2.433-1.4a.171.171,0,0,0,0-.324l-1.346-.777a.621.621,0,0,0-.563,0m9.859-.273-1.6.923a.171.171,0,0,0,0,.324l1.346.777a.621.621,0,0,0,.562,0l1.6-.924a.171.171,0,0,0,0-.324l-1.346-.777a.619.619,0,0,0-.562,0m-13.1-.6-1.6.924a.172.172,0,0,0,0,.325l1.346.777a.621.621,0,0,0,.562,0l1.6-.924a.172.172,0,0,0,0-.325l-1.346-.777a.619.619,0,0,0-.562,0m9.859-.272-1.6.923a.171.171,0,0,0,0,.324l1.345.777a.628.628,0,0,0,.563,0l1.6-.924a.171.171,0,0,0,0-.324l-1.346-.777a.613.613,0,0,0-.562,0m-4.038-.351-1.6.923a.172.172,0,0,0,0,.325l1.346.777a.621.621,0,0,0,.562,0l1.6-.923a.172.172,0,0,0,0-.325l-1.345-.777a.621.621,0,0,0-.563,0m9.859-.273-1.6.923a.172.172,0,0,0,0,.325l1.346.777a.621.621,0,0,0,.562,0l1.6-.924a.171.171,0,0,0,0-.324l-1.346-.777a.567.567,0,0,0-.281-.068.574.574,0,0,0-.282.068m-13.1-.6-1.6.925a.171.171,0,0,0,0,.324l1.346.777a.621.621,0,0,0,.562,0l1.6-.923a.173.173,0,0,0,0-.326L61.8,139.7a.626.626,0,0,0-.562,0m9.859-.273-1.6.924a.172.172,0,0,0,0,.325l1.346.777a.621.621,0,0,0,.562,0l1.6-.924a.171.171,0,0,0,0-.324l-1.346-.777a.619.619,0,0,0-.562,0m-4.038-.351-1.6.925a.171.171,0,0,0,0,.324l1.345.777a.623.623,0,0,0,.563,0l1.6-.923a.171.171,0,0,0,0-.324l-1.346-.778a.628.628,0,0,0-.563,0m9.859-.272-1.6.924a.171.171,0,0,0,0,.324l1.346.777a.621.621,0,0,0,.562,0l1.6-.923a.172.172,0,0,0,0-.325l-1.346-.777a.619.619,0,0,0-.562,0m-13.1-.6-1.6.924a.171.171,0,0,0,0,.324l1.346.777a.621.621,0,0,0,.562,0l1.6-.923a.172.172,0,0,0,0-.325l-1.346-.777a.619.619,0,0,0-.562,0m9.859-.273-1.6.925a.171.171,0,0,0,0,.324l1.345.777a.623.623,0,0,0,.563,0l1.6-.923a.172.172,0,0,0,0-.326l-1.345-.777a.626.626,0,0,0-.562,0m-4.038-.35-1.6.924a.171.171,0,0,0,0,.324l1.346.777a.621.621,0,0,0,.562,0l1.6-.923a.172.172,0,0,0,0-.325l-1.345-.777a.621.621,0,0,0-.563,0m9.859-.273-1.6.925a.171.171,0,0,0,0,.324l1.346.777a.621.621,0,0,0,.562,0l1.6-.923a.171.171,0,0,0,0-.324l-1.346-.778a.575.575,0,0,0-.281-.067.583.583,0,0,0-.282.067m-13.1-.595-1.6.923a.172.172,0,0,0,0,.325l1.346.777a.621.621,0,0,0,.562,0l1.6-.923a.172.172,0,0,0,0-.325l-1.346-.777a.619.619,0,0,0-.562,0m9.859-.273-1.6.924a.171.171,0,0,0,0,.324l1.346.777a.623.623,0,0,0,.563,0l1.6-.923a.172.172,0,0,0,0-.325l-1.346-.777a.619.619,0,0,0-.562,0m-4.038-.351-1.6.924a.171.171,0,0,0,0,.324l1.345.777a.623.623,0,0,0,.563,0l1.6-.923a.172.172,0,0,0,0-.325l-1.346-.777a.621.621,0,0,0-.563,0m9.859-.273-1.6.924a.171.171,0,0,0,0,.324l1.346.777a.621.621,0,0,0,.562,0l1.6-.923a.172.172,0,0,0,0-.325l-1.346-.777a.619.619,0,0,0-.562,0m-13.1-.6-1.6.923a.172.172,0,0,0,0,.325l1.346.777a.626.626,0,0,0,.562,0l1.6-.924a.172.172,0,0,0,0-.325l-1.346-.777a.619.619,0,0,0-.562,0m9.859-.273-1.6.923a.172.172,0,0,0,0,.325l1.345.777a.623.623,0,0,0,.563,0l1.6-.923a.172.172,0,0,0,0-.325l-1.345-.777a.619.619,0,0,0-.562,0m9.891-.276-11.962,6.906a.172.172,0,0,0,0,.325l1.346.777a.621.621,0,0,0,.562,0l11.962-6.906a.171.171,0,0,0,0-.324l-1.346-.777a.619.619,0,0,0-.562,0m-13.93-.075-1.6.923a.172.172,0,0,0,0,.326l1.346.777a.621.621,0,0,0,.562,0l1.6-.924a.172.172,0,0,0,0-.325L75.37,134.6a.621.621,0,0,0-.563,0m9.859-.273-1.6.924a.171.171,0,0,0,0,.324l1.346.777a.626.626,0,0,0,.562,0l1.6-.924a.172.172,0,0,0,0-.325l-1.346-.777a.567.567,0,0,0-.281-.068.574.574,0,0,0-.282.068m-13.1-.6-1.6.923a.173.173,0,0,0,0,.326l1.346.777a.621.621,0,0,0,.562,0l1.6-.924a.172.172,0,0,0,0-.325l-1.346-.777a.621.621,0,0,0-.563,0m9.859-.273-1.6.923a.172.172,0,0,0,0,.325l1.346.777a.628.628,0,0,0,.563,0l1.6-.924a.172.172,0,0,0,0-.325l-1.346-.777a.619.619,0,0,0-.562,0m-4.038-.351-1.6.924a.172.172,0,0,0,0,.325l1.346.777a.623.623,0,0,0,.563,0l1.6-.923a.172.172,0,0,0,0-.326l-1.346-.777a.626.626,0,0,0-.562,0m9.859-.273-1.6.924a.172.172,0,0,0,0,.325l1.346.777a.621.621,0,0,0,.562,0l1.6-.924a.172.172,0,0,0,0-.325l-1.346-.777a.619.619,0,0,0-.562,0m4.845-.127-2.433,1.4a.171.171,0,0,0,0,.324l1.346.777a.623.623,0,0,0,.563,0l2.433-1.4a.172.172,0,0,0,0-.325l-1.346-.777a.619.619,0,0,0-.562,0m-17.942-.469-1.6.924a.172.172,0,0,0,0,.325l1.346.777a.621.621,0,0,0,.562,0l1.6-.924a.172.172,0,0,0,0-.325l-1.346-.777a.626.626,0,0,0-.562,0m9.859-.273-1.6.923a.172.172,0,0,0,0,.326l1.345.777a.623.623,0,0,0,.563,0l1.6-.924a.172.172,0,0,0,0-.325l-1.345-.777a.619.619,0,0,0-.562,0m-4.038-.351-1.6.924a.172.172,0,0,0,0,.325l1.346.777a.621.621,0,0,0,.562,0l1.6-.923a.172.172,0,0,0,0-.325l-1.346-.777a.626.626,0,0,0-.562,0m9.859-.273-1.6.924a.172.172,0,0,0,0,.325l1.346.777a.623.623,0,0,0,.563,0l1.6-.923a.173.173,0,0,0,0-.326l-1.346-.777a.626.626,0,0,0-.562,0m4.964-.117-1.6.924a.171.171,0,0,0,0,.324l1.346.777a.621.621,0,0,0,.562,0l1.6-.924a.172.172,0,0,0,0-.325l-1.346-.777a.619.619,0,0,0-.562,0m-18.06-.478-1.6.924a.172.172,0,0,0,0,.325l1.346.777a.621.621,0,0,0,.562,0l1.6-.924a.171.171,0,0,0,0-.324l-1.346-.777a.626.626,0,0,0-.562,0m5.82-.623-1.6.923a.172.172,0,0,0,0,.325l1.345.777a.623.623,0,0,0,.563,0l1.6-.923a.172.172,0,0,0,0-.325l-1.346-.777a.619.619,0,0,0-.562,0M87.425,130l-2.433,1.4a.172.172,0,0,0,0,.325l1.346.777a.623.623,0,0,0,.563,0l2.432-1.4a.172.172,0,0,0,0-.326L87.988,130a.628.628,0,0,0-.563,0m5.007-.131-1.6.923a.172.172,0,0,0,0,.325l1.346.777a.621.621,0,0,0,.562,0l1.6-.925a.171.171,0,0,0,0-.324L93,129.867a.619.619,0,0,0-.562,0m4.944-.128-1.6.924a.172.172,0,0,0,0,.325l1.346.777a.623.623,0,0,0,.563,0l1.6-.923a.173.173,0,0,0,0-.326l-1.346-.777a.626.626,0,0,0-.562,0m-18.06-.478-1.6.923a.171.171,0,0,0,0,.324l1.346.777a.621.621,0,0,0,.562,0l1.6-.924a.171.171,0,0,0,0-.324l-1.346-.777a.619.619,0,0,0-.562,0m5.821-.623-1.6.923a.172.172,0,0,0,0,.325l1.346.777a.621.621,0,0,0,.562,0l1.6-.924a.171.171,0,0,0,0-.324l-1.346-.777a.619.619,0,0,0-.562,0m9.878-.262-1.6.923a.173.173,0,0,0,0,.326l1.346.777a.621.621,0,0,0,.562,0l1.6-.925a.171.171,0,0,0,0-.324l-1.346-.777a.619.619,0,0,0-.562,0m4.944-.128-1.6.924a.172.172,0,0,0,0,.325l1.346.777a.621.621,0,0,0,.562,0l1.6-.923a.172.172,0,0,0,0-.325l-1.346-.777a.626.626,0,0,0-.562,0m-17.229-.959-2.433,1.4a.171.171,0,0,0,0,.324l1.346.778a.628.628,0,0,0,.563,0l2.433-1.4a.172.172,0,0,0,0-.325l-1.346-.777a.621.621,0,0,0-.563,0m14.867-.4-1.6.924a.171.171,0,0,0,0,.324l1.346.777a.621.621,0,0,0,.562,0l1.6-.924a.172.172,0,0,0,0-.325l-1.346-.777a.626.626,0,0,0-.562,0m-12.235-1.1-1.6.924a.171.171,0,0,0,0,.324l1.346.777a.623.623,0,0,0,.563,0l1.6-.923a.172.172,0,0,0,0-.325l-1.346-.777a.619.619,0,0,0-.562,0m9.936-.351-2.259,1.286a.439.439,0,0,1-.393,0L90.876,125.7a.769.769,0,0,0-.7,0l-4.053,2.34a.213.213,0,0,0,0,.4l3.533,2.04a.769.769,0,0,0,.7,0l6.724-3.882a.213.213,0,0,0,0-.4l-1.314-.759a.478.478,0,0,0-.233-.056.489.489,0,0,0-.233.055m-7.353-1.141-1.6.923a.172.172,0,0,0,0,.325l1.345.777a.628.628,0,0,0,.563,0l1.6-.924a.172.172,0,0,0,0-.325l-1.345-.777a.575.575,0,0,0-.282-.068.567.567,0,0,0-.281.068m4.937-.131-1.6.923a.172.172,0,0,0,0,.325l1.346.777a.623.623,0,0,0,.563,0l1.6-.924a.171.171,0,0,0,0-.324l-1.346-.777a.619.619,0,0,0-.562,0m-2.355-1.36-1.6.924a.172.172,0,0,0,0,.325l1.346.777a.623.623,0,0,0,.563,0l1.6-.924a.172.172,0,0,0,0-.325l-1.346-.777a.619.619,0,0,0-.562,0" transform="translate(-56.938 -122.735)" fill="none"/></clipPath><linearGradient id="ar" x1="-1.038" y1="1.331" x2="-1.02" y2="1.331" gradientUnits="objectBoundingBox"><stop offset="0" stop-color="#ffc5ff"/><stop offset="1" stop-color="#ffdeff"/></linearGradient><clipPath id="at"><rect width="72.599" height="90.07" fill="none"/></clipPath><clipPath id="au"><rect width="65.127" height="74.26" fill="none"/></clipPath><clipPath id="av"><rect width="26.096" height="18.668" fill="none"/></clipPath><clipPath id="aw"><path d="M55.021,42.16l-3.158,2.428,2.246,1.341-.465,3.915,2.866-3.291L56.5,38.039Z" transform="translate(-51.863 -38.039)" fill="none"/></clipPath><linearGradient id="ax" x1="-3.089" y1="10.409" x2="-3.023" y2="10.409" gradientUnits="objectBoundingBox"><stop offset="0" stop-color="#ffac3d"/><stop offset="1" stop-color="#ffbf44"/></linearGradient><clipPath id="az"><path d="M50.288,45.256l.808.469,3.728-2.866-.809-.47Z" transform="translate(-50.288 -42.389)" fill="none"/></clipPath><linearGradient id="ba" x1="-7.969" y1="18.205" x2="-7.809" y2="18.205" gradientUnits="objectBoundingBox"><stop offset="0" stop-color="#ff98ff"/><stop offset="1" stop-color="#ffaff5"/></linearGradient><clipPath id="bc"><path d="M26.982,58.348l-3.159,2.428,2.247,1.341L25.6,66.033l2.866-3.291,2.871-.009-.473-3.375,2.239-3.921-2.81,1.4-.348-.2-1.487-2.414Z" transform="translate(-23.823 -54.227)" fill="none"/></clipPath><linearGradient id="bd" x1="-1.132" y1="6.603" x2="-1.076" y2="6.603" xlink:href="#ax"/><clipPath id="bf"><path d="M22.248,61.444l.809.47,3.729-2.867-.809-.469Z" transform="translate(-22.248 -58.578)" fill="none"/></clipPath><linearGradient id="bg" x1="-3.491" y1="15.819" x2="-3.332" y2="15.819" xlink:href="#ba"/><clipPath id="bi"><path d="M41,50.254l-3.16,2.429,2.247,1.341-.465,3.915,2.866-3.291,2.871-.009-.473-3.375,2.239-3.921-2.811,1.4-.347-.2-1.487-2.414Z" transform="translate(-37.843 -46.133)" fill="none"/></clipPath><linearGradient id="bj" x1="-1.908" y1="7.081" x2="-1.853" y2="7.081" xlink:href="#ax"/><clipPath id="bl"><path d="M36.269,53.349l.809.47,3.728-2.866L40,50.483Z" transform="translate(-36.269 -50.483)" fill="none"/></clipPath><linearGradient id="bm" x1="-5.73" y1="17.012" x2="-5.571" y2="17.012" xlink:href="#ba"/><clipPath id="bo"><path d="M12.965,66.441,9.805,68.87l2.247,1.341-.465,3.915,2.866-3.291,2.871-.009-.473-3.375,2.239-3.921-2.81,1.4-.348-.2L14.444,62.32Z" transform="translate(-9.805 -62.32)" fill="none"/></clipPath><linearGradient id="bp" x1="-0.355" y1="6.125" x2="-0.3" y2="6.125" xlink:href="#ax"/><clipPath id="br"><path d="M8.231,69.537l.809.469,3.728-2.866-.809-.469Z" transform="translate(-8.231 -66.671)" fill="none"/></clipPath><linearGradient id="bs" x1="-1.254" y1="14.631" x2="-1.094" y2="14.631" xlink:href="#ba"/><clipPath id="bu"><rect width="14.018" height="16.516" fill="none"/></clipPath></defs><g transform="translate(15522.018 8401.918)"><g transform="translate(-15891.826 -10997.744)"><g transform="translate(386.301 2597.461)" clip-path="url(#a)"><path d="M57.56,90.884A33.324,33.324,0,1,1,90.884,57.56,33.362,33.362,0,0,1,57.56,90.884m0,24.236A57.56,57.56,0,1,0,0,57.56,57.56,57.56,0,0,0,57.56,115.12Z" transform="translate(2.497 4.113)" fill="#91b3fa"/></g><g transform="translate(430.653 2627.309)"><path d="M38.27,0A38.27,38.27,0,1,1,0,38.27,38.27,38.27,0,0,1,38.27,0Z" transform="translate(0 0)" fill="#31313c" opacity="0.444" style="mix-blend-mode:multiply;isolation:isolate"/><g transform="translate(14.942 15.821)"><path d="M415.253,50.721a.52.52,0,1,1-.52-.5A.509.509,0,0,1,415.253,50.721Z" transform="translate(-414.214 -50.224)" fill="#fff"/><path d="M423.7,50.721a.52.52,0,1,1-.519-.5A.509.509,0,0,1,423.7,50.721Z" transform="translate(-417.983 -50.224)" fill="#fff"/><path d="M432.145,50.721a.52.52,0,1,1-.519-.5A.509.509,0,0,1,432.145,50.721Z" transform="translate(-421.752 -50.224)" fill="#fff"/><path d="M440.592,50.721a.52.52,0,1,1-.52-.5A.509.509,0,0,1,440.592,50.721Z" transform="translate(-425.522 -50.224)" fill="#fff"/><path d="M449.038,50.721a.52.52,0,1,1-.519-.5A.509.509,0,0,1,449.038,50.721Z" transform="translate(-429.292 -50.224)" fill="#fff"/><path d="M457.484,50.721a.52.52,0,1,1-.519-.5A.508.508,0,0,1,457.484,50.721Z" transform="translate(-433.061 -50.224)" fill="#fff"/><path d="M465.931,50.721a.52.52,0,1,1-.52-.5A.509.509,0,0,1,465.931,50.721Z" transform="translate(-436.831 -50.224)" fill="#fff"/><path d="M474.377,50.721a.52.52,0,1,1-.519-.5A.508.508,0,0,1,474.377,50.721Z" transform="translate(-440.6 -50.224)" fill="#fff"/><path d="M482.823,50.721a.52.52,0,1,1-.519-.5A.509.509,0,0,1,482.823,50.721Z" transform="translate(-444.369 -50.224)" fill="#fff"/><path d="M491.27,50.721a.52.52,0,1,1-.52-.5A.509.509,0,0,1,491.27,50.721Z" transform="translate(-448.139 -50.224)" fill="#fff"/><path d="M499.716,50.721a.52.52,0,1,1-.52-.5A.509.509,0,0,1,499.716,50.721Z" transform="translate(-451.908 -50.224)" fill="#fff"/><g transform="translate(0 3.976)"><path d="M415.253,58.229a.52.52,0,1,1-.52-.5A.509.509,0,0,1,415.253,58.229Z" transform="translate(-414.214 -57.732)" fill="#fff"/><path d="M423.7,58.229a.52.52,0,1,1-.519-.5A.509.509,0,0,1,423.7,58.229Z" transform="translate(-417.983 -57.732)" fill="#fff"/><path d="M432.145,58.229a.52.52,0,1,1-.519-.5A.509.509,0,0,1,432.145,58.229Z" transform="translate(-421.752 -57.732)" fill="#fff"/><path d="M440.592,58.229a.52.52,0,1,1-.52-.5A.509.509,0,0,1,440.592,58.229Z" transform="translate(-425.522 -57.732)" fill="#fff"/><path d="M449.038,58.229a.52.52,0,1,1-.519-.5A.509.509,0,0,1,449.038,58.229Z" transform="translate(-429.292 -57.732)" fill="#fff"/><path d="M457.484,58.229a.52.52,0,1,1-.519-.5A.508.508,0,0,1,457.484,58.229Z" transform="translate(-433.061 -57.732)" fill="#fff"/><path d="M465.931,58.229a.52.52,0,1,1-.52-.5A.509.509,0,0,1,465.931,58.229Z" transform="translate(-436.831 -57.732)" fill="#fff"/><path d="M474.377,58.229a.52.52,0,1,1-.519-.5A.508.508,0,0,1,474.377,58.229Z" transform="translate(-440.6 -57.732)" fill="#fff"/><path d="M482.823,58.229a.52.52,0,1,1-.519-.5A.509.509,0,0,1,482.823,58.229Z" transform="translate(-444.369 -57.732)" fill="#fff"/><path d="M491.27,58.229a.52.52,0,1,1-.52-.5A.509.509,0,0,1,491.27,58.229Z" transform="translate(-448.139 -57.732)" fill="#fff"/><path d="M499.716,58.229a.52.52,0,1,1-.52-.5A.509.509,0,0,1,499.716,58.229Z" transform="translate(-451.908 -57.732)" fill="#fff"/></g><g transform="translate(0 7.951)"><ellipse cx="0.52" cy="0.497" rx="0.52" ry="0.497" fill="#fff"/><path d="M423.7,65.737a.52.52,0,1,1-.519-.5A.509.509,0,0,1,423.7,65.737Z" transform="translate(-417.983 -65.24)" fill="#fff"/><ellipse cx="0.52" cy="0.497" rx="0.52" ry="0.497" transform="translate(9.354)" fill="#fff"/><path d="M440.592,65.737a.52.52,0,1,1-.52-.5A.509.509,0,0,1,440.592,65.737Z" transform="translate(-425.522 -65.24)" fill="#fff"/><path d="M449.038,65.737a.52.52,0,1,1-.519-.5A.509.509,0,0,1,449.038,65.737Z" transform="translate(-429.292 -65.24)" fill="#fff"/><ellipse cx="0.52" cy="0.497" rx="0.52" ry="0.497" transform="translate(23.384)" fill="#fff"/><path d="M465.931,65.737a.52.52,0,1,1-.52-.5A.509.509,0,0,1,465.931,65.737Z" transform="translate(-436.831 -65.24)" fill="#fff"/><ellipse cx="0.52" cy="0.497" rx="0.52" ry="0.497" transform="translate(32.738)" fill="#fff"/><ellipse cx="0.52" cy="0.497" rx="0.52" ry="0.497" transform="translate(37.415)" fill="#fff"/><path d="M491.27,65.737a.52.52,0,1,1-.52-.5A.509.509,0,0,1,491.27,65.737Z" transform="translate(-448.139 -65.24)" fill="#fff"/><path d="M499.716,65.737a.52.52,0,1,1-.52-.5A.509.509,0,0,1,499.716,65.737Z" transform="translate(-451.908 -65.24)" fill="#fff"/></g><g transform="translate(0 11.927)"><ellipse cx="0.52" cy="0.497" rx="0.52" ry="0.497" transform="translate(0 0)" fill="#fff"/><path d="M423.7,73.244a.52.52,0,1,1-.519-.5A.508.508,0,0,1,423.7,73.244Z" transform="translate(-417.983 -72.747)" fill="#fff"/><ellipse cx="0.52" cy="0.497" rx="0.52" ry="0.497" transform="translate(9.354 0)" fill="#fff"/><path d="M440.592,73.244a.52.52,0,1,1-.52-.5A.509.509,0,0,1,440.592,73.244Z" transform="translate(-425.522 -72.747)" fill="#fff"/><path d="M449.038,73.244a.52.52,0,1,1-.519-.5A.509.509,0,0,1,449.038,73.244Z" transform="translate(-429.292 -72.747)" fill="#fff"/><ellipse cx="0.52" cy="0.497" rx="0.52" ry="0.497" transform="translate(23.384 0)" fill="#fff"/><path d="M465.931,73.244a.52.52,0,1,1-.52-.5A.509.509,0,0,1,465.931,73.244Z" transform="translate(-436.831 -72.747)" fill="#fff"/><ellipse cx="0.52" cy="0.497" rx="0.52" ry="0.497" transform="translate(32.738 0)" fill="#fff"/><ellipse cx="0.52" cy="0.497" rx="0.52" ry="0.497" transform="translate(37.415 0)" fill="#fff"/><path d="M491.27,73.244a.52.52,0,1,1-.52-.5A.509.509,0,0,1,491.27,73.244Z" transform="translate(-448.139 -72.747)" fill="#fff"/><path d="M499.716,73.244a.52.52,0,1,1-.52-.5A.509.509,0,0,1,499.716,73.244Z" transform="translate(-451.908 -72.747)" fill="#fff"/></g><g transform="translate(0 15.902)"><path d="M415.253,80.752a.52.52,0,1,1-.52-.5A.509.509,0,0,1,415.253,80.752Z" transform="translate(-414.214 -80.255)" fill="#fff"/><path d="M423.7,80.752a.52.52,0,1,1-.519-.5A.508.508,0,0,1,423.7,80.752Z" transform="translate(-417.983 -80.255)" fill="#fff"/><path d="M432.145,80.752a.52.52,0,1,1-.519-.5A.508.508,0,0,1,432.145,80.752Z" transform="translate(-421.752 -80.255)" fill="#fff"/><path d="M440.592,80.752a.52.52,0,1,1-.52-.5A.509.509,0,0,1,440.592,80.752Z" transform="translate(-425.522 -80.255)" fill="#fff"/><path d="M449.038,80.752a.52.52,0,1,1-.519-.5A.509.509,0,0,1,449.038,80.752Z" transform="translate(-429.292 -80.255)" fill="#fff"/><path d="M457.484,80.752a.52.52,0,1,1-.519-.5A.508.508,0,0,1,457.484,80.752Z" transform="translate(-433.061 -80.255)" fill="#fff"/><path d="M465.931,80.752a.52.52,0,1,1-.52-.5A.509.509,0,0,1,465.931,80.752Z" transform="translate(-436.831 -80.255)" fill="#fff"/><path d="M474.377,80.752a.52.52,0,1,1-.519-.5A.508.508,0,0,1,474.377,80.752Z" transform="translate(-440.6 -80.255)" fill="#fff"/><path d="M482.823,80.752a.52.52,0,1,1-.519-.5A.509.509,0,0,1,482.823,80.752Z" transform="translate(-444.369 -80.255)" fill="#fff"/><path d="M491.27,80.752a.52.52,0,1,1-.52-.5A.509.509,0,0,1,491.27,80.752Z" transform="translate(-448.139 -80.255)" fill="#fff"/><path d="M499.716,80.752a.52.52,0,1,1-.52-.5A.509.509,0,0,1,499.716,80.752Z" transform="translate(-451.908 -80.255)" fill="#fff"/></g><g transform="translate(0 19.878)"><ellipse cx="0.52" cy="0.497" rx="0.52" ry="0.497" transform="translate(0 0)" fill="#fff"/><path d="M423.7,88.26a.52.52,0,1,1-.519-.5A.508.508,0,0,1,423.7,88.26Z" transform="translate(-417.983 -87.763)" fill="#fff"/><ellipse cx="0.52" cy="0.497" rx="0.52" ry="0.497" transform="translate(9.354 0)" fill="#fff"/><path d="M440.592,88.26a.52.52,0,1,1-.52-.5A.509.509,0,0,1,440.592,88.26Z" transform="translate(-425.522 -87.763)" fill="#fff"/><path d="M449.038,88.26a.52.52,0,1,1-.519-.5A.509.509,0,0,1,449.038,88.26Z" transform="translate(-429.292 -87.763)" fill="#fff"/><ellipse cx="0.52" cy="0.497" rx="0.52" ry="0.497" transform="translate(23.384 0)" fill="#fff"/><path d="M465.931,88.26a.52.52,0,1,1-.52-.5A.509.509,0,0,1,465.931,88.26Z" transform="translate(-436.831 -87.763)" fill="#fff"/><ellipse cx="0.52" cy="0.497" rx="0.52" ry="0.497" transform="translate(32.738 0)" fill="#fff"/><ellipse cx="0.52" cy="0.497" rx="0.52" ry="0.497" transform="translate(37.415 0)" fill="#fff"/><path d="M491.27,88.26a.52.52,0,1,1-.52-.5A.509.509,0,0,1,491.27,88.26Z" transform="translate(-448.139 -87.763)" fill="#fff"/><path d="M499.716,88.26a.52.52,0,1,1-.52-.5A.509.509,0,0,1,499.716,88.26Z" transform="translate(-451.908 -87.763)" fill="#fff"/></g><g transform="translate(0 23.854)"><ellipse cx="0.52" cy="0.497" rx="0.52" ry="0.497" fill="#fff"/><path d="M423.7,95.768a.52.52,0,1,1-.519-.5A.509.509,0,0,1,423.7,95.768Z" transform="translate(-417.983 -95.271)" fill="#fff"/><ellipse cx="0.52" cy="0.497" rx="0.52" ry="0.497" transform="translate(9.354)" fill="#fff"/><path d="M440.592,95.768a.52.52,0,1,1-.52-.5A.509.509,0,0,1,440.592,95.768Z" transform="translate(-425.522 -95.271)" fill="#fff"/><path d="M449.038,95.768a.52.52,0,1,1-.519-.5A.509.509,0,0,1,449.038,95.768Z" transform="translate(-429.292 -95.271)" fill="#fff"/><ellipse cx="0.52" cy="0.497" rx="0.52" ry="0.497" transform="translate(23.384)" fill="#fff"/><path d="M465.931,95.768a.52.52,0,1,1-.52-.5A.509.509,0,0,1,465.931,95.768Z" transform="translate(-436.831 -95.271)" fill="#fff"/><ellipse cx="0.52" cy="0.497" rx="0.52" ry="0.497" transform="translate(32.738)" fill="#fff"/><ellipse cx="0.52" cy="0.497" rx="0.52" ry="0.497" transform="translate(37.415)" fill="#fff"/><path d="M491.27,95.768a.52.52,0,1,1-.52-.5A.509.509,0,0,1,491.27,95.768Z" transform="translate(-448.139 -95.271)" fill="#fff"/><path d="M499.716,95.768a.52.52,0,1,1-.52-.5A.509.509,0,0,1,499.716,95.768Z" transform="translate(-451.908 -95.271)" fill="#fff"/></g><g transform="translate(0 27.83)"><path d="M415.253,103.276a.52.52,0,1,1-.52-.5A.509.509,0,0,1,415.253,103.276Z" transform="translate(-414.214 -102.779)" fill="#fff"/><path d="M423.7,103.276a.52.52,0,1,1-.519-.5A.509.509,0,0,1,423.7,103.276Z" transform="translate(-417.983 -102.779)" fill="#fff"/><path d="M432.145,103.276a.52.52,0,1,1-.519-.5A.509.509,0,0,1,432.145,103.276Z" transform="translate(-421.752 -102.779)" fill="#fff"/><path d="M440.592,103.276a.52.52,0,1,1-.52-.5A.509.509,0,0,1,440.592,103.276Z" transform="translate(-425.522 -102.779)" fill="#fff"/><path d="M449.038,103.276a.52.52,0,1,1-.519-.5A.509.509,0,0,1,449.038,103.276Z" transform="translate(-429.292 -102.779)" fill="#fff"/><path d="M457.484,103.276a.52.52,0,1,1-.519-.5A.508.508,0,0,1,457.484,103.276Z" transform="translate(-433.061 -102.779)" fill="#fff"/><path d="M465.931,103.276a.52.52,0,1,1-.52-.5A.509.509,0,0,1,465.931,103.276Z" transform="translate(-436.831 -102.779)" fill="#fff"/><path d="M474.377,103.276a.52.52,0,1,1-.519-.5A.508.508,0,0,1,474.377,103.276Z" transform="translate(-440.6 -102.779)" fill="#fff"/><path d="M482.823,103.276a.52.52,0,1,1-.519-.5A.509.509,0,0,1,482.823,103.276Z" transform="translate(-444.369 -102.779)" fill="#fff"/><path d="M491.27,103.276a.52.52,0,1,1-.52-.5A.509.509,0,0,1,491.27,103.276Z" transform="translate(-448.139 -102.779)" fill="#fff"/><path d="M499.716,103.276a.52.52,0,1,1-.52-.5A.509.509,0,0,1,499.716,103.276Z" transform="translate(-451.908 -102.779)" fill="#fff"/></g><g transform="translate(0 31.805)"><ellipse cx="0.52" cy="0.497" rx="0.52" ry="0.497" fill="#fff"/><path d="M423.7,110.784a.52.52,0,1,1-.519-.5A.509.509,0,0,1,423.7,110.784Z" transform="translate(-417.983 -110.287)" fill="#fff"/><ellipse cx="0.52" cy="0.497" rx="0.52" ry="0.497" transform="translate(9.354)" fill="#fff"/><path d="M440.592,110.784a.52.52,0,1,1-.52-.5A.509.509,0,0,1,440.592,110.784Z" transform="translate(-425.522 -110.287)" fill="#fff"/><path d="M449.038,110.784a.52.52,0,1,1-.519-.5A.509.509,0,0,1,449.038,110.784Z" transform="translate(-429.292 -110.287)" fill="#fff"/><ellipse cx="0.52" cy="0.497" rx="0.52" ry="0.497" transform="translate(23.384)" fill="#fff"/><path d="M465.931,110.784a.52.52,0,1,1-.52-.5A.509.509,0,0,1,465.931,110.784Z" transform="translate(-436.831 -110.287)" fill="#fff"/><ellipse cx="0.52" cy="0.497" rx="0.52" ry="0.497" transform="translate(32.738)" fill="#fff"/><ellipse cx="0.52" cy="0.497" rx="0.52" ry="0.497" transform="translate(37.415)" fill="#fff"/><path d="M491.27,110.784a.52.52,0,1,1-.52-.5A.509.509,0,0,1,491.27,110.784Z" transform="translate(-448.139 -110.287)" fill="#fff"/><path d="M499.716,110.784a.52.52,0,1,1-.52-.5A.509.509,0,0,1,499.716,110.784Z" transform="translate(-451.908 -110.287)" fill="#fff"/></g><g transform="translate(0 35.781)"><path d="M415.253,118.291a.52.52,0,1,1-.52-.5A.509.509,0,0,1,415.253,118.291Z" transform="translate(-414.214 -117.794)" fill="#fff"/><path d="M423.7,118.291a.52.52,0,1,1-.519-.5A.509.509,0,0,1,423.7,118.291Z" transform="translate(-417.983 -117.794)" fill="#fff"/><path d="M432.145,118.291a.52.52,0,1,1-.519-.5A.509.509,0,0,1,432.145,118.291Z" transform="translate(-421.752 -117.794)" fill="#fff"/><path d="M440.592,118.291a.52.52,0,1,1-.52-.5A.509.509,0,0,1,440.592,118.291Z" transform="translate(-425.522 -117.794)" fill="#fff"/><path d="M449.038,118.291a.52.52,0,1,1-.519-.5A.509.509,0,0,1,449.038,118.291Z" transform="translate(-429.292 -117.794)" fill="#fff"/><path d="M457.484,118.291a.52.52,0,1,1-.519-.5A.509.509,0,0,1,457.484,118.291Z" transform="translate(-433.061 -117.794)" fill="#fff"/><path d="M465.931,118.291a.52.52,0,1,1-.52-.5A.509.509,0,0,1,465.931,118.291Z" transform="translate(-436.831 -117.794)" fill="#fff"/><path d="M474.377,118.291a.52.52,0,1,1-.519-.5A.509.509,0,0,1,474.377,118.291Z" transform="translate(-440.6 -117.794)" fill="#fff"/><path d="M482.823,118.291a.52.52,0,1,1-.519-.5A.509.509,0,0,1,482.823,118.291Z" transform="translate(-444.369 -117.794)" fill="#fff"/><path d="M491.27,118.291a.52.52,0,1,1-.52-.5A.509.509,0,0,1,491.27,118.291Z" transform="translate(-448.139 -117.794)" fill="#fff"/><path d="M499.716,118.291a.52.52,0,1,1-.52-.5A.509.509,0,0,1,499.716,118.291Z" transform="translate(-451.908 -117.794)" fill="#fff"/></g><g transform="translate(0 39.756)"><ellipse cx="0.52" cy="0.497" rx="0.52" ry="0.497" transform="translate(0 0)" fill="#fff"/><path d="M423.7,125.8a.52.52,0,1,1-.519-.5A.508.508,0,0,1,423.7,125.8Z" transform="translate(-417.983 -125.302)" fill="#fff"/><ellipse cx="0.52" cy="0.497" rx="0.52" ry="0.497" transform="translate(9.354 0)" fill="#fff"/><path d="M440.592,125.8a.52.52,0,1,1-.52-.5A.509.509,0,0,1,440.592,125.8Z" transform="translate(-425.522 -125.302)" fill="#fff"/><path d="M449.038,125.8a.52.52,0,1,1-.519-.5A.509.509,0,0,1,449.038,125.8Z" transform="translate(-429.292 -125.302)" fill="#fff"/><ellipse cx="0.52" cy="0.497" rx="0.52" ry="0.497" transform="translate(23.384 0)" fill="#fff"/><path d="M465.931,125.8a.52.52,0,1,1-.52-.5A.509.509,0,0,1,465.931,125.8Z" transform="translate(-436.831 -125.302)" fill="#fff"/><ellipse cx="0.52" cy="0.497" rx="0.52" ry="0.497" transform="translate(32.738 0)" fill="#fff"/><ellipse cx="0.52" cy="0.497" rx="0.52" ry="0.497" transform="translate(37.415 0)" fill="#fff"/><path d="M491.27,125.8a.52.52,0,1,1-.52-.5A.509.509,0,0,1,491.27,125.8Z" transform="translate(-448.139 -125.302)" fill="#fff"/><path d="M499.716,125.8a.52.52,0,1,1-.52-.5A.509.509,0,0,1,499.716,125.8Z" transform="translate(-451.908 -125.302)" fill="#fff"/></g><g transform="translate(0 43.732)"><ellipse cx="0.52" cy="0.497" rx="0.52" ry="0.497" transform="translate(0 0)" fill="#fff"/><path d="M423.7,133.307a.52.52,0,1,1-.519-.5A.508.508,0,0,1,423.7,133.307Z" transform="translate(-417.983 -132.81)" fill="#fff"/><ellipse cx="0.52" cy="0.497" rx="0.52" ry="0.497" transform="translate(9.354 0)" fill="#fff"/><path d="M440.592,133.307a.52.52,0,1,1-.52-.5A.509.509,0,0,1,440.592,133.307Z" transform="translate(-425.522 -132.81)" fill="#fff"/><path d="M449.038,133.307a.52.52,0,1,1-.519-.5A.509.509,0,0,1,449.038,133.307Z" transform="translate(-429.292 -132.81)" fill="#fff"/><ellipse cx="0.52" cy="0.497" rx="0.52" ry="0.497" transform="translate(23.384 0)" fill="#fff"/><path d="M465.931,133.307a.52.52,0,1,1-.52-.5A.509.509,0,0,1,465.931,133.307Z" transform="translate(-436.831 -132.81)" fill="#fff"/><ellipse cx="0.52" cy="0.497" rx="0.52" ry="0.497" transform="translate(32.738 0)" fill="#fff"/><ellipse cx="0.52" cy="0.497" rx="0.52" ry="0.497" transform="translate(37.415 0)" fill="#fff"/><path d="M491.27,133.307a.52.52,0,1,1-.52-.5A.509.509,0,0,1,491.27,133.307Z" transform="translate(-448.139 -132.81)" fill="#fff"/><path d="M499.716,133.307a.52.52,0,1,1-.52-.5A.509.509,0,0,1,499.716,133.307Z" transform="translate(-451.908 -132.81)" fill="#fff"/></g></g></g></g><g transform="translate(-15522.018 -8414.918)"><g clip-path="url(#b)"><g clip-path="url(#c)"><g transform="translate(88.109 86.275)" opacity="0.6" style="mix-blend-mode:multiply;isolation:isolate"><g clip-path="url(#d)"><path d="M147.75,115.437,130.278,105.35a5.31,5.31,0,0,0-4.817,0l-17.472,10.162c-1.327.772-1.32,2.022.016,2.793l17.472,10.087a5.31,5.31,0,0,0,4.817,0l17.471-10.162c1.323-.769,1.317-2.019-.016-2.788" transform="translate(-106.998 -104.77)" fill="#3a0155"/></g></g></g><g transform="translate(88.686 94.195)"><g clip-path="url(#e)"><rect width="40.593" height="15.921" transform="translate(-0.002 0)" fill="url(#f)"/></g></g><g clip-path="url(#c)"><path d="M147.317,110.51l-16.98-9.8a5.158,5.158,0,0,0-4.681,0l-16.98,9.876c-1.29.749-1.283,1.964.016,2.714l16.98,9.8a5.163,5.163,0,0,0,4.681,0l16.979-9.876c1.286-.747,1.28-1.961-.015-2.709" transform="translate(-19.015 -17.679)" fill="#3b223a"/><path d="M134.768,111.213l6.656-3.843-1.858-1.073-6.557,3.785a9.393,9.393,0,0,0-6.423-.08l-6.418-3.706-1.858,1.073,6.449,3.724a2.236,2.236,0,0,0,.235,3.617l-6.684,3.859,1.858,1.073,6.808-3.93a9.51,9.51,0,0,0,5.668-.066l6.922,4,1.858-1.073-6.878-3.971a2.2,2.2,0,0,0,.222-3.385" transform="translate(-20.886 -18.765)" fill="#2a182a"/><path d="M141.091,106.377l-1.037-.6.791,2.357,1.037.6Z" transform="translate(-24.725 -18.673)" fill="#d068e8"/><path d="M136.852,91.968l-1.037-.6v13.88l1.037.6Z" transform="translate(-23.976 -16.129)" fill="#5c3b53"/><path d="M144.324,104.6l-2.206-7.994L137.075,92.1v13.88l3.49-2.015.791,2.356Z" transform="translate(-24.199 -16.258)" fill="#d068e8"/><path d="M123.206,106.377l1.037-.6-.791,2.357-1.037.6Z" transform="translate(-21.611 -18.673)" fill="#d068e8"/><path d="M127.614,91.968l1.037-.6v13.88l-1.037.6Z" transform="translate(-22.528 -16.129)" fill="#5c3b53"/><path d="M118.811,104.6l2.206-7.994,5.044-4.513v13.88l-3.49-2.015-.791,2.356Z" transform="translate(-20.974 -16.258)" fill="#962dcc"/><path d="M126.121,112.587l1.119,1.46a3,3,0,0,0,.848.729,6.849,6.849,0,0,0,6.216.063,3.138,3.138,0,0,0,.982-.814l1.111-1.467Z" transform="translate(-22.265 -19.871)" fill="#351d35"/></g><g transform="translate(103.341 50.488)"><g clip-path="url(#h)"><rect width="11.267" height="44.487" transform="translate(0 0)" fill="url(#i)"/></g></g><g transform="translate(103.341 38.442)"><g clip-path="url(#j)"><rect width="11.231" height="15.65" transform="translate(0 0)" fill="url(#k)"/></g></g><g clip-path="url(#c)"><path d="M141.91,109.239l1.037-.6,2.231,10.556-1.037.6Z" transform="translate(-25.052 -19.178)" fill="#d068e8"/><path d="M135.836,96.715l1.037-.6,5,10.313-1.037.6Z" transform="translate(-23.98 -16.967)" fill="#ffa1fb"/><path d="M140.838,107.157l2.231,10.555L140.1,116l-.774-3.259-3.49-2.015V96.844Z" transform="translate(-23.98 -17.096)" fill="#962dcc"/><path d="M122.079,109.239l-1.037-.6-2.231,10.556,1.037.6Z" transform="translate(-20.974 -19.178)" fill="#962dcc"/><path d="M127.558,96.715l-1.037-.6-5,10.313,1.037.6Z" transform="translate(-21.453 -16.967)" fill="#bd46f2"/><path d="M122.3,107.157l-2.231,10.555L123.039,116l.774-3.259,3.49-2.015V96.844Z" transform="translate(-21.197 -17.096)" fill="#d068e8"/></g><g transform="translate(109.561 39.216)"><g clip-path="url(#m)"><rect width="11.366" height="7.418" transform="matrix(0.341, -0.94, 0.94, 0.341, -3.532, 9.391)" fill="url(#n)"/></g></g><g clip-path="url(#c)"><g transform="translate(104.22 39.935)" opacity="0.5"><g clip-path="url(#p)"><g transform="translate(0 0)"><g clip-path="url(#q)"><path d="M130.351,55.1l1.563-18.435-5.823,6.518-1.563,18.435Z" transform="translate(-126.204 -46.408)" fill="url(#r)"/></g></g></g></g><g transform="translate(103.354 54.155)" opacity="0.4" style="mix-blend-mode:multiply;isolation:isolate"><g clip-path="url(#s)"><g transform="translate(0 0)"><g clip-path="url(#t)"><rect width="11.231" height="24.918" transform="translate(0 0)" fill="url(#u)"/></g></g></g></g><path d="M131.287,73.07v-.058c0-.042.027-.063.082-.063h.331c.054,0,.082.021.082.063,0,.1.02.149.059.177a.4.4,0,0,0,.214.041h.183a.374.374,0,0,0,.212-.044.193.193,0,0,0,.06-.166.159.159,0,0,0-.091-.166.591.591,0,0,0-.228-.055c-.091-.006-.189-.017-.294-.034a2.351,2.351,0,0,1-.294-.065.444.444,0,0,1-.228-.156.47.47,0,0,1-.091-.3v-.1a.418.418,0,0,1,.171-.357.786.786,0,0,1,.476-.127h.389a.79.79,0,0,1,.479.127.418.418,0,0,1,.171.357V72.2q0,.062-.082.062h-.331c-.054,0-.082-.021-.082-.062,0-.095-.019-.147-.058-.175a.394.394,0,0,0-.215-.041h-.152a.361.361,0,0,0-.216.045.224.224,0,0,0-.057.179v.057c0,.092.106.146.32.159a2.553,2.553,0,0,1,.588.1.479.479,0,0,1,.228.158.45.45,0,0,1,.091.291v.1a.42.42,0,0,1-.171.357.785.785,0,0,1-.475.127h-.425a.783.783,0,0,1-.475-.127.418.418,0,0,1-.171-.357" transform="translate(-23.176 -12.65)" fill="#d068e8"/><path d="M132.591,74.883h.328c.057,0,.085.02.085.059V76.3a.416.416,0,0,1-.169.356.78.78,0,0,1-.473.126h-.428a.781.781,0,0,1-.475-.124.418.418,0,0,1-.168-.357V74.945c0-.041.028-.062.082-.062h.332q.082,0,.082.062v1.338a.157.157,0,0,0,.053.134.291.291,0,0,0,.173.04h.268a.3.3,0,0,0,.178-.04.159.159,0,0,0,.053-.134V74.945q0-.062.082-.062" transform="translate(-23.177 -13.22)" fill="#d068e8"/><path d="M132.385,80.009h-.425a.792.792,0,0,1-.475-.124.42.42,0,0,1-.167-.357v-.936a.419.419,0,0,1,.167-.357.786.786,0,0,1,.475-.124h.425a.782.782,0,0,1,.473.126.417.417,0,0,1,.17.356v.138c0,.044-.029.065-.086.065h-.327c-.054,0-.082-.021-.082-.065v-.121a.157.157,0,0,0-.053-.134.3.3,0,0,0-.177-.04h-.265a.3.3,0,0,0-.174.04.159.159,0,0,0-.052.134v.9a.159.159,0,0,0,.052.134.3.3,0,0,0,.174.04h.265a.3.3,0,0,0,.177-.04.157.157,0,0,0,.053-.134v-.121c0-.043.027-.065.082-.065h.327c.058,0,.086.022.086.065v.139a.418.418,0,0,1-.17.356.787.787,0,0,1-.473.125" transform="translate(-23.182 -13.789)" fill="#d068e8"/><path d="M132.385,83.236h-.425a.792.792,0,0,1-.475-.124.42.42,0,0,1-.167-.357v-.936a.419.419,0,0,1,.167-.357.792.792,0,0,1,.475-.124h.425a.782.782,0,0,1,.473.126.417.417,0,0,1,.17.356v.139q0,.064-.086.064h-.327q-.082,0-.082-.064v-.122a.157.157,0,0,0-.053-.134.3.3,0,0,0-.177-.04h-.265a.3.3,0,0,0-.174.04.159.159,0,0,0-.052.134v.9a.162.162,0,0,0,.052.135.3.3,0,0,0,.174.04h.265a.309.309,0,0,0,.177-.04.16.16,0,0,0,.053-.135v-.121c0-.043.027-.065.082-.065h.327c.058,0,.086.022.086.065v.139a.418.418,0,0,1-.17.356.787.787,0,0,1-.473.125" transform="translate(-23.182 -14.359)" fill="#d068e8"/><path d="M132.86,86.463h-1.274q-.082,0-.082-.062V84.627c0-.042.027-.063.082-.063h1.274c.052,0,.077.021.077.063v.2c0,.041-.026.062-.077.062h-.814c-.03,0-.046.011-.046.032v.385c0,.021.016.031.046.031h.666c.054,0,.082.021.082.063v.2c0,.041-.028.063-.082.063h-.666c-.03,0-.046.011-.046.032v.41c0,.021.016.033.046.033h.814c.052,0,.077.021.077.062v.2c0,.041-.026.062-.077.062" transform="translate(-23.215 -14.929)" fill="#d068e8"/><path d="M131.287,89.207v-.058c0-.042.027-.063.082-.063h.331c.054,0,.082.021.082.063,0,.1.02.149.059.177a.4.4,0,0,0,.214.041h.183a.374.374,0,0,0,.212-.044.193.193,0,0,0,.06-.166.159.159,0,0,0-.091-.166.591.591,0,0,0-.228-.055c-.091-.006-.189-.017-.294-.034a2.213,2.213,0,0,1-.294-.065.439.439,0,0,1-.228-.156.47.47,0,0,1-.091-.3v-.1a.418.418,0,0,1,.171-.357.786.786,0,0,1,.476-.127h.389a.79.79,0,0,1,.479.127.418.418,0,0,1,.171.357v.056q0,.062-.082.062h-.331c-.054,0-.082-.021-.082-.062,0-.095-.019-.147-.058-.175a.394.394,0,0,0-.215-.041h-.152a.361.361,0,0,0-.216.045.224.224,0,0,0-.057.179V88.4c0,.092.106.146.32.159a2.553,2.553,0,0,1,.588.1.479.479,0,0,1,.228.158.45.45,0,0,1,.091.291v.1a.42.42,0,0,1-.171.357.785.785,0,0,1-.475.127h-.425a.783.783,0,0,1-.475-.127.418.418,0,0,1-.171-.357" transform="translate(-23.176 -15.499)" fill="#d068e8"/><path d="M131.287,92.434v-.058c0-.042.027-.063.082-.063h.331c.054,0,.082.021.082.063,0,.1.02.149.059.177a.4.4,0,0,0,.214.041h.183a.374.374,0,0,0,.212-.044.193.193,0,0,0,.06-.166.159.159,0,0,0-.091-.166.607.607,0,0,0-.228-.055c-.091-.006-.189-.017-.294-.034a2.215,2.215,0,0,1-.294-.065.444.444,0,0,1-.228-.156.47.47,0,0,1-.091-.3v-.1a.418.418,0,0,1,.171-.357.786.786,0,0,1,.476-.127h.389a.79.79,0,0,1,.479.127.418.418,0,0,1,.171.357v.056q0,.062-.082.062h-.331c-.054,0-.082-.021-.082-.062,0-.095-.019-.147-.058-.175a.394.394,0,0,0-.215-.041h-.152a.361.361,0,0,0-.216.045.224.224,0,0,0-.057.179v.057c0,.092.106.146.32.159a2.553,2.553,0,0,1,.588.1.479.479,0,0,1,.228.158.45.45,0,0,1,.091.291v.1a.42.42,0,0,1-.171.357.785.785,0,0,1-.475.127h-.425a.783.783,0,0,1-.475-.127.418.418,0,0,1-.171-.357" transform="translate(-23.176 -16.068)" fill="#d068e8"/></g><g transform="translate(100.217 104.12)"><g clip-path="url(#v)"><rect width="5.111" height="4.997" transform="translate(-1.535 0.886) rotate(-30)" fill="url(#w)"/></g></g><g clip-path="url(#c)"><path d="M123.832,128.71l-2.013-1.162c-.1-.059-.184-.01-.184.1l0,1.037a.4.4,0,0,0,.183.313l2.013,1.162c.1.058.181.012.181-.1l0-1.037a.4.4,0,0,0-.18-.315" transform="translate(-21.473 -22.512)" fill="#2a182a"/><path d="M110.178,137.738l-6.807-3.93a.363.363,0,0,1,0-.629l1.915-1.106a.574.574,0,0,0,.287-.5v-1.143l1.353-.781a.574.574,0,1,0-.575-.995l-1.64.947a.574.574,0,0,0-.287.5v1.144l-1.626.939a1.512,1.512,0,0,0,0,2.619l6.807,3.93a.741.741,0,0,1,0,1.284l-25.635,14.8a2.221,2.221,0,0,1-2.209,0l-5.876-3.393a3.116,3.116,0,0,0-3.109,0l-9.224,5.325a3.2,3.2,0,0,1-3.188,0L34.543,141.842a.684.684,0,0,1,0-1.185l6.628-3.827a1.724,1.724,0,0,0,0-2.986l-9.308-5.374a.574.574,0,1,0-.574.995l9.308,5.374a.576.576,0,0,1,0,1l-6.629,3.827a1.833,1.833,0,0,0,0,3.174l25.821,14.908a4.35,4.35,0,0,0,4.336,0l9.224-5.325a1.966,1.966,0,0,1,1.961,0l5.875,3.393a3.371,3.371,0,0,0,3.357,0l25.635-14.8a1.89,1.89,0,0,0,0-3.273" transform="translate(-5.473 -22.666)" fill="#351d35"/><g transform="translate(25.933 105.779)" style="mix-blend-mode:screen;isolation:isolate"><g clip-path="url(#y)"><path d="M109.977,137.738l-6.807-3.93a.823.823,0,0,1,0-1.425l1.581-.912a.515.515,0,0,1-.208-.146l-1.487.859a1.053,1.053,0,0,0,0,1.824l6.807,3.93a1.2,1.2,0,0,1,0,2.079l-25.635,14.8a2.678,2.678,0,0,1-2.667,0l-5.876-3.393a2.654,2.654,0,0,0-2.649,0l-9.224,5.325a3.653,3.653,0,0,1-3.646,0L34.341,141.842a1.143,1.143,0,0,1,0-1.98l6.628-3.827a1.265,1.265,0,0,0,0-2.19l-9.364-5.39a.114.114,0,0,0-.1.058.131.131,0,0,0,.041.157l9.308,5.373a1.035,1.035,0,0,1,0,1.793l-6.628,3.827a1.373,1.373,0,0,0,0,2.378l25.821,14.907a3.886,3.886,0,0,0,3.877,0l9.224-5.325a2.424,2.424,0,0,1,2.42,0l5.875,3.392a2.906,2.906,0,0,0,2.9,0l25.635-14.8a1.43,1.43,0,0,0,0-2.477" transform="translate(-31.493 -128.455)" fill="#351d35"/></g></g><g transform="translate(99.569 105.978)" style="mix-blend-mode:screen;isolation:isolate"><g clip-path="url(#z)"><path d="M121.549,129.492l.8-.463c.079-.045.388-.165.237-.294-.1-.085-.2,0-.293.049l-1.068.618c-.121.07-.373.194-.3.3.091.127.41-.088.62-.209" transform="translate(-120.915 -128.698)" fill="#351d35"/></g></g><g transform="translate(45.723 101.902)" opacity="0.6" style="mix-blend-mode:multiply;isolation:isolate"><g clip-path="url(#aa)"><path d="M103.03,130.6c.442.255.445.664,0,.919L68.98,151.308a1.738,1.738,0,0,1-1.586,0l-11.538-6.662a.485.485,0,0,1-.006-.918L89.9,123.937a1.752,1.752,0,0,1,1.587,0Z" transform="translate(-55.525 -123.748)" fill="#3a0155"/></g></g><g transform="translate(33.525 95.668)" opacity="0.6" style="mix-blend-mode:multiply;isolation:isolate"><g clip-path="url(#ab)"><path d="M70.553,123.795c1.346.777,1.348,2.052,0,2.833l-11.93,6.934a5.408,5.408,0,0,1-4.89.007L40.8,126.1a.172.172,0,0,1,0-.3l16.559-9.624Z" transform="translate(-40.712 -116.177)" fill="#3a0155"/></g></g></g><g transform="translate(33.351 102.981)"><g clip-path="url(#ac)"><rect width="31.033" height="10.07" transform="translate(0 0)" fill="url(#ad)"/></g></g><g transform="translate(33.525 93.94)"><g clip-path="url(#ae)"><rect width="31.217" height="18.168" transform="translate(-0.029 0)" fill="url(#af)"/></g></g><g clip-path="url(#c)"><path d="M46.612,110.754,63.465,101l-5.2,11.221-16.853,9.758Z" transform="translate(-7.31 -17.829)" fill="#cb89f0"/><path d="M45.836,111.968l.616.723-5.2,11.221-.36-.048-.386-.383Z" transform="translate(-7.15 -19.766)" fill="#8d3fcf"/><g transform="translate(33.351 83.166)" opacity="0.6"><g clip-path="url(#ah)"><path d="M48.54,126.186l16.876-9.743L58.1,112.219,63.3,101l-16.853,9.758-.616-.722-5.329,11.51,0,.938,8.039,4.641Z" transform="translate(-40.501 -100.996)" fill="#8d3fcf"/></g></g></g><g transform="translate(12.442 22.009)"><g clip-path="url(#ai)"><rect width="112.148" height="100.781" transform="matrix(0.439, -0.899, 0.899, 0.439, -36.327, 74.258)" fill="url(#aj)"/></g></g><g clip-path="url(#c)"><path d="M23.548,66.331,16.316,70.34a1.168,1.168,0,0,0-.385.389Z" transform="translate(-2.812 -11.71)" fill="#cb89f0"/><path d="M23.542,118.648l1.317,8.986a.583.583,0,0,0,.9.494L91.366,91.761a1.4,1.4,0,0,0,.625-1.339l-1.359-9.273a.782.782,0,0,0-1.165-.564Z" transform="translate(-4.156 -14.208)" fill="#cb89f0"/><path d="M82.761,27.514a.582.582,0,0,0-.893-.5L16.26,63.383a1.405,1.405,0,0,0-.632,1.342L22.334,110.5,89.257,71.86Z" transform="translate(-2.757 -4.753)" fill="#181019"/><path d="M67.451,107.942a1.759,1.759,0,0,1-.014-.692,1.415,1.415,0,0,0-.39.138,2.057,2.057,0,0,0-.978,2.176,1.1,1.1,0,0,0,1.692.725,2.067,2.067,0,0,0,.992-1.483,1.078,1.078,0,0,1-1.3-.864" transform="translate(-11.655 -18.933)" fill="#3b223a"/></g><g transform="translate(45.72 107.791)"><g clip-path="url(#al)"><rect width="47.842" height="21.443" transform="translate(0 0)" fill="url(#am)"/></g></g><g transform="translate(45.723 100.477)"><g clip-path="url(#an)"><rect width="48.064" height="27.817" transform="translate(-0.114 0)" fill="url(#ao)"/></g></g><g clip-path="url(#c)"><path d="M67.462,144.586a.151.151,0,0,1,0-.054.155.155,0,0,1,0-.055.177.177,0,0,1,.108-.189l1.6-.924a.623.623,0,0,1,.563,0l1.346.777a.178.178,0,0,1,.107.19.121.121,0,0,1,0,.054.125.125,0,0,1,0,.055.177.177,0,0,1-.107.189l-1.6.924a.623.623,0,0,1-.563,0l-1.345-.777a.177.177,0,0,1-.108-.189m-3.131-.679,1.346.777a.623.623,0,0,0,.563,0l1.6-.924a.177.177,0,0,0,.108-.19.151.151,0,0,0,0-.054.151.151,0,0,0,0-.054.178.178,0,0,0-.108-.19l-1.346-.777a.621.621,0,0,0-.562,0l-1.6.924a.177.177,0,0,0-.107.189.125.125,0,0,0,0,.055.121.121,0,0,0,0,.054.177.177,0,0,0,.107.189m3.711-5.313a.177.177,0,0,0-.107.19.121.121,0,0,0,0,.054.125.125,0,0,0,0,.055.176.176,0,0,0,.107.189l1.346.777a.621.621,0,0,0,.562,0l1.6-.923a.177.177,0,0,0,.107-.19.121.121,0,0,0,0-.054.125.125,0,0,0,0-.055.176.176,0,0,0-.107-.189c-1.98-1.143-1.311-1.122-3.508.147m22.1-4.971,1.6-.924a.177.177,0,0,0,.108-.189.156.156,0,0,0,0-.055.151.151,0,0,0,0-.054.178.178,0,0,0-.108-.19l-1.345-.777a.623.623,0,0,0-.563,0l-1.6.924a.177.177,0,0,0-.107.189.125.125,0,0,0,0,.055.121.121,0,0,0,0,.054.177.177,0,0,0,.107.189l1.346.777a.623.623,0,0,0,.563,0m-18.08,10.438,1.6-.924a.178.178,0,0,0,.108-.189.156.156,0,0,0,0-.055.151.151,0,0,0,0-.054.178.178,0,0,0-.108-.189l-1.346-.777a.621.621,0,0,0-.562,0l-1.6.924a.176.176,0,0,0-.107.189.125.125,0,0,0,0,.055.121.121,0,0,0,0,.054.177.177,0,0,0,.107.19l1.346.777a.621.621,0,0,0,.562,0m-5-4.9-1.6.923a.177.177,0,0,0-.108.19.121.121,0,0,0,0,.054.121.121,0,0,0,0,.054.177.177,0,0,0,.108.19l1.345.777a.623.623,0,0,0,.563,0l1.6-.923a.179.179,0,0,0,.107-.19.121.121,0,0,0,0-.054.125.125,0,0,0,0-.055.177.177,0,0,0-.107-.189l-1.346-.777a.623.623,0,0,0-.563,0m17.916-2.558,1.6-.923a.178.178,0,0,0,.107-.19.121.121,0,0,0,0-.054.121.121,0,0,0,0-.054.178.178,0,0,0-.107-.19l-1.346-.777a.623.623,0,0,0-.563,0l-1.6.924a.177.177,0,0,0-.107.189.121.121,0,0,0,0,.054.125.125,0,0,0,0,.055.177.177,0,0,0,.107.189l1.346.777a.623.623,0,0,0,.563,0m-12.751-.425-1.6.924a.177.177,0,0,0-.108.189.151.151,0,0,0,0,.054.155.155,0,0,0,0,.055.177.177,0,0,0,.108.189l1.345.777a.623.623,0,0,0,.563,0l1.6-.923a.178.178,0,0,0,.107-.19.121.121,0,0,0,0-.054.121.121,0,0,0,0-.054.178.178,0,0,0-.107-.19l-1.346-.777a.623.623,0,0,0-.563,0M82.392,138.1l1.6-.923a.177.177,0,0,0,.107-.19.121.121,0,0,0,0-.054.121.121,0,0,0,0-.054.177.177,0,0,0-.107-.19l-1.346-.777a.621.621,0,0,0-.562,0l-1.6.923a.178.178,0,0,0-.107.19.121.121,0,0,0,0,.054.125.125,0,0,0,0,.055.176.176,0,0,0,.107.189l1.346.777a.621.621,0,0,0,.562,0m-7.748,4.474,1.6-.924a.177.177,0,0,0,.107-.189.125.125,0,0,0,0-.055.121.121,0,0,0,0-.054.177.177,0,0,0-.107-.189l-1.346-.777a.623.623,0,0,0-.563,0l-1.6.924a.177.177,0,0,0-.108.19.121.121,0,0,0,0,.054.121.121,0,0,0,0,.054.178.178,0,0,0,.108.19l1.345.777a.623.623,0,0,0,.563,0m12.914-7.456,1.6-.924a.177.177,0,0,0,.107-.19.121.121,0,0,0,0-.054.121.121,0,0,0,0-.054.177.177,0,0,0-.107-.19l-1.346-.777a.621.621,0,0,0-.562,0l-1.6.924a.176.176,0,0,0-.107.189.125.125,0,0,0,0,.055.121.121,0,0,0,0,.054.176.176,0,0,0,.107.189l1.346.777a.621.621,0,0,0,.562,0m-10.331,5.964,1.6-.924a.176.176,0,0,0,.107-.189.121.121,0,0,0,0-.054.125.125,0,0,0,0-.055.176.176,0,0,0-.107-.189l-1.346-.777a.626.626,0,0,0-.562,0l-1.6.924a.177.177,0,0,0-.107.19.121.121,0,0,0,0,.054.121.121,0,0,0,0,.054.177.177,0,0,0,.107.19l1.346.777a.621.621,0,0,0,.562,0m2.583-1.491,1.6-.923a.179.179,0,0,0,.107-.19.121.121,0,0,0,0-.054.125.125,0,0,0,0-.055.177.177,0,0,0-.107-.189l-1.346-.777a.623.623,0,0,0-.563,0l-1.6.923a.177.177,0,0,0-.108.19.121.121,0,0,0,0,.054.121.121,0,0,0,0,.054.177.177,0,0,0,.108.19l1.345.777a.623.623,0,0,0,.563,0m-15.333,1.066-1.6.924a.177.177,0,0,0-.107.19.121.121,0,0,0,0,.054.121.121,0,0,0,0,.054.177.177,0,0,0,.107.19l1.346.777a.621.621,0,0,0,.562,0l1.6-.924a.178.178,0,0,0,.108-.189.151.151,0,0,0,0-.054.156.156,0,0,0,0-.055.178.178,0,0,0-.108-.189l-1.346-.777a.626.626,0,0,0-.562,0m9.512-.442,1.6-.924a.177.177,0,0,0,.107-.189.121.121,0,0,0,0-.054.125.125,0,0,0,0-.055.177.177,0,0,0-.107-.189l-1.346-.777a.623.623,0,0,0-.563,0l-1.6.924a.178.178,0,0,0-.108.19.151.151,0,0,0,0,.054.151.151,0,0,0,0,.054.179.179,0,0,0,.108.19l1.346.777a.621.621,0,0,0,.562,0m7.749-4.474,1.6-.923a.178.178,0,0,0,.108-.19.151.151,0,0,0,0-.054.151.151,0,0,0,0-.054.177.177,0,0,0-.108-.19l-1.346-.777a.621.621,0,0,0-.562,0l-1.6.923a.178.178,0,0,0-.107.19.121.121,0,0,0,0,.054.125.125,0,0,0,0,.055.177.177,0,0,0,.107.189l1.346.777a.623.623,0,0,0,.563,0m-2.583,1.491,1.6-.923a.178.178,0,0,0,.107-.19.121.121,0,0,0,0-.054.125.125,0,0,0,0-.055.177.177,0,0,0-.107-.189l-1.346-.777a.621.621,0,0,0-.562,0l-1.6.923a.178.178,0,0,0-.108.19.151.151,0,0,0,0,.054.155.155,0,0,0,0,.055.177.177,0,0,0,.108.189l1.345.777a.623.623,0,0,0,.563,0m-2.583,1.491,1.6-.924a.178.178,0,0,0,.108-.189.151.151,0,0,0,0-.054.155.155,0,0,0,0-.055.178.178,0,0,0-.108-.189l-1.345-.777a.623.623,0,0,0-.563,0l-1.6.923a.178.178,0,0,0-.107.19.121.121,0,0,0,0,.054.121.121,0,0,0,0,.054.178.178,0,0,0,.107.19l1.346.777a.621.621,0,0,0,.562,0m19.322-10.635a.121.121,0,0,0,0,.054.125.125,0,0,0,0,.055.177.177,0,0,0,.108.189l1.345.777a.623.623,0,0,0,.563,0l1.6-.923a.178.178,0,0,0,.107-.19.121.121,0,0,0,0-.054.121.121,0,0,0,0-.054.178.178,0,0,0-.107-.19l-1.346-.777a.623.623,0,0,0-.563,0L96,127.9a.177.177,0,0,0-.108.189M71.405,141.7l1.6-.924a.177.177,0,0,0,.108-.189.155.155,0,0,0,0-.055.151.151,0,0,0,0-.054.177.177,0,0,0-.108-.189l-1.345-.777a.623.623,0,0,0-.563,0l-1.6.924a.177.177,0,0,0-.107.189.125.125,0,0,0,0,.055.121.121,0,0,0,0,.054.178.178,0,0,0,.107.19l1.346.777a.621.621,0,0,0,.562,0m-2.328-.7a.621.621,0,0,0-.562,0l-1.6.924a.177.177,0,0,0-.108.189.155.155,0,0,0,0,.055.151.151,0,0,0,0,.054.177.177,0,0,0,.108.189l1.346.777a.621.621,0,0,0,.562,0l1.6-.924a.177.177,0,0,0,.107-.189.125.125,0,0,0,0-.055.121.121,0,0,0,0-.054.179.179,0,0,0-.107-.19ZM77.39,133.2l-1.6.924a.177.177,0,0,0-.107.189.155.155,0,0,0,0,.055.151.151,0,0,0,0,.054.177.177,0,0,0,.107.189l1.346.777a.623.623,0,0,0,.563,0l1.6-.924a.177.177,0,0,0,.107-.189.125.125,0,0,0,0-.055.121.121,0,0,0,0-.054.178.178,0,0,0-.107-.19l-1.346-.777a.623.623,0,0,0-.563,0m2.583-1.491-1.6.924a.176.176,0,0,0-.107.189.125.125,0,0,0,0,.055.121.121,0,0,0,0,.054.178.178,0,0,0,.107.19l1.346.777a.621.621,0,0,0,.562,0l1.6-.924a.176.176,0,0,0,.107-.189.125.125,0,0,0,0-.055.121.121,0,0,0,0-.054.176.176,0,0,0-.107-.189l-1.346-.777a.621.621,0,0,0-.562,0m4.346,2.54,1.6-.924a.178.178,0,0,0,.107-.19.121.121,0,0,0,0-.054.121.121,0,0,0,0-.054.178.178,0,0,0-.107-.19l-1.346-.777a.623.623,0,0,0-.563,0l-1.6.924a.177.177,0,0,0-.108.189.151.151,0,0,0,0,.054.155.155,0,0,0,0,.055.177.177,0,0,0,.108.189l1.345.777a.623.623,0,0,0,.563,0m-1.764-4.032-1.6.924a.177.177,0,0,0-.108.19.121.121,0,0,0,0,.054.121.121,0,0,0,0,.054.178.178,0,0,0,.108.19l1.345.777a.623.623,0,0,0,.563,0l1.6-.924a.177.177,0,0,0,.107-.189.125.125,0,0,0,0-.055.121.121,0,0,0,0-.054.177.177,0,0,0-.107-.189l-1.346-.777a.623.623,0,0,0-.563,0m-7.748,4.474-1.6.924a.176.176,0,0,0-.107.189.125.125,0,0,0,0,.055.121.121,0,0,0,0,.054.176.176,0,0,0,.107.189c1.321.763,1.55.984,1.908.777l1.6-.924a.177.177,0,0,0,.107-.19.121.121,0,0,0,0-.054.121.121,0,0,0,0-.054.177.177,0,0,0-.107-.19l-1.346-.777a.621.621,0,0,0-.562,0M86.9,132.755l2.433-1.4a.177.177,0,0,0,.108-.189.155.155,0,0,0,0-.055.15.15,0,0,0,0-.054.177.177,0,0,0-.108-.189l-1.345-.777a.623.623,0,0,0-.563,0l-2.433,1.4a.177.177,0,0,0-.107.189.121.121,0,0,0,0,.054.125.125,0,0,0,0,.055.177.177,0,0,0,.107.189l1.346.777a.621.621,0,0,0,.562,0m.145-3.254-1.346-.777a.626.626,0,0,0-.562,0l-1.6.924a.177.177,0,0,0-.107.19.121.121,0,0,0,0,.054.121.121,0,0,0,0,.054.177.177,0,0,0,.107.19l1.346.777a.621.621,0,0,0,.562,0l1.6-.924a.176.176,0,0,0,.107-.189.121.121,0,0,0,0-.054.125.125,0,0,0,0-.055.176.176,0,0,0-.107-.189m-9.329,1.259,1.346.777a.621.621,0,0,0,.562,0l1.6-.924a.178.178,0,0,0,.108-.189.155.155,0,0,0,0-.055.151.151,0,0,0,0-.054.178.178,0,0,0-.108-.189l-1.346-.777a.621.621,0,0,0-.562,0l-1.6.924a.177.177,0,0,0-.107.189.125.125,0,0,0,0,.055.121.121,0,0,0,0,.054.178.178,0,0,0,.107.19m-7.777,16.707-1.346-.777a.623.623,0,0,0-.563,0l-1.6.923a.178.178,0,0,0-.108.19.151.151,0,0,0,0,.054.156.156,0,0,0,0,.055.177.177,0,0,0,.108.189l1.345.777a.623.623,0,0,0,.563,0l1.6-.923a.178.178,0,0,0,.107-.19.121.121,0,0,0,0-.054.121.121,0,0,0,0-.054.178.178,0,0,0-.107-.19m2.582-1.491-1.346-.777a.621.621,0,0,0-.562,0l-1.6.924a.176.176,0,0,0-.107.189.121.121,0,0,0,0,.054.125.125,0,0,0,0,.055.176.176,0,0,0,.107.189l1.346.777a.616.616,0,0,0,.562,0l1.6-.923a.178.178,0,0,0,.108-.19.151.151,0,0,0,0-.054.151.151,0,0,0,0-.054.178.178,0,0,0-.108-.19M68.6,145.93a.121.121,0,0,0,0-.054.121.121,0,0,0,0-.054.177.177,0,0,0-.107-.19l-1.346-.777a.621.621,0,0,0-.562,0l-2.433,1.4a.178.178,0,0,0-.107.19.121.121,0,0,0,0,.054.125.125,0,0,0,0,.055.176.176,0,0,0,.107.189l1.346.777a.621.621,0,0,0,.562,0l2.433-1.4a.177.177,0,0,0,.107-.19m6.5-1.445-1.346-.777a.623.623,0,0,0-.563,0l-1.6.924a.177.177,0,0,0-.108.189.125.125,0,0,0,0,.055.121.121,0,0,0,0,.054.177.177,0,0,0,.108.189l1.345.777a.623.623,0,0,0,.563,0l1.6-.924a.177.177,0,0,0,.107-.189.125.125,0,0,0,0-.055.121.121,0,0,0,0-.054.178.178,0,0,0-.107-.19m-14.435-2.132a.155.155,0,0,0,0-.055.151.151,0,0,0,0-.054.177.177,0,0,0-.108-.189l-1.345-.777a.623.623,0,0,0-.563,0l-1.6.924a.177.177,0,0,0-.107.189.125.125,0,0,0,0,.055.121.121,0,0,0,0,.054.177.177,0,0,0,.107.189l1.346.777a.623.623,0,0,0,.563,0l1.6-.924a.177.177,0,0,0,.108-.189m4.693,2.709a.121.121,0,0,0,0-.054.121.121,0,0,0,0-.054.178.178,0,0,0-.107-.19l-1.346-.777a.621.621,0,0,0-.562,0l-1.6.924a.176.176,0,0,0-.107.189.121.121,0,0,0,0,.054.125.125,0,0,0,0,.055.176.176,0,0,0,.107.189l1.346.777a.626.626,0,0,0,.562,0l1.6-.924a.178.178,0,0,0,.107-.19m-1.455-1.841a.125.125,0,0,0,0-.055.121.121,0,0,0,0-.054.177.177,0,0,0-.107-.189l-1.346-.777a.623.623,0,0,0-.563,0l-2.433,1.4a.177.177,0,0,0-.107.189.125.125,0,0,0,0,.055.121.121,0,0,0,0,.054.177.177,0,0,0,.107.189l1.346.777a.623.623,0,0,0,.563,0l2.433-1.4a.177.177,0,0,0,.107-.189m37.96-14.109-1.346-.777a.621.621,0,0,0-.562,0l-1.6.924a.176.176,0,0,0-.107.189.125.125,0,0,0,0,.055.121.121,0,0,0,0,.054.178.178,0,0,0,.107.19l1.346.777a.621.621,0,0,0,.562,0l1.6-.924a.177.177,0,0,0,.107-.189.124.124,0,0,0,0-.055.121.121,0,0,0,0-.054.177.177,0,0,0-.107-.189M96.7,132.093l-1.346-.777a.621.621,0,0,0-.562,0l-1.6.924a.178.178,0,0,0-.108.189.151.151,0,0,0,0,.054.155.155,0,0,0,0,.055.178.178,0,0,0,.108.189l1.346.777a.621.621,0,0,0,.562,0l1.6-.924a.176.176,0,0,0,.107-.189.125.125,0,0,0,0-.055.121.121,0,0,0,0-.054.177.177,0,0,0-.107-.19m2.582-1.49-1.345-.777a.623.623,0,0,0-.563,0l-1.6.924a.177.177,0,0,0-.107.189.125.125,0,0,0,0,.055.121.121,0,0,0,0,.054.179.179,0,0,0,.107.19l1.346.777a.623.623,0,0,0,.563,0l1.6-.924a.177.177,0,0,0,.108-.189.156.156,0,0,0,0-.055.151.151,0,0,0,0-.054.177.177,0,0,0-.108-.189m-21.6,12.391-1.346-.777a.621.621,0,0,0-.562,0l-1.6.924a.177.177,0,0,0-.107.189.125.125,0,0,0,0,.055.121.121,0,0,0,0,.054.179.179,0,0,0,.107.19l1.346.777a.621.621,0,0,0,.562,0l1.6-.924a.176.176,0,0,0,.107-.189.124.124,0,0,0,0-.055.121.121,0,0,0,0-.054.178.178,0,0,0-.107-.19m-18.05-1.8,1.346.777a.621.621,0,0,0,.562,0l1.6-.924a.177.177,0,0,0,.107-.189.121.121,0,0,0,0-.054.125.125,0,0,0,0-.055.177.177,0,0,0-.107-.189l-1.346-.777a.621.621,0,0,0-.562,0l-1.6.924a.176.176,0,0,0-.107.19.121.121,0,0,0,0,.054.121.121,0,0,0,0,.054.176.176,0,0,0,.107.19m31.007-5.658-1.346-.777a.626.626,0,0,0-.562,0L76.776,141.67a.178.178,0,0,0-.108.19.151.151,0,0,0,0,.054.151.151,0,0,0,0,.054.177.177,0,0,0,.108.19l1.345.777a.623.623,0,0,0,.563,0l11.962-6.906a.176.176,0,0,0,.107-.189.121.121,0,0,0,0-.054.125.125,0,0,0,0-.055.176.176,0,0,0-.107-.189M94,133.575l-1.345-.777a.623.623,0,0,0-.563,0l-2.433,1.4a.178.178,0,0,0-.107.19.121.121,0,0,0,0,.054.125.125,0,0,0,0,.055.177.177,0,0,0,.107.189l1.346.777a.623.623,0,0,0,.563,0l2.432-1.4a.177.177,0,0,0,.108-.19.151.151,0,0,0,0-.054.151.151,0,0,0,0-.054.177.177,0,0,0-.108-.19m-1.26-1.432,1.6-.924a.177.177,0,0,0,.107-.189.121.121,0,0,0,0-.054.125.125,0,0,0,0-.055.177.177,0,0,0-.107-.189L93,129.954a.623.623,0,0,0-.563,0l-1.6.923a.177.177,0,0,0-.108.19.121.121,0,0,0,0,.054.121.121,0,0,0,0,.054.177.177,0,0,0,.108.19l1.345.777a.623.623,0,0,0,.563,0M88.93,124.3l1.346.777a.616.616,0,0,0,.562,0l1.6-.923a.177.177,0,0,0,.107-.19.121.121,0,0,0,0-.054.121.121,0,0,0,0-.054.177.177,0,0,0-.107-.19l-1.346-.777a.621.621,0,0,0-.562,0l-1.6.924a.176.176,0,0,0-.107.189.121.121,0,0,0,0,.054.125.125,0,0,0,0,.055.176.176,0,0,0,.107.189m-2.582,1.491,1.345.777a.623.623,0,0,0,.563,0l1.6-.923a.178.178,0,0,0,.107-.19.121.121,0,0,0,0-.054.121.121,0,0,0,0-.054.178.178,0,0,0-.107-.19l-1.346-.777a.623.623,0,0,0-.563,0l-1.6.923a.178.178,0,0,0-.108.19.121.121,0,0,0,0,.054.125.125,0,0,0,0,.055.177.177,0,0,0,.108.189M80.3,129.269l1.346.777a.621.621,0,0,0,.562,0l2.433-1.4a.179.179,0,0,0,.107-.19.121.121,0,0,0,0-.054.125.125,0,0,0,0-.055.177.177,0,0,0-.107-.189l-1.346-.777a.626.626,0,0,0-.562,0l-2.433,1.4a.177.177,0,0,0-.108.19.151.151,0,0,0,0,.054.151.151,0,0,0,0,.054.178.178,0,0,0,.108.19m3.463-1.985,1.346.777a.621.621,0,0,0,.562,0l1.6-.923a.179.179,0,0,0,.108-.19.151.151,0,0,0,0-.054.156.156,0,0,0,0-.055.178.178,0,0,0-.108-.189l-1.346-.777a.621.621,0,0,0-.562,0l-1.6.923a.177.177,0,0,0-.107.19.121.121,0,0,0,0,.054.125.125,0,0,0,0,.055.176.176,0,0,0,.107.189m7.414-1.922a.125.125,0,0,0,0,.055.121.121,0,0,0,0,.054.178.178,0,0,0,.107.19l1.346.777a.623.623,0,0,0,.563,0l1.6-.924a.177.177,0,0,0,.108-.189.156.156,0,0,0,0-.055.151.151,0,0,0,0-.054.177.177,0,0,0-.108-.189l-1.345-.777a.623.623,0,0,0-.563,0l-1.6.924a.177.177,0,0,0-.107.189m4.147,5.289,1.6-.923a.179.179,0,0,0,.108-.19.151.151,0,0,0,0-.054.151.151,0,0,0,0-.054.178.178,0,0,0-.108-.19l-1.346-.777a.621.621,0,0,0-.562,0l-1.6.923a.178.178,0,0,0-.107.19.121.121,0,0,0,0,.054.125.125,0,0,0,0,.055.176.176,0,0,0,.107.189l1.346.777a.621.621,0,0,0,.562,0M64.8,138.216l1.346.777a.621.621,0,0,0,.562,0l1.6-.923a.179.179,0,0,0,.107-.19.121.121,0,0,0,0-.054.125.125,0,0,0,0-.055.177.177,0,0,0-.107-.189l-1.346-.777a.623.623,0,0,0-.563,0l-1.6.923a.178.178,0,0,0-.108.19.15.15,0,0,0,0,.054.155.155,0,0,0,0,.055.177.177,0,0,0,.108.189m2.582-1.491c1.939,1.119,1.269,1.146,3.508-.147a.178.178,0,0,0,.108-.19.151.151,0,0,0,0-.054.151.151,0,0,0,0-.054.177.177,0,0,0-.108-.19l-1.345-.777a.623.623,0,0,0-.563,0l-1.6.923a.179.179,0,0,0-.107.19.121.121,0,0,0,0,.054.125.125,0,0,0,0,.055.177.177,0,0,0,.107.189m-5.166,2.983,1.346.777a.623.623,0,0,0,.563,0l1.6-.924a.177.177,0,0,0,.108-.189.151.151,0,0,0,0-.054.155.155,0,0,0,0-.055.177.177,0,0,0-.108-.189l-1.345-.777a.623.623,0,0,0-.563,0l-1.6.924a.178.178,0,0,0-.107.19.121.121,0,0,0,0,.054.121.121,0,0,0,0,.054.178.178,0,0,0,.107.19m7.749-4.474,1.345.777a.623.623,0,0,0,.563,0l1.6-.923a.178.178,0,0,0,.107-.19.121.121,0,0,0,0-.054.121.121,0,0,0,0-.054.178.178,0,0,0-.107-.19l-1.346-.777a.621.621,0,0,0-.562,0l-1.6.924a.178.178,0,0,0-.108.189.151.151,0,0,0,0,.054.155.155,0,0,0,0,.055.178.178,0,0,0,.108.189m5.166-2.983,1.345.777a.623.623,0,0,0,.563,0l1.6-.924a.177.177,0,0,0,.107-.189.125.125,0,0,0,0-.055.121.121,0,0,0,0-.054.179.179,0,0,0-.107-.19l-1.346-.777a.623.623,0,0,0-.563,0l-1.6.924a.177.177,0,0,0-.108.189.156.156,0,0,0,0,.055.151.151,0,0,0,0,.054.177.177,0,0,0,.108.189m-2.583,1.491,1.346.777a.623.623,0,0,0,.563,0l1.6-.924a.178.178,0,0,0,.108-.19.151.151,0,0,0,0-.054.151.151,0,0,0,0-.054.178.178,0,0,0-.108-.19l-1.346-.777a.621.621,0,0,0-.562,0l-1.6.924a.177.177,0,0,0-.107.189.125.125,0,0,0,0,.055.121.121,0,0,0,0,.054.177.177,0,0,0,.107.189m20.1-6.936-1.771-1.023a.774.774,0,0,0-.7,0l-4.054,2.34a.225.225,0,0,0-.136.23.2.2,0,0,0,0,.054.2.2,0,0,0,0,.054.225.225,0,0,0,.136.23l3.533,2.04a.775.775,0,0,0,.7,0l6.724-3.882a.226.226,0,0,0,.136-.23.2.2,0,0,0,0-.054.206.206,0,0,0,0-.055.225.225,0,0,0-.136-.229l-1.315-.759a.517.517,0,0,0-.465,0l-2.26,1.285a.437.437,0,0,1-.393,0" transform="translate(-10.053 -21.683)" fill="#b069e2"/></g><g transform="translate(46.886 101.068)"><g clip-path="url(#aq)"><rect width="45.123" height="25.984" transform="translate(-0.039)" fill="url(#ar)"/></g></g><g clip-path="url(#c)"><g transform="translate(24.465 20.435)" opacity="0.3" style="mix-blend-mode:screen;isolation:isolate"><g clip-path="url(#at)"><path d="M102.308,72.972l-72.6,41.914V66.731l72.6-41.914Z" transform="translate(-29.71 -24.816)" fill="#c561ff"/></g></g><path d="M102.308,24.619,29.71,66.534v-4.4l72.6-41.914Z" transform="translate(-5.245 -3.569)" fill="#fa93fd"/><g transform="translate(28.053 31.307)" style="mix-blend-mode:screen;isolation:isolate"><g clip-path="url(#au)"><path d="M37.373,111.464a.184.184,0,0,1-.189.02c-.086-.056-.07-.218.035-.364l5.689-7.928a.514.514,0,0,1,.155-.145l.826-.477,7.176-9.714a.514.514,0,0,1,.15-.138L70.669,81.486,77.7,69.862a.533.533,0,0,1,.179-.182L80.5,68.169,88.181,57.5a.529.529,0,0,1,.154-.144l11.1-6.408c.135-.078.245-.032.245.1a.507.507,0,0,1-.245.385L88.422,57.793l-7.682,10.67a.518.518,0,0,1-.154.144l-2.6,1.5L70.953,81.732a.526.526,0,0,1-.179.182L51.3,93.158l-7.176,9.714a.5.5,0,0,1-.15.138l-.823.475-5.621,7.834a.516.516,0,0,1-.155.144" transform="translate(-34.607 -40.294)" fill="#ffaff5"/><path d="M88.535,76.661l-8.981,5.185a.172.172,0,0,1-.2.008l-6.588-6.062-4.119,2.378-4.372,6.267a.51.51,0,0,1-.159.151l-11.02,6.362-6.8,8.954a.517.517,0,0,1-.145.132l-8.781,5.069c-.135.078-.244.031-.244-.1a.506.506,0,0,1,.244-.385l8.7-5.022,6.8-8.954a.509.509,0,0,1,.146-.132l11.01-6.357,4.372-6.267a.506.506,0,0,1,.159-.15l4.34-2.506a.171.171,0,0,1,.2-.009l6.588,6.062,8.768-5.062,4.175-5.539a.506.506,0,0,1,.147-.133l6.66-3.846c.135-.077.245-.031.245.1a.507.507,0,0,1-.245.385l-6.579,3.8-4.175,5.539a.506.506,0,0,1-.147.133" transform="translate(-34.607 -43.076)" fill="#fecfc4"/><path d="M38.29,105.15l-.8.459c-.135.078-.245.032-.245-.1a.508.508,0,0,1,.245-.386l.714-.412L56,81.061a.509.509,0,0,1,.147-.133l5.47-3.159,5.021-7.377a.515.515,0,0,1,.163-.156L72.933,66.7l8.614-11.584a.5.5,0,0,1,.149-.136L99.458,44.724c.135-.078.244-.032.244.1a.507.507,0,0,1-.244.386L81.78,55.419,73.165,67a.512.512,0,0,1-.149.136L66.9,70.671l-5.021,7.377a.515.515,0,0,1-.163.156L56.233,81.37l-17.8,23.647a.506.506,0,0,1-.147.133" transform="translate(-34.629 -39.196)" fill="#ec84f6"/><path d="M43.341,89.768l-5.847,3.376c-.135.077-.245.031-.245-.1a.507.507,0,0,1,.245-.385l5.767-3.329,2.929-3.864a.509.509,0,0,1,.146-.132L50.4,82.984l2.559-3.641a.516.516,0,0,1,.158-.148l4.063-2.346,8.914-12.918a.511.511,0,0,1,.161-.152l4.685-2.705,8.612-11.4a.493.493,0,0,1,.147-.133L99.457,38.133c.135-.078.245-.032.245.1a.507.507,0,0,1-.245.385L79.779,49.982l-8.612,11.4a.5.5,0,0,1-.146.133l-4.675,2.7L57.434,77.131a.522.522,0,0,1-.161.153l-4.066,2.348-2.559,3.64a.517.517,0,0,1-.157.149l-4.075,2.352-2.929,3.864a.509.509,0,0,1-.146.132" transform="translate(-34.628 -38.032)" fill="#962dcc"/><path d="M99.45,61.511,88.307,67.945a.174.174,0,0,1-.2.01l-6.1-5.353L64.354,72.793a.2.2,0,0,1-.174.028l-8.727-3.77-18,10.391c-.135.078-.245.032-.245-.1a.507.507,0,0,1,.245-.385L55.555,68.5a.2.2,0,0,1,.173-.028l8.728,3.77L82.135,62.038a.174.174,0,0,1,.2-.01l6.1,5.353,11.015-6.36c.135-.077.245-.031.245.1a.507.507,0,0,1-.245.385" transform="translate(-34.621 -42.073)" fill="#711aa3"/><path d="M99,81.17a.209.209,0,0,0-.1.158v.337l-2.019,1.166v-.337c0-.055-.045-.074-.1-.042a.207.207,0,0,0-.1.158v.337l-2.02,1.166v-.337c0-.056-.044-.075-.1-.043a.207.207,0,0,0-.1.158v.337l-2.02,1.166v-.337c0-.055-.044-.074-.1-.042a.206.206,0,0,0-.1.158v.337l-2.02,1.166V86.34c0-.056-.044-.075-.1-.043a.207.207,0,0,0-.1.158v.338l-2.02,1.166v-.338c0-.055-.044-.074-.1-.042a.208.208,0,0,0-.1.158v.337l-2.02,1.166V88.9c0-.055-.044-.074-.1-.043a.208.208,0,0,0-.1.158v.338l-2.02,1.166v-.338c0-.055-.044-.074-.1-.042a.208.208,0,0,0-.1.158v.337L81.335,91.8v-.337c0-.055-.045-.074-.1-.042a.208.208,0,0,0-.1.158v.337l-2.019,1.166v-.337c0-.056-.045-.075-.1-.043a.209.209,0,0,0-.1.158V93.2l-2.019,1.166V94.03c0-.055-.045-.074-.1-.042a.209.209,0,0,0-.1.158v.337l-2.019,1.166v-.337c0-.055-.045-.074-.1-.043a.209.209,0,0,0-.1.158v.338l-2.019,1.166v-.338c0-.055-.045-.074-.1-.042a.209.209,0,0,0-.1.158v.337l-2.019,1.166v-.337c0-.055-.045-.074-.1-.042a.207.207,0,0,0-.1.158v.337l-2.02,1.166v-.337c0-.055-.044-.075-.1-.043a.207.207,0,0,0-.1.158v.338l-2.02,1.165v-.337c0-.055-.044-.074-.1-.042a.207.207,0,0,0-.1.158v.337l-2.02,1.166v-.337c0-.056-.044-.074-.1-.043a.207.207,0,0,0-.1.158v.338l-2.02,1.166V103c0-.056-.044-.075-.1-.043a.208.208,0,0,0-.1.158v.337l-2.02,1.166v-.337c0-.055-.044-.074-.1-.042a.206.206,0,0,0-.1.158v.337l-2.02,1.166v-.337c0-.056-.044-.075-.1-.043a.208.208,0,0,0-.1.158v.337l-2.02,1.166v-.337c0-.055-.045-.074-.1-.042a.209.209,0,0,0-.1.158v.337l-2.019,1.166v-.337c0-.055-.045-.075-.1-.043a.209.209,0,0,0-.1.158v.338l-2.019,1.166v-.338c0-.055-.045-.074-.1-.042a.209.209,0,0,0-.1.158v.337l-2.019,1.166v-.337c0-.055-.045-.074-.1-.042a.207.207,0,0,0-.1.158v.337l-2.019,1.166v-.337c0-.056-.045-.075-.1-.043a.209.209,0,0,0-.1.158v.337l-2.019,1.166v-.337c0-.055-.045-.074-.1-.042a.207.207,0,0,0-.1.158v.337l-2.02,1.166v-.337c0-.055-.044-.075-.1-.043a.207.207,0,0,0-.1.158v.338l-2.02,1.166v-.338c0-.055-.044-.074-.1-.042a.207.207,0,0,0-.1.158v.337l-2.02,1.166V117.1c0-.055-.044-.074-.1-.043a.207.207,0,0,0-.1.158v.338l-1.975,1.14v-2.062l.347-.2a.209.209,0,0,0,.1-.158c0-.055-.045-.074-.1-.042l-.347.2v-2.02l.347-.2a.209.209,0,0,0,.1-.158c0-.055-.045-.074-.1-.043l-.347.2v-2.019l.347-.2a.209.209,0,0,0,.1-.158c0-.055-.045-.074-.1-.042l-.347.2v-2.019l.347-.2a.209.209,0,0,0,.1-.158c0-.055-.045-.074-.1-.042l-.347.2v-2.02l.347-.2a.209.209,0,0,0,.1-.158c0-.056-.045-.075-.1-.043l-.347.2v-2.02l.347-.2a.209.209,0,0,0,.1-.158c0-.056-.045-.075-.1-.043l-.347.2v-2.02l.347-.2a.209.209,0,0,0,.1-.158c0-.056-.045-.075-.1-.043l-.347.2v-2.02l.347-.2a.207.207,0,0,0,.1-.158c0-.055-.045-.074-.1-.042l-.347.2v-2.02l.347-.2a.207.207,0,0,0,.1-.158c0-.055-.045-.074-.1-.042l-.347.2v-2.02l.347-.2a.207.207,0,0,0,.1-.158c0-.055-.045-.074-.1-.042l-.347.2v-2.02l.347-.2a.209.209,0,0,0,.1-.158c0-.055-.045-.074-.1-.042l-.347.2V92.212l.347-.2a.209.209,0,0,0,.1-.158c0-.055-.045-.074-.1-.042l-.347.2V89.992l.347-.2a.209.209,0,0,0,.1-.158c0-.055-.045-.074-.1-.042l-.347.2V87.772l.347-.2a.209.209,0,0,0,.1-.158c0-.055-.045-.074-.1-.043l-.347.2V85.552l.347-.2a.209.209,0,0,0,.1-.158c0-.055-.045-.074-.1-.043l-.347.2V83.332l.347-.2a.209.209,0,0,0,.1-.158c0-.055-.045-.074-.1-.043l-.347.2v-2.02l.347-.2a.209.209,0,0,0,.1-.158c0-.056-.045-.075-.1-.043l-.347.2v-2.02l.347-.2a.209.209,0,0,0,.1-.158c0-.056-.045-.075-.1-.043l-.347.2v-2.02l.347-.2a.209.209,0,0,0,.1-.158c0-.056-.045-.075-.1-.043l-.937.541a.208.208,0,0,0-.1.158c0,.055.044.074.1.043l.347-.2v2.019l-.347.2a.208.208,0,0,0-.1.158c0,.055.044.074.1.042l.347-.2v2.019l-.347.2a.208.208,0,0,0-.1.158c0,.055.044.074.1.042l.347-.2v2.02l-.347.2a.208.208,0,0,0-.1.158c0,.055.044.075.1.043l.347-.2v2.02l-.347.2a.208.208,0,0,0-.1.158c0,.055.044.075.1.043l.347-.2v2.02l-.347.2a.208.208,0,0,0-.1.158c0,.056.044.075.1.043l.347-.2v2.02l-.347.2a.208.208,0,0,0-.1.159c0,.055.044.074.1.042l.347-.2v2.02l-.347.2a.208.208,0,0,0-.1.158c0,.056.044.075.1.043l.347-.2v2.02l-.347.2a.208.208,0,0,0-.1.158c0,.056.044.075.1.043l.347-.2v2.02l-.347.2a.208.208,0,0,0-.1.158c0,.055.044.074.1.042l.347-.2v2.019l-.347.2a.208.208,0,0,0-.1.158c0,.055.044.074.1.042l.347-.2v2.019l-.347.2a.208.208,0,0,0-.1.158c0,.055.044.074.1.042l.347-.2v2.019l-.347.2a.208.208,0,0,0-.1.158c0,.055.044.074.1.042l.347-.2v2.019l-.347.2a.208.208,0,0,0-.1.158c0,.055.044.074.1.042l.347-.2v2.019l-.347.2a.208.208,0,0,0-.1.158c0,.055.044.074.1.042l.347-.2v2.02l-.347.2a.208.208,0,0,0-.1.158c0,.056.044.075.1.043l.347-.2v2.02l-.347.2a.208.208,0,0,0-.1.158c0,.056.044.075.1.043l.347-.2v2.02l-.347.2a.208.208,0,0,0-.1.158c0,.056.044.075.1.043l.347-.2v2.02l-.347.2a.206.206,0,0,0-.1.158c0,.055.044.074.1.042l.347-.2v2.185c0,.068.054.091.122.051l2.1-1.21v.356c0,.055.044.074.1.043a.208.208,0,0,0,.1-.158v-.356l2.02-1.166v.356c0,.055.044.074.1.042a.208.208,0,0,0,.1-.158V116.4l2.02-1.166v.356c0,.055.044.074.1.042a.206.206,0,0,0,.1-.158v-.355l2.02-1.166v.355c0,.056.045.075.1.043a.209.209,0,0,0,.1-.158v-.356l2.019-1.166v.356c0,.055.045.074.1.042a.207.207,0,0,0,.1-.158v-.355l2.019-1.166v.355c0,.056.045.075.1.043a.209.209,0,0,0,.1-.158v-.356l2.019-1.166v.356c0,.055.045.074.1.042a.209.209,0,0,0,.1-.158v-.356l2.019-1.165v.355c0,.055.045.074.1.043a.209.209,0,0,0,.1-.158v-.356l2.019-1.166v.356c0,.055.045.074.1.042a.209.209,0,0,0,.1-.158v-.356l2.02-1.166v.356c0,.055.044.074.1.042a.207.207,0,0,0,.1-.158v-.355l2.02-1.166v.355c0,.056.044.075.1.043a.207.207,0,0,0,.1-.158v-.356l2.02-1.166v.356c0,.055.044.074.1.042a.207.207,0,0,0,.1-.158v-.355l2.02-1.167v.356c0,.055.044.074.1.042a.206.206,0,0,0,.1-.158V102.3l2.02-1.166v.355c0,.056.044.075.1.043a.208.208,0,0,0,.1-.158v-.356l2.02-1.166v.356c0,.055.044.074.1.042a.206.206,0,0,0,.1-.158v-.355l2.02-1.166v.355c0,.056.045.075.1.043a.209.209,0,0,0,.1-.158v-.356l2.019-1.166v.356c0,.055.045.074.1.042a.208.208,0,0,0,.1-.158v-.355l2.019-1.166v.355c0,.056.045.074.1.043a.209.209,0,0,0,.1-.158v-.356l2.019-1.166v.355c0,.056.045.075.1.043a.209.209,0,0,0,.1-.158v-.356l2.019-1.166V93.8c0,.055.045.074.1.043a.209.209,0,0,0,.1-.159V93.33l2.019-1.166v.356c0,.055.045.074.1.042a.209.209,0,0,0,.1-.158v-.356l2.02-1.166v.356c0,.055.044.074.1.042a.207.207,0,0,0,.1-.158v-.355l2.02-1.166v.355c0,.055.044.074.1.043a.207.207,0,0,0,.1-.158v-.356l2.02-1.166v.356c0,.055.044.074.1.042a.207.207,0,0,0,.1-.158V88.2l2.02-1.166v.356c0,.055.044.074.1.042a.206.206,0,0,0,.1-.158v-.355l2.02-1.166v.355c0,.056.044.075.1.043a.208.208,0,0,0,.1-.158v-.356l2.02-1.166v.356c0,.055.044.074.1.042a.206.206,0,0,0,.1-.158v-.355l2.02-1.166v.355c0,.055.045.075.1.043a.209.209,0,0,0,.1-.158v-.356L98.9,81.91v.356c0,.055.045.074.1.042a.209.209,0,0,0,.1-.158v-.937c0-.055-.045-.074-.1-.042" transform="translate(-34.067 -44.769)" fill="#fdf"/><path d="M113.028,51a.618.618,0,0,1-.3.471c-.165.1-.3.04-.3-.126a.62.62,0,0,1,.3-.471c.166-.1.3-.039.3.126" transform="translate(-47.9 -40.281)" fill="#fdf"/><path d="M113.028,61.081a.618.618,0,0,1-.3.471c-.165.1-.3.039-.3-.126a.62.62,0,0,1,.3-.471c.166-.1.3-.039.3.126" transform="translate(-47.9 -42.06)" fill="#fdf"/><path d="M113.028,44.782a.619.619,0,0,1-.3.472c-.165.095-.3.039-.3-.127a.62.62,0,0,1,.3-.471c.166-.1.3-.039.3.126" transform="translate(-47.9 -39.182)" fill="#fdf"/><path d="M113.028,38.191a.618.618,0,0,1-.3.471c-.165.1-.3.039-.3-.126a.62.62,0,0,1,.3-.471c.166-.1.3-.039.3.126" transform="translate(-47.9 -38.019)" fill="#fdf"/><path d="M37.659,123.9a.62.62,0,0,1-.3.471c-.165.1-.3.039-.3-.126a.62.62,0,0,1,.3-.471c.165-.1.3-.04.3.126" transform="translate(-34.595 -53.15)" fill="#fdf"/><path d="M37.659,118.2a.62.62,0,0,1-.3.471c-.165.1-.3.039-.3-.126a.62.62,0,0,1,.3-.471c.165-.1.3-.04.3.126" transform="translate(-34.595 -52.143)" fill="#fdf"/><path d="M37.659,112.805a.62.62,0,0,1-.3.471c-.165.1-.3.039-.3-.126a.62.62,0,0,1,.3-.471c.165-.1.3-.039.3.126" transform="translate(-34.595 -51.191)" fill="#fdf"/><path d="M37.659,104.473a.619.619,0,0,1-.3.471c-.165.1-.3.04-.3-.126a.62.62,0,0,1,.3-.471c.165-.1.3-.039.3.126" transform="translate(-34.595 -49.72)" fill="#fdf"/><path d="M37.659,82.913a.62.62,0,0,1-.3.471c-.165.1-.3.04-.3-.126a.62.62,0,0,1,.3-.471c.165-.1.3-.039.3.126" transform="translate(-34.595 -45.914)" fill="#fdf"/><path d="M113.028,66.76a.616.616,0,0,1-.3.471c-.165.1-.3.039-.3-.126a.62.62,0,0,1,.3-.471c.166-.1.3-.039.3.126" transform="translate(-47.9 -43.062)" fill="#fdf"/></g></g><g transform="translate(30.494 47.001)" style="mix-blend-mode:screen;isolation:isolate"><g clip-path="url(#av)"><path d="M41.078,73.1l-4.047,2.336v-.56l4.047-2.336Z" transform="translate(-37.032 -59.806)" fill="#ffaff5"/><path d="M44.553,71.381l-1.694.977V71.8l1.694-.977Z" transform="translate(-38.06 -59.503)" fill="#ffaff5"/><path d="M47.9,69.4,45.831,70.6v-.56l2.07-1.195Z" transform="translate(-38.585 -59.154)" fill="#ffaff5"/><path d="M51.559,67.262l-2.3,1.328v-.56l2.3-1.328Z" transform="translate(-39.19 -58.776)" fill="#ffaff5"/><path d="M52.966,65.716v.56l3.7-2.137v-.56Z" transform="translate(-39.845 -58.225)" fill="#ffaff5"/><path d="M60.863,61.866,58.375,63.3v-.561l2.489-1.436Z" transform="translate(-40.799 -57.824)" fill="#ffaff5"/><path d="M67.59,57.637l-5.28,3.048v-.56l5.28-3.048Z" transform="translate(-41.494 -57.077)" fill="#ffaff5"/><path d="M39.635,75.955l-2.6,1.5V76.9l2.6-1.5Z" transform="translate(-37.032 -60.311)" fill="#ffaff5"/><path d="M42.8,74.24l-1.694.977v-.56L42.8,73.68Z" transform="translate(-37.751 -60.008)" fill="#ffaff5"/><path d="M47.591,71.249l-3.513,2.028v-.56l3.513-2.028Z" transform="translate(-38.276 -59.48)" fill="#ffaff5"/><path d="M53.273,67.906l-4.015,2.318v-.56l4.015-2.318Z" transform="translate(-39.19 -58.89)" fill="#ffaff5"/><path d="M55.048,66.321v.56l4.015-2.318V64Z" transform="translate(-40.212 -58.3)" fill="#ffaff5"/><path d="M62.511,62.863l-1.672.966v-.56l1.672-.966Z" transform="translate(-41.234 -58)" fill="#ffaff5"/><path d="M67.85,59.483l-4.067,2.349v-.561l4.067-2.348Z" transform="translate(-41.754 -57.403)" fill="#ffaff5"/><path d="M41.078,76.79l-4.047,2.336v-.56l4.047-2.336Z" transform="translate(-37.032 -60.458)" fill="#ffaff5"/><path d="M44.553,75.075l-1.694.978v-.561l1.694-.977Z" transform="translate(-38.06 -60.155)" fill="#ffaff5"/><path d="M47.9,73.1l-2.07,1.195v-.56l2.07-1.195Z" transform="translate(-38.585 -59.806)" fill="#ffaff5"/><path d="M51.559,70.955l-2.3,1.328v-.56l2.3-1.328Z" transform="translate(-39.19 -59.428)" fill="#ffaff5"/><path d="M52.966,69.409v.56l3.7-2.137v-.56Z" transform="translate(-39.845 -58.877)" fill="#ffaff5"/><path d="M60.863,65.56,58.375,67v-.56L60.863,65Z" transform="translate(-40.799 -58.476)" fill="#ffaff5"/><path d="M67.59,61.33l-5.28,3.048v-.56l5.28-3.048Z" transform="translate(-41.494 -57.729)" fill="#ffaff5"/></g></g><path d="M115.921,24.761,113.944,25.9c-.228.132-.413.054-.413-.175V23.752a.858.858,0,0,1,.413-.652l1.976-1.141c.228-.132.413-.054.413.175v1.975a.857.857,0,0,1-.413.652" transform="translate(-20.042 -3.865)" fill="#c860e4"/><path d="M111.835,27.12l-1.976,1.141c-.228.132-.413.054-.413-.175V26.111a.857.857,0,0,1,.413-.652l1.976-1.141c.228-.132.413-.054.413.175v1.975a.857.857,0,0,1-.413.652" transform="translate(-19.321 -4.282)" fill="#c860e4"/><path d="M107.75,29.479l-1.976,1.141c-.228.132-.413.054-.413-.175V28.47a.857.857,0,0,1,.413-.652l1.976-1.141c.228-.132.413-.054.413.175v1.975a.857.857,0,0,1-.413.652" transform="translate(-18.6 -4.698)" fill="#c860e4"/><path d="M61.14,47.789l-.809-.47-.473-3.375.809.47Z" transform="translate(-10.567 -7.758)" fill="#962dcc"/><path d="M60.666,43.573l-.809-.47,2.24-3.921.808.469Z" transform="translate(-10.567 -6.917)" fill="#ba5bd6"/><path d="M57.755,48.521l-.809-.47,2.871-.009.809.47-1.355.093Z" transform="translate(-10.053 -8.481)" fill="#ff98ff"/><path d="M54.274,51.814l-.809-.47,2.866-3.29.809.469Z" transform="translate(-9.439 -8.483)" fill="#ba5bd6"/></g><g transform="translate(42.707 31.324)"><g clip-path="url(#aw)"><rect width="12.548" height="9.927" transform="translate(-5.112 8.855) rotate(-60)" fill="url(#ax)"/></g></g><g clip-path="url(#c)"><path d="M59.873,40.109l-.809-.47,3.729-1.419.809.47Z" transform="translate(-10.427 -6.747)" fill="#ffaff5"/><path d="M53.648,52.858l-.809-.47.564-4.74.835.548Z" transform="translate(-9.328 -8.412)" fill="#962dcc"/><path d="M59.231,40.6l-.809-.47-1.487-2.414.809.47Z" transform="translate(-10.051 -6.658)" fill="#962dcc"/><path d="M55.623,41.817l-.809-.47,1.745-4.862.809.469Z" transform="translate(-9.677 -6.441)" fill="#ba5bd6"/><path d="M62.225,38.485l-2.643,4.626.558,3.983-3.388.011L53.37,50.988l.55-4.621-2.652-1.582L55,41.918l1.745-4.863L58.5,39.9Zm-2.6,8.088L59.15,43.2l2.239-3.921-3.158,1.2-1.487-2.414-1.48,4.121L52.1,44.616l2.247,1.341-.466,3.915,2.866-3.291Z" transform="translate(-9.051 -6.542)" fill="#d473f1"/></g><g transform="translate(41.41 34.906)"><g clip-path="url(#az)"><rect width="5.157" height="5.596" transform="translate(-1.445 2.503) rotate(-60)" fill="url(#ba)"/></g></g><g clip-path="url(#c)"><path d="M33.1,63.977l-.809-.47-.473-3.375.809.47Z" transform="translate(-5.617 -10.615)" fill="#962dcc"/><path d="M32.627,59.762l-.809-.47,2.24-3.921.808.469Z" transform="translate(-5.617 -9.775)" fill="#ba5bd6"/><path d="M29.716,64.71l-.809-.47,2.871-.009.809.47-1.355.093Z" transform="translate(-5.103 -11.339)" fill="#ff98ff"/><path d="M26.235,68l-.809-.47,2.866-3.29.809.469Z" transform="translate(-4.489 -11.341)" fill="#ba5bd6"/><path d="M31.192,56.785l-.809-.47L28.9,53.9l.809.47Z" transform="translate(-5.101 -9.515)" fill="#962dcc"/></g><g transform="translate(19.617 44.654)"><g clip-path="url(#bc)"><rect width="14.866" height="13.943" transform="translate(-5.112 8.854) rotate(-60)" fill="url(#bd)"/></g></g><g clip-path="url(#c)"><path d="M31.834,56.3l-.809-.47,3.729-1.419.809.47Z" transform="translate(-5.477 -9.605)" fill="#ffaff5"/><path d="M25.609,69.046l-.809-.47.564-4.74.835.548Z" transform="translate(-4.378 -11.269)" fill="#962dcc"/><path d="M27.584,58.005l-.809-.47,1.745-4.862.809.469Z" transform="translate(-4.727 -9.299)" fill="#ba5bd6"/><path d="M34.186,54.673,31.543,59.3l.558,3.983-3.388.011-3.382,3.883.549-4.621L23.23,60.972l3.728-2.866L28.7,53.243l1.755,2.848Zm-2.6,8.088-.473-3.375,2.239-3.921-3.159,1.2L28.7,54.254l-1.48,4.121L24.066,60.8l2.247,1.341-.466,3.915,2.866-3.291Z" transform="translate(-4.101 -9.399)" fill="#d473f1"/></g><g transform="translate(18.32 48.237)"><g clip-path="url(#bf)"><rect width="5.158" height="5.598" transform="translate(-1.445 2.503) rotate(-60)" fill="url(#bg)"/></g></g><g clip-path="url(#c)"><path d="M47.121,55.882l-.809-.47-.473-3.375.809.47Z" transform="translate(-8.092 -9.187)" fill="#962dcc"/><path d="M46.647,51.667l-.809-.47,2.24-3.921.808.469Z" transform="translate(-8.092 -8.346)" fill="#ba5bd6"/><path d="M43.737,56.615l-.809-.47,2.871-.009.809.47-1.355.093Z" transform="translate(-7.578 -9.91)" fill="#ff98ff"/><path d="M40.255,59.907l-.809-.47,2.866-3.291.809.47Z" transform="translate(-6.964 -9.912)" fill="#ba5bd6"/><path d="M45.212,48.691l-.809-.47-1.487-2.414.809.47Z" transform="translate(-7.576 -8.086)" fill="#962dcc"/></g><g transform="translate(31.162 37.989)"><g clip-path="url(#bi)"><rect width="14.867" height="13.944" transform="translate(-5.112 8.855) rotate(-60)" fill="url(#bj)"/></g></g><g clip-path="url(#c)"><path d="M45.854,48.2l-.809-.47,3.729-1.419.809.47Z" transform="translate(-7.952 -8.176)" fill="#ffaff5"/><path d="M39.629,60.951l-.809-.47.564-4.74.835.548Z" transform="translate(-6.853 -9.84)" fill="#962dcc"/><path d="M41.6,49.911l-.809-.47,1.745-4.862.809.469Z" transform="translate(-7.202 -7.87)" fill="#ba5bd6"/><path d="M48.207,46.579,45.564,51.2l.558,3.983-3.388.011-3.383,3.883.55-4.621-2.651-1.583,3.728-2.866,1.745-4.863L44.479,48Zm-2.6,8.088-.473-3.375,2.239-3.921-3.159,1.2L42.725,46.16l-1.48,4.121L38.087,52.71l2.247,1.341-.466,3.915,2.866-3.291Z" transform="translate(-6.576 -7.97)" fill="#d473f1"/></g><g transform="translate(29.866 41.571)"><g clip-path="url(#bl)"><rect width="5.158" height="5.597" transform="matrix(0.5, -0.866, 0.866, 0.5, -1.445, 2.503)" fill="url(#bm)"/></g></g><g clip-path="url(#c)"><path d="M19.083,72.07l-.809-.47L17.8,68.225l.809.47Z" transform="translate(-3.143 -12.044)" fill="#962dcc"/><path d="M18.61,67.855l-.809-.47,2.24-3.921.808.469Z" transform="translate(-3.142 -11.204)" fill="#ba5bd6"/><path d="M15.7,72.8l-.809-.47,2.871-.009.809.47-1.355.093Z" transform="translate(-2.629 -12.768)" fill="#ff98ff"/><path d="M12.218,76.095l-.809-.47,2.866-3.291.809.47Z" transform="translate(-2.014 -12.77)" fill="#ba5bd6"/><path d="M17.174,64.878l-.809-.47-1.487-2.414.809.47Z" transform="translate(-2.627 -10.944)" fill="#962dcc"/></g><g transform="translate(8.074 51.318)"><g clip-path="url(#bo)"><rect width="14.867" height="13.944" transform="translate(-5.112 8.855) rotate(-60)" fill="url(#bp)"/></g></g><g clip-path="url(#c)"><path d="M17.816,64.39l-.809-.47L20.736,62.5l.809.47Z" transform="translate(-3.002 -11.034)" fill="#ffaff5"/><path d="M11.591,77.139l-.809-.47.564-4.74.835.548Z" transform="translate(-1.904 -12.698)" fill="#962dcc"/><path d="M13.567,66.1l-.809-.47L14.5,60.766l.809.469Z" transform="translate(-2.252 -10.727)" fill="#ba5bd6"/><path d="M20.169,62.766l-2.643,4.626.558,3.983-3.388.011-3.382,3.883.549-4.621L9.213,69.065,12.941,66.2l1.745-4.863,1.755,2.848Zm-2.6,8.088-.473-3.375,2.239-3.921-3.158,1.2-1.487-2.414-1.48,4.121L10.049,68.9,12.3,70.238l-.466,3.915L14.7,70.863Z" transform="translate(-1.626 -10.828)" fill="#d473f1"/></g><g transform="translate(6.778 54.901)"><g clip-path="url(#br)"><rect width="5.157" height="5.597" transform="matrix(0.5, -0.866, 0.866, 0.5, -1.444, 2.502)" fill="url(#bs)"/></g></g><g clip-path="url(#c)"><g transform="translate(118.492 40.741)" style="mix-blend-mode:screen;isolation:isolate"><g clip-path="url(#bu)"><path d="M148.036,55.177l-4.142,2.392v.577l4.142-2.391Zm4.919-2.84-4.143,2.392v.577l4.143-2.391Zm2.5-1.445-1.726,1v.578l1.726-1Zm.777-.448v.577l1.676-.968v-.578Zm-9.968,7.324-2.373,1.37v.578l2.373-1.37Zm4.595-2.653-3.818,2.2V57.9l3.818-2.2Zm.777.129,2.568-1.482v-.578l-2.568,1.482Zm3.344-1.931,2.927-1.69v-.578l-2.927,1.69Zm-6.948,5-4.142,2.391v.578l4.142-2.391Zm4.919-2.84-4.143,2.391v.578l4.143-2.391Zm2.5-1.445-1.726,1V55.6l1.726-1Zm.777.129,1.676-.968v-.578l-1.676.968Zm-9.968,6.747-2.373,1.37v.578l2.373-1.37Zm.777.129,3.818-2.2v-.578l-3.818,2.2Zm4.6-2.653,2.568-1.482v-.578L151.64,57.8Zm3.344-1.931,2.927-1.691v-.577l-2.927,1.69Zm-6.948,5-4.142,2.391v.578l4.142-2.391Zm4.919-2.84L148.813,61v.578l4.143-2.391Zm.777.129,1.726-1v-.578l-1.726,1Zm2.5-1.445,1.676-.968v-.578l-1.676.968Zm-12.341,8.694,2.373-1.37v-.577l-2.373,1.37Zm3.15-1.818,3.818-2.205v-.577l-3.818,2.2Zm4.6-2.653,2.568-1.482V59.46l-2.568,1.482Zm3.344-1.931,2.927-1.691V57.32l-2.927,1.691Z" transform="translate(-143.894 -49.475)" fill="#fdc5ff"/></g></g><g transform="translate(118.492 27.148)" style="mix-blend-mode:screen;isolation:isolate"><g clip-path="url(#bu)"><path d="M148.036,38.67l-4.142,2.392v.577l4.142-2.391Zm4.919-2.84-4.143,2.392V38.8l4.143-2.391Zm2.5-1.445-1.726,1v.577l1.726-1Zm.777-.448v.578l1.676-.968v-.578Zm-9.968,7.324-2.373,1.37v.578l2.373-1.37Zm4.595-2.653-3.818,2.2v.578l3.818-2.2Zm.777.129,2.568-1.482v-.578l-2.568,1.482Zm3.344-1.931,2.927-1.69v-.578l-2.927,1.691Zm-6.948,5L143.894,44.2v.578l4.142-2.391Zm4.919-2.84-4.143,2.391v.578l4.143-2.391Zm2.5-1.445-1.726,1V39.1l1.726-1Zm.777.129,1.676-.968v-.578l-1.676.968ZM146.267,44.4l-2.373,1.37v.578l2.373-1.37Zm.777.129,3.818-2.2v-.578l-3.818,2.2Zm4.6-2.653,2.568-1.482v-.578L151.64,41.3Zm3.344-1.931,2.927-1.691v-.577l-2.927,1.69Zm-6.948,5-4.142,2.391v.578l4.142-2.391Zm4.919-2.84L148.813,44.5v.578l4.143-2.391Zm.777.129,1.726-1v-.578l-1.726,1Zm2.5-1.445,1.676-.968v-.578l-1.676.968Zm-12.341,8.695,2.373-1.371v-.577l-2.373,1.37Zm3.15-1.819,3.818-2.205v-.577l-3.818,2.2Zm4.6-2.653,2.568-1.482v-.578l-2.568,1.482Zm3.344-1.931,2.927-1.691v-.577l-2.927,1.69Z" transform="translate(-143.894 -32.968)" fill="#fdc5ff"/></g></g></g></g></g></g></svg>