<svg id="Grupo_1182080" data-name="Grupo 1182080" xmlns="http://www.w3.org/2000/svg" xmlns:xlink="http://www.w3.org/1999/xlink" width="105.468" height="112.024" viewBox="0 0 105.468 112.024">
  <defs>
    <clipPath id="clip-path">
      <rect id="Rectángulo_424792" data-name="Rectángulo 424792" width="105.468" height="112.024" fill="none"/>
    </clipPath>
    <clipPath id="clip-path-3">
      <path id="Trazado_1044264" data-name="Trazado 1044264" d="M38.525,39.394l14.718,8.554.181-.036L38.705,39.358Z" fill="none"/>
    </clipPath>
    <linearGradient id="linear-gradient" x1="-2.586" y1="8.459" x2="-2.519" y2="8.459" gradientUnits="objectBoundingBox">
      <stop offset="0" stop-color="#ffc5ff"/>
      <stop offset="1" stop-color="#ffdeff"/>
    </linearGradient>
    <clipPath id="clip-path-5">
      <path id="Trazado_1044266" data-name="Trazado 1044266" d="M26.171,57.228,40.89,65.782l9.557-5.518L35.729,51.71Z" fill="none"/>
    </clipPath>
    <linearGradient id="linear-gradient-2" x1="-1.078" y1="4.286" x2="-1.037" y2="4.286" xlink:href="#linear-gradient"/>
    <clipPath id="clip-path-7">
      <rect id="Rectángulo_424782" data-name="Rectángulo 424782" width="6.905" height="3.989" transform="translate(32.168 58.334)" fill="none"/>
    </clipPath>
    <clipPath id="clip-path-8">
      <rect id="Rectángulo_424783" data-name="Rectángulo 424783" width="6.904" height="2.468" transform="translate(32.169 58.334)" fill="none"/>
    </clipPath>
    <clipPath id="clip-path-9">
      <path id="Trazado_1044289" data-name="Trazado 1044289" d="M2.969,67.322a.53.53,0,0,0-.183.105l-.684.6a.545.545,0,0,1,.184-.105,1.08,1.08,0,0,1,.823.189l12.814,7.4a4.581,4.581,0,0,1,1.893,2.461l2.508,9.919c.1.406.053.7-.113.844l.683-.6c.166-.146.215-.439.113-.845L18.5,77.37a4.57,4.57,0,0,0-1.893-2.46l-12.814-7.4A1.365,1.365,0,0,0,3.14,67.3a.539.539,0,0,0-.171.026" fill="none"/>
    </clipPath>
    <linearGradient id="linear-gradient-3" x1="0.073" y1="1.702" x2="0.11" y2="1.702" gradientUnits="objectBoundingBox">
      <stop offset="0" stop-color="#a348ff"/>
      <stop offset="0.315" stop-color="#a041f9"/>
      <stop offset="0.758" stop-color="#972fe9"/>
      <stop offset="1" stop-color="#9222de"/>
    </linearGradient>
    <clipPath id="clip-path-11">
      <rect id="Rectángulo_424790" data-name="Rectángulo 424790" width="27.257" height="18.739" transform="translate(55.453 29.535)" fill="none"/>
    </clipPath>
    <clipPath id="clip-path-12">
      <path id="Trazado_1044296" data-name="Trazado 1044296" d="M68.021,33.57l14.688,8.536-9.747,5.758-14.371-8.85Z" fill="none"/>
    </clipPath>
    <linearGradient id="linear-gradient-4" x1="-2.391" y1="3.043" x2="-2.35" y2="3.043" xlink:href="#linear-gradient"/>
    <clipPath id="clip-path-13">
      <rect id="Rectángulo_424787" data-name="Rectángulo 424787" width="6.419" height="3.708" transform="translate(69.246 36.92)" fill="none"/>
    </clipPath>
    <clipPath id="clip-path-14">
      <rect id="Rectángulo_424788" data-name="Rectángulo 424788" width="6.418" height="2.295" transform="translate(69.247 36.92)" fill="none"/>
    </clipPath>
    <clipPath id="clip-path-15">
      <path id="Trazado_1044301" data-name="Trazado 1044301" d="M70.308,38.071,55.619,29.535l-.166.164,14.689,8.537Z" fill="none"/>
    </clipPath>
    <linearGradient id="linear-gradient-5" x1="-3.733" y1="9.48" x2="-3.666" y2="9.48" xlink:href="#linear-gradient"/>
  </defs>
  <g id="Grupo_1182079" data-name="Grupo 1182079" clip-path="url(#clip-path)">
    <g id="Grupo_1182047" data-name="Grupo 1182047">
      <g id="Grupo_1182046" data-name="Grupo 1182046" clip-path="url(#clip-path)">
        <path id="Trazado_1044217" data-name="Trazado 1044217" d="M50.18,92.68c.652-.49.741-2.925-1.9-3.344-1.644-.261-6.18,1.379-8.28,2.439a2.833,2.833,0,0,0,.283,2.461,2.942,2.942,0,0,0,2.687.7c1.662-.19,6.092-1.417,7.211-2.259" fill="#9222de"/>
        <path id="Trazado_1044218" data-name="Trazado 1044218" d="M37.4,90.715a2.1,2.1,0,0,0-1.63-3.337c-1.551-.018-3.968,3.022-5.809,4.214a2.644,2.644,0,0,0,.507,2.253,2.747,2.747,0,0,0,2.561.384c1.522-.341,3.425-2.614,4.371-3.514" fill="#9222de"/>
        <path id="Trazado_1044219" data-name="Trazado 1044219" d="M50.1,91.927c.647-.486.813-2.456-1.81-2.872-1.631-.259-6.211.922-8.295,1.974a2.812,2.812,0,0,0,.281,2.442,2.925,2.925,0,0,0,2.667.7c1.649-.19,6.046-1.408,7.157-2.243" fill="#150e16"/>
        <path id="Trazado_1044220" data-name="Trazado 1044220" d="M37.4,89.791c.555-.519.513-2.375-1.978-2.5-1.55-.078-3.62,2.186-5.461,3.378a2.644,2.644,0,0,0,.507,2.253,2.75,2.75,0,0,0,2.561.385c1.522-.342,3.417-2.623,4.371-3.515" fill="#150e16"/>
        <path id="Trazado_1044221" data-name="Trazado 1044221" d="M39.567,76.234a3.557,3.557,0,0,1,2.141,2.481c1.236,5.247,3.074,11.668,3.134,12.718.05.871-1.188,1.636-2.036,1.838-1.711.408-2.233.085-2.716-.581a87.9,87.9,0,0,1-5.828-18.9c1.721,1.3,3.474,1.714,5.305,2.448" fill="#19032d"/>
        <path id="Trazado_1044222" data-name="Trazado 1044222" d="M34.261,72.705c-.145,8.169.574,17.71.289,18.689-.509,1.344-4.28,1.608-4.532.414A132.089,132.089,0,0,1,28.3,70.41c2.087,1.223,4.027.835,5.962,2.295" fill="#19032d"/>
        <path id="Trazado_1044223" data-name="Trazado 1044223" d="M97.748,44.659a1.606,1.606,0,0,0,.68-.955l1.653-6.587.479-.089,1,.583-1.653,6.6a2.716,2.716,0,0,1-1.157,1.617l-3.724,2.15-1-.584,0-.584Z" fill="#150e16"/>
        <path id="Trazado_1044224" data-name="Trazado 1044224" d="M83.683,39.164a1.62,1.62,0,0,0-.722-1.019l-.769-.447a1.621,1.621,0,0,1,.722,1.019L86.525,51.8l.769.447Z" fill="#150e16"/>
        <path id="Trazado_1044225" data-name="Trazado 1044225" d="M67.89,47.2l-3.566,17.41.769.447L68.9,47.406Z" fill="#150e16"/>
        <path id="Trazado_1044226" data-name="Trazado 1044226" d="M82.633,36.945a2.438,2.438,0,0,0-2.451.237L71.2,42.367a7.7,7.7,0,0,0-3.313,4.838l1.008.584a7.714,7.714,0,0,1,3.075-4.975l8.98-5.185a2.436,2.436,0,0,1,2.45-.237Z" fill="#150e16"/>
        <path id="Trazado_1044227" data-name="Trazado 1044227" d="M84.282,38.631c-.409-1.485-1.778-1.9-3.33-1l-8.98,5.184a7.7,7.7,0,0,0-3.313,4.838l-3.566,17.41.641-.37,3.525-17.2a6.324,6.324,0,0,1,2.715-3.969l8.98-5.184c1.273-.735,2.395-.394,2.729.825l3.611,13.079.641-.37Z" fill="#150e16"/>
        <path id="Trazado_1044228" data-name="Trazado 1044228" d="M85.559,37.621a1.606,1.606,0,0,0,.68-.955l1.653-6.587.479-.089,1,.583-1.653,6.6a2.716,2.716,0,0,1-1.157,1.617l-3.724,2.15-1-.583,0-.585Z" fill="#150e16"/>
        <path id="Trazado_1044229" data-name="Trazado 1044229" d="M66.907,47.516c.019-.04.249-.481.249-.481A6.285,6.285,0,0,1,68,45.8a4.248,4.248,0,0,1,1.05-.886l13.041-7.53a.183.183,0,0,1,.186-.013l16.819,9.765a.181.181,0,0,0-.185.013l-13.041,7.53a4.252,4.252,0,0,0-1.051.886,6.4,6.4,0,0,0-.84,1.237l-.229.441c-.105.234-.1.446,0,.53l-16.81-9.759a.441.441,0,0,1-.03-.5" fill="#a348ff"/>
        <path id="Trazado_1044230" data-name="Trazado 1044230" d="M83.746,57.241l.229-.441a5.246,5.246,0,0,1,1.891-2.123l13.041-7.53c.15-.086.281,0,.281.2a.66.66,0,0,1-.279.534l-13.041,7.53A4.137,4.137,0,0,0,84.376,57.1l-.23.44a.527.527,0,0,1-.2.216.181.181,0,0,1-.2.015.472.472,0,0,1,0-.53" fill="#150e16"/>
        <path id="Trazado_1044231" data-name="Trazado 1044231" d="M101.216,49.287a1.62,1.62,0,0,0-.722-1.019l-.769-.447a1.624,1.624,0,0,1,.722,1.019l3.611,13.079.769.447Z" fill="#150e16"/>
        <path id="Trazado_1044232" data-name="Trazado 1044232" d="M85.422,57.327l-3.566,17.41.769.447,3.811-17.655Z" fill="#150e16"/>
        <path id="Trazado_1044233" data-name="Trazado 1044233" d="M100.166,47.067a2.438,2.438,0,0,0-2.451.237l-8.98,5.185a7.7,7.7,0,0,0-3.313,4.838l1.008.584A7.714,7.714,0,0,1,89.5,52.936l8.98-5.185a2.438,2.438,0,0,1,2.45-.237Z" fill="#150e16"/>
        <path id="Trazado_1044234" data-name="Trazado 1044234" d="M101.815,48.754c-.409-1.486-1.778-1.9-3.33-1L89.5,52.936a7.7,7.7,0,0,0-3.313,4.838l-3.566,17.41.641-.37,3.525-17.2a6.324,6.324,0,0,1,2.715-3.969l8.98-5.184c1.273-.735,2.4-.394,2.729.825l3.611,13.079.641-.37Z" fill="#150e16"/>
        <path id="Trazado_1044235" data-name="Trazado 1044235" d="M102.462,26.451C100.5,25.321,95.1,22.2,89.551,19a1.8,1.8,0,0,0-1.491-.2l-.618.242,12.742,24.052.146-.049a6.219,6.219,0,0,0,.888-.414,2.185,2.185,0,0,0,.868-1.467c.064-.363,1.944-11.1,1.944-11.1a3.642,3.642,0,0,0-1.568-3.609" fill="#a348ff"/>
        <path id="Trazado_1044236" data-name="Trazado 1044236" d="M101.695,26.683,88.784,19.229a1.641,1.641,0,0,0-1.343-.193,2.056,2.056,0,0,0-1.28,1.682c-.208,1.183-1.744,9.955-1.943,11.088-.032.183-.032.183,0,.011a3.653,3.653,0,0,0,1.579,3.613l12.911,7.454a1.776,1.776,0,0,0,1.478.2,1.876,1.876,0,0,0,1.164-1.572l1.943-11.088a3.809,3.809,0,0,0-1.6-3.743" fill="#6e16b1"/>
        <path id="Trazado_1044237" data-name="Trazado 1044237" d="M72.937,65.8s.024.3.049.437c-.034.35-.017,1.072-.311,1.319-.7.592-1.338.724-2.121,1.337a9.038,9.038,0,0,1-2.138,1.437,7.106,7.106,0,0,1-2.5.351c-.974-.086-1.982-.6-2-1.431-.013-.626.1-.858.16-.9.51-.349,2.9-.654,3.945-1.137,1.108-.511,2.229-.985,3.3-1.538.478-.248,1.826-.864,1.618.123" fill="#232323"/>
        <path id="Trazado_1044238" data-name="Trazado 1044238" d="M69.041,60.859c-.044.424-.092.849-.133,1.273a8.328,8.328,0,0,1-.7,3.067c-.508.982-5.2,2.254-3.99,3.839a1.3,1.3,0,0,0,.536.372,4.444,4.444,0,0,0,3.855-.164c.96-.524,1.709-1.4,2.713-1.829a4.394,4.394,0,0,0,1.156-.55c.917-.776.437-2.228.369-3.427a6.57,6.57,0,0,1,.251-1.951Z" fill="#161616"/>
        <path id="Trazado_1044239" data-name="Trazado 1044239" d="M80.541,69.857s.04.3.073.433c-.015.352.041,1.072-.238,1.335-.671.629-1.3.8-2.045,1.451a9.015,9.015,0,0,1-2.057,1.552,7.079,7.079,0,0,1-2.476.486c-.977-.032-2.012-.486-2.075-1.319-.047-.624.054-.862.111-.906.49-.376,2.858-.811,3.877-1.35,1.078-.571,2.171-1.106,3.208-1.717.464-.273,1.775-.962,1.622.035" fill="#232323"/>
        <path id="Trazado_1044240" data-name="Trazado 1044240" d="M76.38,65.14c-.021.426-.045.853-.063,1.279a8.34,8.34,0,0,1-.527,3.1c-.454,1.008-5.074,2.535-3.775,4.051a1.328,1.328,0,0,0,.556.343,4.447,4.447,0,0,0,3.841-.375c.929-.576,1.629-1.489,2.608-1.975a4.348,4.348,0,0,0,1.124-.612c.873-.825.315-2.249.182-3.443a6.521,6.521,0,0,1,.144-1.961Z" fill="#161616"/>
        <path id="Trazado_1044241" data-name="Trazado 1044241" d="M68.375,46.185c5.419-4.531,8.817-6.386,11.219-8.57a8.856,8.856,0,0,0,.417-2.522c.244.348.461,1.023.717,1.492,1.087,1.984,3.4,2.929,6,3.543,2.2.52,4.791,1.089,6.843,1.354a6.847,6.847,0,0,1-.432,4.6c-.848,1.651-8.268,6.591-10.811,8.266a2.279,2.279,0,0,0-1.021,1.784l-.7,13.242c-.51,1.529-4.8,1.028-4.741-.448,0,0-1.5-13.821-1.381-16.712a1.805,1.805,0,0,1,.654-1.321,66.539,66.539,0,0,1,5.621-4.468c.584-.412.564-.519-.121-.1-3.277,1.992-5.84,3.691-6.733,4.309a.357.357,0,0,0-.153.289l-.6,14.055c-.8,1.971-4.883,1.284-4.956-.322L67.161,48.647a3.384,3.384,0,0,1,1.214-2.462" fill="#19032d"/>
        <path id="Trazado_1044242" data-name="Trazado 1044242" d="M85.029,14.084c-.961,1.119.333,1.444-.734,2.239-.851.634-6.748,4.384-9.04,5.838a2.623,2.623,0,0,1-1.962.348l-10.312-2.38c-1.155-.381-.075-4.22,1.307-3.754l8.947,1.852c1.774-1.4,5.631-5.788,8.019-7.7.816-.589,2.024-.258,2.951.759,0,0,1.543,1.96.824,2.8" fill="#280046"/>
        <path id="Trazado_1044243" data-name="Trazado 1044243" d="M64.046,16.624c.982.838-.372,3.511-.968,3.258l-.386-.154c-.934-.381.316-3.42,1.031-3.221a1.163,1.163,0,0,1,.323.117" fill="#f2f2f2"/>
        <path id="Trazado_1044244" data-name="Trazado 1044244" d="M63.562,16.744c-.159-.1-.325-.186-.325-.186s-.672-.517-1.171-.94a1.568,1.568,0,0,0-.754-.346,1.954,1.954,0,0,0-1.852.4,5.124,5.124,0,0,0-.622.006,2.707,2.707,0,0,0-.923.352c-.254.112-.572.142-.641.475-.015.076-.009.155-.031.229-.041.137-.172.236-.2.377a.551.551,0,0,0,.023.234l.141.573a.942.942,0,0,0,.429.669,17.194,17.194,0,0,0,2.215.333,25.354,25.354,0,0,1,2.937.613c.626.151,1.54-2.1.773-2.79" fill="#f7b884"/>
        <path id="Trazado_1044245" data-name="Trazado 1044245" d="M80.316,38.194c-.235-.953,2.587-11.04,2.353-14.406-.031-1.732-.026-3.421.046-4.915.122-2.547-.078-2.443.734-4.917.478-1.458,1.016-2.762,3.227-2.143a5.582,5.582,0,0,1,1.535.755,6.8,6.8,0,0,0,.943.459,8.71,8.71,0,0,1,1.159.781c1.237.837-.089,4.032-1.041,6.238-.179.707,3.881,19.868,3.642,20.88-.629.243-2.933,1.677-8.371.214-3.481-.937-4.241-2.361-4.227-2.946" fill="#fee9ff"/>
        <path id="Trazado_1044246" data-name="Trazado 1044246" d="M87.546,24.151c.608-1.711.821-3.59,1.572-5.26a8.658,8.658,0,0,0,1.173-3.275,4.156,4.156,0,0,0-.58-2.451,55.359,55.359,0,0,1,4.806,3.268,2.568,2.568,0,0,1,.992,2.49c-.424,2.4-1.9,6.719-2.039,13.287a76.53,76.53,0,0,0,.721,11.17c-.191.639-4.193,2.479-8.28,1.511,0-5.759.322-8.969.231-11.7,0-.018,0-.035,0-.053a33.492,33.492,0,0,1,1.406-8.972s0-.007,0-.01" fill="#280046"/>
        <path id="Trazado_1044247" data-name="Trazado 1044247" d="M78.314,39.178c.167-2.4,1.179-5.009,1.436-9.2A93.2,93.2,0,0,0,79.2,19.006c-.166-2.19.713-7.351,2.334-8.583.578-.5,2.726.048,5.2,1.175-1.517.342-3.039.817-3.633,2.366-.616,1.609-.6,2.206-.473,6.5a60.929,60.929,0,0,0,.1,6.555,12.8,12.8,0,0,1-.1,2.941,112.888,112.888,0,0,1-2.948,11.681,4.857,4.857,0,0,1-1.371-2.463" fill="#280046"/>
        <path id="Trazado_1044248" data-name="Trazado 1044248" d="M84.277,17.406a3.648,3.648,0,0,1-.354-1.637c.046-.441,0-.935.456-.772a5.78,5.78,0,0,1,1.529.781c.43.382.355.756.283,1.234-.128.849-1.534,1.281-1.914.394" fill="#c82e2e"/>
        <path id="Trazado_1044249" data-name="Trazado 1044249" d="M83.012,33.064l1.5-16.634.861.513-.564,17.111a17.683,17.683,0,0,1-1.262,1.811,27.582,27.582,0,0,1-.54-2.8" fill="#c82e2e"/>
        <path id="Trazado_1044250" data-name="Trazado 1044250" d="M82.648,12.718c.682-.783,1.554-1.331,2.471-.843,0,0-2.3,2.773-2.287,3.523.06,6.168.887,7.879-.368,15.569-.386-7.4-.551-10.75-.742-14.306a5.309,5.309,0,0,1,.926-3.943" fill="#2f0056"/>
        <path id="Trazado_1044251" data-name="Trazado 1044251" d="M90.069,16.1a2.328,2.328,0,0,0,.15-2.621A3.173,3.173,0,0,1,91.736,17.6c-.948,2.13-2.632,5.21-3.632,7.313a20.89,20.89,0,0,0-1.941,8.67c-.644-3.655,1.712-14.467,3.906-17.479" fill="#2f0056"/>
        <path id="Trazado_1044252" data-name="Trazado 1044252" d="M84.33,13.288c.014-.052.029-.1.046-.152a6.108,6.108,0,0,0,.491-1.08c-.018-.2-.6-.087-1.106.628-.338.479-1.557,3.486-1.557,3.486s2.893-.942,2.913-1.023c.047-.19-.8-.909-.837-1.125a1.8,1.8,0,0,1,.05-.734" fill="#fee9ff"/>
        <path id="Trazado_1044253" data-name="Trazado 1044253" d="M90.12,10.111c-.268-.439-1.07-.273-1.555-.282-.762-.014-1.526-.024-2.284.018-.189.01-1.13-.017-1.19.258-.105.482-.737,1.5-.787,1.991-.313,1.611-.159,2.642.814,3.051l.691.427c2.216,1.538,3.85-.753,4.212-1-.155-1.794.291-3.561.18-4.239a.607.607,0,0,0-.081-.224" fill="#e29e6a"/>
        <path id="Trazado_1044254" data-name="Trazado 1044254" d="M85.108,15.164l2.272,3.208a6.717,6.717,0,0,0,2.885-2.033,2.429,2.429,0,0,0,.744-2.235,4.58,4.58,0,0,0-.992-1.233c-.035,2.528-3.413,2.871-4.909,2.293" fill="#fee9ff"/>
        <path id="Trazado_1044255" data-name="Trazado 1044255" d="M84.449,14.069c1.4.18,4.572-.36,4.94-1.384.62-1.723,1.218-3.5.441-5.718a5.652,5.652,0,0,0-1.643-2.446,7.363,7.363,0,0,0-1.832-1.049C84.5,2.667,82.9,2.76,82.8,4.662A23.956,23.956,0,0,0,82.723,7.5c.2,3.057.475,6.411,1.726,6.572" fill="#f7b884"/>
        <path id="Trazado_1044256" data-name="Trazado 1044256" d="M88.1.06c-5.745-.544-6.527,2.75-5.287,4.114.728.412,1.627.7,2.519,1.138a2.606,2.606,0,0,1,1.445,2.08c.086.906,0,1.878.124,2.3.038.131.334.3.529-.033.227-.395.1-1.622,1.163-1.361,1.271.312.021,4.172,1.047,3.665,1.725-.753,2.183-2.556,2.465-3.659C92.5,6.762,93.943.613,88.1.06" fill="#150e16"/>
        <path id="Trazado_1044257" data-name="Trazado 1044257" d="M96.175,21.007c-.37.991-2.363,7.756-3.378,10.361-.266.683-8.435,7.384-8.435,7.384-.921.8-3.66-2.1-2.549-3.05l6.9-6.778c.831-2.1,2.317-7.7,3.419-10.552.408-.92,1.267-2.2,2.579-1.785a3.573,3.573,0,0,1,1.459,4.42" fill="#280046"/>
        <path id="Trazado_1044258" data-name="Trazado 1044258" d="M81.73,36.16c1.085-.506,2.814,2.143,2.216,2.567l-.248.189c-.808.6-2.772-2.028-2.234-2.539a1.551,1.551,0,0,1,.266-.217" fill="#f2f2f2"/>
        <path id="Trazado_1044259" data-name="Trazado 1044259" d="M18.028,85.3,60.813,60.554l.079-27.839L18.107,57.463Z" fill="#5c139f"/>
        <path id="Trazado_1044260" data-name="Trazado 1044260" d="M50.4,73.393,93.188,48.645,58.105,28.39,15.32,53.138Z" fill="#a348ff"/>
        <path id="Trazado_1044261" data-name="Trazado 1044261" d="M50.315,103.943,93.1,79.2l.087-30.55L50.4,73.393Z" fill="#9222de"/>
        <path id="Trazado_1044262" data-name="Trazado 1044262" d="M15.32,53.138l-.087,30.55L18.028,85.3l.079-27.839L47.593,74.487l-.079,27.839,2.8,1.617.086-30.55Z" fill="#6e16b1"/>
        <path id="Trazado_1044263" data-name="Trazado 1044263" d="M59.552,39.314H47l-.254.147L62,48.271H72.741a.043.043,0,0,0,.024-.078Z" fill="#6e16b1"/>
      </g>
    </g>
    <g id="Grupo_1182049" data-name="Grupo 1182049">
      <g id="Grupo_1182048" data-name="Grupo 1182048" clip-path="url(#clip-path-3)">
        <rect id="Rectángulo_424779" data-name="Rectángulo 424779" width="14.899" height="8.59" transform="translate(38.525 39.358)" fill="url(#linear-gradient)"/>
      </g>
    </g>
    <g id="Grupo_1182051" data-name="Grupo 1182051">
      <g id="Grupo_1182050" data-name="Grupo 1182050" clip-path="url(#clip-path)">
        <path id="Trazado_1044265" data-name="Trazado 1044265" d="M40.89,65.782,26.171,57.229l0,.424,14.718,8.553Z" fill="#8b3dce"/>
      </g>
    </g>
    <g id="Grupo_1182053" data-name="Grupo 1182053">
      <g id="Grupo_1182052" data-name="Grupo 1182052" clip-path="url(#clip-path-5)">
        <rect id="Rectángulo_424781" data-name="Rectángulo 424781" width="24.276" height="14.072" transform="translate(26.171 51.71)" fill="url(#linear-gradient-2)"/>
      </g>
    </g>
    <g id="Grupo_1182061" data-name="Grupo 1182061">
      <g id="Grupo_1182060" data-name="Grupo 1182060" clip-path="url(#clip-path)">
        <path id="Trazado_1044267" data-name="Trazado 1044267" d="M53.243,47.948,38.524,39.395,35.566,51.8l14.805,8.6Z" fill="#8b3dce"/>
        <path id="Trazado_1044268" data-name="Trazado 1044268" d="M52.876,48.106,38.738,39.89l-2.8,11.755,14.138,8.216Z" fill="#101014"/>
        <path id="Trazado_1044269" data-name="Trazado 1044269" d="M53.424,47.912l-.181.036-2.953,12.4-9.4,5.437v.424l9.573-5.527a.971.971,0,0,0,.416-.74.33.33,0,0,0-.1-.257Z" fill="#cb89f0"/>
        <path id="Trazado_1044270" data-name="Trazado 1044270" d="M47.015,60.391l.5-.291a.235.235,0,0,1,.21,0l.6.346a.064.064,0,0,1,0,.121l-.5.291a.229.229,0,0,1-.21,0l-.6-.345a.065.065,0,0,1,0-.122m-.966-.436.6.345a.229.229,0,0,0,.21,0l.5-.29c.059-.034.059-.088,0-.122l-.6-.345a.231.231,0,0,0-.211,0l-.5.29a.065.065,0,0,0,0,.122m-.966-.558.6.345a.231.231,0,0,0,.211,0l.5-.29a.065.065,0,0,0,0-.122l-.6-.345a.231.231,0,0,0-.211,0l-.5.29a.065.065,0,0,0,0,.122m-.966-.558.6.345a.231.231,0,0,0,.211,0l.5-.29a.065.065,0,0,0,0-.122l-.6-.345a.229.229,0,0,0-.21,0l-.5.29c-.059.034-.059.088,0,.122m-.966-.558.6.346a.235.235,0,0,0,.21,0l.5-.291a.065.065,0,0,0,0-.122l-.6-.345a.229.229,0,0,0-.21,0l-.5.291a.063.063,0,0,0,0,.121m-.967-.558.6.346a.235.235,0,0,0,.21,0l.5-.291a.064.064,0,0,0,0-.121l-.6-.346a.235.235,0,0,0-.21,0l-.5.291a.064.064,0,0,0,0,.121m-.966-.558.6.346a.235.235,0,0,0,.21,0l.5-.291a.063.063,0,0,0,0-.121l-.6-.346a.237.237,0,0,0-.211,0l-.5.291a.064.064,0,0,0,0,.121m-.966-.557.6.345a.231.231,0,0,0,.211,0l.5-.291a.064.064,0,0,0,0-.121l-.6-.346a.237.237,0,0,0-.211,0l-.5.291a.065.065,0,0,0,0,.122m-.966-.558.6.345a.231.231,0,0,0,.211,0l.5-.29a.065.065,0,0,0,0-.122l-.6-.345a.231.231,0,0,0-.211,0l-.5.29a.065.065,0,0,0,0,.122m-1.278-.738.91.525a.229.229,0,0,0,.21,0l.5-.29a.065.065,0,0,0,0-.122l-.91-.525a.231.231,0,0,0-.211,0l-.5.29a.065.065,0,0,0,0,.122m-4.148.665.6.345a.231.231,0,0,0,.211,0l.5-.29a.065.065,0,0,0,0-.122l-.6-.345a.231.231,0,0,0-.211,0l-.5.29a.065.065,0,0,0,0,.122m-.966-.558.6.346a.237.237,0,0,0,.211,0l.5-.291a.065.065,0,0,0,0-.122l-.6-.345a.229.229,0,0,0-.21,0l-.5.29c-.059.034-.059.088,0,.122m-.967-.558.6.346a.235.235,0,0,0,.21,0l.5-.291a.064.064,0,0,0,0-.121l-.6-.346a.235.235,0,0,0-.21,0l-.5.291a.064.064,0,0,0,0,.121m1.049,1.626.6.345a.229.229,0,0,0,.21,0l.5-.29a.065.065,0,0,0,0-.122l-.6-.345a.229.229,0,0,0-.21,0l-.5.29a.065.065,0,0,0,0,.122m-.966-.558.6.345a.229.229,0,0,0,.21,0l.5-.29a.065.065,0,0,0,0-.122l-.6-.345a.231.231,0,0,0-.211,0l-.5.29a.065.065,0,0,0,0,.122m-.966-.558.6.346a.237.237,0,0,0,.211,0l.5-.291a.065.065,0,0,0,0-.122l-.6-.345a.231.231,0,0,0-.211,0l-.5.291a.064.064,0,0,0,0,.121M45.8,60.837l.91.526a.237.237,0,0,0,.211,0l.5-.291a.065.065,0,0,0,0-.122l-.91-.525a.237.237,0,0,0-.211,0l-.5.291a.064.064,0,0,0,0,.121m-.966-.558.6.346a.237.237,0,0,0,.211,0l.5-.291a.064.064,0,0,0,0-.121l-.6-.346a.237.237,0,0,0-.211,0l-.5.291a.064.064,0,0,0,0,.121m-.967-.557.6.345a.231.231,0,0,0,.211,0l.5-.291a.064.064,0,0,0,0-.121l-.6-.346a.235.235,0,0,0-.21,0l-.5.291a.065.065,0,0,0,0,.122m-.966-.558.6.345a.229.229,0,0,0,.21,0l.5-.29a.065.065,0,0,0,0-.122l-.6-.345a.229.229,0,0,0-.21,0l-.5.29a.065.065,0,0,0,0,.122m-.966-.558.6.345a.229.229,0,0,0,.21,0l.5-.29c.059-.034.059-.088,0-.122l-.6-.345a.231.231,0,0,0-.211,0l-.5.29a.065.065,0,0,0,0,.122m-.966-.558.6.345a.231.231,0,0,0,.211,0l.5-.29a.065.065,0,0,0,0-.122l-.6-.345a.231.231,0,0,0-.211,0l-.5.29a.065.065,0,0,0,0,.122m-.966-.558.6.346a.237.237,0,0,0,.211,0l.5-.291a.065.065,0,0,0,0-.122l-.6-.345a.229.229,0,0,0-.21,0l-.5.291a.064.064,0,0,0,0,.121m-.966-.558.6.346a.235.235,0,0,0,.21,0l.5-.291a.064.064,0,0,0,0-.121l-.6-.346a.235.235,0,0,0-.21,0l-.5.291a.063.063,0,0,0,0,.121m-.967-.557.6.345a.229.229,0,0,0,.21,0l.5-.291a.064.064,0,0,0,0-.121l-.6-.346a.235.235,0,0,0-.21,0l-.5.291a.065.065,0,0,0,0,.122m-.966-.558.6.345a.229.229,0,0,0,.21,0l.5-.29c.059-.034.059-.088,0-.122l-.6-.346a.237.237,0,0,0-.211,0l-.5.291a.065.065,0,0,0,0,.122m8.152,5.709.6.346a.237.237,0,0,0,.211,0l.5-.291a.064.064,0,0,0,0-.121l-.6-.346a.229.229,0,0,0-.21,0l-.5.291a.063.063,0,0,0,0,.121m-.967-.558.6.346a.235.235,0,0,0,.21,0l.5-.291a.064.064,0,0,0,0-.121l-.6-.346a.235.235,0,0,0-.21,0l-.5.291a.064.064,0,0,0,0,.121m-.966-.557.6.345a.229.229,0,0,0,.21,0l.5-.291a.063.063,0,0,0,0-.121l-.6-.346a.237.237,0,0,0-.211,0l-.5.291a.065.065,0,0,0,0,.122m-.966-.558.6.345a.231.231,0,0,0,.211,0l.5-.29a.065.065,0,0,0,0-.122l-.6-.345a.231.231,0,0,0-.211,0l-.5.29a.065.065,0,0,0,0,.122m1.146,2.685.6.345a.229.229,0,0,0,.21,0l.5-.29a.065.065,0,0,0,0-.122l-.6-.345a.229.229,0,0,0-.21,0l-.5.29a.065.065,0,0,0,0,.122m-.966-.558.6.346a.235.235,0,0,0,.21,0l.5-.291a.065.065,0,0,0,0-.122l-.6-.345a.229.229,0,0,0-.21,0l-.5.29a.065.065,0,0,0,0,.122m-.966-.558.6.346a.237.237,0,0,0,.211,0l.5-.291a.064.064,0,0,0,0-.121l-.6-.346a.231.231,0,0,0-.211,0l-.5.291a.064.064,0,0,0,0,.121m-.966-.558.6.346a.237.237,0,0,0,.211,0l.5-.291a.064.064,0,0,0,0-.121l-.6-.346a.237.237,0,0,0-.211,0l-.5.291a.064.064,0,0,0,0,.121m-6.1-3.523.91.525a.229.229,0,0,0,.21,0l.5-.291a.064.064,0,0,0,0-.121l-.91-.525a.231.231,0,0,0-.211,0l-.5.29a.065.065,0,0,0,0,.122M41.4,59.295l.6.345a.231.231,0,0,0,.211,0l.5-.29a.065.065,0,0,0,0-.122l-.6-.345a.229.229,0,0,0-.21,0l-.5.29a.065.065,0,0,0,0,.122m-.966-.558.6.345a.229.229,0,0,0,.21,0l.5-.29a.065.065,0,0,0,0-.122l-.6-.345a.229.229,0,0,0-.21,0l-.5.29c-.059.034-.059.088,0,.122m-.967-.558.6.346a.235.235,0,0,0,.21,0l.5-.291a.065.065,0,0,0,0-.122l-.6-.345a.229.229,0,0,0-.21,0l-.5.291a.064.064,0,0,0,0,.121m-.966-.558.6.346a.235.235,0,0,0,.21,0l.5-.291a.063.063,0,0,0,0-.121l-.6-.346a.237.237,0,0,0-.211,0l-.5.291a.064.064,0,0,0,0,.121m-.966-.558.6.346a.237.237,0,0,0,.211,0l.5-.291a.064.064,0,0,0,0-.121l-.6-.346a.237.237,0,0,0-.211,0l-.5.291a.064.064,0,0,0,0,.121m-1.278-.737.91.525a.231.231,0,0,0,.211,0l.5-.291c.058-.033.058-.087,0-.121l-.91-.525a.231.231,0,0,0-.211,0l-.5.29a.065.065,0,0,0,0,.122m7.8,5.525.91.525a.231.231,0,0,0,.211,0l.5-.29a.065.065,0,0,0,0-.122l-.91-.525a.229.229,0,0,0-.21,0l-.5.29a.065.065,0,0,0,0,.122m-.966-.558.6.346a.237.237,0,0,0,.211,0l.5-.291a.065.065,0,0,0,0-.122l-.6-.345a.231.231,0,0,0-.211,0l-.5.291a.064.064,0,0,0,0,.121m-.966-.558.6.346a.237.237,0,0,0,.211,0l.5-.291a.064.064,0,0,0,0-.121l-.6-.346a.237.237,0,0,0-.211,0l-.5.291a.064.064,0,0,0,0,.121m-.967-.558.6.346a.237.237,0,0,0,.211,0l.5-.291a.064.064,0,0,0,0-.121l-.6-.346a.235.235,0,0,0-.21,0l-.5.291a.064.064,0,0,0,0,.121m-.966-.557.6.345a.229.229,0,0,0,.21,0l.5-.291a.064.064,0,0,0,0-.121l-.6-.346a.235.235,0,0,0-.21,0l-.5.291a.065.065,0,0,0,0,.122m-4.421-1.544,4.475,2.583a.229.229,0,0,0,.21,0l.5-.29a.065.065,0,0,0,0-.122l-4.475-2.583a.231.231,0,0,0-.211,0l-.5.29a.065.065,0,0,0,0,.122m3.455.986.6.345a.229.229,0,0,0,.21,0l.5-.29c.059-.034.059-.088,0-.122l-.6-.345a.231.231,0,0,0-.211,0l-.5.29a.065.065,0,0,0,0,.122m-.966-.558.6.345a.231.231,0,0,0,.211,0l.5-.29a.065.065,0,0,0,0-.122l-.6-.345a.231.231,0,0,0-.211,0l-.5.29a.065.065,0,0,0,0,.122m-.966-.558.6.345a.231.231,0,0,0,.211,0l.5-.29a.065.065,0,0,0,0-.122l-.6-.345a.229.229,0,0,0-.21,0l-.5.29a.065.065,0,0,0,0,.122m-.966-.558.6.346a.235.235,0,0,0,.21,0l.5-.291c.058-.034.058-.088,0-.121l-.6-.346a.229.229,0,0,0-.21,0l-.5.291a.063.063,0,0,0,0,.121m-.967-.558.6.346a.235.235,0,0,0,.21,0l.5-.291a.064.064,0,0,0,0-.121l-.6-.346a.235.235,0,0,0-.21,0l-.5.291a.064.064,0,0,0,0,.121m1.153-2.38.6.345a.231.231,0,0,0,.211,0l.5-.29a.065.065,0,0,0,0-.122l-.6-.345a.229.229,0,0,0-.21,0l-.5.29c-.059.034-.059.088,0,.122m-.967-.558.6.345a.229.229,0,0,0,.21,0l.5-.29a.065.065,0,0,0,0-.122l-.6-.345a.229.229,0,0,0-.21,0l-.5.29a.065.065,0,0,0,0,.122m-.966-.558.6.346a.235.235,0,0,0,.21,0l.5-.291c.058-.034.058-.088,0-.121l-.6-.346a.231.231,0,0,0-.211,0l-.5.291a.064.064,0,0,0,0,.121m-.881.509.6.345a.231.231,0,0,0,.211,0l.5-.29a.065.065,0,0,0,0-.122l-.6-.345a.231.231,0,0,0-.211,0l-.5.29a.065.065,0,0,0,0,.122m-.856.5,2.515,1.452a.288.288,0,0,0,.262,0l1.322-.763a.08.08,0,0,0,0-.151l-1.516-.875a.288.288,0,0,0-.262,0l-.663.382a.162.162,0,0,1-.147,0l-.845-.481a.191.191,0,0,0-.174,0l-.492.284a.08.08,0,0,0,0,.151" fill="#412b42"/>
        <g id="Grupo_1182056" data-name="Grupo 1182056" opacity="0.2" style="mix-blend-mode: multiply;isolation: isolate">
          <g id="Grupo_1182055" data-name="Grupo 1182055">
            <g id="Grupo_1182054" data-name="Grupo 1182054" clip-path="url(#clip-path-7)">
              <path id="Trazado_1044271" data-name="Trazado 1044271" d="M32.169,59.906l4.187,2.417,2.717-1.567c0-.005-4.187-2.422-4.187-2.422L32.169,59.9v0" fill="#e9eaeb"/>
            </g>
          </g>
        </g>
        <g id="Grupo_1182059" data-name="Grupo 1182059" opacity="0.2" style="mix-blend-mode: multiply;isolation: isolate">
          <g id="Grupo_1182058" data-name="Grupo 1182058">
            <g id="Grupo_1182057" data-name="Grupo 1182057" clip-path="url(#clip-path-8)">
              <path id="Trazado_1044272" data-name="Trazado 1044272" d="M34.887,58.334,32.17,59.9a.863.863,0,0,0,.079.05l2.635-1.522,4.11,2.372.08-.046c0-.005-4.187-2.422-4.187-2.422" fill="#cb89f0"/>
            </g>
          </g>
        </g>
        <path id="Trazado_1044273" data-name="Trazado 1044273" d="M19.847,75.1a1.666,1.666,0,0,0-.74-1.045l-.788-.458a1.662,1.662,0,0,1,.739,1.045l3.7,13.408.789.458Z" fill="#150e16"/>
        <path id="Trazado_1044274" data-name="Trazado 1044274" d="M3.656,83.34,0,101.188l.789.458L4.7,83.547Z" fill="#150e16"/>
        <path id="Trazado_1044275" data-name="Trazado 1044275" d="M18.771,72.823a2.5,2.5,0,0,0-2.512.243L7.053,78.381a7.9,7.9,0,0,0-3.4,4.96l1.033.6c.409-2,1.566-4.185,3.152-5.1l9.206-5.315a2.5,2.5,0,0,1,2.513-.244Z" fill="#150e16"/>
        <path id="Trazado_1044276" data-name="Trazado 1044276" d="M20.461,74.552c-.419-1.523-1.823-1.946-3.414-1.027L7.841,78.84a7.89,7.89,0,0,0-3.4,4.959L.789,101.647l.657-.379L5.06,83.636a6.481,6.481,0,0,1,2.783-4.069l9.206-5.315c1.305-.753,2.456-.4,2.8.846l3.7,13.408.657-.379Z" fill="#150e16"/>
        <path id="Trazado_1044277" data-name="Trazado 1044277" d="M6.237,80.461a.7.7,0,0,1,.113-.18.5.5,0,0,1,.113-.1l13.37-7.718a1.77,1.77,0,0,1,1.821-.144L38.9,82.333l-.047,1.031c.019.013-1.638-.949-1.638-.949-.046.024-.09.036-.136.062L23.706,90.2a.5.5,0,0,0-.113.1.687.687,0,0,0-.113.18.662.662,0,0,0-.06.264.256.256,0,0,0,.1.233L6.277,80.959a.258.258,0,0,1-.1-.233.663.663,0,0,1,.06-.265" fill="#a348ff"/>
        <path id="Trazado_1044278" data-name="Trazado 1044278" d="M23.706,90.2l13.369-7.719a1.721,1.721,0,0,1,1.944-.064l.237.179c.11.084.11.326,0,.536a.52.52,0,0,1-.21.231.165.165,0,0,1-.2,0l-.237-.171a1.348,1.348,0,0,0-1.534.041L23.7,90.956c-.154.089-.282-.006-.282-.219a.674.674,0,0,1,.286-.54" fill="#9222de"/>
        <path id="Trazado_1044279" data-name="Trazado 1044279" d="M37.821,85.475a1.666,1.666,0,0,0-.74-1.045l-.788-.458a1.662,1.662,0,0,1,.739,1.045l3.7,13.408.789.458Z" fill="#150e16"/>
        <path id="Trazado_1044280" data-name="Trazado 1044280" d="M21.63,93.718l-3.656,17.848.789.458,3.907-18.1Z" fill="#150e16"/>
        <path id="Trazado_1044281" data-name="Trazado 1044281" d="M36.745,83.2a2.5,2.5,0,0,0-2.512.243l-9.206,5.315a7.9,7.9,0,0,0-3.4,4.96l1.033.6c.409-2,1.567-4.185,3.152-5.1L35.021,83.9a2.5,2.5,0,0,1,2.513-.244Z" fill="#150e16"/>
        <path id="Trazado_1044282" data-name="Trazado 1044282" d="M38.435,84.929c-.419-1.523-1.823-1.946-3.414-1.027l-9.206,5.315a7.894,7.894,0,0,0-3.4,4.959l-3.656,17.848.657-.38,3.614-17.631a6.481,6.481,0,0,1,2.783-4.069l9.206-5.315c1.305-.753,2.456-.4,2.8.846l3.7,13.408.657-.379Z" fill="#150e16"/>
        <path id="Trazado_1044283" data-name="Trazado 1044283" d="M17.07,51.7c.728.5-.149,4.913,3.151,6.045.334.115.914-.162,1.217-.25.566-.163,5.932-2.121,6-2.162.236-.136.938-.921,1.533-1.3a3.939,3.939,0,0,1,1.311-.488,1.127,1.127,0,0,1,.5.024,7.525,7.525,0,0,1,2.4,1.708c.1.122.141.177.087.3-.021.048-.122.083-.205.1.137.2-.136.3-.277.28s-.526-.143-.526-.143a.5.5,0,0,0-.282-.017,6.139,6.139,0,0,0-1.847.546c-.145.177.4.475.4.475s.755-.07.825-.066c.238.015.567.137.529.38-.023.142-.17.211-.3.258-.229.084-1.025.229-1.025.229-.268-.07-1.981-.355-1.981-.355s-7.785,4.715-12.541,4.631c-.4-.006-2.151-2.355-2.472-4.966-.231-1.881,1.159-6.838,3.508-5.223" fill="#f7b884"/>
        <path id="Trazado_1044284" data-name="Trazado 1044284" d="M13.637,57.419a1.044,1.044,0,0,1-.523-.926,37.7,37.7,0,0,1,.3-5.9c.686-3.227,4.424-4.393,5.148.176.226,1.43.476,6.054.476,6.054-.747,1.286-3.881,1.412-5.4.6" fill="#fee9ff"/>
        <path id="Trazado_1044285" data-name="Trazado 1044285" d="M14.086,78.426c.35,3.838,10.019,7.789,13.4,6.215,2.854-1.327,11.264-4.607,13.084-5.809l1.36.827c-1.038-5.562-4.456-6.19-7-5.751.106-.739-1.854-5-5.794-3.824C27.84,70.473,14,73.244,14,73.244c0,.558.09,5.182.09,5.182" fill="#19032d"/>
        <path id="Trazado_1044286" data-name="Trazado 1044286" d="M15.79,47.764c2.009-.413,12.373,5.284,12.592,6.558a33.135,33.135,0,0,0-.441,8.8c.208,2.656-.135,11.26.136,13.14a.9.9,0,0,1-.253.8C24.595,80.075,14.069,78.7,14.314,75.1c0,0,.45-5.689.537-10.267.152-8.022-1.063-15.321.939-17.072" fill="#fee9ff"/>
        <path id="Trazado_1044287" data-name="Trazado 1044287" d="M29.246,61.853c.078.622.165,1.273.275,1.985,0-.017.576-.194.61-.206,5.412-1.82,5.658-1.738,5.972-2.3a16.874,16.874,0,0,1,.866-1.455,6.792,6.792,0,0,1,1.084-.665.414.414,0,0,1,.415.05.25.25,0,0,1,.044.247.979.979,0,0,1,.375-.013,3.88,3.88,0,0,1,2.144,1.648c.124.112.173.163.136.3-.015.054-.116.1-.194.14.168.186-.1.33-.253.329s-.571-.07-.571-.07a.537.537,0,0,0-.3.024c-.753.294-1.086.387-1.23.625C35.865,64.671,28,68.568,26.712,67.447c-.881-.764-1.692-2.738-2.2-4.873a8.709,8.709,0,0,1,4.734-.721" fill="#f7b884"/>
        <path id="Trazado_1044288" data-name="Trazado 1044288" d="M26.327,63.556a5.015,5.015,0,0,1-2.378-.609,44.823,44.823,0,0,1-.01-6.737c.494-3.119,3.484-4.581,4.887-1.229a8.745,8.745,0,0,1,.471,2.08c.282,1.965.614,5.353.614,5.353a4.969,4.969,0,0,1-3.584,1.142" fill="#fee9ff"/>
      </g>
    </g>
    <g id="Grupo_1182063" data-name="Grupo 1182063">
      <g id="Grupo_1182062" data-name="Grupo 1182062" clip-path="url(#clip-path-9)">
        <rect id="Rectángulo_424785" data-name="Rectángulo 424785" width="27.179" height="28.068" transform="matrix(0.866, -0.5, 0.5, 0.866, -7.18, 72.655)" fill="url(#linear-gradient-3)"/>
      </g>
    </g>
    <g id="Grupo_1182078" data-name="Grupo 1182078">
      <g id="Grupo_1182077" data-name="Grupo 1182077" clip-path="url(#clip-path)">
        <path id="Trazado_1044290" data-name="Trazado 1044290" d="M2.286,67.922a1.074,1.074,0,0,1,.822.19l12.814,7.4a4.566,4.566,0,0,1,1.893,2.46l2.508,9.919c.13.513.018.844-.267.928a1.11,1.11,0,0,1-.908-.208l-12.814-7.4a4.382,4.382,0,0,1-1.851-2.384c-.179-.705-2.315-9.172-2.5-9.914-.084-.376-.129-.835.306-.991" fill="#6e16b1"/>
        <path id="Trazado_1044291" data-name="Trazado 1044291" d="M14.963,80.119l2.576,8.59.89-.515.719.415a1.417,1.417,0,0,0,.7.231l.422.245L18.29,90.229a.528.528,0,0,1-.667-.027.478.478,0,0,0,.081.075l-1.269-.737a.583.583,0,0,1-.252-.357l-2.839-9.444.35-.357Z" fill="#150e16"/>
        <path id="Trazado_1044292" data-name="Trazado 1044292" d="M4.645,74.157l1.269.737,2.576,8.59.89-.514,1.693.977L9.241,85a.53.53,0,0,1-.668-.028.475.475,0,0,0,.081.075l-1.268-.737a.58.58,0,0,1-.252-.357l-2.84-9.444Z" fill="#150e16"/>
        <path id="Trazado_1044293" data-name="Trazado 1044293" d="M18.436,49.2c.023-.293,0-.6,0-.891a9.345,9.345,0,0,1,.035-1.207c.081-.558.778-.436,1.215-.644a12.755,12.755,0,0,1,2.3-.673,1.86,1.86,0,0,0,.385-.131,3.412,3.412,0,0,1,.479-.29c.139-.045.285-.048.427-.1a7.812,7.812,0,0,0,1.009-.471c-.262,1.363-.42,6.222-.42,6.222,2.344,1.876-5.8,1.053-5.839-1.019-.008-.393.4-.664.407-.8" fill="#f7b884"/>
        <path id="Trazado_1044294" data-name="Trazado 1044294" d="M25.459,46.47c-.024.2-.445,2.947-.544,3.133a1.284,1.284,0,0,1-.432.432c-1.459,1.009-5.185-.061-5.879-1.184-.921-1.492.48-4.738,1.213-6.33a5.423,5.423,0,0,1,.748-1.294,4.921,4.921,0,0,1,2.93-1.356,2.147,2.147,0,0,1,1.868.258c.351.325.815.142.846.619.049.737-.636,4.785-.75,5.722" fill="#f7b884"/>
        <path id="Trazado_1044295" data-name="Trazado 1044295" d="M21.8,37.085c1.4-.119,3.846.494,4.379,1.713a3.951,3.951,0,0,1,.03,2.872c-.246.848-.8,1.6-1.125,2.712-.039.133-.265,2.231-.265,2.231-.031.168-.3.139-.328.031a9.615,9.615,0,0,0-.127-1.329c-.147-.436-.808-.346-1.1-.052-.377.376-.275,1.464-.313,2.147s-.388,1.894-1.177,2.173a4.261,4.261,0,0,1-3.736-1.35c-.886-1.667-1.737-3.434-1.071-7.875.315-2.1,2-3.032,4.835-3.273" fill="#150e16"/>
        <g id="Grupo_1182076" data-name="Grupo 1182076" style="isolation: isolate">
          <g id="Grupo_1182075" data-name="Grupo 1182075">
            <g id="Grupo_1182074" data-name="Grupo 1182074" clip-path="url(#clip-path-11)">
              <g id="Grupo_1182065" data-name="Grupo 1182065">
                <g id="Grupo_1182064" data-name="Grupo 1182064" clip-path="url(#clip-path-12)">
                  <rect id="Rectángulo_424786" data-name="Rectángulo 424786" width="24.438" height="28.034" transform="translate(52.402 44.29) rotate(-60)" fill="url(#linear-gradient-4)"/>
                </g>
              </g>
              <g id="Grupo_1182068" data-name="Grupo 1182068" opacity="0.2" style="mix-blend-mode: multiply;isolation: isolate">
                <g id="Grupo_1182067" data-name="Grupo 1182067">
                  <g id="Grupo_1182066" data-name="Grupo 1182066" clip-path="url(#clip-path-13)">
                    <path id="Trazado_1044297" data-name="Trazado 1044297" d="M69.247,38.381l3.892,2.247,2.526-1.457s-3.892-2.251-3.892-2.251l-2.526,1.457v0" fill="#e9eaeb"/>
                  </g>
                </g>
              </g>
              <g id="Grupo_1182071" data-name="Grupo 1182071" opacity="0.2" style="mix-blend-mode: multiply;isolation: isolate">
                <g id="Grupo_1182070" data-name="Grupo 1182070">
                  <g id="Grupo_1182069" data-name="Grupo 1182069" clip-path="url(#clip-path-14)">
                    <path id="Trazado_1044298" data-name="Trazado 1044298" d="M71.771,36.92l3.894,2.247a.8.8,0,0,1-.076.048l-3.816-2.2-2.449,1.413-.077-.044s2.524-1.461,2.524-1.461" fill="#cb89f0"/>
                  </g>
                </g>
              </g>
              <path id="Trazado_1044299" data-name="Trazado 1044299" d="M72.467,46.219A.136.136,0,0,1,72.4,46.1a.137.137,0,0,1,.072-.113l.591-.334.694.391a.133.133,0,0,1,.072.117.134.134,0,0,1-.072.112l-.591.335Zm.967-.548a.126.126,0,0,1,0-.229l.588-.335.694.391a.131.131,0,0,1,.071.117.136.136,0,0,1-.072.113l-.589.334Zm-2-.048a.129.129,0,0,1,0-.23l.589-.334.695.391a.132.132,0,0,1,.073.117.135.135,0,0,1-.074.113l-.59.334Zm3.632-.135-2.7-1.562a.15.15,0,0,1-.081-.133.154.154,0,0,1,.085-.128l1.462-.83h.116l1.634.946a.152.152,0,0,1,.081.132.16.16,0,0,1-.086.129l-.723.41.883.514a.121.121,0,0,1,.062.1.119.119,0,0,1-.064.1l-.556.316ZM72.4,45.075a.13.13,0,0,1-.071-.116.134.134,0,0,1,.073-.113L73,44.511l.694.391a.133.133,0,0,1,.072.117.136.136,0,0,1-.073.113l-.589.334Zm-1.994-.048a.128.128,0,0,1,0-.229L71,44.463l.695.391a.132.132,0,0,1,.072.117.135.135,0,0,1-.074.113l-.589.334Zm4.95-.449a.128.128,0,0,1,0-.23l.589-.334.7.391a.13.13,0,0,1,.071.116.137.137,0,0,1-.072.114l-.59.334Zm-3.985-.1a.131.131,0,0,1-.071-.116.135.135,0,0,1,.074-.113l.588-.334.695.391a.13.13,0,0,1,.071.116.135.135,0,0,1-.072.113l-.59.335Zm-2.87-.587a.127.127,0,0,1-.07-.117.135.135,0,0,1,.072-.113l.589-.334,1.027.583a.133.133,0,0,1,.07.117.137.137,0,0,1-.072.113l-.589.334Zm7.819.139a.128.128,0,0,1-.071-.116.133.133,0,0,1,.072-.113l.589-.335.695.392a.132.132,0,0,1,.071.116.136.136,0,0,1-.073.113l-.588.334ZM69.8,43.559a.132.132,0,0,1-.071-.117.134.134,0,0,1,.072-.112l.591-.335.694.391a.127.127,0,0,1,0,.23l-.591.334Zm5.492-.124a.127.127,0,0,1,0-.229l.589-.334.694.391a.129.129,0,0,1,.071.116.136.136,0,0,1-.073.114l-.588.334ZM63.352,40.919a.133.133,0,0,1-.07-.117.135.135,0,0,1,.073-.113l.589-.334,4.824,2.782a.131.131,0,0,1,.07.116.133.133,0,0,1-.074.113l-.59.335Zm7.073,1.89a.127.127,0,0,1,0-.229l.592-.335,1.026.584a.131.131,0,0,1,.072.116.139.139,0,0,1-.074.113l-.591.334Zm-1.652.154a.127.127,0,0,1,0-.229l.59-.335.695.391a.135.135,0,0,1,.071.117.133.133,0,0,1-.074.113l-.589.334Zm5.493-.123a.132.132,0,0,1-.071-.117.134.134,0,0,1,.073-.113l.589-.334.694.391a.133.133,0,0,1,.072.116.137.137,0,0,1-.073.113l-.59.335Zm-2.546-.369a.132.132,0,0,1-.071-.117.135.135,0,0,1,.072-.113l.592-.334.694.391a.129.129,0,0,1,.07.116.136.136,0,0,1-.071.113l-.591.335Zm-3.975-.1a.127.127,0,0,1,0-.229l.591-.334.693.391a.131.131,0,0,1,.072.116.136.136,0,0,1-.073.113l-.59.335Zm1.652-.154a.127.127,0,0,1,0-.229l.59-.335.694.391a.132.132,0,0,1,.073.117.135.135,0,0,1-.074.113l-.589.334Zm2.947-.493a.131.131,0,0,1-.071-.116.134.134,0,0,1,.073-.113l.591-.334,1.026.583a.136.136,0,0,1,.071.117.133.133,0,0,1-.074.112l-.59.335Zm-1.652.155a.127.127,0,0,1,0-.23l.591-.334.695.391a.128.128,0,0,1,0,.229l-.59.335Zm-3.976-.1a.129.129,0,0,1,0-.23l.59-.334L68,41.6a.125.125,0,0,1,.071.117.134.134,0,0,1-.072.112l-.59.335Zm1.652-.155a.129.129,0,0,1-.07-.116.136.136,0,0,1,.071-.113l.59-.335.695.392a.127.127,0,0,1,.071.116.132.132,0,0,1-.073.113l-.589.334Zm1.3-.338a.134.134,0,0,1-.071-.117.136.136,0,0,1,.072-.113l.591-.334.695.391a.136.136,0,0,1,.071.117.133.133,0,0,1-.074.113l-.589.334Zm-3.975-.1a.131.131,0,0,1-.071-.117.135.135,0,0,1,.072-.113l.589-.334.695.391a.129.129,0,0,1,.071.117.134.134,0,0,1-.073.113l-.589.334Zm5.627-.051a.128.128,0,0,1,0-.23l.591-.334.694.391a.127.127,0,0,1,0,.23l-.59.334Zm-3.975-.1a.127.127,0,0,1-.071-.116.135.135,0,0,1,.072-.113l.59-.334.694.391a.129.129,0,0,1,.071.116.135.135,0,0,1-.072.113l-.589.335Zm1.294-.338a.127.127,0,0,1,0-.23l.59-.334.694.391a.134.134,0,0,1,.071.117.135.135,0,0,1-.073.113l-.59.334Zm-3.975-.1a.132.132,0,0,1-.071-.117.137.137,0,0,1,.072-.113l.59-.334.694.391a.13.13,0,0,1,.071.117.134.134,0,0,1-.073.113l-.588.334Zm5.628-.051a.134.134,0,0,1-.071-.117.137.137,0,0,1,.072-.113l.59-.334.7.391a.134.134,0,0,1,.071.117.136.136,0,0,1-.073.113l-.59.334Zm-3.975-.1a.129.129,0,0,1-.072-.117.136.136,0,0,1,.073-.113l.589-.334.695.391a.132.132,0,0,1,.071.117.133.133,0,0,1-.073.112l-.589.335Zm-3.974-.106a.132.132,0,0,1-.071-.116.134.134,0,0,1,.073-.113l.589-.335.695.392a.13.13,0,0,1,.072.116.134.134,0,0,1-.073.113l-.59.335Zm5.268-.233a.132.132,0,0,1-.071-.117.131.131,0,0,1,.072-.112l.59-.335.7.391a.127.127,0,0,1,0,.23l-.59.334Zm-3.976-.1a.132.132,0,0,1-.071-.117.134.134,0,0,1,.072-.112l.59-.335.694.391a.131.131,0,0,1,.072.117.138.138,0,0,1-.073.113l-.589.334Zm5.628-.051a.133.133,0,0,1-.07-.117.131.131,0,0,1,.071-.112l.591-.335.694.391a.132.132,0,0,1,.072.117.136.136,0,0,1-.073.113l-.59.334Zm-3.975-.1a.126.126,0,0,1-.071-.117.137.137,0,0,1,.072-.113l.589-.334.695.391a.13.13,0,0,1,.071.117.137.137,0,0,1-.072.113l-.589.334Zm-3.973-.105a.13.13,0,0,1-.071-.117.135.135,0,0,1,.072-.113l.59-.334.695.391a.127.127,0,0,1,0,.229l-.589.335Zm5.267-.234a.129.129,0,0,1-.07-.116.133.133,0,0,1,.072-.113l.589-.335.695.391a.132.132,0,0,1,.072.117.135.135,0,0,1-.073.113l-.59.334Zm-3.976-.1a.127.127,0,0,1,0-.229l.589-.335.695.391a.134.134,0,0,1,.071.117.132.132,0,0,1-.073.113l-.589.334Zm5.628-.051a.131.131,0,0,1-.07-.116.133.133,0,0,1,.072-.113l.59-.335.694.391a.133.133,0,0,1,.073.117.139.139,0,0,1-.074.113l-.59.334Zm-3.975-.1a.126.126,0,0,1,0-.229l.589-.335.694.391a.128.128,0,0,1,0,.23l-.588.334Zm-3.973-.1a.128.128,0,0,1,0-.23l.589-.334.695.391a.132.132,0,0,1,.071.117.137.137,0,0,1-.072.113l-.59.334Zm5.268-.234a.127.127,0,0,1-.071-.116.135.135,0,0,1,.072-.113l.59-.334.694.391a.127.127,0,0,1,.071.116.134.134,0,0,1-.073.113l-.589.335Zm-3.976-.1a.131.131,0,0,1-.072-.116.136.136,0,0,1,.073-.113l.59-.335.694.391a.13.13,0,0,1,.071.117.134.134,0,0,1-.073.113l-.589.335Zm5.628-.051a.127.127,0,0,1-.071-.116.135.135,0,0,1,.072-.113l.59-.334.695.391a.131.131,0,0,1,.072.116.138.138,0,0,1-.073.113l-.59.335Zm-3.977-.1a.127.127,0,0,1,0-.229l.59-.335.694.392a.13.13,0,0,1,.072.116.134.134,0,0,1-.073.113l-.59.334Zm-3.972-.1a.128.128,0,0,1,0-.23l.589-.334.695.391a.133.133,0,0,1,.072.117.141.141,0,0,1-.073.113l-.59.334ZM64.52,38.3a.13.13,0,0,1-.071-.118.137.137,0,0,1,.072-.112l.59-.334.694.391a.128.128,0,0,1,.072.117.135.135,0,0,1-.074.113l-.588.334ZM60.211,38a.131.131,0,0,1-.071-.116.138.138,0,0,1,.073-.113l.59-.334,1.027.583a.131.131,0,0,1,.071.117.137.137,0,0,1-.074.112l-.589.335Zm5.962.142a.129.129,0,0,1-.071-.117.135.135,0,0,1,.072-.113l.59-.334.694.391a.129.129,0,0,1,.071.117.134.134,0,0,1-.072.112l-.589.335Zm-3.977-.1a.132.132,0,0,1-.071-.117.134.134,0,0,1,.073-.113l.589-.334.695.391a.13.13,0,0,1,.071.116.135.135,0,0,1-.072.113l-.59.335Zm1.3-.339a.127.127,0,0,1,0-.229l.589-.335.695.391a.13.13,0,0,1,.071.117.134.134,0,0,1-.073.113l-.588.334Zm1.653-.154a.133.133,0,0,1-.072-.117.135.135,0,0,1,.074-.113l.589-.334.694.391a.133.133,0,0,1,.072.117.138.138,0,0,1-.073.112l-.589.335Zm-3.977-.1a.131.131,0,0,1-.07-.117.136.136,0,0,1,.072-.113l.59-.334.694.391a.13.13,0,0,1,.071.116.132.132,0,0,1-.073.113l-.589.335Zm.963-.531a.134.134,0,0,1-.071-.117.136.136,0,0,1,.073-.113l.59-.334,1.026.583a.128.128,0,0,1,0,.23l-.589.334Zm1.986.038a.132.132,0,0,1-.073-.117.135.135,0,0,1,.074-.113l.589-.334.695.391a.131.131,0,0,1,.071.117.134.134,0,0,1-.073.113l-.588.334Zm-1.03-.6a.131.131,0,0,1-.071-.117.132.132,0,0,1,.073-.112l.59-.335.694.391a.132.132,0,0,1,.071.117.134.134,0,0,1-.073.113l-.589.334Z" fill="#412b42"/>
              <path id="Trazado_1044300" data-name="Trazado 1044300" d="M55.453,29.7l14.689,8.536,2.432,9.317a.955.955,0,0,0-.085.378.348.348,0,0,0,.134.316L57.934,39.711A.351.351,0,0,1,57.8,39.4a.964.964,0,0,1,.085-.379Z" fill="#8b3dce"/>
              <g id="Grupo_1182073" data-name="Grupo 1182073">
                <g id="Grupo_1182072" data-name="Grupo 1182072" clip-path="url(#clip-path-15)">
                  <rect id="Rectángulo_424789" data-name="Rectángulo 424789" width="14.855" height="8.701" transform="translate(55.453 29.535)" fill="url(#linear-gradient-5)"/>
                </g>
              </g>
              <path id="Trazado_1044302" data-name="Trazado 1044302" d="M70.142,38.236l.166-.165L73.023,47.7l9.687-5.593-.006.448-9.835,5.678c-.213.115-.38-.018-.38-.3a.968.968,0,0,1,.085-.379Z" fill="#cb89f0"/>
            </g>
          </g>
        </g>
        <path id="Trazado_1044303" data-name="Trazado 1044303" d="M77.95,41.51a3.193,3.193,0,0,1-.076-1.166,4.7,4.7,0,0,1,.578-1.634c.159-.18,3.112-2.15,3.112-2.15.84-.468,2.488,1.665,1.879,2.194a26.747,26.747,0,0,0-2.537,2.177,16.209,16.209,0,0,1-.708,1.721c-.219.29-.742.293-1.057.275a.636.636,0,0,1-.273-.056c-.149-.08-.216-.262-.356-.356-.076-.051-.168-.071-.248-.115-.352-.194-.276-.564-.314-.89" fill="#f7b884"/>
      </g>
    </g>
  </g>
</svg>
