<svg xmlns="http://www.w3.org/2000/svg" xmlns:xlink="http://www.w3.org/1999/xlink" width="190" height="167.204" viewBox="0 0 190 167.204"><defs><clipPath id="a"><rect width="189.997" height="96.928" fill="#9000f9"/></clipPath><clipPath id="b"><rect width="187.306" height="143.746" fill="none"/></clipPath><clipPath id="f"><rect width="17.043" height="24.399" fill="none"/></clipPath><clipPath id="g"><rect width="14.191" height="15.218" fill="none"/></clipPath><clipPath id="h"><rect width="9.616" height="8.163" fill="none"/></clipPath><clipPath id="i"><rect width="27.237" height="22.808" fill="none"/></clipPath><clipPath id="j"><rect width="4.376" height="5.209" fill="none"/></clipPath><clipPath id="k"><rect width="21.936" height="29.061" fill="none"/></clipPath><clipPath id="m"><rect width="13.205" height="6.69" fill="none"/></clipPath><clipPath id="n"><rect width="14.3" height="1.433" fill="none"/></clipPath></defs><g transform="translate(-1230 -850.327)"><g transform="translate(843.699 -1747.134)"><g transform="translate(386.301 2597.461)" clip-path="url(#a)"><path d="M90.464,142.838a52.374,52.374,0,1,1,52.374-52.374,52.433,52.433,0,0,1-52.374,52.374m0,38.09A90.464,90.464,0,1,0,0,90.464,90.464,90.464,0,0,0,90.464,180.928Z" transform="translate(3.925 6.464)" fill="#91b3fa"/></g><g transform="translate(456.007 2644.372)"><path d="M60.147,0A60.147,60.147,0,1,1,0,60.147,60.147,60.147,0,0,1,60.147,0Z" transform="translate(0 0)" fill="#31313c" opacity="0.444" style="mix-blend-mode:multiply;isolation:isolate"/><g transform="translate(23.483 24.865)"><path d="M415.848,51a.818.818,0,1,1-.817-.781A.8.8,0,0,1,415.848,51Z" transform="translate(-414.214 -50.224)" fill="#fff"/><path d="M424.294,51a.818.818,0,1,1-.816-.781A.8.8,0,0,1,424.294,51Z" transform="translate(-415.31 -50.224)" fill="#fff"/><path d="M432.74,51a.818.818,0,1,1-.816-.781A.8.8,0,0,1,432.74,51Z" transform="translate(-416.406 -50.224)" fill="#fff"/><path d="M441.187,51a.818.818,0,1,1-.817-.781A.8.8,0,0,1,441.187,51Z" transform="translate(-417.502 -50.224)" fill="#fff"/><path d="M449.633,51a.818.818,0,1,1-.816-.781A.8.8,0,0,1,449.633,51Z" transform="translate(-418.597 -50.224)" fill="#fff"/><path d="M458.078,51a.818.818,0,1,1-.816-.781A.8.8,0,0,1,458.078,51Z" transform="translate(-419.693 -50.224)" fill="#fff"/><path d="M466.525,51a.818.818,0,1,1-.817-.781A.8.8,0,0,1,466.525,51Z" transform="translate(-420.789 -50.224)" fill="#fff"/><path d="M474.972,51a.818.818,0,1,1-.816-.781A.8.8,0,0,1,474.972,51Z" transform="translate(-421.885 -50.224)" fill="#fff"/><path d="M483.418,51a.818.818,0,1,1-.816-.781A.8.8,0,0,1,483.418,51Z" transform="translate(-422.981 -50.224)" fill="#fff"/><path d="M491.865,51a.818.818,0,1,1-.817-.781A.8.8,0,0,1,491.865,51Z" transform="translate(-424.077 -50.224)" fill="#fff"/><path d="M500.311,51a.818.818,0,1,1-.817-.781A.8.8,0,0,1,500.311,51Z" transform="translate(-425.173 -50.224)" fill="#fff"/><g transform="translate(0 6.248)"><path d="M415.848,58.513a.818.818,0,1,1-.817-.781A.8.8,0,0,1,415.848,58.513Z" transform="translate(-414.214 -57.732)" fill="#fff"/><path d="M424.294,58.513a.818.818,0,1,1-.816-.781A.8.8,0,0,1,424.294,58.513Z" transform="translate(-415.31 -57.732)" fill="#fff"/><path d="M432.74,58.513a.818.818,0,1,1-.816-.781A.8.8,0,0,1,432.74,58.513Z" transform="translate(-416.406 -57.732)" fill="#fff"/><path d="M441.187,58.513a.818.818,0,1,1-.817-.781A.8.8,0,0,1,441.187,58.513Z" transform="translate(-417.502 -57.732)" fill="#fff"/><path d="M449.633,58.513a.818.818,0,1,1-.816-.781A.8.8,0,0,1,449.633,58.513Z" transform="translate(-418.597 -57.732)" fill="#fff"/><path d="M458.078,58.513a.818.818,0,1,1-.816-.781A.8.8,0,0,1,458.078,58.513Z" transform="translate(-419.693 -57.732)" fill="#fff"/><path d="M466.525,58.513a.818.818,0,1,1-.817-.781A.8.8,0,0,1,466.525,58.513Z" transform="translate(-420.789 -57.732)" fill="#fff"/><path d="M474.972,58.513a.818.818,0,1,1-.816-.781A.8.8,0,0,1,474.972,58.513Z" transform="translate(-421.885 -57.732)" fill="#fff"/><path d="M483.418,58.513a.818.818,0,1,1-.816-.781A.8.8,0,0,1,483.418,58.513Z" transform="translate(-422.981 -57.732)" fill="#fff"/><path d="M491.865,58.513a.818.818,0,1,1-.817-.781A.8.8,0,0,1,491.865,58.513Z" transform="translate(-424.077 -57.732)" fill="#fff"/><path d="M500.311,58.513a.818.818,0,1,1-.817-.781A.8.8,0,0,1,500.311,58.513Z" transform="translate(-425.173 -57.732)" fill="#fff"/></g><g transform="translate(0 12.497)"><ellipse cx="0.817" cy="0.781" rx="0.817" ry="0.781" fill="#fff"/><path d="M424.294,66.021a.818.818,0,1,1-.816-.781A.8.8,0,0,1,424.294,66.021Z" transform="translate(-415.31 -65.24)" fill="#fff"/><ellipse cx="0.817" cy="0.781" rx="0.817" ry="0.781" transform="translate(14.701)" fill="#fff"/><path d="M441.187,66.021a.818.818,0,1,1-.817-.781A.8.8,0,0,1,441.187,66.021Z" transform="translate(-417.502 -65.24)" fill="#fff"/><path d="M449.633,66.021a.818.818,0,1,1-.816-.781A.8.8,0,0,1,449.633,66.021Z" transform="translate(-418.597 -65.24)" fill="#fff"/><ellipse cx="0.817" cy="0.781" rx="0.817" ry="0.781" transform="translate(36.752)" fill="#fff"/><path d="M466.525,66.021a.818.818,0,1,1-.817-.781A.8.8,0,0,1,466.525,66.021Z" transform="translate(-420.789 -65.24)" fill="#fff"/><ellipse cx="0.817" cy="0.781" rx="0.817" ry="0.781" transform="translate(51.453)" fill="#fff"/><ellipse cx="0.817" cy="0.781" rx="0.817" ry="0.781" transform="translate(58.804)" fill="#fff"/><path d="M491.865,66.021a.818.818,0,1,1-.817-.781A.8.8,0,0,1,491.865,66.021Z" transform="translate(-424.076 -65.24)" fill="#fff"/><path d="M500.311,66.021a.818.818,0,1,1-.817-.781A.8.8,0,0,1,500.311,66.021Z" transform="translate(-425.173 -65.24)" fill="#fff"/></g><g transform="translate(0 18.745)"><ellipse cx="0.817" cy="0.781" rx="0.817" ry="0.781" transform="translate(0 0)" fill="#fff"/><path d="M424.294,73.528a.818.818,0,1,1-.816-.781A.8.8,0,0,1,424.294,73.528Z" transform="translate(-415.31 -72.747)" fill="#fff"/><ellipse cx="0.817" cy="0.781" rx="0.817" ry="0.781" transform="translate(14.701 0)" fill="#fff"/><path d="M441.187,73.528a.818.818,0,1,1-.817-.781A.8.8,0,0,1,441.187,73.528Z" transform="translate(-417.502 -72.747)" fill="#fff"/><path d="M449.633,73.528a.818.818,0,1,1-.816-.781A.8.8,0,0,1,449.633,73.528Z" transform="translate(-418.597 -72.747)" fill="#fff"/><ellipse cx="0.817" cy="0.781" rx="0.817" ry="0.781" transform="translate(36.752 0)" fill="#fff"/><path d="M466.525,73.528a.817.817,0,1,1-.817-.781A.8.8,0,0,1,466.525,73.528Z" transform="translate(-420.789 -72.747)" fill="#fff"/><ellipse cx="0.817" cy="0.781" rx="0.817" ry="0.781" transform="translate(51.453 0)" fill="#fff"/><ellipse cx="0.817" cy="0.781" rx="0.817" ry="0.781" transform="translate(58.804 0)" fill="#fff"/><path d="M491.865,73.528a.818.818,0,1,1-.817-.781A.8.8,0,0,1,491.865,73.528Z" transform="translate(-424.076 -72.747)" fill="#fff"/><path d="M500.311,73.528a.818.818,0,1,1-.817-.781A.8.8,0,0,1,500.311,73.528Z" transform="translate(-425.173 -72.747)" fill="#fff"/></g><g transform="translate(0 24.993)"><path d="M415.848,81.036a.818.818,0,1,1-.817-.781A.8.8,0,0,1,415.848,81.036Z" transform="translate(-414.214 -80.255)" fill="#fff"/><path d="M424.294,81.036a.818.818,0,1,1-.816-.781A.8.8,0,0,1,424.294,81.036Z" transform="translate(-415.31 -80.255)" fill="#fff"/><path d="M432.74,81.036a.818.818,0,1,1-.816-.781A.8.8,0,0,1,432.74,81.036Z" transform="translate(-416.406 -80.255)" fill="#fff"/><path d="M441.187,81.036a.818.818,0,1,1-.817-.781A.8.8,0,0,1,441.187,81.036Z" transform="translate(-417.502 -80.255)" fill="#fff"/><path d="M449.633,81.036a.818.818,0,1,1-.816-.781A.8.8,0,0,1,449.633,81.036Z" transform="translate(-418.597 -80.255)" fill="#fff"/><path d="M458.078,81.036a.817.817,0,1,1-.816-.781A.8.8,0,0,1,458.078,81.036Z" transform="translate(-419.693 -80.255)" fill="#fff"/><path d="M466.525,81.036a.817.817,0,1,1-.817-.781A.8.8,0,0,1,466.525,81.036Z" transform="translate(-420.789 -80.255)" fill="#fff"/><path d="M474.972,81.036a.818.818,0,1,1-.816-.781A.8.8,0,0,1,474.972,81.036Z" transform="translate(-421.885 -80.255)" fill="#fff"/><path d="M483.418,81.036a.818.818,0,1,1-.816-.781A.8.8,0,0,1,483.418,81.036Z" transform="translate(-422.981 -80.255)" fill="#fff"/><path d="M491.865,81.036a.818.818,0,1,1-.817-.781A.8.8,0,0,1,491.865,81.036Z" transform="translate(-424.077 -80.255)" fill="#fff"/><path d="M500.311,81.036a.818.818,0,1,1-.817-.781A.8.8,0,0,1,500.311,81.036Z" transform="translate(-425.173 -80.255)" fill="#fff"/></g><g transform="translate(0 31.242)"><ellipse cx="0.817" cy="0.781" rx="0.817" ry="0.781" transform="translate(0 0)" fill="#fff"/><path d="M424.294,88.545a.818.818,0,1,1-.816-.782A.8.8,0,0,1,424.294,88.545Z" transform="translate(-415.31 -87.763)" fill="#fff"/><ellipse cx="0.817" cy="0.781" rx="0.817" ry="0.781" transform="translate(14.701 0)" fill="#fff"/><path d="M441.187,88.545a.818.818,0,1,1-.817-.782A.8.8,0,0,1,441.187,88.545Z" transform="translate(-417.502 -87.763)" fill="#fff"/><path d="M449.633,88.545a.818.818,0,1,1-.816-.782A.8.8,0,0,1,449.633,88.545Z" transform="translate(-418.597 -87.763)" fill="#fff"/><ellipse cx="0.817" cy="0.781" rx="0.817" ry="0.781" transform="translate(36.752 0)" fill="#fff"/><path d="M466.525,88.545a.817.817,0,1,1-.817-.782A.8.8,0,0,1,466.525,88.545Z" transform="translate(-420.789 -87.763)" fill="#fff"/><ellipse cx="0.817" cy="0.781" rx="0.817" ry="0.781" transform="translate(51.453 0)" fill="#fff"/><ellipse cx="0.817" cy="0.781" rx="0.817" ry="0.781" transform="translate(58.804 0)" fill="#fff"/><path d="M491.865,88.545a.818.818,0,1,1-.817-.782A.8.8,0,0,1,491.865,88.545Z" transform="translate(-424.076 -87.763)" fill="#fff"/><path d="M500.311,88.545a.818.818,0,1,1-.817-.782A.8.8,0,0,1,500.311,88.545Z" transform="translate(-425.173 -87.763)" fill="#fff"/></g><g transform="translate(0 37.49)"><ellipse cx="0.817" cy="0.781" rx="0.817" ry="0.781" fill="#fff"/><path d="M424.294,96.052a.818.818,0,1,1-.816-.781A.8.8,0,0,1,424.294,96.052Z" transform="translate(-415.31 -95.271)" fill="#fff"/><ellipse cx="0.817" cy="0.781" rx="0.817" ry="0.781" transform="translate(14.701)" fill="#fff"/><path d="M441.187,96.052a.818.818,0,1,1-.817-.781A.8.8,0,0,1,441.187,96.052Z" transform="translate(-417.502 -95.271)" fill="#fff"/><path d="M449.633,96.052a.818.818,0,1,1-.816-.781A.8.8,0,0,1,449.633,96.052Z" transform="translate(-418.597 -95.271)" fill="#fff"/><ellipse cx="0.817" cy="0.781" rx="0.817" ry="0.781" transform="translate(36.752)" fill="#fff"/><path d="M466.525,96.052a.818.818,0,1,1-.817-.781A.8.8,0,0,1,466.525,96.052Z" transform="translate(-420.789 -95.271)" fill="#fff"/><ellipse cx="0.817" cy="0.781" rx="0.817" ry="0.781" transform="translate(51.453)" fill="#fff"/><ellipse cx="0.817" cy="0.781" rx="0.817" ry="0.781" transform="translate(58.804)" fill="#fff"/><path d="M491.865,96.052a.818.818,0,1,1-.817-.781A.8.8,0,0,1,491.865,96.052Z" transform="translate(-424.076 -95.271)" fill="#fff"/><path d="M500.311,96.052a.818.818,0,1,1-.817-.781A.8.8,0,0,1,500.311,96.052Z" transform="translate(-425.173 -95.271)" fill="#fff"/></g><g transform="translate(0 43.739)"><path d="M415.848,103.56a.818.818,0,1,1-.817-.781A.8.8,0,0,1,415.848,103.56Z" transform="translate(-414.214 -102.779)" fill="#fff"/><path d="M424.294,103.56a.818.818,0,1,1-.816-.781A.8.8,0,0,1,424.294,103.56Z" transform="translate(-415.31 -102.779)" fill="#fff"/><path d="M432.74,103.56a.818.818,0,1,1-.816-.781A.8.8,0,0,1,432.74,103.56Z" transform="translate(-416.406 -102.779)" fill="#fff"/><path d="M441.187,103.56a.818.818,0,1,1-.817-.781A.8.8,0,0,1,441.187,103.56Z" transform="translate(-417.502 -102.779)" fill="#fff"/><path d="M449.633,103.56a.818.818,0,1,1-.816-.781A.8.8,0,0,1,449.633,103.56Z" transform="translate(-418.597 -102.779)" fill="#fff"/><path d="M458.078,103.56a.818.818,0,1,1-.816-.781A.8.8,0,0,1,458.078,103.56Z" transform="translate(-419.693 -102.779)" fill="#fff"/><path d="M466.525,103.56a.818.818,0,1,1-.817-.781A.8.8,0,0,1,466.525,103.56Z" transform="translate(-420.789 -102.779)" fill="#fff"/><path d="M474.972,103.56a.818.818,0,1,1-.816-.781A.8.8,0,0,1,474.972,103.56Z" transform="translate(-421.885 -102.779)" fill="#fff"/><path d="M483.418,103.56a.818.818,0,1,1-.816-.781A.8.8,0,0,1,483.418,103.56Z" transform="translate(-422.981 -102.779)" fill="#fff"/><path d="M491.865,103.56a.818.818,0,1,1-.817-.781A.8.8,0,0,1,491.865,103.56Z" transform="translate(-424.077 -102.779)" fill="#fff"/><path d="M500.311,103.56a.818.818,0,1,1-.817-.781A.8.8,0,0,1,500.311,103.56Z" transform="translate(-425.173 -102.779)" fill="#fff"/></g><g transform="translate(0 49.987)"><ellipse cx="0.817" cy="0.781" rx="0.817" ry="0.781" fill="#fff"/><path d="M424.294,111.068a.818.818,0,1,1-.816-.781A.8.8,0,0,1,424.294,111.068Z" transform="translate(-415.31 -110.287)" fill="#fff"/><ellipse cx="0.817" cy="0.781" rx="0.817" ry="0.781" transform="translate(14.701)" fill="#fff"/><path d="M441.187,111.068a.818.818,0,1,1-.817-.781A.8.8,0,0,1,441.187,111.068Z" transform="translate(-417.502 -110.287)" fill="#fff"/><path d="M449.633,111.068a.818.818,0,1,1-.816-.781A.8.8,0,0,1,449.633,111.068Z" transform="translate(-418.597 -110.287)" fill="#fff"/><ellipse cx="0.817" cy="0.781" rx="0.817" ry="0.781" transform="translate(36.752)" fill="#fff"/><path d="M466.525,111.068a.818.818,0,1,1-.817-.781A.8.8,0,0,1,466.525,111.068Z" transform="translate(-420.789 -110.287)" fill="#fff"/><ellipse cx="0.817" cy="0.781" rx="0.817" ry="0.781" transform="translate(51.453)" fill="#fff"/><ellipse cx="0.817" cy="0.781" rx="0.817" ry="0.781" transform="translate(58.804)" fill="#fff"/><path d="M491.865,111.068a.818.818,0,1,1-.817-.781A.8.8,0,0,1,491.865,111.068Z" transform="translate(-424.076 -110.287)" fill="#fff"/><path d="M500.311,111.068a.818.818,0,1,1-.817-.781A.8.8,0,0,1,500.311,111.068Z" transform="translate(-425.173 -110.287)" fill="#fff"/></g><g transform="translate(0 56.235)"><path d="M415.848,118.576a.818.818,0,1,1-.817-.782A.8.8,0,0,1,415.848,118.576Z" transform="translate(-414.214 -117.794)" fill="#fff"/><path d="M424.294,118.576a.818.818,0,1,1-.816-.782A.8.8,0,0,1,424.294,118.576Z" transform="translate(-415.31 -117.794)" fill="#fff"/><path d="M432.74,118.576a.818.818,0,1,1-.816-.782A.8.8,0,0,1,432.74,118.576Z" transform="translate(-416.406 -117.794)" fill="#fff"/><path d="M441.187,118.576a.818.818,0,1,1-.817-.782A.8.8,0,0,1,441.187,118.576Z" transform="translate(-417.502 -117.794)" fill="#fff"/><path d="M449.633,118.576a.818.818,0,1,1-.816-.782A.8.8,0,0,1,449.633,118.576Z" transform="translate(-418.597 -117.794)" fill="#fff"/><path d="M458.078,118.576a.817.817,0,1,1-.816-.782A.8.8,0,0,1,458.078,118.576Z" transform="translate(-419.693 -117.794)" fill="#fff"/><path d="M466.525,118.576a.817.817,0,1,1-.817-.782A.8.8,0,0,1,466.525,118.576Z" transform="translate(-420.789 -117.794)" fill="#fff"/><path d="M474.972,118.576a.818.818,0,1,1-.816-.782A.8.8,0,0,1,474.972,118.576Z" transform="translate(-421.885 -117.794)" fill="#fff"/><path d="M483.418,118.576a.818.818,0,1,1-.816-.782A.8.8,0,0,1,483.418,118.576Z" transform="translate(-422.981 -117.794)" fill="#fff"/><path d="M491.865,118.576a.818.818,0,1,1-.817-.782A.8.8,0,0,1,491.865,118.576Z" transform="translate(-424.077 -117.794)" fill="#fff"/><path d="M500.311,118.576a.818.818,0,1,1-.817-.782A.8.8,0,0,1,500.311,118.576Z" transform="translate(-425.173 -117.794)" fill="#fff"/></g><g transform="translate(0 62.483)"><ellipse cx="0.817" cy="0.781" rx="0.817" ry="0.781" transform="translate(0 0)" fill="#fff"/><path d="M424.294,126.083a.818.818,0,1,1-.816-.782A.8.8,0,0,1,424.294,126.083Z" transform="translate(-415.31 -125.302)" fill="#fff"/><ellipse cx="0.817" cy="0.781" rx="0.817" ry="0.781" transform="translate(14.701 0)" fill="#fff"/><path d="M441.187,126.083a.818.818,0,1,1-.817-.782A.8.8,0,0,1,441.187,126.083Z" transform="translate(-417.502 -125.302)" fill="#fff"/><path d="M449.633,126.083a.818.818,0,1,1-.816-.782A.8.8,0,0,1,449.633,126.083Z" transform="translate(-418.597 -125.302)" fill="#fff"/><ellipse cx="0.817" cy="0.781" rx="0.817" ry="0.781" transform="translate(36.752 0)" fill="#fff"/><path d="M466.525,126.083a.817.817,0,1,1-.817-.782A.8.8,0,0,1,466.525,126.083Z" transform="translate(-420.789 -125.302)" fill="#fff"/><ellipse cx="0.817" cy="0.781" rx="0.817" ry="0.781" transform="translate(51.453 0)" fill="#fff"/><ellipse cx="0.817" cy="0.781" rx="0.817" ry="0.781" transform="translate(58.804 0)" fill="#fff"/><path d="M491.865,126.083a.818.818,0,1,1-.817-.782A.8.8,0,0,1,491.865,126.083Z" transform="translate(-424.076 -125.302)" fill="#fff"/><path d="M500.311,126.083a.818.818,0,1,1-.817-.782A.8.8,0,0,1,500.311,126.083Z" transform="translate(-425.173 -125.302)" fill="#fff"/></g><g transform="translate(0 68.732)"><ellipse cx="0.817" cy="0.781" rx="0.817" ry="0.781" transform="translate(0 0)" fill="#fff"/><path d="M424.294,133.592a.818.818,0,1,1-.816-.782A.8.8,0,0,1,424.294,133.592Z" transform="translate(-415.31 -132.81)" fill="#fff"/><ellipse cx="0.817" cy="0.781" rx="0.817" ry="0.781" transform="translate(14.701 0)" fill="#fff"/><path d="M441.187,133.592a.818.818,0,1,1-.817-.782A.8.8,0,0,1,441.187,133.592Z" transform="translate(-417.502 -132.81)" fill="#fff"/><path d="M449.633,133.592a.818.818,0,1,1-.816-.782A.8.8,0,0,1,449.633,133.592Z" transform="translate(-418.597 -132.81)" fill="#fff"/><ellipse cx="0.817" cy="0.781" rx="0.817" ry="0.781" transform="translate(36.752 0)" fill="#fff"/><path d="M466.525,133.592a.817.817,0,1,1-.817-.782A.8.8,0,0,1,466.525,133.592Z" transform="translate(-420.789 -132.81)" fill="#fff"/><ellipse cx="0.817" cy="0.781" rx="0.817" ry="0.781" transform="translate(51.453 0)" fill="#fff"/><ellipse cx="0.817" cy="0.781" rx="0.817" ry="0.781" transform="translate(58.804 0)" fill="#fff"/><path d="M491.865,133.592a.818.818,0,1,1-.817-.782A.8.8,0,0,1,491.865,133.592Z" transform="translate(-424.076 -132.81)" fill="#fff"/><path d="M500.311,133.592a.818.818,0,1,1-.817-.782A.8.8,0,0,1,500.311,133.592Z" transform="translate(-425.173 -132.81)" fill="#fff"/></g></g></g></g><g transform="translate(1232.693 871.18)"><g clip-path="url(#b)"><g clip-path="url(#b)"><path d="M219.488,324.189a10.89,10.89,0,0,1,2.656-1.154l.547-2.629,4.442-.078.639,2.608a10.876,10.876,0,0,1,2.695,1.06l2.245-1.471,3.2,3.086-1.391,2.295a10.883,10.883,0,0,1,1.154,2.656l2.628.547.078,4.441-2.608.64a10.886,10.886,0,0,1-1.06,2.694l1.471,2.245-3.085,3.2-2.295-1.391a10.875,10.875,0,0,1-2.656,1.154l-.547,2.629-4.441.078-.639-2.608a10.889,10.889,0,0,1-2.695-1.06l-2.244,1.471-3.2-3.086,1.391-2.295a10.862,10.862,0,0,1-1.154-2.656l-2.629-.547-.078-4.441,2.608-.64a10.883,10.883,0,0,1,1.06-2.695l-1.471-2.245,3.085-3.2Zm2.368,5.917a4.765,4.765,0,1,0,6.738-.119,4.765,4.765,0,0,0-6.738.119" transform="translate(-145.054 -219.266)" fill="#ffd117"/><path d="M75.159,19.057a9.9,9.9,0,0,1,2.412-1.048l.5-2.387,4.033-.071.581,2.368a9.879,9.879,0,0,1,2.447.963l2.038-1.336,2.9,2.8L88.8,22.431a9.875,9.875,0,0,1,1.048,2.412l2.387.5.071,4.033-2.368.581A9.876,9.876,0,0,1,88.98,32.4l1.336,2.038-2.8,2.9-2.084-1.264a9.887,9.887,0,0,1-2.412,1.048l-.5,2.387-4.033.071-.581-2.368a9.89,9.89,0,0,1-2.447-.963l-2.038,1.336-2.9-2.8L71.784,32.7a9.876,9.876,0,0,1-1.048-2.412l-2.387-.5-.071-4.033,2.368-.581a9.881,9.881,0,0,1,.963-2.447L70.273,20.7l2.8-2.9Zm2.15,5.373a4.327,4.327,0,1,0,6.118-.108,4.327,4.327,0,0,0-6.118.108" transform="translate(-46.737 -10.645)" fill="#ffd117"/><rect width="0.316" height="69.936" transform="translate(98.533 15.754) rotate(-59.77)" fill="#ebebeb"/><path d="M55.074,118.924l-.226-.221c.249-.255,25-25.616,35.472-37.054,7.585-8.287,29.657-31.269,29.879-31.5l.227.219c-.222.231-22.292,23.211-29.874,31.494C80.08,93.3,55.323,118.669,55.074,118.924" transform="translate(-37.544 -34.327)" fill="#ebebeb"/><path d="M21.839,272.624a2.553,2.553,0,0,0,1.521-2.362,2.4,2.4,0,1,0-4.788-.022,2.548,2.548,0,0,0,1.525,2.384c-3.684.555-3.517,4.559-3.517,4.559l8.711.04s.2-4.048-3.453-4.6" transform="translate(-11.349 -183.241)" fill="#12263f"/><path d="M9.588,272.543a9.588,9.588,0,1,1,9.588-9.588,9.6,9.6,0,0,1-9.588,9.588m0-18.9a9.315,9.315,0,1,0,9.315,9.315,9.325,9.325,0,0,0-9.315-9.315" transform="translate(0 -173.431)" fill="#ebebeb"/><path d="M521.325,163.448a2.488,2.488,0,0,0,1.483-2.3,2.339,2.339,0,1,0-4.668-.021,2.485,2.485,0,0,0,1.487,2.324c-3.592.541-3.428,4.445-3.428,4.445l8.493.039s.194-3.947-3.367-4.484" transform="translate(-353.339 -108.594)" fill="#12263f"/><path d="M510.395,163.315a9.35,9.35,0,1,1,8.279-8.28,9.36,9.36,0,0,1-8.279,8.28m-.03-18.325a9.084,9.084,0,1,0,8.044,8.044,9.093,9.093,0,0,0-8.044-8.044" transform="translate(-342.273 -99.028)" fill="#ebebeb"/><path d="M273.082,17.656a2.34,2.34,0,0,0,1.394-2.165,2.2,2.2,0,1,0-4.389-.02,2.337,2.337,0,0,0,1.4,2.185c-3.377.509-3.224,4.179-3.224,4.179l7.986.037s.182-3.711-3.166-4.216" transform="translate(-183.625 -8.994)" fill="#12263f"/><path d="M262.8,17.53a8.792,8.792,0,1,1,7.785-7.785A8.8,8.8,0,0,1,262.8,17.53M262.777.3a8.541,8.541,0,1,0,7.564,7.563A8.55,8.55,0,0,0,262.777.3" transform="translate(-173.22 0)" fill="#ebebeb"/><path d="M121.2,377.963a2.178,2.178,0,0,0,1.3-2.015,2.047,2.047,0,1,0-4.085-.019,2.174,2.174,0,0,0,1.3,2.034c-3.143.474-3,3.89-3,3.89l7.433.034s.169-3.453-2.946-3.924" transform="translate(-79.889 -255.841)" fill="#12263f"/><path d="M110.745,377.894a8.181,8.181,0,1,1,8.181-8.181,8.19,8.19,0,0,1-8.181,8.181m0-16.129a7.948,7.948,0,1,0,7.948,7.948,7.957,7.957,0,0,0-7.948-7.948" transform="translate(-70.205 -247.47)" fill="#ebebeb"/><rect width="0.316" height="27.811" transform="matrix(0.669, -0.744, 0.744, 0.669, 14.502, 97.807)" fill="#ebebeb"/></g><rect width="49.205" height="23.11" transform="translate(127.533 3.072)" fill="#dc49f8"/><g clip-path="url(#b)"><path d="M453.257,32.668s0-.142-.006-.414,0-.676-.007-1.2c0-1.057-.008-2.609-.015-4.607-.008-3.993-.019-9.763-.032-16.888l.06.06-49.2.022h0l.082-.082c0,8.132,0,15.95,0,23.11l-.078-.078,35.329.037,10.2.021,2.726.01.705,0c.159,0,.242,0,.242,0s-.077,0-.233,0l-.7,0-2.71.01-10.185.021-35.381.037h-.078v-.078c0-7.16,0-14.978,0-23.11V9.476h.086l49.2.022h.06v.06c-.014,7.14-.025,12.923-.032,16.924-.006,1.992-.011,3.54-.015,4.593,0,.521-.005.919-.007,1.191s-.006.4-.006.4" transform="translate(-276.519 -6.486)" fill="#263238"/><path d="M453.511,31.667c0,.045-11.033.082-24.639.082s-24.642-.037-24.642-.082,11.031-.082,24.642-.082,24.639.037,24.639.082" transform="translate(-276.697 -21.62)" fill="#263238"/><path d="M413.568,17.461a10.96,10.96,0,0,1-1.337,1.34,10.942,10.942,0,0,1-1.448,1.219,10.909,10.909,0,0,1,1.337-1.34,10.974,10.974,0,0,1,1.448-1.219" transform="translate(-281.182 -11.951)" fill="#263238"/><path d="M413.7,19.89a10.961,10.961,0,0,1-1.34-1.337,10.935,10.935,0,0,1-1.219-1.448,10.933,10.933,0,0,1,1.34,1.337A10.97,10.97,0,0,1,413.7,19.89" transform="translate(-281.425 -11.708)" fill="#263238"/><path d="M429.087,19.776a1.191,1.191,0,0,1-.016-.207c-.005-.153-.011-.335-.019-.551-.013-.47-.029-1.129-.036-1.914l.071.071-2.672.011.082-.082h0v.363c0,.12,0,.239,0,.357q0,.354,0,.691c0,.446-.006.869-.008,1.26l-.071-.071c.786.007,1.444.023,1.914.036l.551.018a1.21,1.21,0,0,1,.207.016,6.344,6.344,0,0,1-.712.035c-.465.013-1.142.029-1.96.036h-.071v-.072c0-.392-.005-.814-.008-1.26q0-.337,0-.691c0-.118,0-.237,0-.357v-.363h0l.082-.083,2.672.011h.072V17.1c-.007.817-.023,1.494-.036,1.96a6.247,6.247,0,0,1-.035.712" transform="translate(-291.814 -11.651)" fill="#263238"/><path d="M444.678,24.825a12.575,12.575,0,0,1-2.868,0,12.574,12.574,0,0,1,2.868,0" transform="translate(-302.421 -16.937)" fill="#263238"/><rect width="44.654" height="31.353" transform="translate(0.362 30.907)" fill="#fafafa"/><path d="M45.623,129.137s0-.2-.007-.573,0-.934-.008-1.659c0-1.455-.009-3.589-.017-6.318-.009-5.454-.02-13.284-.035-22.8l.066.066-44.65.016h0l.082-.082c0,11.213-.005,21.859-.007,31.353l-.075-.075,32.194.037,9.176.02,2.438.009.629,0c.142,0,.216,0,.216,0s-.068,0-.207,0l-.621,0-2.424.009-9.159.02-32.243.037H.894v-.075c0-9.495,0-20.14-.007-31.353V97.7H.973l44.65.016h.067v.066c-.015,9.537-.026,17.381-.035,22.845-.007,2.723-.013,4.851-.017,6.3,0,.72-.006,1.272-.007,1.647s-.007.558-.007.558" transform="translate(-0.607 -66.877)" fill="#263238"/><path d="M45.87,117.848c0,.045-10.012.082-22.36.082s-22.363-.037-22.363-.082,10.01-.082,22.363-.082,22.36.037,22.36.082" transform="translate(-0.785 -80.611)" fill="#263238"/><path d="M9.62,104.972a9.047,9.047,0,0,1-1.208,1.222,9.068,9.068,0,0,1-1.319,1.1A9.039,9.039,0,0,1,8.3,106.073a9.052,9.052,0,0,1,1.319-1.1" transform="translate(-4.855 -71.852)" fill="#263238"/><path d="M9.74,107.175a9.048,9.048,0,0,1-1.222-1.208,9.068,9.068,0,0,1-1.1-1.319,9.051,9.051,0,0,1,1.222,1.208,9.06,9.06,0,0,1,1.1,1.319" transform="translate(-5.076 -71.631)" fill="#263238"/><path d="M23.684,107.056c-.011-.011-.021-.263-.035-.69s-.029-1.024-.036-1.735l.071.071-2.425.011.082-.082h0v.328q0,.164,0,.324,0,.321,0,.627c0,.4-.006.788-.008,1.144l-.071-.071c.712.007,1.308.023,1.735.036s.679.024.69.035a5.069,5.069,0,0,1-.644.035c-.422.013-1.038.029-1.781.036h-.071v-.072c0-.356-.005-.739-.008-1.144q0-.306,0-.627c0-.107,0-.215,0-.324v-.328h0l.082-.083,2.425.011h.072v.071c-.007.743-.023,1.359-.036,1.781a5.07,5.07,0,0,1-.035.644" transform="translate(-14.483 -71.563)" fill="#263238"/><path d="M37.854,111.639a5.188,5.188,0,0,1-1.3.083,5.187,5.187,0,0,1-1.3-.083,5.252,5.252,0,0,1,1.3-.082,5.252,5.252,0,0,1,1.3.082" transform="translate(-24.129 -76.361)" fill="#263238"/><path d="M57.438,136.99a6.265,6.265,0,1,0-11.666,3.165h0l.018.024c.24.4.541.694.845,1.12l3.638,4.819a1.131,1.131,0,0,0,1.806,0l3.577-4.739a13.52,13.52,0,0,0,.91-1.206l.013-.017h0a6.228,6.228,0,0,0,.865-3.165m-6.265,2.728a2.757,2.757,0,1,1,2.757-2.757,2.757,2.757,0,0,1-2.757,2.757" transform="translate(-30.739 -89.482)" fill="#dc49f8"/><rect width="57.321" height="40.247" transform="translate(129.897 74.426)" fill="#fafafa"/><path d="M468.867,275.972s0-.251-.007-.733,0-1.2-.008-2.128c0-1.866-.01-4.6-.017-8.108-.008-7-.02-17.055-.035-29.278l.066.067-57.316.016h0l.082-.082c0,14.395-.005,28.06-.008,40.247l-.075-.075,41.334.037,11.776.02,3.128.009.807,0c.181,0,.276,0,.276,0s-.089,0-.268,0l-.8,0-3.113.009-11.759.02-41.383.037h-.075v-.075c0-12.188,0-25.853-.007-40.247v-.082h.087l57.316.016h.067v.066c-.014,12.241-.026,22.309-.035,29.319-.007,3.5-.013,6.231-.017,8.093,0,.926-.006,1.636-.008,2.116s-.007.719-.007.719" transform="translate(-281.649 -161.299)" fill="#263238"/><path d="M469.133,261.481c0,.045-12.852.082-28.7.082s-28.706-.037-28.706-.082,12.85-.082,28.706-.082,28.7.037,28.7.082" transform="translate(-281.827 -178.929)" fill="#263238"/><path d="M422.6,244.9a29.535,29.535,0,0,1-3.244,2.982A29.609,29.609,0,0,1,422.6,244.9" transform="translate(-287.052 -167.636)" fill="#263238"/><path d="M422.755,247.732a29.621,29.621,0,0,1-2.982-3.244,29.6,29.6,0,0,1,2.982,3.244" transform="translate(-287.336 -167.352)" fill="#263238"/><path d="M440.716,247.629a1.578,1.578,0,0,1-.016-.238c-.005-.173-.011-.385-.019-.64-.013-.547-.029-1.316-.036-2.234l.071.071-3.112.011.082-.082h0v.422q0,.21,0,.416,0,.411,0,.8c0,.521-.006,1.013-.008,1.468l-.071-.071c.918.007,1.687.023,2.234.036l.64.019a1.632,1.632,0,0,1,.239.016.943.943,0,0,1-.209.016l-.624.019c-.542.013-1.33.029-2.279.036h-.071v-.072c0-.455-.005-.947-.008-1.468q0-.393,0-.8,0-.206,0-.416v-.422h0l.083-.083,3.112.011h.072v.071c-.007.949-.023,1.737-.036,2.279-.007.249-.014.456-.018.624a.953.953,0,0,1-.016.209" transform="translate(-299.472 -167.315)" fill="#263238"/><path d="M458.843,253.51a17.051,17.051,0,0,1-3.341,0,17.045,17.045,0,0,1,3.341,0" transform="translate(-311.793 -173.472)" fill="#263238"/><rect width="20.495" height="20.495" transform="translate(160.065 87.26)" fill="#e0e0e0"/></g><rect width="118.62" height="91.197" transform="translate(33.368 14.627)" fill="#fff"/><g clip-path="url(#b)"><path d="M224.205,137.38c0-.563-.027-36.094-.068-91.2l.068.068-118.61.015h-.01l.082-.082c0,32.843-.006,63.922-.008,91.2l-.074-.074,118.62.074-118.62.074h-.074v-.074c0-27.275-.005-58.353-.008-91.2V46.1h.092l118.61.015h.068v.068c-.041,55.1-.068,90.635-.068,91.2" transform="translate(-72.217 -31.556)" fill="#373f51"/><path d="M228.327,178.884s.1-.142.306-.412l.173-.227c.058-.087.11-.191.174-.3a4.667,4.667,0,0,0,.389-.778c.061-.153.133-.313.194-.486l.155-.561a4,4,0,0,0,.129-.625,6.672,6.672,0,0,0,.1-.688,13.034,13.034,0,0,0-.152-3.32,29.85,29.85,0,0,0-3.049-8.585,67.013,67.013,0,0,0-6.547-10.181,104.2,104.2,0,0,0-9.762-10.966,119.408,119.408,0,0,0-12.817-10.94c-2.392-1.758-4.916-3.464-7.576-5.07a73.173,73.173,0,0,0-8.416-4.413,39.326,39.326,0,0,0-9.364-2.935,16.553,16.553,0,0,0-4.993-.123,9.348,9.348,0,0,0-2.412.7,6.012,6.012,0,0,0-3.269,3.659,9.361,9.361,0,0,0-.421,2.477,16.5,16.5,0,0,0,.688,4.948,39.3,39.3,0,0,0,3.981,8.972,73.15,73.15,0,0,0,5.342,7.861c1.9,2.461,3.881,4.774,5.9,6.952a119.391,119.391,0,0,0,12.329,11.489,104.2,104.2,0,0,0,12.006,8.452,67.05,67.05,0,0,0,10.86,5.345,29.853,29.853,0,0,0,8.876,2.051,13.015,13.015,0,0,0,3.315-.227,6.735,6.735,0,0,0,.673-.173,3.967,3.967,0,0,0,.606-.2l.54-.218c.165-.081.315-.171.461-.248a4.663,4.663,0,0,0,.728-.475c.1-.075.2-.139.277-.207l.205-.2c.245-.234.374-.351.374-.351s-.119.126-.36.366l-.2.2c-.079.069-.175.135-.275.211a4.6,4.6,0,0,1-.727.486c-.145.079-.3.171-.462.254l-.541.223a3.992,3.992,0,0,1-.609.205,6.768,6.768,0,0,1-.676.179,13.018,13.018,0,0,1-3.331.246,29.778,29.778,0,0,1-8.911-2.025A66.848,66.848,0,0,1,201.34,173.9a103.887,103.887,0,0,1-12.037-8.444,119.209,119.209,0,0,1-12.359-11.493c-2.024-2.179-4.012-4.5-5.916-6.96a73.187,73.187,0,0,1-5.36-7.878,39.46,39.46,0,0,1-4-9.016,16.7,16.7,0,0,1-.7-5.008,9.558,9.558,0,0,1,.431-2.532,6.208,6.208,0,0,1,3.372-3.775,9.545,9.545,0,0,1,2.466-.715,16.742,16.742,0,0,1,5.053.124,39.48,39.48,0,0,1,9.411,2.952,73.251,73.251,0,0,1,8.435,4.428c2.665,1.612,5.192,3.322,7.587,5.085a119.155,119.155,0,0,1,12.824,10.97,103.83,103.83,0,0,1,9.759,11,66.8,66.8,0,0,1,6.535,10.216,29.778,29.778,0,0,1,3.026,8.623,13,13,0,0,1,.134,3.337,6.609,6.609,0,0,1-.1.692,3.991,3.991,0,0,1-.135.628l-.16.563c-.063.174-.138.334-.2.488a4.607,4.607,0,0,1-.4.778c-.065.108-.119.211-.179.3l-.177.225c-.211.267-.322.4-.322.4" transform="translate(-110.178 -80.731)" fill="#373f51"/><path d="M222.029,183.476s-.019-.173-.045-.511q-.01-.127-.022-.284c-.014-.1-.044-.216-.069-.339a4.634,4.634,0,0,0-.227-.84c-.057-.155-.109-.322-.179-.492l-.258-.522a3.949,3.949,0,0,0-.32-.553,6.641,6.641,0,0,0-.387-.577,13.011,13.011,0,0,0-2.323-2.376,29.851,29.851,0,0,0-7.99-4.378,67.045,67.045,0,0,0-11.663-3.24,104.17,104.17,0,0,0-14.585-1.685,119.412,119.412,0,0,0-16.847.368c-2.956.281-5.975.688-9.029,1.26a73.144,73.144,0,0,0-9.217,2.309,39.309,39.309,0,0,0-8.941,4.042,16.562,16.562,0,0,0-3.808,3.232,9.35,9.35,0,0,0-1.335,2.127,6.011,6.011,0,0,0,0,4.907,9.353,9.353,0,0,0,1.334,2.128,16.506,16.506,0,0,0,3.807,3.235,39.285,39.285,0,0,0,8.943,4.045,73.12,73.12,0,0,0,9.219,2.31c3.055.572,6.075.979,9.031,1.26a119.443,119.443,0,0,0,16.848.368,104.227,104.227,0,0,0,14.585-1.685,67.038,67.038,0,0,0,11.663-3.24,29.854,29.854,0,0,0,7.989-4.378,13.019,13.019,0,0,0,2.323-2.376,6.663,6.663,0,0,0,.387-.577,3.943,3.943,0,0,0,.32-.552l.258-.522c.069-.17.122-.338.179-.492a4.632,4.632,0,0,0,.227-.839c.025-.123.055-.235.069-.339s.016-.2.022-.284c.027-.338.045-.511.045-.511s-.005.173-.026.513q-.008.128-.017.285c-.013.1-.041.217-.065.341a4.567,4.567,0,0,1-.219.846c-.056.156-.107.325-.175.5l-.256.527a3.965,3.965,0,0,1-.317.558,6.693,6.693,0,0,1-.386.584,13.007,13.007,0,0,1-2.321,2.4,29.775,29.775,0,0,1-8,4.421,66.823,66.823,0,0,1-11.677,3.274,103.878,103.878,0,0,1-14.6,1.712,119.171,119.171,0,0,1-16.873-.35c-2.962-.279-5.986-.684-9.048-1.256a73.221,73.221,0,0,1-9.244-2.311,39.452,39.452,0,0,1-8.989-4.064,16.7,16.7,0,0,1-3.853-3.274A9.548,9.548,0,0,1,134.6,186a6.209,6.209,0,0,1,0-5.062,9.548,9.548,0,0,1,1.365-2.175,16.739,16.739,0,0,1,3.853-3.271,39.467,39.467,0,0,1,8.988-4.061,73.22,73.22,0,0,1,9.242-2.311c3.062-.571,6.086-.977,9.047-1.255a119.14,119.14,0,0,1,16.871-.35,103.882,103.882,0,0,1,14.6,1.711,66.8,66.8,0,0,1,11.677,3.274,29.773,29.773,0,0,1,8,4.421,13,13,0,0,1,2.322,2.4,6.566,6.566,0,0,1,.385.583,3.98,3.98,0,0,1,.318.558l.255.527c.069.172.12.341.175.5a4.581,4.581,0,0,1,.219.846c.023.124.052.236.065.341s.012.2.017.286c.02.339.026.513.026.513" transform="translate(-91.765 -114.565)" fill="#373f51"/><path d="M238.854,100.016s-.149-.091-.432-.277l-.238-.156c-.091-.052-.2-.1-.31-.153a4.636,4.636,0,0,0-.8-.334c-.157-.05-.321-.111-.5-.161L236,98.819a3.936,3.936,0,0,0-.633-.086,6.612,6.612,0,0,0-.693-.048,13.023,13.023,0,0,0-3.3.38,29.847,29.847,0,0,0-8.355,3.633,67.039,67.039,0,0,0-9.706,7.233,104.21,104.21,0,0,0-10.267,10.495,119.394,119.394,0,0,0-10.031,13.54c-1.589,2.508-3.117,5.143-4.536,7.908a73.142,73.142,0,0,0-3.823,8.7,39.321,39.321,0,0,0-2.283,9.543,16.548,16.548,0,0,0,.221,4.99,9.356,9.356,0,0,0,.863,2.358,6.012,6.012,0,0,0,3.875,3.009,9.354,9.354,0,0,0,2.5.25,16.519,16.519,0,0,0,4.889-1.027,39.3,39.3,0,0,0,8.676-4.59,73.115,73.115,0,0,0,7.474-5.871c2.324-2.064,4.5-4.2,6.529-6.365a119.414,119.414,0,0,0,10.613-13.091,104.2,104.2,0,0,0,7.6-12.56,67.015,67.015,0,0,0,4.585-11.2,29.835,29.835,0,0,0,1.435-9,13.013,13.013,0,0,0-.455-3.291,6.619,6.619,0,0,0-.219-.659,3.95,3.95,0,0,0-.241-.591l-.254-.523c-.092-.159-.192-.3-.28-.443a4.683,4.683,0,0,0-.524-.694c-.082-.095-.152-.187-.225-.262l-.211-.191c-.25-.228-.376-.349-.376-.349s.134.11.39.334l.215.189c.074.074.146.166.23.26a4.6,4.6,0,0,1,.535.692c.089.139.191.283.285.443l.26.525a3.974,3.974,0,0,1,.247.593,6.749,6.749,0,0,1,.225.662,13.008,13.008,0,0,1,.475,3.306,29.778,29.778,0,0,1-1.406,9.029,66.835,66.835,0,0,1-4.566,11.234,103.882,103.882,0,0,1-7.594,12.591,119.166,119.166,0,0,1-10.615,13.121c-2.035,2.17-4.208,4.312-6.536,6.382a73.2,73.2,0,0,1-7.491,5.89,39.455,39.455,0,0,1-8.719,4.615,16.7,16.7,0,0,1-4.948,1.039,9.555,9.555,0,0,1-2.556-.256,6.209,6.209,0,0,1-4-3.1,9.55,9.55,0,0,1-.883-2.411,16.733,16.733,0,0,1-.224-5.05,39.471,39.471,0,0,1,2.3-9.591,73.228,73.228,0,0,1,3.837-8.72c1.424-2.77,2.957-5.408,4.55-7.919a119.167,119.167,0,0,1,10.06-13.549,103.854,103.854,0,0,1,10.3-10.493,66.836,66.836,0,0,1,9.742-7.223,29.782,29.782,0,0,1,8.394-3.613,13,13,0,0,1,3.32-.364,6.666,6.666,0,0,1,.7.053,4.014,4.014,0,0,1,.636.091l.573.121c.178.051.343.114.5.166a4.6,4.6,0,0,1,.8.345c.112.057.218.1.309.158l.236.161c.281.192.421.294.421.294" transform="translate(-124.641 -67.505)" fill="#373f51"/><path d="M126.813,274.858a1.632,1.632,0,1,1-2.308,0,1.631,1.631,0,0,1,2.308,0" transform="translate(-84.898 -187.814)" fill="#373f51"/><path d="M417.575,112.1a1.632,1.632,0,1,1-1.632-1.632,1.632,1.632,0,0,1,1.632,1.632" transform="translate(-283.598 -75.613)" fill="#373f51"/><path d="M163.717,292a.415.415,0,1,1-.415-.415.415.415,0,0,1,.415.415" transform="translate(-111.497 -199.592)" fill="#373f51"/><path d="M191.77,147.08a.415.415,0,1,1-.415-.415.415.415,0,0,1,.415.415" transform="translate(-130.7 -100.393)" fill="#373f51"/><path d="M396.875,217.523a.415.415,0,1,1-.415-.415.415.415,0,0,1,.415.415" transform="translate(-271.095 -148.611)" fill="#373f51"/><path d="M415.141,156.248a.415.415,0,1,1-.415-.415.415.415,0,0,1,.415.415" transform="translate(-283.598 -106.668)" fill="#373f51"/><path d="M249.614,145.605a26,26,0,1,1-26-26.178,26.091,26.091,0,0,1,26,26.178" transform="translate(-135.265 -81.748)" fill="#ffd117"/><g transform="translate(62.345 61.877)" opacity="0.3"><g clip-path="url(#f)"><path d="M213.983,209.776c.136-1.14,1.024-2.3.514-3.324-.572-1.148-2.238-.963-3.41-1.477-1.637-.72-2.143-2.752-3.213-4.188-.958-1.284-3.2-2.695-4.9-2.308a2.076,2.076,0,0,0-1.785,1.921l-.156-.025c-.457-.05-.991-.074-1.242-.453-.292-.44,0-1.094-.3-1.526a2.4,2.4,0,0,0-.65-.485c-.222-.156-.411-.453-.275-.691.111-.2.4-.243.543-.428a.42.42,0,0,0-.008-.514c-.469-.555-.991.576-1.251.843a2.243,2.243,0,0,1-.21.2v0c0,.049-.008.095-.008.144-.006.154-.006.312-.008.469s-.008.313-.008.469c0,.127,0,.254.006.38s0,.255.006.38a4.413,4.413,0,0,1,.8.395c.506.292,1.07.679,1.1,1.263a.482.482,0,0,0,.054.276.4.4,0,0,0,.243.123,7.159,7.159,0,0,0,1.32.185c.008.522.045,1.07.037,1.588a17.94,17.94,0,0,0-.177,2.242A6.036,6.036,0,0,0,202.493,208c2.427,3.242,3.735,6.96,5.154,10.769.263.21.639.489.911.683.214.154.411.289.629.436s.415.273.639.413c.156.1.191.126.351.221-.021-.045.018.032,0-.013-.572-1.255-.573-2.994.657-3.615a2.8,2.8,0,0,0,.7-.366c.547-.518.1-1.588.646-2.106.309-.288.79-.267,1.172-.44a1.933,1.933,0,0,0,.856-1.954,11.941,11.941,0,0,1-.218-2.254" transform="translate(-197.61 -196.127)"/></g></g><g transform="translate(62.672 45.163)" opacity="0.3"><g clip-path="url(#g)"><path d="M199.934,154.35a1.2,1.2,0,0,1,1.7.053,1.793,1.793,0,0,1,.136,1.329c-.095.609-.189,1.218-.288,1.826a.949.949,0,0,0,.025.547c.181.386.815.313,1.057-.033a1.686,1.686,0,0,0,.152-1.238,2.349,2.349,0,0,1,.013-1.263c.411-.979,1.872-.831,2.719-1.469a4.6,4.6,0,0,0,1.074-1.637,1.814,1.814,0,0,1,1.494-1.131c.222.008.44.09.662.082a.885.885,0,0,0,.568-1.431,1.639,1.639,0,0,1-.288-.3.539.539,0,0,1,.206-.646,1.535,1.535,0,0,1,.691-.222c.555-.091,1.111-.177,1.666-.263.613-.095,1.4-.411,1.312-1.024-.074-.531-.794-.769-.9-1.3a1.755,1.755,0,0,0-.07-.386c-.168-.338-.675-.2-1-.021a.8.8,0,0,0-1.222-.391,2.142,2.142,0,0,0-.485,1.156,5.6,5.6,0,0,1-1.806,2.431,1.5,1.5,0,0,1-.876.493c-.341.017-.7-.35-.543-.65.107-.206.4-.325.374-.555-.041-.288-.543-.268-.642-.543.2-.815,1.131-1.152,1.847-1.588a4.472,4.472,0,0,0,1.888-2.32.589.589,0,0,0,.025-.477c-.107-.206-.383-.239-.617-.239-.551-.008-1.238.066-1.44.58a6.113,6.113,0,0,0-.094.876c-.193.856-1.366.95-2.082,1.46a6.525,6.525,0,0,1-.806.625,3.035,3.035,0,0,1-1.094.177c-.066,0-.234,0-.3.007-.226.315-.4.6-.614.927s-.421.691-.616,1.026a25.75,25.75,0,0,0-2.21,5.046c-.2.615-.375,1.278-.529,1.913s-.264,1.237-.371,1.889a7.335,7.335,0,0,0,.469-1.637,3,3,0,0,1,.819-1.687" transform="translate(-198.646 -143.148)"/></g></g><g transform="translate(79.014 39.522)" opacity="0.3"><g clip-path="url(#h)"><path d="M257.239,130.35c.246-.322.174-.786.333-1.158.265-.619,1.087-.84,1.372-1.45.11-.235.137-.521.328-.7.16-.145.4-.175.568-.306a.793.793,0,0,0-.183-1.221c-1.019-.651-2.9.1-3.777.739-1.133.819-2.241,1.806-3.747,1.71a2.962,2.962,0,0,0-1.237.007c-.389.147-.629.731-.294.978.186.137.451.1.661.2a.839.839,0,0,1,.238,1.126c-.19.384-.531.671-.755,1.036a1.962,1.962,0,0,0-.28,1.191,1.087,1.087,0,0,0,.353.765c.469.374,1.182.054,1.579-.4a5.892,5.892,0,0,1,1.186-1.339,2.961,2.961,0,0,1,.845-.294l1.965-.467a1.422,1.422,0,0,0,.846-.42" transform="translate(-250.444 -125.268)"/></g></g><g transform="translate(87.115 43.39)" opacity="0.3"><g clip-path="url(#i)"><path d="M303.349,157.8q0-.562-.033-1.115c-.02-.369-.034-.744-.071-1.11-.029-.3-.055-.592-.1-.884-.04-.309-.081-.663-.132-.969a23.691,23.691,0,0,0-.572-2.614c-.1-.339-.262-.7-.371-1.035s-.226-.665-.349-.994v0h0c-.132-.247-.271-.489-.423-.728-1.444-2.287-3.542-4.081-5.13-6.269-.518-.712-.922-1.3-1.839-1.44-1.358-.21-2.045.564-3.007-.724-.259-.345-.712-.666-1.094-.461.1.276.2.551.3.831a.39.39,0,0,1,.033.181c-.02.193-.309.247-.473.14a1.687,1.687,0,0,1-.362-.465,1.332,1.332,0,0,0-1.954-.161.749.749,0,0,0-.432-.609.892.892,0,0,1-1.119.72c-.078-.251.37-.3.527-.51s-.029-.481-.214-.65a2.856,2.856,0,0,0-1.789-.7,2.455,2.455,0,0,1-1.226-.144c-.21-.123-.358-.329-.572-.448a1.586,1.586,0,0,0-1.489.234,2.907,2.907,0,0,0-1.5,1.477c-.226.683.272,1.608.987,1.522a1.388,1.388,0,0,1,.547-.062.663.663,0,0,1,.391.629,1.854,1.854,0,0,0,.12.769c.123.23.5.345.642.127a1.427,1.427,0,0,0,.21-1.316,1.755,1.755,0,0,1,.095-1.345c.275-.374,1.057-.255,1,.206-.033.272-.341.469-.329.745s.354.428.634.415a3.01,3.01,0,0,1,.835-.041c.276.066.494.424.3.625-.341.386-1.23-.276-1.407.206-.049.123,0,.263-.013.395-.033.4-.539.551-.942.6a2.219,2.219,0,0,1-1.2-.086.76.76,0,0,1-.407-1,.458.458,0,0,0-.629.23,1.319,1.319,0,0,0-.045.749c-.428-.095-.81.268-1.053.625s-.481.781-.9.909-1-.045-1.214.333c-.284.493.539,1.119.251,1.608-.164.276-.559.268-.872.354a1.345,1.345,0,0,0-.551,2.09,1.617,1.617,0,0,0,2.287-.008,7.32,7.32,0,0,0,.885-1.53,1.392,1.392,0,0,1,1.435-.8,1.738,1.738,0,0,1,.588.37c.275.231.551.461.827.7.177.148.37.333.354.563-.016.185-.16.329-.222.5-.173.5.547.971,1,.7a.993.993,0,0,0,.193-1.394c-.428-.592-1.395-.889-1.37-1.621.494-.4,1.271.02,1.559.592s.3,1.242.539,1.831.922,1.115,1.489.827c-.148-.51-.292-1.016-.44-1.522.362-.271.778.519,1.21.387.263-.082.3-.461.181-.716a3.579,3.579,0,0,1-.366-.744.848.848,0,0,1,.983-.868,1.287,1.287,0,0,1,.963,1.061,2.358,2.358,0,0,0,.132.588c.189.395.679.514,1.082.679s.827.572.658.975c-.078.177-.263.345-.2.527.062.16.3.23.3.4,0,.115-.123.193-.23.239-.272.111-.568.148-.831.275a.75.75,0,0,0-.481.667c.033.411.522.609.753.95a5.044,5.044,0,0,1,.329,1.127,4.047,4.047,0,0,0,.621.9,10.23,10.23,0,0,1,1.176,3.229c.148.5.42,1.053.93,1.148a1.561,1.561,0,0,0,.822-.16,4.962,4.962,0,0,0,2.016-1.2,1.7,1.7,0,0,0,.16-2.164.417.417,0,0,0-.251-.161.756.756,0,0,0-.387.136,1.1,1.1,0,0,1-1.148-.247,3.231,3.231,0,0,1-.683-1.024c-.2-.407-.4-.819-.609-1.23a.719.719,0,0,1,.88.082,4.756,4.756,0,0,1,.6.74,3.83,3.83,0,0,0,2.6,1.217,2.469,2.469,0,0,1,.732.152c.728.333.938,1.407,1.707,1.637a4.889,4.889,0,0,1,.654.148,1.2,1.2,0,0,1,.547.814,13.02,13.02,0,0,0,.481,1.818,1.681,1.681,0,0,0,1.391,1.107,1.443,1.443,0,0,0,1.029-.449c.033-.568.07-1.155.07-1.731,0-.119,0-.238-.008-.358" transform="translate(-276.12 -137.527)"/></g></g><g transform="translate(101.144 74.426)" opacity="0.3"><g clip-path="url(#j)"><path d="M323.266,235.926c-.387.076-.464.3-.675.591-.274.373-.666.747-.916,1.116-.423.625-.042,1.6-.6,2.125a4.489,4.489,0,0,0-.362.3.656.656,0,0,0,.133.908.891.891,0,0,0,.969.018,1.418,1.418,0,0,0,.593-.811,1.366,1.366,0,0,1,.3-.665c.319-.279.813-.072,1.232-.131,1.783-.25,1.017-3.779-.678-3.446" transform="translate(-320.587 -235.903)"/></g></g><g transform="translate(83.449 55.045)" opacity="0.3"><g clip-path="url(#k)"><path d="M285.479,188.967c1.026-.888,1.44-2.894.166-3.358-.483-.175-1.039-.034-1.517-.22a2.387,2.387,0,0,1-1.141-1.573q-.888-2.483-1.777-4.965c-.357-1-.9-2.152-1.947-2.3a5.685,5.685,0,0,0-1.761.308c-2.031.369-5.448-4.547-6.994-1.237-.216-.9-1.678-.562-2.144.237s-.566,1.857-1.306,2.412c-.565.423-1.393.448-1.855.982a2.392,2.392,0,0,0-.421,1.4q-.118,1.419-.235,2.837a3.874,3.874,0,0,0,.262,2.244,1.34,1.34,0,0,0,1.929.52,5.827,5.827,0,0,0,.582-.877,1.475,1.475,0,0,1,1.517-.523,2.563,2.563,0,0,1,1.155.813c2.645,2.848,3.592,6.9,3.708,10.786a6.182,6.182,0,0,0,.284,2.1,17.239,17.239,0,0,1,1.142,2.213,9.639,9.639,0,0,0,.276,1.89c.493,1.071,2.137,1.116,3.032.349a5.054,5.054,0,0,0,1.387-3.17,8.242,8.242,0,0,1,.952-3.375,11.74,11.74,0,0,0,1.283-1.771c.395-.943.1-2.06.469-3.014.487-1.266,1.927-1.826,2.954-2.714" transform="translate(-264.502 -174.471)"/></g></g><path d="M249.486,145.484s-.009-.143-.019-.423-.007-.7-.055-1.24a26.65,26.65,0,0,0-.735-4.708,25.944,25.944,0,0,0-1.058-3.277,25.175,25.175,0,0,0-1.8-3.679,26.373,26.373,0,0,0-6.57-7.441A25.726,25.726,0,0,0,228.32,119.8a26.091,26.091,0,0,0-10.194.121,27.545,27.545,0,0,0-3.475,1,25.982,25.982,0,0,0-12.034,9.145,25.362,25.362,0,0,0-2.1,3.426c-.318.6-.587,1.221-.864,1.844-.249.634-.5,1.269-.709,1.925a25.837,25.837,0,0,0-.978,4.026,26.325,26.325,0,0,0,0,8.374,25.928,25.928,0,0,0,.978,4.028c.206.656.46,1.291.71,1.925.277.623.545,1.247.863,1.844a25.38,25.38,0,0,0,2.1,3.427,25.981,25.981,0,0,0,12.036,9.147,27.539,27.539,0,0,0,3.475,1,26.085,26.085,0,0,0,10.194.121,25.725,25.725,0,0,0,10.933-4.914,26.372,26.372,0,0,0,6.57-7.441,25.157,25.157,0,0,0,1.8-3.678,25.98,25.98,0,0,0,1.057-3.277,26.637,26.637,0,0,0,.735-4.707c.048-.544.039-.961.055-1.24s.019-.423.019-.423,0,.143,0,.423,0,.7-.039,1.241a25.822,25.822,0,0,1-1.753,8.01,25.173,25.173,0,0,1-1.79,3.7,26.409,26.409,0,0,1-6.578,7.486,25.809,25.809,0,0,1-10.978,4.956,26.211,26.211,0,0,1-10.251-.109,27.658,27.658,0,0,1-3.5-1.006,26.119,26.119,0,0,1-12.114-9.195,25.5,25.5,0,0,1-2.115-3.447c-.32-.6-.591-1.229-.869-1.855-.251-.638-.507-1.277-.714-1.937a26.046,26.046,0,0,1-.984-4.053,26.491,26.491,0,0,1,0-8.425,26,26,0,0,1,.985-4.052c.207-.66.463-1.3.715-1.937.279-.627.549-1.254.869-1.855a25.521,25.521,0,0,1,2.114-3.446,26.12,26.12,0,0,1,12.113-9.192,27.6,27.6,0,0,1,3.5-1.006,26.2,26.2,0,0,1,10.25-.11,25.821,25.821,0,0,1,10.979,4.955,26.411,26.411,0,0,1,6.578,7.486,25.144,25.144,0,0,1,1.79,3.7,25.823,25.823,0,0,1,1.753,8.011c.043.545.027.962.039,1.242s0,.423,0,.423" transform="translate(-135.166 -81.601)" fill="#373f51"/><path d="M283.005,172.916c-.046,0-.082-11.621-.082-25.953s.037-25.956.082-25.956.082,11.618.082,25.956-.037,25.953-.082,25.953" transform="translate(-193.662 -82.83)" fill="#373f51"/><path d="M287.9,172.775s.042-.034.128-.094l.386-.263c.344-.223.832-.581,1.448-1.056A28.339,28.339,0,0,0,294.5,166.7a30.528,30.528,0,0,0,4.732-8.5,37.049,37.049,0,0,0,2.093-11.723,41.7,41.7,0,0,0-1.328-11.85,24.027,24.027,0,0,0-4.365-8.657,15.263,15.263,0,0,0-2.678-2.609,14.523,14.523,0,0,0-2.412-1.473,16.229,16.229,0,0,0-1.657-.678l-.442-.15c-.1-.035-.149-.056-.149-.056s.053.011.154.04l.447.135a14.619,14.619,0,0,1,1.674.652,14.226,14.226,0,0,1,2.44,1.457,15.194,15.194,0,0,1,2.713,2.609,23.987,23.987,0,0,1,4.42,8.689,41.535,41.535,0,0,1,1.347,11.9,36.951,36.951,0,0,1-2.115,11.771,30.371,30.371,0,0,1-4.784,8.517,27.636,27.636,0,0,1-4.687,4.641c-.624.468-1.119.818-1.469,1.033l-.395.25c-.09.055-.138.08-.138.08" transform="translate(-197.067 -82.83)" fill="#373f51"/><path d="M249.25,172.8s-.049-.025-.14-.081l-.4-.253c-.357-.218-.864-.572-1.5-1.043a32.308,32.308,0,0,1-7.682-8.325,24.482,24.482,0,0,1-2.387-4.77,34.1,34.1,0,0,1-1.563-5.685,40.765,40.765,0,0,1-.638-6.3,41.2,41.2,0,0,1,1.4-12.114,24.8,24.8,0,0,1,2.006-4.944,17.006,17.006,0,0,1,2.73-3.759,17.237,17.237,0,0,1,5.517-3.8,18,18,0,0,1,1.715-.638l.456-.135c.1-.03.157-.041.157-.041s-.051.022-.152.057l-.451.151c-.4.133-.974.346-1.7.665a17.443,17.443,0,0,0-5.459,3.823,16.991,16.991,0,0,0-2.694,3.744,24.785,24.785,0,0,0-1.98,4.921,41.344,41.344,0,0,0-1.385,12.067,40.868,40.868,0,0,0,.632,6.272,34.135,34.135,0,0,0,1.547,5.661,24.476,24.476,0,0,0,2.361,4.75,32.415,32.415,0,0,0,2.753,3.723,32.88,32.88,0,0,0,4.853,4.624c.633.478,1.132.839,1.483,1.066l.393.267c.088.061.131.1.131.1" transform="translate(-160.806 -82.767)" fill="#373f51"/><path d="M250.325,200.85c0,.045-11.57.082-25.839.082s-25.841-.037-25.841-.082,11.568-.082,25.841-.082,25.839.037,25.839.082" transform="translate(-135.973 -137.426)" fill="#373f51"/><path d="M254.191,158.579c0,.045-9.87.082-22.043.082s-22.045-.037-22.045-.082,9.868-.082,22.045-.082,22.043.037,22.043.082" transform="translate(-143.816 -108.492)" fill="#373f51"/><path d="M252.912,243.918c0,.045-10.1.082-22.545.082s-22.548-.037-22.548-.082,10.093-.082,22.548-.082,22.545.037,22.545.082" transform="translate(-142.253 -166.907)" fill="#373f51"/><path d="M242.183,195.768H209.675a8.337,8.337,0,1,1,0-16.674h32.508a8.337,8.337,0,0,1,0,16.674" transform="translate(-137.817 -122.591)" fill="#fff"/><path d="M242.024,195.589s.1-.011.3-.024a6.664,6.664,0,0,0,.883-.087,8.105,8.105,0,0,0,3.175-1.168,8.765,8.765,0,0,0,.951-.681l.465-.426c.161-.143.3-.318.451-.481a8.363,8.363,0,0,0,1.5-2.49,8.269,8.269,0,0,0,.54-3.29,8.224,8.224,0,0,0-3.744-6.614,7.957,7.957,0,0,0-.951-.529,7.923,7.923,0,0,0-3.269-.8c-3.117-.028-6.457,0-9.967-.008L209.518,179a8.218,8.218,0,0,0-8.155,7.008,8.2,8.2,0,0,0,.045,2.8,8.471,8.471,0,0,0,.958,2.572,8.349,8.349,0,0,0,3.927,3.486,8.841,8.841,0,0,0,2.491.617c.843.063,1.694.028,2.524.039l4.839,0,8.687.01,12.578.026,3.42.015.889.008c.2,0,.3.009.3.009s-.1.006-.3.009l-.889.008-3.42.015-12.578.026-8.687.01-4.839,0c-.833-.009-1.672.027-2.537-.036a8.987,8.987,0,0,1-2.537-.625,8.5,8.5,0,0,1-4-3.547,8.611,8.611,0,0,1-.979-2.621,8.341,8.341,0,0,1-.048-2.852,8.423,8.423,0,0,1,8.314-7.149l22.843.007c3.512.009,6.845-.011,9.972.023a8.054,8.054,0,0,1,3.321.821,8.144,8.144,0,0,1,.964.54,8.593,8.593,0,0,1,2.806,3.064,8.5,8.5,0,0,1,.974,3.652,8.334,8.334,0,0,1-2.087,5.835c-.157.164-.294.34-.458.483l-.472.427a8.8,8.8,0,0,1-.963.681,8.03,8.03,0,0,1-3.2,1.146,6.082,6.082,0,0,1-.887.071c-.2.007-.3.007-.3.007" transform="translate(-137.657 -122.412)" fill="#373f51"/><path d="M235.369,192.7l-2.57,7.217h-2.45l-1.358-3.928-1.412,3.928h-2.45l-2.57-7.217h2.4l1.478,4.367,1.531-4.367h2.157l1.491,4.407,1.531-4.407Z" transform="translate(-152.343 -131.901)" fill="#373f51"/><path d="M275,192.7l-2.57,7.217h-2.45l-1.358-3.928-1.412,3.928h-2.45l-2.57-7.217h2.4l1.478,4.367L267.6,192.7h2.157l1.491,4.407,1.531-4.407Z" transform="translate(-179.47 -131.901)" fill="#373f51"/><path d="M314.63,192.7l-2.57,7.217h-2.45l-1.358-3.928-1.411,3.928h-2.45l-2.57-7.217h2.4l1.478,4.367,1.531-4.367h2.157l1.491,4.407,1.531-4.407Z" transform="translate(-206.597 -131.901)" fill="#373f51"/><path d="M211.533,256.371l-11.269,3.28a.606.606,0,0,0-.252,1.017l7.69,7.429a.606.606,0,0,0,1-.244l3.58-10.708a.606.606,0,0,0-.744-.774" transform="translate(-136.783 -175.47)" fill="#373f51"/><path d="M187.426,279.122l7.942-7.378,3.163,3.074-7.9,7.578Z" transform="translate(-128.294 -186.009)" fill="#373f51"/><path d="M225.752,72.822c0,.045-26.415.082-58.992.082s-59-.037-59-.082,26.409-.082,59-.082,58.992.037,58.992.082" transform="translate(-73.764 -49.791)" fill="#373f51"/><path d="M118.282,56.719a19.685,19.685,0,0,1-1.811,1.776,19.64,19.64,0,0,1-1.922,1.655,19.638,19.638,0,0,1,1.811-1.776,19.636,19.636,0,0,1,1.922-1.655" transform="translate(-78.409 -38.823)" fill="#373f51"/><path d="M118.458,59.973a19.687,19.687,0,0,1-1.776-1.811,19.6,19.6,0,0,1-1.655-1.922,19.642,19.642,0,0,1,1.776,1.811,19.635,19.635,0,0,1,1.655,1.922" transform="translate(-78.735 -38.496)" fill="#373f51"/><path d="M139.158,59.882a2.023,2.023,0,0,1-.016-.272c0-.193-.011-.438-.019-.736-.013-.629-.029-1.515-.036-2.574l.071.071-3.582.011.082-.082h0v.486c0,.161,0,.321,0,.479,0,.315,0,.625,0,.926,0,.6-.005,1.167-.008,1.69l-.071-.071c1.059.007,1.945.023,2.574.036l.736.018a2.017,2.017,0,0,1,.272.016,1.331,1.331,0,0,1-.243.016l-.72.019c-.624.013-1.529.029-2.62.036H135.5v-.072c0-.523-.005-1.09-.008-1.69,0-.3,0-.61,0-.926,0-.158,0-.318,0-.479V56.3h0l.082-.083,3.582.011h.072V56.3c-.007,1.09-.023,1.995-.036,2.62-.007.292-.014.531-.019.72a1.293,1.293,0,0,1-.016.243" transform="translate(-92.733 -38.481)" fill="#373f51"/><path d="M159.984,66.649a22.563,22.563,0,0,1-3.844,0,22.563,22.563,0,0,1,3.844,0" transform="translate(-106.878 -45.565)" fill="#373f51"/></g><g clip-path="url(#b)"><path d="M380.638,179.392s-3.973,1.074-4.717,4.071c-1.177,4.738-4.775,18.717-4.775,18.717l-3.8,3.074,2.421,4.016s4.233-1.392,6-3.666,3.573-10.771,3.573-10.771Z" transform="translate(-251.451 -122.795)" fill="#9000f9"/><path d="M396.686,107.258c.938-1.082,3.318-.98,3.9-.3a1.814,1.814,0,0,1,2.393.733l2.541.493a2.634,2.634,0,0,1,1.226.461.906.906,0,0,1,.241,1.176,1.374,1.374,0,0,1,.631,2.184.958.958,0,0,1-.109,1.39,9.608,9.608,0,0,1,1.7,2.777,1.955,1.955,0,0,1,.158,1.33.78.78,0,0,1-1.08.481,1.122,1.122,0,0,1,.082,1.21c.428,0,.571.659.285.976a1.561,1.561,0,0,1-1.191.362,2.062,2.062,0,0,0-1.238.242.39.39,0,0,0,.146.268,1.759,1.759,0,0,1,.45,2.387l-.136.2a3.851,3.851,0,0,1-1.222.9,6.657,6.657,0,0,1-2.609.628c.311.689-1.406,2.274-3.449.805a38.712,38.712,0,0,1-11,1.758c-.592.016-1.3-.047-1.58-.571a1.469,1.469,0,0,1-1.362-.411,4.327,4.327,0,0,1-.823-1.232,2.578,2.578,0,0,1-1.911-2.278,3.186,3.186,0,0,1-1.255-2.237,1.869,1.869,0,0,1-1.132-2.5,11.278,11.278,0,0,1,1.147-3.52,1.231,1.231,0,0,1-.7-1.681,3.56,3.56,0,0,1,1.448-1.452c-.5.147-.961-.479-.852-.993a2,2,0,0,1,1-1.158,9.539,9.539,0,0,1,2.079-.988,4.555,4.555,0,0,1,2.163-2.358c3.334-1.676,5.687-2.136,10.059.91" transform="translate(-260.234 -71.892)" fill="#263238"/><path d="M415.134,121.263a1.368,1.368,0,0,0-1.184-1.422l-7.2-2.041c-2.317-.312-3.943,2.505-4.157,4.833a41.571,41.571,0,0,0-.173,7.695,5.021,5.021,0,0,0,3.981,4.452c0-.005-.059,2.82-.059,2.82l-.1,3.281c1.109-.156,8.223-3.558,8.223-3.558Z" transform="translate(-275.375 -80.619)" fill="#ffbe9d"/><path d="M412.488,142a3.568,3.568,0,0,0-.867-.182c-.136-.018-.265-.049-.286-.143a.7.7,0,0,1,.1-.4l.435-1.032a17.949,17.949,0,0,0,.987-2.7,17.965,17.965,0,0,0-1.2,2.616l-.418,1.038a.794.794,0,0,0-.086.536.344.344,0,0,0,.22.207.913.913,0,0,0,.232.039,3.484,3.484,0,0,0,.883.027" transform="translate(-281.422 -94.147)" fill="#263238"/><path d="M415.234,169.05a8.317,8.317,0,0,0,4.737-1.208s-.709,2.878-4.765,2.552Z" transform="translate(-284.21 -114.889)" fill="#eb996e"/><path d="M420.964,131.821c.049.147.586.093,1.213.187s1.131.28,1.219.151c.039-.062-.045-.2-.247-.348a2.136,2.136,0,0,0-1.853-.258c-.234.087-.353.2-.333.268" transform="translate(-288.15 -89.976)" fill="#263238"/><path d="M405.994,131.476c.091.125.464.009.909.015.445-.009.818.105.909-.02.04-.061-.016-.185-.177-.3a1.315,1.315,0,0,0-1.464,0c-.161.121-.216.245-.176.305" transform="translate(-277.896 -89.633)" fill="#263238"/><path d="M397.778,121.2a2.671,2.671,0,0,1,.617-1.683,9.868,9.868,0,0,0,.709-.707,5.613,5.613,0,0,0,.527-2.078,2.937,2.937,0,0,1,1.786-2,16.157,16.157,0,0,0,2.229-.624c.5-.277.878-.748,1.395-.994,1.006-.48,2.19.021,3.157.576a2.54,2.54,0,0,1-.722,2.062,2.718,2.718,0,0,1-1.981,1.121c-.606.046-1.317-.079-1.737.361-.441.463-.254,1.262-.615,1.791-.515.755-1.72.491-2.5.964a3.625,3.625,0,0,0-1.144,1.74c-.3.64-.816,1.312-1.522,1.29a7.957,7.957,0,0,1-.2-1.814" transform="translate(-272.278 -77.294)" fill="#263238"/><path d="M426.088,119.808a13.777,13.777,0,0,1,5.219.855,2.505,2.505,0,0,1,1.3.864,2.458,2.458,0,0,1,.293,1.343,13.684,13.684,0,0,1-1.084,4.6l-1.8,1.117c-1.4-.309-.8-2.735-.753-3.947a2.86,2.86,0,0,1-1.711-2.5,3.165,3.165,0,0,1-1.46-2.334" transform="translate(-291.659 -82.004)" fill="#263238"/><path d="M438.53,144.233c.042-.833,1.061-1.011,1.783-.594a1.566,1.566,0,0,1,.663,1.575,1.775,1.775,0,0,1-2.447,1.707c0-.042-.049-1.712,0-2.687" transform="translate(-300.161 -98.173)" fill="#ffbe9d"/><path d="M440.973,147.763c.011-.007.04.031.108.065a.411.411,0,0,0,.307.019,1.017,1.017,0,0,0,.508-.893,1.353,1.353,0,0,0-.091-.593.475.475,0,0,0-.3-.328.21.21,0,0,0-.247.1c-.034.065-.021.112-.034.116s-.049-.042-.026-.138a.262.262,0,0,1,.1-.144.31.31,0,0,1,.23-.051.577.577,0,0,1,.414.383,1.394,1.394,0,0,1,.115.663,1.067,1.067,0,0,1-.641.993.441.441,0,0,1-.373-.078c-.071-.061-.081-.115-.073-.119" transform="translate(-301.846 -99.879)" fill="#eb996e"/><path d="M431.445,130.5a.145.145,0,0,0,.007.031.332.332,0,0,0,.033.089.545.545,0,0,0,.277.24,1.442,1.442,0,0,0,.585.112,1.953,1.953,0,0,0,.378-.031,1.388,1.388,0,0,0,.41-.131l-.028-.014a1.172,1.172,0,0,0,1.878.715l-.04-.006a.486.486,0,0,0,.312.2.671.671,0,0,0,.381-.038.617.617,0,0,0,.3-.254.82.82,0,0,0,.114-.39,1.2,1.2,0,0,0-.269-.782,3.538,3.538,0,0,0-.631-.6l0,.055a.832.832,0,0,0,.365-.564,1.211,1.211,0,0,0-.078-.694,1.866,1.866,0,0,0-.422-.581,5.611,5.611,0,0,0-.565-.463l0,.053a.884.884,0,0,0,.221-.687,1.275,1.275,0,0,0-.277-.7,3.154,3.154,0,0,0-1.162-.784l.02.04a1.565,1.565,0,0,0-1.73-1.9l.037.04a1.35,1.35,0,0,0-.337-1.142,1.331,1.331,0,0,0-1-.473l.03.029a1.324,1.324,0,0,0-.551-1.019,1.294,1.294,0,0,0-.989-.256l.027.022a1.3,1.3,0,0,0-.2-.6,1.668,1.668,0,0,0-.365-.427,1.354,1.354,0,0,0-.811-.335l-.088,0c-.029,0-.056.005-.083.008a1.168,1.168,0,0,0-.149.02,1.648,1.648,0,0,0-.224.067l-.13.058a.263.263,0,0,0-.043.022.287.287,0,0,0,.046-.016l.132-.052a1.785,1.785,0,0,1,.223-.061,1.178,1.178,0,0,1,.147-.016c.026,0,.053-.006.082-.006l.087.006a1.333,1.333,0,0,1,.789.338,1.635,1.635,0,0,1,.353.42,1.262,1.262,0,0,1,.19.581v.027l.026,0a1.248,1.248,0,0,1,.949.253,1.269,1.269,0,0,1,.524.977v.03h.03a1.271,1.271,0,0,1,.955.456,1.287,1.287,0,0,1,.319,1.087l-.009.046.047-.006a1.5,1.5,0,0,1,1.652,1.823l-.007.028.026.012a3.1,3.1,0,0,1,1.137.764,1.207,1.207,0,0,1,.262.656.812.812,0,0,1-.2.633l-.028.029.033.024a2.777,2.777,0,0,1,.966,1.015,1.141,1.141,0,0,1,.075.653.763.763,0,0,1-.333.521l-.041.025.038.03a3.5,3.5,0,0,1,.621.582,1.143,1.143,0,0,1,.259.74.633.633,0,0,1-.377.592.518.518,0,0,1-.625-.139l-.016-.025-.024.019a1.141,1.141,0,0,1-1.186.132,1.156,1.156,0,0,1-.62-.81l0-.026-.024.013a1.357,1.357,0,0,1-.4.132,1.95,1.95,0,0,1-.371.034,1.446,1.446,0,0,1-.577-.1.543.543,0,0,1-.276-.227c-.039-.072-.045-.117-.05-.115" transform="translate(-292.041 -81.631)" fill="#455a64"/><path d="M441.506,124.979a.807.807,0,0,0,.086-.144,1.207,1.207,0,0,0,.117-.469,1.189,1.189,0,0,0-.2-.736,1.252,1.252,0,0,0-.863-.529l.021.028a1.616,1.616,0,0,0-.232-1.16,1.578,1.578,0,0,0-.469-.482,3.7,3.7,0,0,0-.649-.293,1.3,1.3,0,0,1-.312-.178.8.8,0,0,1-.22-.286c-.109-.224-.146-.491-.283-.732a1.432,1.432,0,0,0-1.447-.688l.041.039a1.888,1.888,0,0,0-2.126-2.106l.04.038a1.658,1.658,0,0,0-2.6-1.507l.038,0a2.264,2.264,0,0,0-.831-.489,3.41,3.41,0,0,0-.849-.18,3.952,3.952,0,0,0-1.4.117,2.815,2.815,0,0,0-.824.358,1.641,1.641,0,0,0-.189.142c-.041.034-.061.053-.061.053s.087-.069.26-.18a2.917,2.917,0,0,1,.823-.34,3.97,3.97,0,0,1,1.383-.1,3.373,3.373,0,0,1,.835.183,2.224,2.224,0,0,1,.808.48l.018.017.021-.014a1.594,1.594,0,0,1,2.5,1.452l0,.044.044-.006a1.819,1.819,0,0,1,2.047,2.027l-.006.047.047-.008a1.366,1.366,0,0,1,1.376.652c.13.225.168.49.283.727a.867.867,0,0,0,.238.308,1.347,1.347,0,0,0,.327.186,3.731,3.731,0,0,1,.642.285,1.527,1.527,0,0,1,.455.463,1.569,1.569,0,0,1,.232,1.121l0,.025.025,0a1.214,1.214,0,0,1,.838.5,1.167,1.167,0,0,1,.21.714,1.251,1.251,0,0,1-.1.464c-.045.1-.078.147-.074.149" transform="translate(-293.166 -78.779)" fill="#455a64"/><path d="M395.392,126.429a.232.232,0,0,0,.006-.193.455.455,0,0,0-.141-.193.8.8,0,0,0-.293-.142,1.378,1.378,0,0,1-.37-.147.733.733,0,0,1-.272-.374,1.438,1.438,0,0,1-.068-.538c.005-.195.032-.4.029-.622a6.318,6.318,0,0,0-.323-1.388,1.96,1.96,0,0,1-.045-.775.944.944,0,0,1,.416-.67,3.519,3.519,0,0,1,.821-.294,1.437,1.437,0,0,0,.419-.2.952.952,0,0,0,.292-.378,4.6,4.6,0,0,0,.233-.932,1.563,1.563,0,0,1,.156-.45.718.718,0,0,1,.342-.31,2.624,2.624,0,0,1,.651-.1,1.028,1.028,0,0,0,.329-.088.648.648,0,0,0,.257-.224,2.3,2.3,0,0,0,.237-.606,1.447,1.447,0,0,1,.287-.537,1.422,1.422,0,0,1,1.018-.508,1.46,1.46,0,0,1,1.006.345l.032.028.017-.039a2.246,2.246,0,0,1,1.379-1.231,2.071,2.071,0,0,1,.786-.081,1.879,1.879,0,0,1,.651.169,1.656,1.656,0,0,1,.7.621,1.591,1.591,0,0,1,.12.22l.029.057a.087.087,0,0,0,.011.019.084.084,0,0,0-.007-.021l-.025-.06a1.378,1.378,0,0,0-.113-.226,1.645,1.645,0,0,0-.7-.644,1.912,1.912,0,0,0-.662-.18,2.105,2.105,0,0,0-.8.076,2.292,2.292,0,0,0-1.421,1.255l.048-.011a1.52,1.52,0,0,0-1.049-.365,1.487,1.487,0,0,0-1.068.529,1.521,1.521,0,0,0-.3.56,2.254,2.254,0,0,1-.228.587.689.689,0,0,1-.536.282,2.653,2.653,0,0,0-.669.1.794.794,0,0,0-.378.341,1.631,1.631,0,0,0-.163.47,4.551,4.551,0,0,1-.227.918.88.88,0,0,1-.27.351,1.348,1.348,0,0,1-.4.194,3.557,3.557,0,0,0-.836.3.9.9,0,0,0-.3.315,1.191,1.191,0,0,0-.139.4,2.014,2.014,0,0,0,.049.8,6.369,6.369,0,0,1,.33,1.375c.005.215-.02.422-.023.619a1.472,1.472,0,0,0,.076.553.765.765,0,0,0,.291.389,1.384,1.384,0,0,0,.381.146.787.787,0,0,1,.288.132.453.453,0,0,1,.141.181.289.289,0,0,1,.008.188" transform="translate(-269.579 -79.215)" fill="#455a64"/><path d="M384.086,119.141a.243.243,0,0,0,.024-.044l.063-.133.235-.515c.1-.223.218-.5.384-.807a2.1,2.1,0,0,1,.775-.859c.189-.107.408-.179.628-.28a1.5,1.5,0,0,0,.319-.194.811.811,0,0,0,.235-.312c.108-.246.106-.524.191-.778a.666.666,0,0,1,.221-.326,1.275,1.275,0,0,1,.376-.182,2.432,2.432,0,0,0,.414-.166.76.76,0,0,0,.316-.339,3.454,3.454,0,0,0,.186-.917,1.131,1.131,0,0,1,.149-.435.588.588,0,0,1,.37-.252c.309-.07.644.033.988-.027a.832.832,0,0,0,.45-.248,2.15,2.15,0,0,0,.287-.41,4.361,4.361,0,0,1,.252-.411.907.907,0,0,1,.341-.3,1.385,1.385,0,0,1,.89-.007,2.078,2.078,0,0,0,.9.063,2.388,2.388,0,0,0,.773-.368,4.067,4.067,0,0,1,.687-.4,2.435,2.435,0,0,1,1.4-.068,2.607,2.607,0,0,1,1.045.516,2.911,2.911,0,0,1,.583.667,3.313,3.313,0,0,1,.253.5l.057.136a.273.273,0,0,0,.022.045.233.233,0,0,0-.015-.048l-.05-.138a3.04,3.04,0,0,0-.243-.512,2.886,2.886,0,0,0-.581-.683,2.632,2.632,0,0,0-1.058-.535,2.477,2.477,0,0,0-1.431.062,4.061,4.061,0,0,0-.7.4,2.345,2.345,0,0,1-.753.356,2.022,2.022,0,0,1-.868-.065,2.979,2.979,0,0,0-.46-.072.9.9,0,0,0-.843.407,4.513,4.513,0,0,0-.257.417,2.084,2.084,0,0,1-.277.4.758.758,0,0,1-.411.227c-.32.058-.655-.045-.991.028a.66.66,0,0,0-.413.282,1.2,1.2,0,0,0-.16.463,3.443,3.443,0,0,1-.179.9.69.69,0,0,1-.288.31,2.377,2.377,0,0,1-.4.163,1.311,1.311,0,0,0-.394.193.731.731,0,0,0-.242.357c-.087.269-.085.543-.186.775a.965.965,0,0,1-.523.479c-.215.1-.435.175-.629.286a2.132,2.132,0,0,0-.785.884c-.164.31-.275.59-.374.815l-.222.521-.056.136a.273.273,0,0,0-.017.047" transform="translate(-262.908 -75.501)" fill="#455a64"/><path d="M389.96,130.361a.184.184,0,0,0-.043-.007.264.264,0,0,0-.125.03.505.505,0,0,0-.227.422,1.234,1.234,0,0,0,.056.352,1.453,1.453,0,0,1,.068.407.912.912,0,0,1-.159.438c-.089.144-.2.285-.295.456a.677.677,0,0,0-.049.594c.079.2.227.365.3.568a.88.88,0,0,1-.054.65c-.088.217-.216.428-.3.669a1.064,1.064,0,0,0-.069.384.957.957,0,0,0,.1.389,4.564,4.564,0,0,0,.459.665,1.084,1.084,0,0,1,.261.742,3.586,3.586,0,0,1-.272.8,1.226,1.226,0,0,0-.08.434.973.973,0,0,0,.117.422,3.621,3.621,0,0,0,.519.658,1.911,1.911,0,0,1,.423.66,5.827,5.827,0,0,0,.257.73.856.856,0,0,0,.245.294,1.084,1.084,0,0,0,.336.155,2.865,2.865,0,0,1,.328.111,1.171,1.171,0,0,1,.275.181,2.4,2.4,0,0,1,.394.5c.111.174.215.345.33.5a1.614,1.614,0,0,0,.831.591,1.734,1.734,0,0,0,.771.061,1.537,1.537,0,0,0,.467-.145,1.155,1.155,0,0,0,.147-.087,1.793,1.793,0,0,1-.618.205,1.733,1.733,0,0,1-.755-.072,1.578,1.578,0,0,1-.8-.583c-.112-.151-.213-.321-.324-.5a2.438,2.438,0,0,0-.4-.512,1.23,1.23,0,0,0-.29-.192,2.958,2.958,0,0,0-.335-.115,1.025,1.025,0,0,1-.316-.147.787.787,0,0,1-.224-.273,5.884,5.884,0,0,1-.251-.722,1.978,1.978,0,0,0-.435-.684,3.569,3.569,0,0,1-.509-.645.9.9,0,0,1-.109-.391,1.156,1.156,0,0,1,.076-.409,3.567,3.567,0,0,0,.275-.817.9.9,0,0,0-.065-.427,1.732,1.732,0,0,0-.21-.363,4.6,4.6,0,0,1-.454-.653.893.893,0,0,1-.09-.361.992.992,0,0,1,.064-.361c.082-.233.208-.444.3-.667a.938.938,0,0,0,.051-.694c-.083-.217-.232-.38-.306-.568a.622.622,0,0,1,.043-.55c.086-.165.2-.308.288-.455a.947.947,0,0,0,.16-.461,1.463,1.463,0,0,0-.075-.417,1.24,1.24,0,0,1-.061-.341.5.5,0,0,1,.207-.41.306.306,0,0,1,.161-.036" transform="translate(-266.315 -89.228)" fill="#455a64"/><path d="M444.033,120.087a.869.869,0,0,0,.186-.021,1.28,1.28,0,0,0,.493-.221,1.256,1.256,0,0,0,.486-.7,1.325,1.325,0,0,0-.209-1.11,3.322,3.322,0,0,0-.479-.477,1.59,1.59,0,0,1-.45-.553,1.038,1.038,0,0,1,.025-.749c.086-.254.221-.5.3-.784a2.312,2.312,0,0,0-1.786-2.917l.022.055a1.173,1.173,0,0,0,.2-.518,1.478,1.478,0,0,0-.044-.56,1.619,1.619,0,0,0-.245-.515,1.923,1.923,0,0,0-.406-.408,3.65,3.65,0,0,0-1.56-.6,5.522,5.522,0,0,0-1.586-.044l.038.033a1.675,1.675,0,0,0-.969-1.435,1.709,1.709,0,0,0-.83-.147,2.762,2.762,0,0,0-.77.216,1.555,1.555,0,0,1-.362.09.959.959,0,0,1-.355-.032,2.9,2.9,0,0,1-.629-.294,2.526,2.526,0,0,0-.6-.264,2.05,2.05,0,0,0-.6-.071,1.988,1.988,0,0,0-.975.282,2.043,2.043,0,0,0-.566.506,1.954,1.954,0,0,0-.242.41,1.048,1.048,0,0,0-.056.154s.021-.052.067-.149a2.079,2.079,0,0,1,.249-.4,2.048,2.048,0,0,1,.565-.492,1.96,1.96,0,0,1,.959-.267,2.009,2.009,0,0,1,.583.073,2.5,2.5,0,0,1,.587.263,2.934,2.934,0,0,0,.639.3,1.012,1.012,0,0,0,.376.035,1.608,1.608,0,0,0,.376-.091,2.718,2.718,0,0,1,.755-.21,1.649,1.649,0,0,1,.8.144,1.61,1.61,0,0,1,.927,1.379l0,.037.037,0a5.462,5.462,0,0,1,1.566.046,3.589,3.589,0,0,1,1.529.591,1.854,1.854,0,0,1,.391.393,1.546,1.546,0,0,1,.234.492,1.4,1.4,0,0,1,.042.533,1.107,1.107,0,0,1-.183.486l-.031.044.053.01a2.249,2.249,0,0,1,1.74,2.83c-.079.273-.211.522-.3.782a1.094,1.094,0,0,0-.02.789,1.633,1.633,0,0,0,.467.571,3.3,3.3,0,0,1,.475.467,1.288,1.288,0,0,1,.212,1.073,1.238,1.238,0,0,1-.466.691,1.321,1.321,0,0,1-.481.228c-.119.028-.184.03-.184.034" transform="translate(-295.752 -73.963)" fill="#263238"/><path d="M389.191,110.561a.218.218,0,0,0,.006-.045c0-.034.006-.077.011-.133.009-.121.022-.292.039-.51s.046-.492.1-.8a4.562,4.562,0,0,1,.3-1.022,3.019,3.019,0,0,1,.735-1.044,2.226,2.226,0,0,1,.6-.382,6.42,6.42,0,0,1,.73-.223,2.136,2.136,0,0,0,.738-.341,3.38,3.38,0,0,0,.591-.607c.18-.223.35-.459.549-.673a2.4,2.4,0,0,1,.7-.534,4.256,4.256,0,0,1,1.7-.389,11.089,11.089,0,0,1,1.64.041,8.4,8.4,0,0,1,2.676.7,5.947,5.947,0,0,1,1.555,1.032c.08.077.153.142.213.2l.145.16.091.1a.2.2,0,0,0,.033.032.233.233,0,0,0-.027-.036l-.085-.1-.14-.165c-.058-.063-.13-.131-.209-.209a5.8,5.8,0,0,0-1.553-1.057,8.347,8.347,0,0,0-2.691-.722,11,11,0,0,0-1.651-.045,4.307,4.307,0,0,0-1.726.4,2.471,2.471,0,0,0-.719.549c-.2.218-.374.455-.552.677a3.321,3.321,0,0,1-.577.6,2.079,2.079,0,0,1-.716.333,6.332,6.332,0,0,0-.736.228,2.283,2.283,0,0,0-.614.4,3.059,3.059,0,0,0-.742,1.068,4.525,4.525,0,0,0-.289,1.035c-.051.312-.074.584-.09.805s-.022.394-.026.511c0,.055,0,.1,0,.133a.218.218,0,0,0,0,.045" transform="translate(-266.402 -71.036)" fill="#263238"/><path d="M416.376,154.215l-1.721.664-.163.063a3.6,3.6,0,0,0,.341.859.926.926,0,0,0,.646.441,1.039,1.039,0,0,0,.62-.165,1.239,1.239,0,0,0,.524-.858,1.311,1.311,0,0,0-.246-1" transform="translate(-283.721 -105.561)" fill="#eb996e"/><path d="M415.354,156.121a1.333,1.333,0,0,0,.66-.175,1.1,1.1,0,0,0,.442-.569,1.369,1.369,0,0,0,0-.885,1.7,1.7,0,0,0-.09-.221.318.318,0,0,0-.05-.083c-.018-.013-.01-.013-.037-.008l-.418.167-.723.282a3.375,3.375,0,0,1-.681.224,3.375,3.375,0,0,1,.64-.323l.711-.312c.138-.058.268-.117.43-.18a.181.181,0,0,1,.184.043.439.439,0,0,1,.08.123,1.748,1.748,0,0,1,.1.241,1.461,1.461,0,0,1-.012.98,1.171,1.171,0,0,1-.518.612,1,1,0,0,1-.523.128c-.128-.006-.193-.036-.191-.044" transform="translate(-283.697 -105.434)" fill="#263238"/><path d="M440.35,153.215a1.226,1.226,0,0,1,.356.2,1.6,1.6,0,0,1,.587.932,1.689,1.689,0,0,1-.006.774,1.9,1.9,0,0,1-.419.783,1.937,1.937,0,0,1-.81.552,1.78,1.78,0,0,1-1.051.04,1.916,1.916,0,0,1-.908-.533,1.724,1.724,0,0,1-.443-.875,1.831,1.831,0,0,1,.438-1.558,1.641,1.641,0,0,1,.53-.355,1.659,1.659,0,0,1,.463-.129,1,1,0,0,1,.3.006.339.339,0,0,1,.1.031,1.293,1.293,0,0,0-.4,0,1.7,1.7,0,0,0-.447.14,1.625,1.625,0,0,0-.5.352,1.776,1.776,0,0,0-.4,1.5,1.648,1.648,0,0,0,.425.829,1.838,1.838,0,0,0,.866.506,1.7,1.7,0,0,0,1-.036,1.864,1.864,0,0,0,.778-.524,1.839,1.839,0,0,0,.408-.746,1.64,1.64,0,0,0,.016-.741,1.594,1.594,0,0,0-.547-.918,3.647,3.647,0,0,0-.334-.226" transform="translate(-299.558 -104.754)" fill="#e0e0e0"/><path d="M423.475,142.53a.511.511,0,0,0,.479.529.49.49,0,0,0,.54-.447.512.512,0,0,0-.479-.53.489.489,0,0,0-.54.448" transform="translate(-289.87 -97.255)" fill="#263238"/><path d="M407.3,141.7a.512.512,0,0,0,.48.529.49.49,0,0,0,.54-.447.512.512,0,0,0-.479-.53.49.49,0,0,0-.54.448" transform="translate(-278.801 -96.687)" fill="#263238"/><path d="M405.146,137.325c.06.091.519-.233,1.117-.176s1,.445,1.073.365c.036-.035-.018-.193-.192-.373a1.356,1.356,0,0,0-1.749-.151c-.2.147-.28.294-.25.335" transform="translate(-277.32 -93.599)" fill="#263238"/><path d="M421.538,137.987c.074.082.524-.28,1.164-.285s1.111.333,1.18.249c.034-.038-.041-.187-.247-.344a1.551,1.551,0,0,0-.945-.3,1.509,1.509,0,0,0-.926.33c-.2.164-.262.315-.226.352" transform="translate(-288.538 -93.985)" fill="#263238"/><path d="M364.3,387.706l3.334,8.092,6.025-2.486-3.381-9.984Z" transform="translate(-249.366 -262.389)" fill="#ffbe9d"/><path d="M365.568,414.4l1.971,4.171s-5.714,5.438-5.252,6.725l13.136-5.641-3.2-8.334Z" transform="translate(-247.969 -281.552)" fill="#768093"/><path d="M390.052,426.956a.584.584,0,0,1,.634.453.561.561,0,0,1-.444.632.616.616,0,0,1-.669-.483.582.582,0,0,1,.534-.606" transform="translate(-266.664 -292.249)" fill="#e0e0e0"/><g transform="translate(114.249 137.056)" opacity="0.6"><g clip-path="url(#m)"><path d="M375.331,435.463l-.493-1.049-12.411,5.8s-.475.505-.233.889Z" transform="translate(-362.126 -434.414)" fill="#fff"/></g></g><path d="M378.22,433.877c.03.063.363-.045.767.025s.688.268.736.217-.207-.38-.7-.457-.845.161-.806.215" transform="translate(-258.891 -296.832)" fill="#373f51"/><path d="M374.632,437.846c.012.068.337.058.671.236s.521.438.583.407-.052-.41-.472-.623-.807-.082-.782-.02" transform="translate(-256.436 -299.64)" fill="#373f51"/><path d="M372.272,442.377c.064-.011.016-.37-.3-.651s-.676-.292-.68-.226.262.173.518.407.4.491.462.47" transform="translate(-254.15 -302.185)" fill="#373f51"/><path d="M376.468,428c.052.047.308-.168.681-.3s.7-.138.715-.208-.36-.181-.8-.021-.651.491-.6.527" transform="translate(-257.688 -292.548)" fill="#373f51"/><path d="M345.25,326.438l-8.095-25.187s.388-4.115,1.2-5.385,24.133-7.912,24.133-7.912,5.918-1.168,9.766.405,7.745,3.479,7.242,6.2a7.28,7.28,0,0,1-.352,1.218,9.964,9.964,0,0,1-9.478,6.371l-3.054.214-15.63,2.316a1.191,1.191,0,0,0-.979,1.473l4.317,16.9a85.962,85.962,0,0,1-9.072,3.387" transform="translate(-230.784 -196.821)" fill="#373f51"/><path d="M338.273,352.6l-.581,8.733,6.5.429,1.373-10.451Z" transform="translate(-231.152 -240.476)" fill="#ffbe9d"/><path d="M320.146,379.392l-.476,4.979s-7.528,2.357-7.682,3.716l14.277.738.809-8.89Z" transform="translate(-213.558 -259.695)" fill="#768093"/><path d="M333.89,383.174a.51.51,0,0,1,.019-.255,1.589,1.589,0,0,1,.314-.637.938.938,0,0,1,.18-.18.351.351,0,0,1,.325-.052.219.219,0,0,1,.137.134.25.25,0,0,1-.014.173,1.712,1.712,0,0,1-.161.255c-.119.164-.218.328-.368.512a.43.43,0,0,1-.388.138.866.866,0,0,1-.363-.162,3.089,3.089,0,0,1-.524-.471,2.978,2.978,0,0,1-.2-.259.794.794,0,0,1-.149-.293.264.264,0,0,1,.176-.306.394.394,0,0,1,.341.084,1.983,1.983,0,0,1,.347.383,2.377,2.377,0,0,1,.329.633.587.587,0,0,1,.052.251,4.812,4.812,0,0,0-.481-.824,2.078,2.078,0,0,0-.334-.344.249.249,0,0,0-.2-.057.132.132,0,0,0-.073.158.7.7,0,0,0,.131.237,2.9,2.9,0,0,0,.2.244,3.052,3.052,0,0,0,.5.444.7.7,0,0,0,.284.132.251.251,0,0,0,.236-.086c.125-.15.247-.336.363-.491a1.732,1.732,0,0,0,.153-.227c.032-.072.018-.12-.038-.142-.128-.054-.26.073-.353.182a2.3,2.3,0,0,0-.43.827" transform="translate(-227.727 -261.315)" fill="#373f51"/><path d="M348.863,393.867a.584.584,0,0,1,.369.686.561.561,0,0,1-.677.371.616.616,0,0,1-.387-.728.583.583,0,0,1,.747-.309" transform="translate(-238.303 -269.582)" fill="#e0e0e0"/><g transform="translate(98.429 127.697)" opacity="0.6"><g clip-path="url(#n)"><path d="M326.261,406.181l.021-1.159-13.7-.274s-.65.244-.6.7Z" transform="translate(-311.981 -404.748)" fill="#fff"/></g></g><path d="M335.615,394.788c0,.07.346.12.677.361s.5.545.565.52-.018-.433-.424-.718-.83-.228-.818-.163" transform="translate(-229.73 -270.197)" fill="#373f51"/><path d="M330.766,396.569c-.02.067.276.2.5.508s.274.622.344.623.134-.392-.149-.768-.688-.429-.693-.363" transform="translate(-226.41 -271.436)" fill="#373f51"/><path d="M326.7,399.495c.062.018.178-.325.018-.716s-.478-.56-.51-.5.159.271.285.594.138.615.207.625" transform="translate(-223.287 -272.614)" fill="#373f51"/><path d="M336.286,389.12c.026.065.351-.015.743.033s.693.187.733.129-.243-.322-.706-.371-.8.152-.77.209" transform="translate(-230.187 -266.206)" fill="#373f51"/><path d="M337.509,278.9a4.055,4.055,0,0,0-4.5,3.74c-.61,4.214-3.461,23.745-3.461,23.745l10.689,1.339,2.248-20.125,14.8-5.582s-17.149-3.552-19.776-3.117" transform="translate(-225.579 -190.881)" fill="#373f51"/><path d="M401.563,262.991s-2.643,6.539-2.222,7.3,6.381,4.055,6.381,4.055l14.989,6.482a12.776,12.776,0,0,0,1.826-6.246c.159-3.823-4.854-10.919-4.854-10.919Z" transform="translate(-273.319 -180.018)" fill="#373f51"/><path d="M361.5,287.879a.355.355,0,0,1-.073.035l-.221.091-.859.34-3.223,1.248L346,293.846l.052-.068c-.221,1.988-.46,4.135-.707,6.356L343.79,313.9l-.008.069-.068-.009L337.1,313.1l-1.821-.247-.476-.069a.977.977,0,0,1-.162-.031,1.033,1.033,0,0,1,.164.01l.478.05,1.826.21,6.624.8-.076.06c.419-3.789.947-8.577,1.521-13.771l.713-6.355.006-.05.047-.018,11.148-4.2,3.24-1.2.869-.315.226-.078a.34.34,0,0,1,.078-.022" transform="translate(-229.062 -197.054)" fill="#768093"/><path d="M434.5,287.084a2.24,2.24,0,0,1-.423-.134l-1.132-.417a25.024,25.024,0,0,0-3.8-1.129,11.256,11.256,0,0,0-3.931-.113,15.933,15.933,0,0,0-1.594.391,1.9,1.9,0,0,1,.4-.184,7.044,7.044,0,0,1,1.168-.325,10.561,10.561,0,0,1,3.985.064,21.344,21.344,0,0,1,3.809,1.184c.473.19.852.352,1.113.468a2.2,2.2,0,0,1,.4.2" transform="translate(-289.968 -195.093)" fill="#768093"/><path d="M432.973,279.808a11.188,11.188,0,0,0-1.331-.063c-.411.012-.9.054-1.448.095s-1.144.09-1.765.181A8.166,8.166,0,0,0,425.4,281a9.215,9.215,0,0,0-1.07.791,1.155,1.155,0,0,1,.233-.277,4.565,4.565,0,0,1,.774-.616,7.643,7.643,0,0,1,3.069-1.049c.629-.092,1.233-.136,1.78-.17s1.04-.062,1.458-.059a5.508,5.508,0,0,1,.984.085,1.148,1.148,0,0,1,.349.1" transform="translate(-290.454 -191.404)" fill="#768093"/><path d="M371.768,423.421a.631.631,0,0,1-.107-.264,1.893,1.893,0,0,1-.029-.779,1,1,0,0,1,.073-.261.325.325,0,0,1,.266-.2.23.23,0,0,1,.188.073.308.308,0,0,1,.072.18,1.964,1.964,0,0,1-.02.327c-.026.217-.035.426-.08.677a.412.412,0,0,1-.28.312.818.818,0,0,1-.4,0,3.185,3.185,0,0,1-.7-.238,3.233,3.233,0,0,1-.308-.169.919.919,0,0,1-.276-.228.3.3,0,0,1,.008-.385.363.363,0,0,1,.346-.068,2.138,2.138,0,0,1,.5.229,2.759,2.759,0,0,1,.6.488c.123.135.177.222.168.228a5.494,5.494,0,0,0-.832-.611,2.184,2.184,0,0,0-.468-.2.229.229,0,0,0-.209.033.153.153,0,0,0,.011.191.8.8,0,0,0,.233.18,3.218,3.218,0,0,0,.294.156,3.17,3.17,0,0,0,.663.223.667.667,0,0,0,.319.005.24.24,0,0,0,.169-.191c.039-.206.057-.447.086-.653a2.028,2.028,0,0,0,.026-.3c-.007-.086-.042-.127-.1-.126-.141,0-.2.189-.227.339a2.732,2.732,0,0,0,.018,1.02" transform="translate(-253.333 -288.806)" fill="#373f51"/><path d="M418.21,181.946a11.5,11.5,0,0,0-.2-2.738L413,177.46l-3.612,1.082c-.848.372-2.472,2.788-3.389,2.663-1.024-.14-1.217-2.833-1.638-3.61l-1.849.475s-3.167,8.409-3.207,10.789,1.211,5.588,1,10.579c-.108,2.609-.362,4.939,1.261,5.007l16.12.669s3.682-.856,3.931-3.037-3.41-20.13-3.41-20.13" transform="translate(-273.324 -121.472)" fill="#9000f9"/><path d="M435.981,201.5l-2.526-7.993s-1.519-10.141-5.049-11.547c-1.511-.6-4.814-.5-5.816,1.553s.234,3.546.477,4.559,3.66,8.119,3.66,8.119a34.672,34.672,0,0,1,1.677,4l-13.642,7.222,1.719,4.5,17.057-6.206a3.837,3.837,0,0,0,2.412-2.528,3.171,3.171,0,0,0,.031-1.679" transform="translate(-283.906 -124.333)" fill="#9000f9"/><path d="M381.343,267.66l3.509-1.5,6.737-.254.563-.357,1.453,3.8a11.173,11.173,0,0,1-2.72.805l-5.639-.405-2.965.188Z" transform="translate(-261.031 -181.767)" fill="#ffbe9d"/><path d="M318.857,227.688l19.352.961a1.216,1.216,0,0,1,1.284.977l1.53,14.2,9.971.414a.582.582,0,1,1-.048,1.163l-9.8-.406-1.86-.077-20.19-.838L317.54,229.1a1.271,1.271,0,0,1,1.317-1.408" transform="translate(-217.352 -155.852)" fill="#e0e0e0"/><path d="M318.811,227.68a1.033,1.033,0,0,0-.306.016,1.282,1.282,0,0,0-1.025,1.068,3.584,3.584,0,0,0,.038.8c.057.574.123,1.234.2,1.977l1.278,12.537.005.051.052,0,30.9,1.3.832.034a.806.806,0,0,0,.443-.065.66.66,0,0,0,.045-1.153.806.806,0,0,0-.433-.1l-.41-.017L347.188,244l-6.208-.256.072.067-1.529-14.083a1.1,1.1,0,0,0-.328-.752,1.44,1.44,0,0,0-.727-.357,6.428,6.428,0,0,0-.78-.06l-.76-.037-2.914-.141-5.178-.248-7.372-.344-1.973-.086-.509-.019c-.115,0-.173,0-.173,0s.058.007.173.015l.509.032,1.971.11,7.37.388,5.177.266,2.913.149.76.038a6.311,6.311,0,0,1,.76.06,1.314,1.314,0,0,1,.663.326.963.963,0,0,1,.287.674c.456,4.256.963,9,1.507,14.085l.007.065.065,0,6.208.26,3.236.135.41.017a.649.649,0,0,1,.358.078.5.5,0,0,1-.034.88.649.649,0,0,1-.366.049l-.832-.035-30.9-1.264.057.054-1.33-12.532-.213-1.975a3.569,3.569,0,0,1-.046-.788,1.238,1.238,0,0,1,.25-.592,1.266,1.266,0,0,1,.736-.464,2.5,2.5,0,0,1,.3-.033" transform="translate(-217.306 -155.845)" fill="#373f51"/><path d="M349.828,251.723a1.213,1.213,0,1,1-1.162-1.262,1.213,1.213,0,0,1,1.162,1.262" transform="translate(-237.798 -171.441)" fill="#fff"/><path d="M385.053,246.909c-.027,0-.495-3.615-1.043-8.081s-.971-8.09-.944-8.094.495,3.614,1.043,8.081.971,8.09.943,8.093" transform="translate(-262.209 -157.938)" fill="#373f51"/><path d="M431.932,222.049a.361.361,0,0,1-.073.034l-.221.087-.862.327-3.24,1.2-11.249,4.124-.072.026-.027-.072-1.723-4.5-.026-.068.064-.034,2.7-1.429,10.95-5.784-.033.089-3.323-8.169-.92-2.292-.237-.606-.058-.156a.221.221,0,0,1-.016-.055.225.225,0,0,1,.027.05l.068.152.257.6.956,2.278L428.249,216l.025.059-.057.03-10.939,5.8-2.7,1.428.038-.1,1.716,4.5-.1-.045,11.269-4.069,3.255-1.161.87-.3.226-.075a.359.359,0,0,1,.078-.021" transform="translate(-283.685 -140.172)" fill="#263238"/><path d="M421.436,171.391l-5.15,2.374-1.329,2.973-.2-3.037-1.554-1.235-.829,1.185,1.5,4.295,2.366.1,5.7-4.582.191-.1Z" transform="translate(-282.271 -117.318)" fill="#850ade"/><path d="M412.368,178.555a6.157,6.157,0,0,1,.414.9c.243.558.548,1.356.94,2.186l.029.055-.145.008c.362-.833.609-1.629.807-2.191a6.18,6.18,0,0,1,.338-.909,5.3,5.3,0,0,1-.228.943,18.89,18.89,0,0,1-.767,2.225l-.067.154-.078-.146-.033-.062c-.4-.858-.686-1.648-.9-2.222a5.668,5.668,0,0,1-.306-.943" transform="translate(-282.266 -122.221)" fill="#263238"/><path d="M430.6,177.632a1.9,1.9,0,0,1-.313.254l-.889.641c-.755.535-1.8,1.266-2.968,2.064l-1.382.942-.112.077-.009-.135c-.067-1-.118-1.86-.149-2.469-.012-.281-.021-.517-.029-.712a.979.979,0,0,1,.007-.257.949.949,0,0,1,.044.253c.02.194.044.429.074.709.057.607.13,1.464.208,2.465l-.121-.059,1.377-.949c1.164-.8,2.224-1.513,2.995-2.024l.918-.6a1.9,1.9,0,0,1,.35-.2" transform="translate(-290.741 -121.589)" fill="#263238"/><path d="M398.731,216.266a.636.636,0,0,1-.07-.137,2.128,2.128,0,0,1-.119-.428,10.406,10.406,0,0,1-.144-1.647c-.019-.7,0-1.553.042-2.507s.077-2.02.12-3.157l.021.057a7.253,7.253,0,0,1-1.452-2.342,7.156,7.156,0,0,1-.464-2.113,8.849,8.849,0,0,1,.128-2.008,29.059,29.059,0,0,1,.861-3.28,21.444,21.444,0,0,0,.556-2.207c.1-.528.122-.826.14-.824a1.057,1.057,0,0,1-.008.217c-.009.142-.027.351-.069.618a18.2,18.2,0,0,1-.507,2.229,31.274,31.274,0,0,0-.824,3.273,8.813,8.813,0,0,0-.116,1.973,7.077,7.077,0,0,0,.456,2.064,7.176,7.176,0,0,0,1.415,2.292l.023.025,0,.033c-.051,1.137-.1,2.2-.142,3.157s-.083,1.8-.077,2.5a11.956,11.956,0,0,0,.1,1.639,3.852,3.852,0,0,0,.136.574" transform="translate(-271.509 -133.94)" fill="#263238"/><path d="M417.571,211.157a1.248,1.248,0,0,1-.026-.232c-.011-.168-.025-.39-.043-.666-.035-.579-.071-1.417-.1-2.453-.06-2.072-.071-4.938.062-8.1s.387-6.016.622-8.076c.117-1.03.223-1.862.307-2.435q.062-.411.1-.66a.117.117,0,1,1,.033,0c-.017.168-.04.388-.068.664l-.255,2.44c-.205,2.061-.439,4.913-.574,8.071s-.14,6.019-.109,8.089c.02,1.022.037,1.855.048,2.453.005.277.009.5.012.667a1.236,1.236,0,0,1-.007.233" transform="translate(-285.684 -128.898)" fill="#263238"/><path d="M446.164,183.013c0,.031-.422-.026-1.083.077a4.642,4.642,0,0,0-3.751,3.2c-.205.637-.215,1.06-.246,1.057a.911.911,0,0,1-.005-.3,3.906,3.906,0,0,1,.14-.8,4.509,4.509,0,0,1,3.846-3.283,3.937,3.937,0,0,1,.807-.014.913.913,0,0,1,.292.052" transform="translate(-301.916 -125.227)" fill="#263238"/><path d="M460.555,241.555a4.147,4.147,0,0,0-2.8-1.155.978.978,0,0,1,.463-.066,3,3,0,0,1,2.052.847c.205.206.3.362.282.374" transform="translate(-313.337 -164.51)" fill="#263238"/><path d="M433.773,232.963c0,.01-.074.052-.221.118a4.877,4.877,0,0,1-.64.231,7,7,0,0,1-4.427-.18,4.833,4.833,0,0,1-.619-.283c-.141-.078-.215-.126-.21-.136.013-.025.33.131.868.309a7.905,7.905,0,0,0,4.358.177c.551-.134.88-.263.891-.237" transform="translate(-292.732 -159.292)" fill="#263238"/></g></g></g></g></svg>