<svg xmlns="http://www.w3.org/2000/svg" xmlns:xlink="http://www.w3.org/1999/xlink" width="295" height="130.663" viewBox="0 0 295 130.663"><defs><clipPath id="a"><rect width="148.475" height="75.745" fill="#9000f9"/></clipPath><clipPath id="b"><rect width="272.905" height="125.535" fill="none"/></clipPath></defs><g transform="translate(-915 -404)"><g transform="translate(915 404)"><g transform="translate(0 0)"><g transform="translate(146.525 0)" clip-path="url(#a)"><path d="M70.694,111.622a40.928,40.928,0,1,1,40.928-40.928,40.974,40.974,0,0,1-40.928,40.928m0,29.766A70.694,70.694,0,1,0,0,70.694,70.694,70.694,0,0,0,70.694,141.388Z" transform="translate(3.067 5.051)" fill="#9000f9"/></g><g transform="translate(0 0)"><path d="M41.869,0A41.869,41.869,0,1,1,0,41.869,41.869,41.869,0,0,1,41.869,0Z" transform="translate(0 2.125)" fill="#ffd117" opacity="0.444" style="mix-blend-mode:multiply;isolation:isolate"/><rect width="295" height="124.255" transform="translate(0)" fill="none"/><path d="M4.779,0A4.779,4.779,0,1,1,0,4.779,4.779,4.779,0,0,1,4.779,0Z" transform="translate(18.878 105.228)" fill="#31313c" opacity="0.444" style="mix-blend-mode:multiply;isolation:isolate"/><g transform="translate(200.996 36.659)"><path d="M47,0A47,47,0,1,1,0,47,47,47,0,0,1,47,0Z" transform="translate(0)" fill="#31313c" opacity="0.444" style="mix-blend-mode:multiply;isolation:isolate"/><g transform="translate(18.351 19.431)"><path d="M415.491,50.834a.639.639,0,1,1-.639-.61A.625.625,0,0,1,415.491,50.834Z" transform="translate(-414.214 -50.224)" fill="#fff"/><path d="M423.937,50.834a.639.639,0,1,1-.638-.61A.625.625,0,0,1,423.937,50.834Z" transform="translate(-416.916 -50.224)" fill="#fff"/><path d="M432.382,50.834a.639.639,0,1,1-.638-.61A.625.625,0,0,1,432.382,50.834Z" transform="translate(-419.618 -50.224)" fill="#fff"/><path d="M440.83,50.834a.639.639,0,1,1-.639-.61A.625.625,0,0,1,440.83,50.834Z" transform="translate(-422.321 -50.224)" fill="#fff"/><path d="M449.276,50.834a.639.639,0,1,1-.638-.61A.625.625,0,0,1,449.276,50.834Z" transform="translate(-425.023 -50.224)" fill="#fff"/><path d="M457.721,50.834a.639.639,0,1,1-.638-.61A.625.625,0,0,1,457.721,50.834Z" transform="translate(-427.725 -50.224)" fill="#fff"/><path d="M466.168,50.834a.639.639,0,1,1-.639-.61A.625.625,0,0,1,466.168,50.834Z" transform="translate(-430.428 -50.224)" fill="#fff"/><path d="M474.615,50.834a.639.639,0,1,1-.638-.61A.625.625,0,0,1,474.615,50.834Z" transform="translate(-433.13 -50.224)" fill="#fff"/><path d="M483.06,50.834a.639.639,0,1,1-.638-.61A.625.625,0,0,1,483.06,50.834Z" transform="translate(-435.832 -50.224)" fill="#fff"/><path d="M491.508,50.834a.639.639,0,1,1-.639-.61A.625.625,0,0,1,491.508,50.834Z" transform="translate(-438.534 -50.224)" fill="#fff"/><path d="M499.954,50.834a.639.639,0,1,1-.639-.61A.625.625,0,0,1,499.954,50.834Z" transform="translate(-441.237 -50.224)" fill="#fff"/><g transform="translate(0 4.883)"><path d="M415.491,58.342a.639.639,0,1,1-.639-.61A.625.625,0,0,1,415.491,58.342Z" transform="translate(-414.214 -57.732)" fill="#fff"/><path d="M423.937,58.342a.639.639,0,1,1-.638-.61A.625.625,0,0,1,423.937,58.342Z" transform="translate(-416.916 -57.732)" fill="#fff"/><path d="M432.382,58.342a.639.639,0,1,1-.638-.61A.625.625,0,0,1,432.382,58.342Z" transform="translate(-419.618 -57.732)" fill="#fff"/><path d="M440.83,58.342a.639.639,0,1,1-.639-.61A.625.625,0,0,1,440.83,58.342Z" transform="translate(-422.321 -57.732)" fill="#fff"/><path d="M449.276,58.342a.639.639,0,1,1-.638-.61A.625.625,0,0,1,449.276,58.342Z" transform="translate(-425.023 -57.732)" fill="#fff"/><path d="M457.721,58.342a.639.639,0,1,1-.638-.61A.625.625,0,0,1,457.721,58.342Z" transform="translate(-427.725 -57.732)" fill="#fff"/><path d="M466.168,58.342a.639.639,0,1,1-.639-.61A.625.625,0,0,1,466.168,58.342Z" transform="translate(-430.428 -57.732)" fill="#fff"/><path d="M474.615,58.342a.639.639,0,1,1-.638-.61A.625.625,0,0,1,474.615,58.342Z" transform="translate(-433.13 -57.732)" fill="#fff"/><path d="M483.06,58.342a.639.639,0,1,1-.638-.61A.625.625,0,0,1,483.06,58.342Z" transform="translate(-435.832 -57.732)" fill="#fff"/><path d="M491.508,58.342a.639.639,0,1,1-.639-.61A.625.625,0,0,1,491.508,58.342Z" transform="translate(-438.534 -57.732)" fill="#fff"/><path d="M499.954,58.342a.639.639,0,1,1-.639-.61A.625.625,0,0,1,499.954,58.342Z" transform="translate(-441.237 -57.732)" fill="#fff"/></g><g transform="translate(0 9.766)"><ellipse cx="0.638" cy="0.61" rx="0.638" ry="0.61" fill="#fff"/><path d="M423.937,65.85a.639.639,0,1,1-.638-.61A.625.625,0,0,1,423.937,65.85Z" transform="translate(-416.916 -65.24)" fill="#fff"/><ellipse cx="0.638" cy="0.61" rx="0.638" ry="0.61" transform="translate(11.488)" fill="#fff"/><path d="M440.83,65.85a.639.639,0,1,1-.639-.61A.625.625,0,0,1,440.83,65.85Z" transform="translate(-422.321 -65.24)" fill="#fff"/><path d="M449.276,65.85a.639.639,0,1,1-.638-.61A.625.625,0,0,1,449.276,65.85Z" transform="translate(-425.023 -65.24)" fill="#fff"/><ellipse cx="0.638" cy="0.61" rx="0.638" ry="0.61" transform="translate(28.72)" fill="#fff"/><path d="M466.168,65.85a.639.639,0,1,1-.639-.61A.626.626,0,0,1,466.168,65.85Z" transform="translate(-430.427 -65.24)" fill="#fff"/><ellipse cx="0.638" cy="0.61" rx="0.638" ry="0.61" transform="translate(40.208)" fill="#fff"/><ellipse cx="0.638" cy="0.61" rx="0.638" ry="0.61" transform="translate(45.953)" fill="#fff"/><path d="M491.508,65.85a.639.639,0,1,1-.639-.61A.626.626,0,0,1,491.508,65.85Z" transform="translate(-438.534 -65.24)" fill="#fff"/><path d="M499.954,65.85a.639.639,0,1,1-.639-.61A.625.625,0,0,1,499.954,65.85Z" transform="translate(-441.236 -65.24)" fill="#fff"/></g><g transform="translate(0 14.648)"><ellipse cx="0.638" cy="0.61" rx="0.638" ry="0.61" transform="translate(0 0)" fill="#fff"/><path d="M423.937,73.358a.639.639,0,1,1-.638-.611A.624.624,0,0,1,423.937,73.358Z" transform="translate(-416.916 -72.747)" fill="#fff"/><ellipse cx="0.638" cy="0.61" rx="0.638" ry="0.61" transform="translate(11.488 0)" fill="#fff"/><path d="M440.83,73.358a.639.639,0,1,1-.639-.611A.625.625,0,0,1,440.83,73.358Z" transform="translate(-422.321 -72.747)" fill="#fff"/><path d="M449.276,73.358a.639.639,0,1,1-.638-.611A.625.625,0,0,1,449.276,73.358Z" transform="translate(-425.023 -72.747)" fill="#fff"/><ellipse cx="0.638" cy="0.61" rx="0.638" ry="0.61" transform="translate(28.72 0)" fill="#fff"/><path d="M466.168,73.358a.639.639,0,1,1-.639-.611A.625.625,0,0,1,466.168,73.358Z" transform="translate(-430.427 -72.747)" fill="#fff"/><ellipse cx="0.638" cy="0.61" rx="0.638" ry="0.61" transform="translate(40.208 0)" fill="#fff"/><ellipse cx="0.638" cy="0.61" rx="0.638" ry="0.61" transform="translate(45.953 0)" fill="#fff"/><path d="M491.508,73.358a.639.639,0,1,1-.639-.611A.625.625,0,0,1,491.508,73.358Z" transform="translate(-438.534 -72.747)" fill="#fff"/><path d="M499.954,73.358a.639.639,0,1,1-.639-.611A.625.625,0,0,1,499.954,73.358Z" transform="translate(-441.236 -72.747)" fill="#fff"/></g><g transform="translate(0 19.531)"><path d="M415.491,80.866a.639.639,0,1,1-.639-.611A.625.625,0,0,1,415.491,80.866Z" transform="translate(-414.214 -80.255)" fill="#fff"/><path d="M423.937,80.866a.639.639,0,1,1-.638-.611A.624.624,0,0,1,423.937,80.866Z" transform="translate(-416.916 -80.255)" fill="#fff"/><path d="M432.382,80.866a.639.639,0,1,1-.638-.611A.624.624,0,0,1,432.382,80.866Z" transform="translate(-419.618 -80.255)" fill="#fff"/><path d="M440.83,80.866a.639.639,0,1,1-.639-.611A.625.625,0,0,1,440.83,80.866Z" transform="translate(-422.321 -80.255)" fill="#fff"/><path d="M449.276,80.866a.639.639,0,1,1-.638-.611A.625.625,0,0,1,449.276,80.866Z" transform="translate(-425.023 -80.255)" fill="#fff"/><path d="M457.721,80.866a.639.639,0,1,1-.638-.611A.624.624,0,0,1,457.721,80.866Z" transform="translate(-427.725 -80.255)" fill="#fff"/><path d="M466.168,80.866a.639.639,0,1,1-.639-.611A.625.625,0,0,1,466.168,80.866Z" transform="translate(-430.428 -80.255)" fill="#fff"/><path d="M474.615,80.866a.639.639,0,1,1-.638-.611A.624.624,0,0,1,474.615,80.866Z" transform="translate(-433.13 -80.255)" fill="#fff"/><path d="M483.06,80.866a.639.639,0,1,1-.638-.611A.625.625,0,0,1,483.06,80.866Z" transform="translate(-435.832 -80.255)" fill="#fff"/><path d="M491.508,80.866a.639.639,0,1,1-.639-.611A.625.625,0,0,1,491.508,80.866Z" transform="translate(-438.534 -80.255)" fill="#fff"/><path d="M499.954,80.866a.639.639,0,1,1-.639-.611A.625.625,0,0,1,499.954,80.866Z" transform="translate(-441.237 -80.255)" fill="#fff"/></g><g transform="translate(0 24.414)"><ellipse cx="0.638" cy="0.61" rx="0.638" ry="0.61" transform="translate(0 0)" fill="#fff"/><path d="M423.937,88.374a.639.639,0,1,1-.638-.611A.624.624,0,0,1,423.937,88.374Z" transform="translate(-416.916 -87.763)" fill="#fff"/><ellipse cx="0.638" cy="0.61" rx="0.638" ry="0.61" transform="translate(11.488 0)" fill="#fff"/><path d="M440.83,88.374a.639.639,0,1,1-.639-.611A.625.625,0,0,1,440.83,88.374Z" transform="translate(-422.321 -87.763)" fill="#fff"/><path d="M449.276,88.374a.639.639,0,1,1-.638-.611A.625.625,0,0,1,449.276,88.374Z" transform="translate(-425.023 -87.763)" fill="#fff"/><ellipse cx="0.638" cy="0.61" rx="0.638" ry="0.61" transform="translate(28.72 0)" fill="#fff"/><path d="M466.168,88.374a.639.639,0,1,1-.639-.611A.625.625,0,0,1,466.168,88.374Z" transform="translate(-430.427 -87.763)" fill="#fff"/><ellipse cx="0.638" cy="0.61" rx="0.638" ry="0.61" transform="translate(40.208 0)" fill="#fff"/><ellipse cx="0.638" cy="0.61" rx="0.638" ry="0.61" transform="translate(45.953 0)" fill="#fff"/><path d="M491.508,88.374a.639.639,0,1,1-.639-.611A.625.625,0,0,1,491.508,88.374Z" transform="translate(-438.534 -87.763)" fill="#fff"/><path d="M499.954,88.374a.639.639,0,1,1-.639-.611A.625.625,0,0,1,499.954,88.374Z" transform="translate(-441.236 -87.763)" fill="#fff"/></g><g transform="translate(0 29.297)"><ellipse cx="0.638" cy="0.61" rx="0.638" ry="0.61" fill="#fff"/><path d="M423.937,95.881a.639.639,0,1,1-.638-.61A.625.625,0,0,1,423.937,95.881Z" transform="translate(-416.916 -95.271)" fill="#fff"/><ellipse cx="0.638" cy="0.61" rx="0.638" ry="0.61" transform="translate(11.488)" fill="#fff"/><path d="M440.83,95.881a.639.639,0,1,1-.639-.61A.625.625,0,0,1,440.83,95.881Z" transform="translate(-422.321 -95.271)" fill="#fff"/><path d="M449.276,95.881a.639.639,0,1,1-.638-.61A.625.625,0,0,1,449.276,95.881Z" transform="translate(-425.023 -95.271)" fill="#fff"/><ellipse cx="0.638" cy="0.61" rx="0.638" ry="0.61" transform="translate(28.72)" fill="#fff"/><path d="M466.168,95.881a.639.639,0,1,1-.639-.61A.625.625,0,0,1,466.168,95.881Z" transform="translate(-430.427 -95.271)" fill="#fff"/><ellipse cx="0.638" cy="0.61" rx="0.638" ry="0.61" transform="translate(40.208)" fill="#fff"/><ellipse cx="0.638" cy="0.61" rx="0.638" ry="0.61" transform="translate(45.953)" fill="#fff"/><path d="M491.508,95.881a.639.639,0,1,1-.639-.61A.625.625,0,0,1,491.508,95.881Z" transform="translate(-438.534 -95.271)" fill="#fff"/><path d="M499.954,95.881a.639.639,0,1,1-.639-.61A.625.625,0,0,1,499.954,95.881Z" transform="translate(-441.236 -95.271)" fill="#fff"/></g><g transform="translate(0 34.18)"><path d="M415.491,103.389a.639.639,0,1,1-.639-.61A.625.625,0,0,1,415.491,103.389Z" transform="translate(-414.214 -102.779)" fill="#fff"/><path d="M423.937,103.389a.639.639,0,1,1-.638-.61A.625.625,0,0,1,423.937,103.389Z" transform="translate(-416.916 -102.779)" fill="#fff"/><path d="M432.382,103.389a.639.639,0,1,1-.638-.61A.625.625,0,0,1,432.382,103.389Z" transform="translate(-419.618 -102.779)" fill="#fff"/><path d="M440.83,103.389a.639.639,0,1,1-.639-.61A.625.625,0,0,1,440.83,103.389Z" transform="translate(-422.321 -102.779)" fill="#fff"/><path d="M449.276,103.389a.639.639,0,1,1-.638-.61A.625.625,0,0,1,449.276,103.389Z" transform="translate(-425.023 -102.779)" fill="#fff"/><path d="M457.721,103.389a.639.639,0,1,1-.638-.61A.625.625,0,0,1,457.721,103.389Z" transform="translate(-427.725 -102.779)" fill="#fff"/><path d="M466.168,103.389a.639.639,0,1,1-.639-.61A.625.625,0,0,1,466.168,103.389Z" transform="translate(-430.428 -102.779)" fill="#fff"/><path d="M474.615,103.389a.639.639,0,1,1-.638-.61A.625.625,0,0,1,474.615,103.389Z" transform="translate(-433.13 -102.779)" fill="#fff"/><path d="M483.06,103.389a.639.639,0,1,1-.638-.61A.625.625,0,0,1,483.06,103.389Z" transform="translate(-435.832 -102.779)" fill="#fff"/><path d="M491.508,103.389a.639.639,0,1,1-.639-.61A.625.625,0,0,1,491.508,103.389Z" transform="translate(-438.534 -102.779)" fill="#fff"/><path d="M499.954,103.389a.639.639,0,1,1-.639-.61A.625.625,0,0,1,499.954,103.389Z" transform="translate(-441.237 -102.779)" fill="#fff"/></g><g transform="translate(0 39.063)"><ellipse cx="0.638" cy="0.61" rx="0.638" ry="0.61" fill="#fff"/><path d="M423.937,110.9a.639.639,0,1,1-.638-.61A.625.625,0,0,1,423.937,110.9Z" transform="translate(-416.916 -110.287)" fill="#fff"/><ellipse cx="0.638" cy="0.61" rx="0.638" ry="0.61" transform="translate(11.488)" fill="#fff"/><path d="M440.83,110.9a.639.639,0,1,1-.639-.61A.625.625,0,0,1,440.83,110.9Z" transform="translate(-422.321 -110.287)" fill="#fff"/><path d="M449.276,110.9a.639.639,0,1,1-.638-.61A.625.625,0,0,1,449.276,110.9Z" transform="translate(-425.023 -110.287)" fill="#fff"/><ellipse cx="0.638" cy="0.61" rx="0.638" ry="0.61" transform="translate(28.72)" fill="#fff"/><path d="M466.168,110.9a.639.639,0,1,1-.639-.61A.626.626,0,0,1,466.168,110.9Z" transform="translate(-430.427 -110.287)" fill="#fff"/><ellipse cx="0.638" cy="0.61" rx="0.638" ry="0.61" transform="translate(40.208)" fill="#fff"/><ellipse cx="0.638" cy="0.61" rx="0.638" ry="0.61" transform="translate(45.953)" fill="#fff"/><path d="M491.508,110.9a.639.639,0,1,1-.639-.61A.626.626,0,0,1,491.508,110.9Z" transform="translate(-438.534 -110.287)" fill="#fff"/><path d="M499.954,110.9a.639.639,0,1,1-.639-.61A.625.625,0,0,1,499.954,110.9Z" transform="translate(-441.236 -110.287)" fill="#fff"/></g><g transform="translate(0 43.945)"><path d="M415.491,118.4a.639.639,0,1,1-.639-.611A.625.625,0,0,1,415.491,118.4Z" transform="translate(-414.214 -117.794)" fill="#fff"/><path d="M423.937,118.4a.639.639,0,1,1-.638-.611A.625.625,0,0,1,423.937,118.4Z" transform="translate(-416.916 -117.794)" fill="#fff"/><path d="M432.382,118.4a.639.639,0,1,1-.638-.611A.625.625,0,0,1,432.382,118.4Z" transform="translate(-419.618 -117.794)" fill="#fff"/><path d="M440.83,118.4a.639.639,0,1,1-.639-.611A.625.625,0,0,1,440.83,118.4Z" transform="translate(-422.321 -117.794)" fill="#fff"/><path d="M449.276,118.4a.639.639,0,1,1-.638-.611A.625.625,0,0,1,449.276,118.4Z" transform="translate(-425.023 -117.794)" fill="#fff"/><path d="M457.721,118.4a.639.639,0,1,1-.638-.611A.625.625,0,0,1,457.721,118.4Z" transform="translate(-427.725 -117.794)" fill="#fff"/><path d="M466.168,118.4a.639.639,0,1,1-.639-.611A.626.626,0,0,1,466.168,118.4Z" transform="translate(-430.428 -117.794)" fill="#fff"/><path d="M474.615,118.4a.639.639,0,1,1-.638-.611A.625.625,0,0,1,474.615,118.4Z" transform="translate(-433.13 -117.794)" fill="#fff"/><path d="M483.06,118.4a.639.639,0,1,1-.638-.611A.625.625,0,0,1,483.06,118.4Z" transform="translate(-435.832 -117.794)" fill="#fff"/><path d="M491.508,118.4a.639.639,0,1,1-.639-.611A.626.626,0,0,1,491.508,118.4Z" transform="translate(-438.534 -117.794)" fill="#fff"/><path d="M499.954,118.4a.639.639,0,1,1-.639-.611A.625.625,0,0,1,499.954,118.4Z" transform="translate(-441.237 -117.794)" fill="#fff"/></g><g transform="translate(0 48.828)"><ellipse cx="0.638" cy="0.61" rx="0.638" ry="0.61" transform="translate(0 0)" fill="#fff"/><path d="M423.937,125.913a.639.639,0,1,1-.638-.611A.624.624,0,0,1,423.937,125.913Z" transform="translate(-416.916 -125.302)" fill="#fff"/><ellipse cx="0.638" cy="0.61" rx="0.638" ry="0.61" transform="translate(11.488 0)" fill="#fff"/><path d="M440.83,125.913a.639.639,0,1,1-.639-.611A.625.625,0,0,1,440.83,125.913Z" transform="translate(-422.321 -125.302)" fill="#fff"/><path d="M449.276,125.913a.639.639,0,1,1-.638-.611A.625.625,0,0,1,449.276,125.913Z" transform="translate(-425.023 -125.302)" fill="#fff"/><ellipse cx="0.638" cy="0.61" rx="0.638" ry="0.61" transform="translate(28.72 0)" fill="#fff"/><path d="M466.168,125.913a.639.639,0,1,1-.639-.611A.625.625,0,0,1,466.168,125.913Z" transform="translate(-430.427 -125.302)" fill="#fff"/><ellipse cx="0.638" cy="0.61" rx="0.638" ry="0.61" transform="translate(40.208 0)" fill="#fff"/><ellipse cx="0.638" cy="0.61" rx="0.638" ry="0.61" transform="translate(45.953 0)" fill="#fff"/><path d="M491.508,125.913a.639.639,0,1,1-.639-.611A.625.625,0,0,1,491.508,125.913Z" transform="translate(-438.534 -125.302)" fill="#fff"/><path d="M499.954,125.913a.639.639,0,1,1-.639-.611A.625.625,0,0,1,499.954,125.913Z" transform="translate(-441.236 -125.302)" fill="#fff"/></g><g transform="translate(0 53.711)"><ellipse cx="0.638" cy="0.61" rx="0.638" ry="0.61" transform="translate(0 0)" fill="#fff"/><path d="M423.937,133.421a.639.639,0,1,1-.638-.611A.624.624,0,0,1,423.937,133.421Z" transform="translate(-416.916 -132.81)" fill="#fff"/><ellipse cx="0.638" cy="0.61" rx="0.638" ry="0.61" transform="translate(11.488 0)" fill="#fff"/><path d="M440.83,133.421a.639.639,0,1,1-.639-.611A.625.625,0,0,1,440.83,133.421Z" transform="translate(-422.321 -132.81)" fill="#fff"/><path d="M449.276,133.421a.639.639,0,1,1-.638-.611A.625.625,0,0,1,449.276,133.421Z" transform="translate(-425.023 -132.81)" fill="#fff"/><ellipse cx="0.638" cy="0.61" rx="0.638" ry="0.61" transform="translate(28.72 0)" fill="#fff"/><path d="M466.168,133.421a.639.639,0,1,1-.639-.611A.625.625,0,0,1,466.168,133.421Z" transform="translate(-430.427 -132.81)" fill="#fff"/><ellipse cx="0.638" cy="0.61" rx="0.638" ry="0.61" transform="translate(40.208 0)" fill="#fff"/><ellipse cx="0.638" cy="0.61" rx="0.638" ry="0.61" transform="translate(45.953 0)" fill="#fff"/><path d="M491.508,133.421a.639.639,0,1,1-.639-.611A.625.625,0,0,1,491.508,133.421Z" transform="translate(-438.534 -132.81)" fill="#fff"/><path d="M499.954,133.421a.639.639,0,1,1-.639-.611A.625.625,0,0,1,499.954,133.421Z" transform="translate(-441.236 -132.81)" fill="#fff"/></g></g></g><path d="M0,90a2,2,0,0,1-2-2V80a2,2,0,0,1,2-2,2,2,0,0,1,2,2v8A2,2,0,0,1,0,90ZM0,74a2,2,0,0,1-2-2V64a2,2,0,0,1,2-2,2,2,0,0,1,2,2v8A2,2,0,0,1,0,74ZM0,58a2,2,0,0,1-2-2V48a2,2,0,0,1,2-2,2,2,0,0,1,2,2v8A2,2,0,0,1,0,58ZM0,42a2,2,0,0,1-2-2V32a2,2,0,0,1,2-2,2,2,0,0,1,2,2v8A2,2,0,0,1,0,42ZM0,26a2,2,0,0,1-2-2V16a2,2,0,0,1,2-2,2,2,0,0,1,2,2v8A2,2,0,0,1,0,26ZM0,10A2,2,0,0,1-2,8V0A2,2,0,0,1,0-2,2,2,0,0,1,2,0V8A2,2,0,0,1,0,10Z" transform="translate(10.251 21.478)" fill="#31313c"/></g></g></g><g transform="translate(926.099 404)"><rect width="14.01" height="50.293" transform="translate(0 75.242)" fill="#ebebeb"/><rect width="14.01" height="50.293" transform="translate(90.35 75.242)" fill="#ebebeb"/><rect width="14.01" height="28.551" transform="translate(20.014 96.984)" fill="#ebebeb"/><rect width="14.01" height="28.551" transform="translate(112.08 96.984)" fill="#ebebeb"/><rect width="19.157" height="44.638" transform="translate(41.744 80.897)" fill="#ebebeb"/><path d="M107.036,151.419v26.046h19.157V132.827Z" transform="translate(-41.847 -51.93)" fill="#ebebeb"/><rect width="14.01" height="50.293" transform="translate(146.815 75.242)" fill="#ebebeb"/><rect width="14.01" height="50.293" transform="translate(237.165 75.242)" fill="#ebebeb"/><rect width="14.01" height="28.551" transform="translate(166.829 96.984)" fill="#ebebeb"/><rect width="14.01" height="28.551" transform="translate(258.894 96.984)" fill="#ebc9b1"/><rect width="19.156" height="44.638" transform="translate(188.559 80.897)" fill="#ebebeb"/><path d="M348.1,151.419v26.046h19.156V132.827Z" transform="translate(-136.091 -51.93)" fill="#ebebeb"/><g clip-path="url(#b)"><path d="M13.932,198.649h5.792c-3-7.519-8.72-12.262-9.087-11.57-.245.463,2.1,2.975,3.043,7.562a12.964,12.964,0,0,1,.252,4.008" transform="translate(-4.151 -73.114)" fill="#7894ba"/><path d="M18.908,200.03a26.4,26.4,0,0,0-4.663-9.485l-.182.248a25.905,25.905,0,0,1,4.562,9.237Z" transform="translate(-5.498 -74.495)" fill="#333f4f"/><path d="M26.485,184.46h1.044c.255-18.236-7.878-33.741-7.878-33.741a65.509,65.509,0,0,0,.409,10.454c1.038,8.58,4.669,18.733,6.425,23.287" transform="translate(-7.662 -58.925)" fill="#7894ba"/><path d="M29.238,184.46c-.49-7.252-3.074-11.49-5.629-16.989a46.8,46.8,0,0,1-4.028-16.752c-.889,8.276,2.065,22.862,4.73,33.741Z" transform="translate(-7.592 -58.925)" fill="#333f4f"/><path d="M34.87,177.992h8.065c1.962-6.437,3.441-9.722,2.591-15.3-1.1-7.215-4.653-8.854-4.807-16.759-.135-6.894,2.464-11.057,1.953-11.681-.855-1.045-9.265,9.267-9.915,23.108-.343,7.311,1.843,7.851,2.1,17.775.027,1.027.029,1.976.01,2.862" transform="translate(-12.793 -52.457)" fill="#7894ba"/><path d="M50.613,200.355c.371-2.9.713-5.893,1.009-8.979a86.727,86.727,0,0,0-3.2,8.979Z" transform="translate(-18.932 -74.82)" fill="#333f4f"/><path d="M39.948,163.129a31.312,31.312,0,0,1,1.292,6.659,34.922,34.922,0,0,1-.789,10.51h.434a35.468,35.468,0,0,0,.769-10.577,31.949,31.949,0,0,0-1.32-6.811,26.13,26.13,0,0,1-1.158-6.131A34.184,34.184,0,0,1,42.748,140.4l-.348-.323a34.934,34.934,0,0,0-3.639,16.756,26.718,26.718,0,0,0,1.187,6.3" transform="translate(-15.135 -54.763)" fill="#333f4f"/><path d="M63.724,195.7c2.448-5.357,3.37-12.2,4.292-13.766a5.061,5.061,0,0,1,3.042-2.465c-11.865,1.719-15.985,7.513-17.464,12.76a23.193,23.193,0,0,0-.663,3.471Z" transform="translate(-20.694 -70.165)" fill="#7894ba"/><path d="M60.619,196.566c.086-.242.181-.48.264-.724,4.251-12.485,9.368-13.564,9.419-13.573l-.052-.585c-.218.039-5.382,1.1-9.742,13.9-.112.329-.24.652-.357.979Z" transform="translate(-23.517 -71.032)" fill="#333f4f"/><rect width="6.346" height="13.921" transform="translate(142.397 111.614)" fill="#ababab"/><path d="M253.293,162.18V110.944A17.213,17.213,0,0,0,236.08,93.731H215.2a17.213,17.213,0,0,0-17.213,17.213V162.18Z" transform="translate(-77.405 -36.645)" fill="#31313c"/><path d="M77.017,177.048c.349-2.043.568-3.3.568-3.3l11.437-16,6.984-22.522L75.62,131.76s-9.782,5.009-12.012,9.171c-1.92,3.583-4.849,17.705-6.549,36.117Z" transform="translate(-22.308 -51.513)" fill="#31313c"/><path d="M123.354,179.049c-4.613-16.883-11.43-40.244-11.43-40.244l-15.93-1.926-8.459,20.442L103.1,179.049Z" transform="translate(-34.223 -53.515)" fill="#31313c"/><path d="M129.975,75.045c-19.243-10.558-32.521-3.015-40.192,3.292a12.482,12.482,0,0,0-3.964,13.409L88.4,103.37l-1.761,4.157c12.734,14.552,24.39,5.045,24.39,5.045a23.234,23.234,0,0,0,6.9-5.411c8.261-.885,7.6-8.925,7.067-11.865a78.857,78.857,0,0,0,4.984-20.252" transform="translate(-33.324 -27.28)" fill="#91b3fa"/><path d="M115.159,75.016s-7.129,1.583-4.267,7.992a39.936,39.936,0,0,0,5.9,9.764l7.967-4.827,6.176,2.252s7.894-22.569-15.772-15.182" transform="translate(-43.089 -28.747)" fill="#fff"/><path d="M156.525,78.426l19.1,30.68-6.886,4.921L153.147,90.946Z" transform="translate(-59.874 -30.661)" fill="#91b3fa"/><path d="M118.276,81.214s-.453,6.5,9.63,7.982c0,0,6.729-4.025,3.655-10.2s-13.285,2.219-13.285,2.219" transform="translate(-46.24 -29.997)" fill="#fab39b"/><path d="M131.473,78.083c-3.073-6.176-13.252-2.73-13.252-2.73s-.412,3.792.033,5.157a13.37,13.37,0,0,0,7.137,3.913A6.5,6.5,0,0,0,132.3,81.33a7.328,7.328,0,0,0-.831-3.247" transform="translate(-46.152 -29.085)" fill="#de937a"/><path d="M109.2,53.631s7.447,16.674,16.547,14.206c4.478-1.215,7.014-6.583,7.137-17.068.089-7.607-13.742-20.992-21.337-10.057-4.942,7.115-2.347,12.919-2.347,12.919" transform="translate(-42.428 -14.302)" fill="#fab39b"/><path d="M110.02,38.738a8.105,8.105,0,1,1-1.308-11.387,8.105,8.105,0,0,1,1.308,11.387" transform="translate(-37.363 -10.006)" fill="#383534"/><path d="M126.264,43.625s4.416.233,5.607,6.763c0,0,3.948-17.652-14.762-14.376s-8.293,20.341-8.293,20.341l3.716.375V52.943s12.43,1.267,13.732-9.318" transform="translate(-41.412 -13.921)" fill="#383534"/><path d="M109.738,70.9a3.647,3.647,0,1,0,3.406-4.206,3.837,3.837,0,0,0-3.406,4.206" transform="translate(-42.901 -26.074)" fill="#fab39b"/><path d="M114.223,73.744c.164-.577,1.168-.922,1.541-1.007l.246-.056-.114-.225a2.7,2.7,0,0,0-1.658-1.566,1.993,1.993,0,0,0-1.528.277l.227.322a1.625,1.625,0,0,1,1.211-.216,2.181,2.181,0,0,1,1.283,1.148c-.453.141-1.386.512-1.587,1.215Z" transform="translate(-44.065 -27.695)" fill="#38261f"/><path d="M116.463,76.917a1.143,1.143,0,1,0,.944,1.311,1.142,1.142,0,0,0-.944-1.311" transform="translate(-45.014 -30.066)" fill="#fff"/><path d="M164.746,112.516l11.473,16.954,8.4-2.339-12.784-20.283c-2.526,0-5.706,2.506-7.09,5.668" transform="translate(-64.409 -41.773)" fill="#fab39b"/><path d="M117.964,35.525l-.44-.314a6.338,6.338,0,0,0,1.122-4.606c-.569-3.474-4.081-4.845-4.117-4.858l.192-.506c.157.06,3.84,1.5,4.459,5.277a6.879,6.879,0,0,1-1.216,5.008" transform="translate(-44.776 -9.868)" fill="#383534"/><path d="M123.283,58.422l-.1-.532c1.035-.2,6.312-1.423,8.581-5.823a8.972,8.972,0,0,0,.909-5.2l.537-.065a9.481,9.481,0,0,1-.965,5.517c-2.384,4.622-7.882,5.9-8.96,6.106" transform="translate(-48.158 -18.296)" fill="#383534"/><path d="M121.334,157.545,106.99,137.363l-1.722-11.83c-4.455-4.288-10.96-.925-12.223.634l3.082,13.513,17.951,21.569a8.209,8.209,0,0,0,1.417-.133l1.325-.334a8.306,8.306,0,0,0,4.513-3.236" transform="translate(-36.377 -48.258)" fill="#fab39b"/><path d="M164.467,113.13l-2.241-2.633a.22.22,0,0,1-.04-.223c.354-.929,2.788-6.794,7.645-6.318a.217.217,0,0,1,.161.1l1.82,2.908a.216.216,0,0,1-.1.322c-1.143.387-5.82,2.175-6.9,5.757a.2.2,0,0,1-.348.085" transform="translate(-63.403 -40.632)" fill="#fff"/><path d="M92.277,123.762,91.239,119.7a.207.207,0,0,1,.09-.236c.992-.612,7.488-4.333,12.955-.4a.3.3,0,0,1,.128.21l.37,4.021a.23.23,0,0,1-.319.227c-1.593-.459-8.241-2.155-11.722.414a.309.309,0,0,1-.464-.172" transform="translate(-35.668 -45.852)" fill="#fff"/><path d="M134.126,79.863a4.17,4.17,0,0,0,1.425-.479l-.215-.35c-.093.057-2.306,1.365-5.444-.548l-.214.351a6.426,6.426,0,0,0,4.448,1.026" transform="translate(-50.699 -30.685)" fill="#38261f"/><path d="M139.9,74.291a1.93,1.93,0,0,0,1.3-1.141c.188-.653-.129-1.43-.944-2.311l-.3.28c.7.756.994,1.418.851,1.915-.18.629-1,.859-1.009.861Z" transform="translate(-54.654 -27.695)" fill="#38261f"/><path d="M131.45,70.4c.079.5.382.876.676.83s.468-.493.389-1-.382-.876-.676-.83-.468.493-.389,1" transform="translate(-51.384 -27.132)" fill="#38261f"/><path d="M144.329,67.807c.076.492.369.854.655.809s.457-.478.381-.969-.369-.854-.655-.81-.457.478-.381.97" transform="translate(-56.42 -26.129)" fill="#38261f"/><path d="M130.842,65.119a1.972,1.972,0,0,0-.492.01,4.206,4.206,0,0,0-2.356,1.035c-1.347,1.18.568.042,1.712-.248a7.612,7.612,0,0,0,.939-.286,1.115,1.115,0,0,0,.4-.219c.1-.112.044-.2-.077-.253a.529.529,0,0,0-.129-.039" transform="translate(-49.86 -25.454)" fill="#383534"/><path d="M143.159,63.087a.893.893,0,0,1,.3-.12,2.455,2.455,0,0,1,1.8.286c1.255.675-.323.185-1.118.231a3.972,3.972,0,0,1-.67,0,.7.7,0,0,1-.325-.085.159.159,0,0,1-.051-.24.274.274,0,0,1,.062-.068" transform="translate(-55.932 -24.59)" fill="#383534"/><rect width="0.542" height="7.418" transform="translate(66.898 65.459) rotate(-8.284)" fill="#383534"/><path d="M120.537,132.205h-.2l.01-.541a62.223,62.223,0,0,0,11.349-1.121l.1.532a64.073,64.073,0,0,1-11.256,1.132" transform="translate(-47.045 -51.037)" fill="#383534"/><rect width="3.433" height="0.541" transform="translate(93.929 60.83) rotate(-24.258)" fill="#383534"/><path d="M105.839,45.872s-1.092-7.124,9.774-9.314c0,0-11.248-1.14-9.774,9.314" transform="translate(-41.327 -14.278)" fill="#7894ba"/><path d="M217.536,49.692c0,.26-1.35,12.55.656,13.741s3.553-13.356,3.553-13.356Z" transform="translate(-84.874 -19.428)" fill="#704c44"/><path d="M215.8,73.625a3.041,3.041,0,1,0,2.383-3.833,3.2,3.2,0,0,0-2.383,3.833" transform="translate(-84.345 -27.269)" fill="#de937a"/><rect width="1.666" height="0.541" transform="translate(132.449 44.535) rotate(-10.692)" fill="#fff"/><path d="M251.34,199.762l-.937-9.9-45.51,1.51.029,8.393Z" transform="translate(-80.105 -74.228)" fill="#383534"/><path d="M198.843,164.233H248.1l-1.325-15.49s8.5-34.639,6.55-36.689-13.677-11.326-26.072-13.071l-9.8.771s-16.723,5.442-20.231,10.909,1.775,18.644,1.775,18.644Z" transform="translate(-76.633 -38.698)" fill="#12263f"/><path d="M227.318,109.5l4.622,12.2,7.742-11.7-6.849-2.395Z" transform="translate(-88.872 -42.071)" fill="#fff"/><path d="M231.408,110.251s.378,4.241,1.19,4.542c.941.348,2.725.749,3.738-.058s1.588-4.34,1.588-4.34l-3.3-1.579Z" transform="translate(-90.471 -42.543)" fill="#383534"/><path d="M233.207,117.336l-1.811,2.528,2.138,5.645,3.638-5.5-1.63-2.527Z" transform="translate(-90.467 -45.873)" fill="#383534"/><path d="M273.568,120.445s4.436,23.9,6.914,32.967a2.731,2.731,0,0,1-2.07,3.394L250.7,162.678l-2.9-12.733,14.509-3.715Z" transform="translate(-96.879 -47.089)" fill="#12263f"/><rect width="0.542" height="10.722" transform="translate(165.612 89.483) rotate(-13.95)" fill="#383534"/><rect width="12.622" height="0.541" transform="matrix(0.928, -0.373, 0.373, 0.928, 160.765, 102.861)" fill="#383534"/><path d="M231.141,164.921H179.435l-2.11-30.15A1.758,1.758,0,0,1,179,132.829h52.574a1.757,1.757,0,0,1,1.676,1.942Z" transform="translate(-69.325 -51.931)" fill="#b3b3b3"/><path d="M225.543,161.878c0,1.493-2.877,2.7-6.425,2.7s-6.425-1.21-6.425-2.7,2.877-2.7,6.425-2.7,6.425,1.21,6.425,2.7" transform="translate(-83.154 -62.231)" fill="#d4d4d4"/><path d="M179,134.533h52.574a1.7,1.7,0,0,1,1.6,1.284l.073-1.047a1.758,1.758,0,0,0-1.676-1.942H179a1.757,1.757,0,0,0-1.676,1.942l.073,1.047a1.7,1.7,0,0,1,1.6-1.284" transform="translate(-69.325 -51.931)" fill="#d4d4d4"/><path d="M223.235,100.139s.188-3.784,9.249-3.787,9.035,2.323,9.035,2.323.893,5.245-3.329,8.248l-6.766-2.979-5.952,2.655s-2.425-3.124-2.238-6.459" transform="translate(-87.272 -37.67)" fill="#fff"/><path d="M240.239,86.876V96.75a1.026,1.026,0,0,1-.389.811c-1.148.9-4.73,3.092-9.279-.019a1.032,1.032,0,0,1-.439-.851V90.009Z" transform="translate(-89.973 -33.965)" fill="#fab39b"/><path d="M230.133,93.25c2.258.148,7.545-.06,10.106-4.791V86.875l-10.106,3.133Z" transform="translate(-89.973 -33.965)" fill="#de937a"/><path d="M219.613,51.462s-2.834,23.28,6.776,23.677c6.837.283,9.732-1.25,11.233-7.011,1.057-4.058,1.8-10.726.809-14.96-.407-1.734,1.783-4.042.51-5.288a15.147,15.147,0,0,0-11.747-3.827,8.265,8.265,0,0,0-7.581,7.409" transform="translate(-85.708 -17.185)" fill="#fab39b"/><path d="M234.94,58.145l-.706-7.79s-12.882,2.69-17.453-1.091c-9.286-7.678.26-17.008,14.769-7.776,3.352,2.132,6.227,2.97,7.365,3.648a3.011,3.011,0,0,1,1.467,2.281c.2,1.956.11,11.653-1.488,15.1Z" transform="translate(-83.315 -14.718)" fill="#704c44"/><path d="M254.429,73.216a3.443,3.443,0,1,1-2.7-4.34,3.623,3.623,0,0,1,2.7,4.34" transform="translate(-96.809 -26.908)" fill="#fab39b"/><path d="M252.75,75.057c-.259-.5-1.253-.635-1.614-.644l-.238-.005.063-.23a2.551,2.551,0,0,1,1.242-1.759,1.882,1.882,0,0,1,1.465-.029l-.15.34a1.53,1.53,0,0,0-1.161.026,2.059,2.059,0,0,0-.973,1.3c.446.046,1.378.214,1.695.828Z" transform="translate(-98.091 -28.248)" fill="#38261f"/><path d="M235.45,64.253c.339-.519,1.671-.193,2.411.121.931.4,1.742,1.124,1.633,1.342-.074.149-.506-.07-1.5-.136-1.345-.091-1.8.227-2.239-.141a1.032,1.032,0,0,1-.308-1.186" transform="translate(-92.017 -25.014)" fill="#704c44"/><path d="M223.291,63.958c-.382-.48-1.666-.035-2.366.345-.881.477-1.613,1.27-1.485,1.475.087.139.493-.116,1.464-.274,1.318-.215,1.8.056,2.194-.348a1.022,1.022,0,0,0,.193-1.2" transform="translate(-85.786 -24.923)" fill="#704c44"/><path d="M238,74.366H233.57a1.173,1.173,0,0,1-1.172-1.172V70.5a1.173,1.173,0,0,1,1.172-1.172H238a1.173,1.173,0,0,1,1.172,1.172v2.7A1.173,1.173,0,0,1,238,74.366m-4.434-4.5a.631.631,0,0,0-.63.63v2.7a.631.631,0,0,0,.63.63H238a.631.631,0,0,0,.63-.63V70.5a.631.631,0,0,0-.63-.63Z" transform="translate(-90.858 -27.104)" fill="#fff"/><path d="M221.511,74.366H218.16a1.173,1.173,0,0,1-1.172-1.172V70.5a1.173,1.173,0,0,1,1.172-1.172h3.352a1.173,1.173,0,0,1,1.172,1.172v2.7a1.173,1.173,0,0,1-1.172,1.172m-3.352-4.5a.631.631,0,0,0-.63.63v2.7a.631.631,0,0,0,.63.63h3.352a.631.631,0,0,0,.63-.63V70.5a.631.631,0,0,0-.63-.63Z" transform="translate(-84.834 -27.104)" fill="#fff"/><path d="M230.059,84.011a4.72,4.72,0,0,1-1.669-.365l.2-.421c.112.052,2.774,1.255,6.081-1.294l.286.369a7.306,7.306,0,0,1-4.9,1.711" transform="translate(-89.291 -32.032)" fill="#38261f"/><path d="M227.568,77.319a2.191,2.191,0,0,1-1.606-1.129c-.294-.714-.032-1.631.78-2.727l.375.278c-.7.94-.947,1.725-.724,2.269a1.752,1.752,0,0,0,1.247.847Z" transform="translate(-88.296 -28.721)" fill="#38261f"/><path d="M237.521,72.98c-.113.569-.473.978-.8.912s-.51-.58-.4-1.15.473-.978.8-.912.51.58.4,1.15" transform="translate(-92.378 -28.08)" fill="#38261f"/><path d="M222.875,72.749c-.1.519-.431.891-.733.831s-.464-.529-.362-1.048.431-.891.733-.831.464.529.362,1.048" transform="translate(-86.695 -28.03)" fill="#38261f"/><path d="M229.784,72.576c-2.336-1.678-3.9-.1-3.967-.033l-.392-.373a3.489,3.489,0,0,1,4.675-.034Z" transform="translate(-88.132 -27.864)" fill="#fff"/><rect width="3.922" height="0.541" transform="translate(147.958 44.236) rotate(-19.19)" fill="#fff"/><path d="M236.662,43.19A18.064,18.064,0,0,0,225.571,36.1a16.6,16.6,0,0,0-6.137.086l-.106-.531a17.123,17.123,0,0,1,6.336-.088,18.6,18.6,0,0,1,11.43,7.293Z" transform="translate(-85.748 -13.808)" fill="#704c44"/><path d="M226.865,83.14s-3.74,3.668-6.181-2.193c0,0-.678,5.866,2.442,9.106,2.073,2.153,12.147,2.918,14.879-1.207s1.551-11.691,1.551-11.691l-2.563.6a2.039,2.039,0,0,0-1.169,1.422c-.5,2.2-2.213,7.079-7.187,3.833Z" transform="translate(-86.254 -30.165)" fill="#704c44"/><path d="M223.209,93.3a7.692,7.692,0,0,1-3.16-3.576,6.792,6.792,0,0,1,.224-5.207l.481.249a6.31,6.31,0,0,0-.2,4.768,7.207,7.207,0,0,0,2.958,3.319Z" transform="translate(-85.87 -33.045)" fill="#704c44"/><path d="M315.985,1.171s9.513-4.716,15.749,4.783,13.517,31.075,13.517,31.075a117.694,117.694,0,0,1-33.9-3.788S306,16.61,306.844,8s9.141-6.828,9.141-6.828" transform="translate(-119.929 0)" fill="#704c44"/><path d="M365.17,195.075c.22-5.523-.209-10.593-1.932-13.624-5.466-9.615-18.86,3.176-18.86,3.176s.13,4.433.527,10.447Z" transform="translate(-134.638 -69.54)" fill="#fab39b"/><path d="M332.167,178.173a292.22,292.22,0,0,0,14.511-40.825l-23.959-2.71c-5.422,12.14-8.742,29.687-11.075,43.534Z" transform="translate(-121.84 -52.638)" fill="#fab39b"/><path d="M355.4,169.395c-1.564-14.6-4.753-43-6.191-45.779a23.808,23.808,0,0,0-12.141-11.43s-11.954,9.348-20.963,2.452v10.74s-8.529,23.816-10.962,44.017Z" transform="translate(-119.298 -43.86)" fill="#31313c"/><path d="M366.7,59.127h0a6.044,6.044,0,0,1,3.164,2.225c4.515,7.369,15.333,25.094,15.333,25.094L378.083,93.1,362.456,73.182s-7.182-8.366,4.243-14.055" transform="translate(-140.835 -23.116)" fill="#636363"/><path d="M297.341,55.464s-3.216,1.908-3.476,8.912-2.44,21.722-2.44,21.722L275.765,96.5s4.623,1.855,5.824,6.157l18.143-8.882a2.143,2.143,0,0,0,1.186-1.675l2.921-24.9Z" transform="translate(-107.813 -21.684)" fill="#636363"/><path d="M276.862,119.946l2.532-2.028a.2.2,0,0,1,.207-.026c.839.392,6.123,3.062,5.452,7.737a.209.209,0,0,1-.1.15l-2.765,1.607a.2.2,0,0,1-.291-.116c-.3-1.126-1.725-5.749-4.973-6.981a.2.2,0,0,1-.061-.342" transform="translate(-108.213 -46.084)" fill="#fff"/><path d="M307.153,109.624a6.757,6.757,0,0,0-5.671-3.764h0l0-.541a7.3,7.3,0,0,1,6.157,4.059Z" transform="translate(-117.865 -41.175)" fill="#383534"/><path d="M311.192,53.523s20.442-8.9,39.153,3.844L344.108,66.3s-.347,15.564-4.851,22.681c0,0-9.355,9.475-20.789,1.539,0,0-6.583-13.99-5.89-19.971Z" transform="translate(-121.664 -19.743)" fill="#636363"/><path d="M280.634,128.85a19.812,19.812,0,0,0,1.786-2.7c-.476-3.629-8.5-6.44-10.383-3.322a9.472,9.472,0,0,0-1.263,4.087c-.1,2.757,1.736,1.915,1.736,1.915s-.139,1.446.947,1.813c1.353.457,1.123-1.292,1.123-1.292s-.71,2.223.12,3.177c.709.815,1.586-.656,1.754-.822,0,0,.047,1.517,1.693.655,1.622-.85,2.015-2.581,2.488-3.515" transform="translate(-105.86 -47.496)" fill="#fab39b"/><path d="M273.721,129.949l-.533-.1.579-3.221a2.386,2.386,0,0,1,.3-.8l.963-1.613.465.278-.963,1.613a1.842,1.842,0,0,0-.23.619Z" transform="translate(-106.806 -48.565)" fill="#383534"/><path d="M276.727,132.549l-.518-.161,1.094-3.507a2.331,2.331,0,0,1,.359-.7l1.369-1.825.432.325-1.369,1.825a1.8,1.8,0,0,0-.275.541Z" transform="translate(-107.987 -49.398)" fill="#383534"/><path d="M280.194,134.766l-.509-.185,1.108-3.052a2.272,2.272,0,0,1,.345-.629l1.423-1.832.427.332-1.423,1.832a1.771,1.771,0,0,0-.263.481Z" transform="translate(-109.346 -50.461)" fill="#383534"/><path d="M287.709,126.923s1.28,2.958,2.517,3.089c3.03.32,2.144,1.44.826,1.812-.841.238-.918.037-2.194-.078a8.64,8.64,0,0,0-2.956.472Z" transform="translate(-111.776 -49.622)" fill="#fab39b"/><path d="M315,92.664l-1.707-2.892a5.322,5.322,0,0,1-3.177-3.279c-1.247-3.767,1.5-8.791,2.017-9.68l-2.4-4.806.484-.242,2.535,5.071-.077.128c-.034.054-3.309,5.539-2.043,9.36a4.827,4.827,0,0,0,2.952,2.982l.085.034,1.8,3.049Z" transform="translate(-121.091 -28.057)" fill="#383534"/><path d="M362.534,81.07c-.8-1.015-3-3.684-3.021-3.711l.417-.345c.023.027,2.229,2.7,3.03,3.721Z" transform="translate(-140.555 -30.109)" fill="#383534"/><path d="M328.2,38.084l.633,4.546s-2.842,2.6-1.283,3.509,5.19,1.827,10.647-3.811l-2.32-13.284Z" transform="translate(-127.876 -11.355)" fill="#fab39b"/><path d="M322.537,1.512c-13.078-.233-10.954,14.467-10.93,14.837.45,6.861,5.616,14.231,8.679,13.706,9.277-1.592,8.881-11,8.881-11,.094-.583,2.677-6.736,2.684-7.343.077-7.116-1.671-10.065-9.314-10.2" transform="translate(-121.77 -0.59)" fill="#fab39b"/><path d="M343.546,27.456a3.3,3.3,0,1,1-6.557-.354,3.3,3.3,0,1,1,6.557.354" transform="translate(-131.747 -9.244)" fill="#fab39b"/><path d="M342.055,29.527c-.307-.447-1.267-.455-1.612-.42l-.227.023.033-.226a2.444,2.444,0,0,1,.971-1.82,1.8,1.8,0,0,1,1.39-.2l-.1.342a1.464,1.464,0,0,0-1.1.163,1.974,1.974,0,0,0-.77,1.354,2.1,2.1,0,0,1,1.71.585Z" transform="translate(-133.011 -10.487)" fill="#38261f"/><path d="M340.351,32.9a1.034,1.034,0,1,1-.854,1.187,1.033,1.033,0,0,1,.854-1.187" transform="translate(-132.724 -12.857)" fill="#fff"/><path d="M314.117,6.119s1.733,8.639,12.871,6.941l.487,2.65,2.539-.855s3.2-6.8.053-10.9C328.073,1.361,323.742,1.035,323,.967a12.652,12.652,0,0,0-1.848-.032,13.01,13.01,0,0,0-7.479,2.36c-4.422,3.359-4.827,9.226-4.908,10.307,0,0,3.4,1.6,5.348-7.483" transform="translate(-120.716 -0.358)" fill="#704c44"/><path d="M324.468,36a4.16,4.16,0,0,1-1.5,0l.093-.4c.106.024,2.621.558,4.984-2.254l.315.264A6.426,6.426,0,0,1,324.468,36" transform="translate(-126.266 -13.037)" fill="#38261f"/><path d="M320.062,32.611a1.929,1.929,0,0,1-1.593-.669,2.552,2.552,0,0,1,.158-2.49l.374.168c-.422.939-.49,1.661-.2,2.087a1.542,1.542,0,0,0,1.23.495Z" transform="translate(-124.409 -11.515)" fill="#38261f"/><path d="M326.89,26.29c.01.51-.223.929-.52.935s-.548-.4-.557-.914.223-.929.52-.935.547.4.557.914" transform="translate(-127.38 -9.921)" fill="#38261f"/><path d="M315.1,27.962c.009.465-.2.847-.474.852s-.5-.367-.508-.833.2-.847.474-.852.5.367.508.833" transform="translate(-122.809 -10.606)" fill="#38261f"/><path d="M324.134,21.458a1.954,1.954,0,0,1,.469-.147,4.206,4.206,0,0,1,2.563.23c1.653.689-.524.22-1.7.311a7.762,7.762,0,0,1-.981.029,1.1,1.1,0,0,1-.452-.079c-.134-.073-.1-.171-.007-.264a.517.517,0,0,1,.11-.079" transform="translate(-126.648 -8.291)" fill="#704c44"/><path d="M313.162,23.429a.965.965,0,0,0-.32-.019,2.488,2.488,0,0,0-1.609.746c-.965.927.365.068,1.13-.113a4.287,4.287,0,0,0,.632-.19.7.7,0,0,0,.278-.163.135.135,0,0,0-.031-.219.277.277,0,0,0-.08-.041" transform="translate(-121.548 -9.151)" fill="#704c44"/><path d="M335.052,37.566a9.459,9.459,0,0,1-5.653,5.953l.283,2.027c4.813-1.908,5.37-7.981,5.37-7.981" transform="translate(-128.782 -14.687)" fill="#de937a"/><path d="M337.185,96.2a8.8,8.8,0,0,1-2.077-.225l.144-.522c.295.082,7.259,1.9,10.418-6.058l.5.2c-2.253,5.67-6.461,6.6-8.988,6.6" transform="translate(-131.014 -34.95)" fill="#383534"/><path d="M378.824,95.309s-10.846,4.162-16.668,5.05l4.6,6.416s.242.487,4.735,1.37c7.933,1.559,14.242.97,15.52-3.24,1.544-5.089-8.192-9.6-8.192-9.6" transform="translate(-141.589 -37.262)" fill="#636363"/><path d="M356.29,112.866c.3-.052,3.466-1.759,3.651-2.266.242-.663,1.959-6.976-5.538-6.6-2.269.113-6.238,2.414-6.684,2.7-2.244,1.417-.521,2.148-.521,2.148s-2.369.945-1.957,1.886c.513,1.173,3.313-.081,3.313-.081s-2.126.911-1.428,1.86c.577.785,3.079-.169,3.319-.144,0,0-.847,1.208,1.055,1.394,1.5.146,3.746-.713,4.791-.892" transform="translate(-134.956 -40.653)" fill="#fab39b"/><path d="M348.521,110.511l-.21-.5,5.725-2.4.21.5Z" transform="translate(-136.176 -42.071)" fill="#383534"/><rect width="5.86" height="0.542" transform="matrix(0.918, -0.396, 0.396, 0.918, 213.491, 69.749)" fill="#383534"/><rect width="4.627" height="0.542" transform="translate(215.391 71.46) rotate(-21.024)" fill="#383534"/><path d="M360.864,101.289a8.368,8.368,0,0,1-3.518-2.743c-1.759-2.6-2.642-2.767-2.724-1.73a3.232,3.232,0,0,0,.622,2.292c1.112,1.3-.313,2.924-.313,2.924s5.405.064,5.933-.742" transform="translate(-138.638 -37.618)" fill="#fab39b"/><path d="M387.251,99.543c-6.252-3.221-9.666-.665-9.7-.639l-.334-.426c.148-.116,3.7-2.806,10.282.584Z" transform="translate(-147.477 -38.062)" fill="#383534"/><path d="M339.727,48.96l-.195.041a17.9,17.9,0,0,0-8.537,4.45,5.925,5.925,0,0,1,4.917,3.3l8.4-7.064s-.5-3.683-5.1-3.678Z" transform="translate(-129.406 -17.986)" fill="#fff"/><path d="M327.576,54.3l-.632-4.189-.288-1.934s-5,2.783-4.347,7.687c0,0,2.983-2.62,5.266-1.565" transform="translate(-125.988 -18.835)" fill="#fff"/><path d="M362.27,101.93l2.945-1.359a.194.194,0,0,1,.207.024c.72.582,5.207,4.444,3.431,8.821a.209.209,0,0,1-.134.121l-3.07.894a.2.2,0,0,1-.255-.183c-.023-1.166-.291-5.995-3.148-7.973a.2.2,0,0,1,.023-.346" transform="translate(-141.589 -39.312)" fill="#fff"/><path d="M305.534,8.909a6.664,6.664,0,0,1,2.587-7.041,8.388,8.388,0,0,1,9.775.351l-.329.43a7.836,7.836,0,0,0-9.13-.342A6.126,6.126,0,0,0,306.06,8.78Z" transform="translate(-119.374 -0.181)" fill="#704c44"/><path d="M351.476,32.71c-1.367-3.275-2.852-6.564-4.411-9.774C340.511,9.452,337.6,7.558,336.506,6.846a19.38,19.38,0,0,0-11.451-2.815l-.019-.541a19.934,19.934,0,0,1,11.764,2.9c1.13.736,4.131,2.688,10.75,16.307,1.565,3.219,3.053,6.517,4.424,9.8Z" transform="translate(-127.076 -1.358)" fill="#704c44"/><path d="M128.785,202.236l.329-6.048h-8.563v6.048Z" transform="translate(-47.131 -76.702)" fill="#96665b"/><path d="M387.489,202.236v-6.048h-8.563l.329,6.048Z" transform="translate(-148.145 -76.702)" fill="#96665b"/><path d="M405.6,203.627v-3.883h-9.885l.227,3.883Z" transform="translate(-154.71 -78.092)" fill="#96665b"/><path d="M111.082,203.627l.227-3.883h-9.884v3.883Z" transform="translate(-39.653 -78.092)" fill="#96665b"/><rect width="189.122" height="11.549" transform="translate(61.772 112.99)" fill="#31313c"/><path d="M134.324,182.735c-.049-.357.472-3.638.216-3.921-2.9-3.207-12.591-.543-12.325,3.754a11.2,11.2,0,0,0,1.521,4.821c1.757,2.746,2.975.695,2.975.695s.837,1.5,2.14,1.125c1.622-.465.223-2.011.223-2.011s.8,2.638,2.253,3.007c1.237.315,1.1-1.7,1.152-1.978,0,0,1.415,1.59,2.085-.5.5-1.569-.071-3.764-.239-4.99" transform="translate(-47.779 -69.355)" fill="#fab39b"/><path d="M128.009,191l-1.6-3.518a2.754,2.754,0,0,1-.245-.962l.083-1.945.541.023-.083,1.915a2.279,2.279,0,0,0,.2.744l1.6,3.518Z" transform="translate(-49.324 -72.163)" fill="#383534"/><path d="M133.1,190.847l-1.295-4.145a2.684,2.684,0,0,1-.124-.909l.1-2.694.541.021-.1,2.694a2.166,2.166,0,0,0,.1.725l1.295,4.145Z" transform="translate(-51.482 -71.584)" fill="#383534"/><path d="M137.956,190.62l-.975-3.711a2.69,2.69,0,0,1-.086-.827l.151-2.738.541.03-.151,2.737a2.116,2.116,0,0,0,.069.66l.975,3.711Z" transform="translate(-53.519 -71.68)" fill="#383534"/><path d="M139.867,178.063a17.074,17.074,0,0,1,3.57,1.381,6.656,6.656,0,0,0,3.465,1.105c1.992-.13,2.3,1.45-.252,1.94-1.937.372-2.822-.269-3.645-.182a5.08,5.08,0,0,0-1.777.689Z" transform="translate(-54.682 -69.616)" fill="#fab39b"/><path d="M128.785,205.48l.054-1h-8.288v1Z" transform="translate(-47.131 -79.945)" fill="#704c44"/><path d="M387.666,205.48v-1h-8.288l.054,1Z" transform="translate(-148.322 -79.945)" fill="#704c44"/><path d="M405.712,205.48v-1H396l.058,1Z" transform="translate(-154.819 -79.945)" fill="#704c44"/><path d="M111.082,205.48l.058-1h-9.715v1Z" transform="translate(-39.653 -79.945)" fill="#704c44"/><rect width="34.762" height="9.237" transform="translate(212.608 103.753)" fill="#dc49f8"/><path d="M357.4,176.59a2.1,2.1,0,1,1-2.1-2.1,2.1,2.1,0,0,1,2.1,2.1" transform="translate(-138.087 -68.219)" fill="#383534"/><path d="M2.1-.5A2.6,2.6,0,1,1-.5,2.1,2.6,2.6,0,0,1,2.1-.5Zm0,4.2A1.6,1.6,0,1,0,.5,2.1,1.6,1.6,0,0,0,2.1,3.7Z" transform="translate(215.114 106.271)" fill="#fff"/><rect width="7.028" height="2.777" transform="translate(237.005 106.928)" fill="#fff"/><rect width="34.762" height="9.237" transform="translate(212.608 85.279)" fill="#ffd117"/><path d="M357.4,146.257a2.1,2.1,0,1,1-2.1-2.1,2.1,2.1,0,0,1,2.1,2.1" transform="translate(-138.087 -56.36)" fill="#383534"/><path d="M2.1-.5A2.6,2.6,0,1,1-.5,2.1,2.6,2.6,0,0,1,2.1-.5Zm0,4.2A1.6,1.6,0,1,0,.5,2.1,1.6,1.6,0,0,0,2.1,3.7Z" transform="translate(215.114 87.797)" fill="#fff"/><rect width="7.028" height="2.777" transform="translate(237.005 88.454)" fill="#fff"/><rect width="34.762" height="9.237" transform="translate(207.008 94.516)" fill="#91b3fa"/><path d="M348.207,161.424a2.1,2.1,0,1,1-2.1-2.1,2.1,2.1,0,0,1,2.1,2.1" transform="translate(-134.493 -62.289)" fill="#383534"/><path d="M2.1-.5A2.6,2.6,0,1,1-.5,2.1,2.6,2.6,0,0,1,2.1-.5Zm0,4.2A1.6,1.6,0,1,0,.5,2.1,1.6,1.6,0,0,0,2.1,3.7Z" transform="translate(209.514 97.034)" fill="#fff"/><rect width="7.028" height="2.777" transform="translate(231.406 97.691)" fill="#fff"/></g></g></g></svg>