<svg xmlns="http://www.w3.org/2000/svg" xmlns:xlink="http://www.w3.org/1999/xlink" width="127.457" height="103.475" viewBox="0 0 127.457 103.475"><defs><clipPath id="a"><rect width="108.697" height="55.452" fill="#9000f9"/></clipPath><clipPath id="b"><rect width="127.457" height="99.656" transform="translate(0 20)" fill="none"/></clipPath><clipPath id="c"><rect width="127.457" height="119.656" fill="none"/></clipPath><clipPath id="d"><rect width="97.846" height="59.776" fill="none"/></clipPath><clipPath id="e"><rect width="28.112" height="21.198" fill="none"/></clipPath><clipPath id="g"><rect width="15.419" height="16.586" fill="none"/></clipPath><clipPath id="h"><rect width="8.357" height="15.29" fill="none"/></clipPath><clipPath id="i"><rect width="21.26" height="24.241" fill="none"/></clipPath><clipPath id="j"><rect width="33.591" height="19.886" fill="none"/></clipPath><clipPath id="k"><rect width="23.525" height="13.595" fill="none"/></clipPath><clipPath id="l"><rect width="17.714" height="9.388" fill="none"/></clipPath><clipPath id="m"><rect width="19.411" height="15.91" fill="none"/></clipPath><clipPath id="n"><path d="M25.181,26.936c-6.243,3.628-9.368,8.387-9.383,13.157l-.014,5.063C15.8,40.387,18.923,35.627,25.168,32c12.574-7.307,33.1-7.3,45.748,0,6.366,3.676,9.548,8.513,9.533,13.342l.014-5.064c.014-4.829-3.167-9.666-9.534-13.341-6.326-3.653-14.62-5.48-22.9-5.48s-16.557,1.827-22.843,5.48" transform="translate(-15.784 -21.456)" fill="none"/></clipPath><linearGradient id="o" x1="-0.292" y1="3.935" x2="-0.273" y2="3.935" gradientUnits="objectBoundingBox"><stop offset="0" stop-color="#cb89f0"/><stop offset="1" stop-color="#8b3dce"/></linearGradient><clipPath id="p"><path d="M25.179,29.858c-12.568,7.3-12.5,19.193.15,26.5s33.178,7.3,45.749,0,12.5-19.195-.151-26.5c-6.326-3.652-14.621-5.479-22.9-5.48S31.466,26.2,25.179,29.858" transform="translate(-15.796 -24.378)" fill="none"/></clipPath><clipPath id="r"><rect width="64.665" height="37.456" fill="none"/></clipPath><clipPath id="s"><rect width="64.651" height="19.916" fill="none"/></clipPath><clipPath id="t"><path d="M25.179,30.31c12.574-7.308,33.1-7.3,45.746,0,5.85,3.377,9,7.734,9.469,12.165.535-5.186-2.62-10.482-9.469-14.436-12.651-7.3-33.172-7.308-45.746,0-6.759,3.927-9.857,9.179-9.318,14.333.452-4.4,3.552-8.711,9.318-12.062" transform="translate(-15.801 -22.559)" fill="none"/></clipPath><linearGradient id="u" x1="-0.281" y1="4.347" x2="-0.263" y2="4.347" xlink:href="#o"/><clipPath id="v"><path d="M15.3,42.1c-.013,4.917,3.224,9.841,9.706,13.582,12.879,7.436,33.771,7.436,46.567,0,6.36-3.7,9.543-8.543,9.557-13.4l.014-5.063c-.014,4.853-3.2,9.7-9.557,13.4-12.8,7.437-33.688,7.437-46.567,0-6.482-3.741-9.719-8.665-9.7-13.58Z" transform="translate(-15.298 -37.033)" fill="none"/></clipPath><linearGradient id="w" x1="-0.278" y1="2.889" x2="-0.26" y2="2.889" gradientUnits="objectBoundingBox"><stop offset="0" stop-color="#8b3dce"/><stop offset="1" stop-color="#cb89f0"/></linearGradient><clipPath id="x"><path d="M25.423,53.488c-12.651-7.3-12.718-19.193-.15-26.5s33.1-7.306,45.748,0,12.724,19.19.151,26.5c-6.285,3.653-14.56,5.479-22.844,5.479s-16.578-1.826-22.9-5.479m-.56-26.735c-12.8,7.436-12.727,19.538.152,26.973s33.771,7.437,46.567,0,12.733-19.54-.147-26.976c-6.44-3.718-14.88-5.577-23.313-5.576s-16.858,1.86-23.258,5.58" transform="translate(-15.311 -21.174)" fill="none"/></clipPath><linearGradient id="y" x1="-0.208" y1="2.31" x2="-0.192" y2="2.31" gradientUnits="objectBoundingBox"><stop offset="0" stop-color="#f5abff"/><stop offset="0.456" stop-color="#ffc5ff"/><stop offset="1" stop-color="#ffdeff"/></linearGradient><clipPath id="z"><path d="M71.817,54.71l.007,0-.007,0m-.025-.007.012,0-.012,0m-.028-.007.019,0-.019,0m-.023-.006.022,0-.022,0m-.045-.01.044.01-.044-.01M59.349,51.61a3.154,3.154,0,0,0-.727,1.761.877.877,0,0,0,.415.813l8.839,5.082a1.025,1.025,0,0,0,.311.112c.969.184,2.54-.718,3.509-2.012a3.154,3.154,0,0,0,.727-1.761.876.876,0,0,0-.439-.828L63.169,49.71a.979.979,0,0,0-.311-.112,1.475,1.475,0,0,0-.267-.024,4.808,4.808,0,0,0-3.242,2.036" transform="translate(-58.622 -49.574)" fill="none"/></clipPath><linearGradient id="aa" x1="-4.453" y1="3.767" x2="-4.376" y2="3.767" gradientUnits="objectBoundingBox"><stop offset="0" stop-color="#ffdefa"/><stop offset="0.517" stop-color="#ffbbfa"/><stop offset="0.764" stop-color="#f1adf6"/><stop offset="1" stop-color="#e09df1"/></linearGradient><clipPath id="ac"><rect width="5.617" height="3.361" fill="none"/></clipPath><clipPath id="ad"><path d="M90.625,70.241c1.3-1.266,3.9-3.309,5.617-3.222-1.536-.663-4.649,1.159-5.617,3.222" transform="translate(-90.625 -66.881)" fill="none"/></clipPath><radialGradient id="ae" cx="0.5" cy="0.385" r="1.116" gradientTransform="matrix(0.692, 0, 0, -1, -5.953, 20.683)" gradientUnits="objectBoundingBox"><stop offset="0" stop-color="#ffec3d"/><stop offset="0.217" stop-color="#e53dff"/><stop offset="0.261" stop-color="#c735de"/><stop offset="0.34" stop-color="#9928aa"/><stop offset="0.422" stop-color="#701d7c"/><stop offset="0.505" stop-color="#4d1456"/><stop offset="0.592" stop-color="#310d37"/><stop offset="0.681" stop-color="#1b071e"/><stop offset="0.775" stop-color="#0c030d"/><stop offset="0.877" stop-color="#020003"/><stop offset="1"/></radialGradient></defs><g transform="translate(-378 -2589.644)"><g transform="translate(386.301 2597.461)" clip-path="url(#a)"><path d="M51.754,81.718A29.963,29.963,0,1,1,81.718,51.754,30,30,0,0,1,51.754,81.718m0,21.791A51.754,51.754,0,1,0,0,51.754,51.754,51.754,0,0,0,51.754,103.509Z" transform="translate(2.245 3.698)" fill="#91b3fa"/></g><g transform="translate(426.18 2624.299)"><path d="M34.41,0A34.41,34.41,0,1,1,0,34.41,34.41,34.41,0,0,1,34.41,0Z" transform="translate(0 0)" fill="#31313c" opacity="0.444" style="mix-blend-mode:multiply;isolation:isolate"/><g transform="translate(13.435 14.225)"><path d="M415.149,50.671a.468.468,0,1,1-.468-.447A.457.457,0,0,1,415.149,50.671Z" transform="translate(-414.214 -50.224)" fill="#fff"/><path d="M423.595,50.671a.468.468,0,1,1-.467-.447A.457.457,0,0,1,423.595,50.671Z" transform="translate(-418.455 -50.224)" fill="#fff"/><path d="M432.04,50.671a.468.468,0,1,1-.467-.447A.457.457,0,0,1,432.04,50.671Z" transform="translate(-422.696 -50.224)" fill="#fff"/><path d="M440.488,50.671a.468.468,0,1,1-.468-.447A.457.457,0,0,1,440.488,50.671Z" transform="translate(-426.938 -50.224)" fill="#fff"/><path d="M448.934,50.671a.468.468,0,1,1-.467-.447A.457.457,0,0,1,448.934,50.671Z" transform="translate(-431.178 -50.224)" fill="#fff"/><path d="M457.379,50.671a.468.468,0,1,1-.467-.447A.457.457,0,0,1,457.379,50.671Z" transform="translate(-435.419 -50.224)" fill="#fff"/><path d="M465.827,50.671a.468.468,0,1,1-.467-.447A.458.458,0,0,1,465.827,50.671Z" transform="translate(-439.661 -50.224)" fill="#fff"/><path d="M474.273,50.671a.468.468,0,1,1-.467-.447A.457.457,0,0,1,474.273,50.671Z" transform="translate(-443.902 -50.224)" fill="#fff"/><path d="M482.719,50.671a.468.468,0,1,1-.467-.447A.457.457,0,0,1,482.719,50.671Z" transform="translate(-448.143 -50.224)" fill="#fff"/><path d="M491.165,50.671a.468.468,0,1,1-.467-.447A.458.458,0,0,1,491.165,50.671Z" transform="translate(-452.384 -50.224)" fill="#fff"/><path d="M499.612,50.671a.468.468,0,1,1-.468-.447A.457.457,0,0,1,499.612,50.671Z" transform="translate(-456.625 -50.224)" fill="#fff"/><g transform="translate(0 3.575)"><path d="M415.149,58.179a.468.468,0,1,1-.468-.447A.457.457,0,0,1,415.149,58.179Z" transform="translate(-414.214 -57.732)" fill="#fff"/><path d="M423.595,58.179a.468.468,0,1,1-.467-.447A.457.457,0,0,1,423.595,58.179Z" transform="translate(-418.455 -57.732)" fill="#fff"/><path d="M432.04,58.179a.468.468,0,1,1-.467-.447A.457.457,0,0,1,432.04,58.179Z" transform="translate(-422.696 -57.732)" fill="#fff"/><path d="M440.488,58.179a.468.468,0,1,1-.468-.447A.457.457,0,0,1,440.488,58.179Z" transform="translate(-426.938 -57.732)" fill="#fff"/><path d="M448.934,58.179a.468.468,0,1,1-.467-.447A.457.457,0,0,1,448.934,58.179Z" transform="translate(-431.178 -57.732)" fill="#fff"/><path d="M457.379,58.179a.468.468,0,1,1-.467-.447A.457.457,0,0,1,457.379,58.179Z" transform="translate(-435.419 -57.732)" fill="#fff"/><path d="M465.827,58.179a.468.468,0,1,1-.467-.447A.458.458,0,0,1,465.827,58.179Z" transform="translate(-439.661 -57.732)" fill="#fff"/><path d="M474.273,58.179a.468.468,0,1,1-.467-.447A.457.457,0,0,1,474.273,58.179Z" transform="translate(-443.902 -57.732)" fill="#fff"/><path d="M482.719,58.179a.468.468,0,1,1-.467-.447A.457.457,0,0,1,482.719,58.179Z" transform="translate(-448.143 -57.732)" fill="#fff"/><path d="M491.165,58.179a.468.468,0,1,1-.467-.447A.458.458,0,0,1,491.165,58.179Z" transform="translate(-452.384 -57.732)" fill="#fff"/><path d="M499.612,58.179a.468.468,0,1,1-.468-.447A.457.457,0,0,1,499.612,58.179Z" transform="translate(-456.625 -57.732)" fill="#fff"/></g><g transform="translate(0 7.149)"><ellipse cx="0.467" cy="0.447" rx="0.467" ry="0.447" fill="#fff"/><path d="M423.595,65.687a.468.468,0,1,1-.467-.447A.458.458,0,0,1,423.595,65.687Z" transform="translate(-418.455 -65.24)" fill="#fff"/><ellipse cx="0.467" cy="0.447" rx="0.467" ry="0.447" transform="translate(8.41)" fill="#fff"/><path d="M440.488,65.687a.468.468,0,1,1-.468-.447A.458.458,0,0,1,440.488,65.687Z" transform="translate(-426.937 -65.24)" fill="#fff"/><path d="M448.934,65.687a.468.468,0,1,1-.467-.447A.458.458,0,0,1,448.934,65.687Z" transform="translate(-431.178 -65.24)" fill="#fff"/><ellipse cx="0.467" cy="0.447" rx="0.467" ry="0.447" transform="translate(21.026)" fill="#fff"/><path d="M465.827,65.687a.468.468,0,1,1-.467-.447A.458.458,0,0,1,465.827,65.687Z" transform="translate(-439.661 -65.24)" fill="#fff"/><ellipse cx="0.467" cy="0.447" rx="0.467" ry="0.447" transform="translate(29.436)" fill="#fff"/><ellipse cx="0.467" cy="0.447" rx="0.467" ry="0.447" transform="translate(33.642)" fill="#fff"/><path d="M491.165,65.687a.468.468,0,1,1-.467-.447A.458.458,0,0,1,491.165,65.687Z" transform="translate(-452.384 -65.24)" fill="#fff"/><path d="M499.612,65.687a.468.468,0,1,1-.468-.447A.458.458,0,0,1,499.612,65.687Z" transform="translate(-456.625 -65.24)" fill="#fff"/></g><g transform="translate(0 10.724)"><ellipse cx="0.467" cy="0.447" rx="0.467" ry="0.447" transform="translate(0 0)" fill="#fff"/><path d="M423.595,73.194a.468.468,0,1,1-.467-.447A.457.457,0,0,1,423.595,73.194Z" transform="translate(-418.455 -72.747)" fill="#fff"/><ellipse cx="0.467" cy="0.447" rx="0.467" ry="0.447" transform="translate(8.41 0)" fill="#fff"/><path d="M440.488,73.194a.468.468,0,1,1-.468-.447A.457.457,0,0,1,440.488,73.194Z" transform="translate(-426.937 -72.747)" fill="#fff"/><path d="M448.934,73.194a.468.468,0,1,1-.467-.447A.457.457,0,0,1,448.934,73.194Z" transform="translate(-431.178 -72.747)" fill="#fff"/><ellipse cx="0.467" cy="0.447" rx="0.467" ry="0.447" transform="translate(21.026 0)" fill="#fff"/><path d="M465.827,73.194a.468.468,0,1,1-.467-.447A.458.458,0,0,1,465.827,73.194Z" transform="translate(-439.661 -72.747)" fill="#fff"/><ellipse cx="0.467" cy="0.447" rx="0.467" ry="0.447" transform="translate(29.436 0)" fill="#fff"/><ellipse cx="0.467" cy="0.447" rx="0.467" ry="0.447" transform="translate(33.642 0)" fill="#fff"/><path d="M491.165,73.194a.468.468,0,1,1-.467-.447A.458.458,0,0,1,491.165,73.194Z" transform="translate(-452.384 -72.747)" fill="#fff"/><path d="M499.612,73.194a.468.468,0,1,1-.468-.447A.457.457,0,0,1,499.612,73.194Z" transform="translate(-456.625 -72.747)" fill="#fff"/></g><g transform="translate(0 14.299)"><path d="M415.149,80.7a.468.468,0,1,1-.468-.447A.457.457,0,0,1,415.149,80.7Z" transform="translate(-414.214 -80.255)" fill="#fff"/><path d="M423.595,80.7a.468.468,0,1,1-.467-.447A.457.457,0,0,1,423.595,80.7Z" transform="translate(-418.455 -80.255)" fill="#fff"/><path d="M432.04,80.7a.468.468,0,1,1-.467-.447A.457.457,0,0,1,432.04,80.7Z" transform="translate(-422.696 -80.255)" fill="#fff"/><path d="M440.488,80.7a.468.468,0,1,1-.468-.447A.457.457,0,0,1,440.488,80.7Z" transform="translate(-426.938 -80.255)" fill="#fff"/><path d="M448.934,80.7a.468.468,0,1,1-.467-.447A.457.457,0,0,1,448.934,80.7Z" transform="translate(-431.178 -80.255)" fill="#fff"/><path d="M457.379,80.7a.468.468,0,1,1-.467-.447A.457.457,0,0,1,457.379,80.7Z" transform="translate(-435.419 -80.255)" fill="#fff"/><path d="M465.827,80.7a.468.468,0,1,1-.467-.447A.458.458,0,0,1,465.827,80.7Z" transform="translate(-439.661 -80.255)" fill="#fff"/><path d="M474.273,80.7a.468.468,0,1,1-.467-.447A.457.457,0,0,1,474.273,80.7Z" transform="translate(-443.902 -80.255)" fill="#fff"/><path d="M482.719,80.7a.468.468,0,1,1-.467-.447A.457.457,0,0,1,482.719,80.7Z" transform="translate(-448.143 -80.255)" fill="#fff"/><path d="M491.165,80.7a.468.468,0,1,1-.467-.447A.458.458,0,0,1,491.165,80.7Z" transform="translate(-452.384 -80.255)" fill="#fff"/><path d="M499.612,80.7a.468.468,0,1,1-.468-.447A.457.457,0,0,1,499.612,80.7Z" transform="translate(-456.625 -80.255)" fill="#fff"/></g><g transform="translate(0 17.873)"><ellipse cx="0.467" cy="0.447" rx="0.467" ry="0.447" transform="translate(0 0)" fill="#fff"/><path d="M423.595,88.21a.468.468,0,1,1-.467-.447A.457.457,0,0,1,423.595,88.21Z" transform="translate(-418.455 -87.763)" fill="#fff"/><ellipse cx="0.467" cy="0.447" rx="0.467" ry="0.447" transform="translate(8.41 0)" fill="#fff"/><path d="M440.488,88.21a.468.468,0,1,1-.468-.447A.457.457,0,0,1,440.488,88.21Z" transform="translate(-426.937 -87.763)" fill="#fff"/><path d="M448.934,88.21a.468.468,0,1,1-.467-.447A.457.457,0,0,1,448.934,88.21Z" transform="translate(-431.178 -87.763)" fill="#fff"/><ellipse cx="0.467" cy="0.447" rx="0.467" ry="0.447" transform="translate(21.026 0)" fill="#fff"/><path d="M465.827,88.21a.468.468,0,1,1-.467-.447A.458.458,0,0,1,465.827,88.21Z" transform="translate(-439.661 -87.763)" fill="#fff"/><ellipse cx="0.467" cy="0.447" rx="0.467" ry="0.447" transform="translate(29.436 0)" fill="#fff"/><ellipse cx="0.467" cy="0.447" rx="0.467" ry="0.447" transform="translate(33.642 0)" fill="#fff"/><path d="M491.165,88.21a.468.468,0,1,1-.467-.447A.458.458,0,0,1,491.165,88.21Z" transform="translate(-452.384 -87.763)" fill="#fff"/><path d="M499.612,88.21a.468.468,0,1,1-.468-.447A.457.457,0,0,1,499.612,88.21Z" transform="translate(-456.625 -87.763)" fill="#fff"/></g><g transform="translate(0 21.448)"><ellipse cx="0.467" cy="0.447" rx="0.467" ry="0.447" fill="#fff"/><path d="M423.595,95.718a.468.468,0,1,1-.467-.447A.457.457,0,0,1,423.595,95.718Z" transform="translate(-418.455 -95.271)" fill="#fff"/><ellipse cx="0.467" cy="0.447" rx="0.467" ry="0.447" transform="translate(8.41)" fill="#fff"/><path d="M440.488,95.718a.468.468,0,1,1-.468-.447A.457.457,0,0,1,440.488,95.718Z" transform="translate(-426.937 -95.271)" fill="#fff"/><path d="M448.934,95.718a.468.468,0,1,1-.467-.447A.457.457,0,0,1,448.934,95.718Z" transform="translate(-431.178 -95.271)" fill="#fff"/><ellipse cx="0.467" cy="0.447" rx="0.467" ry="0.447" transform="translate(21.026)" fill="#fff"/><path d="M465.827,95.718a.468.468,0,1,1-.467-.447A.458.458,0,0,1,465.827,95.718Z" transform="translate(-439.661 -95.271)" fill="#fff"/><ellipse cx="0.467" cy="0.447" rx="0.467" ry="0.447" transform="translate(29.436)" fill="#fff"/><ellipse cx="0.467" cy="0.447" rx="0.467" ry="0.447" transform="translate(33.642)" fill="#fff"/><path d="M491.165,95.718a.468.468,0,1,1-.467-.447A.458.458,0,0,1,491.165,95.718Z" transform="translate(-452.384 -95.271)" fill="#fff"/><path d="M499.612,95.718a.468.468,0,1,1-.468-.447A.457.457,0,0,1,499.612,95.718Z" transform="translate(-456.625 -95.271)" fill="#fff"/></g><g transform="translate(0 25.023)"><path d="M415.149,103.226a.468.468,0,1,1-.468-.447A.457.457,0,0,1,415.149,103.226Z" transform="translate(-414.214 -102.779)" fill="#fff"/><path d="M423.595,103.226a.468.468,0,1,1-.467-.447A.457.457,0,0,1,423.595,103.226Z" transform="translate(-418.455 -102.779)" fill="#fff"/><path d="M432.04,103.226a.468.468,0,1,1-.467-.447A.457.457,0,0,1,432.04,103.226Z" transform="translate(-422.696 -102.779)" fill="#fff"/><path d="M440.488,103.226a.468.468,0,1,1-.468-.447A.457.457,0,0,1,440.488,103.226Z" transform="translate(-426.938 -102.779)" fill="#fff"/><path d="M448.934,103.226a.468.468,0,1,1-.467-.447A.457.457,0,0,1,448.934,103.226Z" transform="translate(-431.178 -102.779)" fill="#fff"/><path d="M457.379,103.226a.468.468,0,1,1-.467-.447A.457.457,0,0,1,457.379,103.226Z" transform="translate(-435.419 -102.779)" fill="#fff"/><path d="M465.827,103.226a.468.468,0,1,1-.467-.447A.458.458,0,0,1,465.827,103.226Z" transform="translate(-439.661 -102.779)" fill="#fff"/><path d="M474.273,103.226a.468.468,0,1,1-.467-.447A.457.457,0,0,1,474.273,103.226Z" transform="translate(-443.902 -102.779)" fill="#fff"/><path d="M482.719,103.226a.468.468,0,1,1-.467-.447A.457.457,0,0,1,482.719,103.226Z" transform="translate(-448.143 -102.779)" fill="#fff"/><path d="M491.165,103.226a.468.468,0,1,1-.467-.447A.458.458,0,0,1,491.165,103.226Z" transform="translate(-452.384 -102.779)" fill="#fff"/><path d="M499.612,103.226a.468.468,0,1,1-.468-.447A.457.457,0,0,1,499.612,103.226Z" transform="translate(-456.625 -102.779)" fill="#fff"/></g><g transform="translate(0 28.598)"><ellipse cx="0.467" cy="0.447" rx="0.467" ry="0.447" fill="#fff"/><path d="M423.595,110.734a.468.468,0,1,1-.467-.447A.458.458,0,0,1,423.595,110.734Z" transform="translate(-418.455 -110.287)" fill="#fff"/><ellipse cx="0.467" cy="0.447" rx="0.467" ry="0.447" transform="translate(8.41)" fill="#fff"/><path d="M440.488,110.734a.468.468,0,1,1-.468-.447A.458.458,0,0,1,440.488,110.734Z" transform="translate(-426.937 -110.287)" fill="#fff"/><path d="M448.934,110.734a.468.468,0,1,1-.467-.447A.458.458,0,0,1,448.934,110.734Z" transform="translate(-431.178 -110.287)" fill="#fff"/><ellipse cx="0.467" cy="0.447" rx="0.467" ry="0.447" transform="translate(21.026)" fill="#fff"/><path d="M465.827,110.734a.468.468,0,1,1-.467-.447A.458.458,0,0,1,465.827,110.734Z" transform="translate(-439.661 -110.287)" fill="#fff"/><ellipse cx="0.467" cy="0.447" rx="0.467" ry="0.447" transform="translate(29.436)" fill="#fff"/><ellipse cx="0.467" cy="0.447" rx="0.467" ry="0.447" transform="translate(33.642)" fill="#fff"/><path d="M491.165,110.734a.468.468,0,1,1-.467-.447A.458.458,0,0,1,491.165,110.734Z" transform="translate(-452.384 -110.287)" fill="#fff"/><path d="M499.612,110.734a.468.468,0,1,1-.468-.447A.458.458,0,0,1,499.612,110.734Z" transform="translate(-456.625 -110.287)" fill="#fff"/></g><g transform="translate(0 32.172)"><path d="M415.149,118.241a.468.468,0,1,1-.468-.447A.458.458,0,0,1,415.149,118.241Z" transform="translate(-414.214 -117.794)" fill="#fff"/><path d="M423.595,118.241a.468.468,0,1,1-.467-.447A.458.458,0,0,1,423.595,118.241Z" transform="translate(-418.455 -117.794)" fill="#fff"/><path d="M432.04,118.241a.468.468,0,1,1-.467-.447A.458.458,0,0,1,432.04,118.241Z" transform="translate(-422.696 -117.794)" fill="#fff"/><path d="M440.488,118.241a.468.468,0,1,1-.468-.447A.458.458,0,0,1,440.488,118.241Z" transform="translate(-426.938 -117.794)" fill="#fff"/><path d="M448.934,118.241a.468.468,0,1,1-.467-.447A.458.458,0,0,1,448.934,118.241Z" transform="translate(-431.178 -117.794)" fill="#fff"/><path d="M457.379,118.241a.468.468,0,1,1-.467-.447A.457.457,0,0,1,457.379,118.241Z" transform="translate(-435.419 -117.794)" fill="#fff"/><path d="M465.827,118.241a.468.468,0,1,1-.467-.447A.458.458,0,0,1,465.827,118.241Z" transform="translate(-439.661 -117.794)" fill="#fff"/><path d="M474.273,118.241a.468.468,0,1,1-.467-.447A.458.458,0,0,1,474.273,118.241Z" transform="translate(-443.902 -117.794)" fill="#fff"/><path d="M482.719,118.241a.468.468,0,1,1-.467-.447A.458.458,0,0,1,482.719,118.241Z" transform="translate(-448.143 -117.794)" fill="#fff"/><path d="M491.165,118.241a.468.468,0,1,1-.467-.447A.458.458,0,0,1,491.165,118.241Z" transform="translate(-452.384 -117.794)" fill="#fff"/><path d="M499.612,118.241a.468.468,0,1,1-.468-.447A.458.458,0,0,1,499.612,118.241Z" transform="translate(-456.625 -117.794)" fill="#fff"/></g><g transform="translate(0 35.747)"><ellipse cx="0.467" cy="0.447" rx="0.467" ry="0.447" transform="translate(0 0)" fill="#fff"/><path d="M423.595,125.749a.468.468,0,1,1-.467-.447A.457.457,0,0,1,423.595,125.749Z" transform="translate(-418.455 -125.302)" fill="#fff"/><ellipse cx="0.467" cy="0.447" rx="0.467" ry="0.447" transform="translate(8.41 0)" fill="#fff"/><path d="M440.488,125.749a.468.468,0,1,1-.468-.447A.457.457,0,0,1,440.488,125.749Z" transform="translate(-426.937 -125.302)" fill="#fff"/><path d="M448.934,125.749a.468.468,0,1,1-.467-.447A.457.457,0,0,1,448.934,125.749Z" transform="translate(-431.178 -125.302)" fill="#fff"/><ellipse cx="0.467" cy="0.447" rx="0.467" ry="0.447" transform="translate(21.026 0)" fill="#fff"/><path d="M465.827,125.749a.468.468,0,1,1-.467-.447A.458.458,0,0,1,465.827,125.749Z" transform="translate(-439.661 -125.302)" fill="#fff"/><ellipse cx="0.467" cy="0.447" rx="0.467" ry="0.447" transform="translate(29.436 0)" fill="#fff"/><ellipse cx="0.467" cy="0.447" rx="0.467" ry="0.447" transform="translate(33.642 0)" fill="#fff"/><path d="M491.165,125.749a.468.468,0,1,1-.467-.447A.458.458,0,0,1,491.165,125.749Z" transform="translate(-452.384 -125.302)" fill="#fff"/><path d="M499.612,125.749a.468.468,0,1,1-.468-.447A.457.457,0,0,1,499.612,125.749Z" transform="translate(-456.625 -125.302)" fill="#fff"/></g><g transform="translate(0 39.322)"><ellipse cx="0.467" cy="0.447" rx="0.467" ry="0.447" transform="translate(0 0)" fill="#fff"/><path d="M423.595,133.257a.468.468,0,1,1-.467-.447A.457.457,0,0,1,423.595,133.257Z" transform="translate(-418.455 -132.81)" fill="#fff"/><ellipse cx="0.467" cy="0.447" rx="0.467" ry="0.447" transform="translate(8.41 0)" fill="#fff"/><path d="M440.488,133.257a.468.468,0,1,1-.468-.447A.457.457,0,0,1,440.488,133.257Z" transform="translate(-426.937 -132.81)" fill="#fff"/><path d="M448.934,133.257a.468.468,0,1,1-.467-.447A.457.457,0,0,1,448.934,133.257Z" transform="translate(-431.178 -132.81)" fill="#fff"/><ellipse cx="0.467" cy="0.447" rx="0.467" ry="0.447" transform="translate(21.026 0)" fill="#fff"/><path d="M465.827,133.257a.468.468,0,1,1-.467-.447A.458.458,0,0,1,465.827,133.257Z" transform="translate(-439.661 -132.81)" fill="#fff"/><ellipse cx="0.467" cy="0.447" rx="0.467" ry="0.447" transform="translate(29.436 0)" fill="#fff"/><ellipse cx="0.467" cy="0.447" rx="0.467" ry="0.447" transform="translate(33.642 0)" fill="#fff"/><path d="M491.165,133.257a.468.468,0,1,1-.467-.447A.458.458,0,0,1,491.165,133.257Z" transform="translate(-452.384 -132.81)" fill="#fff"/><path d="M499.612,133.257a.468.468,0,1,1-.468-.447A.457.457,0,0,1,499.612,133.257Z" transform="translate(-456.625 -132.81)" fill="#fff"/></g></g></g><g transform="translate(378 2569.644)"><g clip-path="url(#b)"><g clip-path="url(#c)"><g transform="translate(0 59.88)" opacity="0.7" style="mix-blend-mode:multiply;isolation:isolate"><g clip-path="url(#d)"><path d="M97.127,103.891a1.269,1.269,0,0,1,.434.14L69.556,87.8a1.262,1.262,0,0,0-.433-.14,6.694,6.694,0,0,0-2.681.4l-7.023-4.072c.252-.138.523-.258.77-.4,13.193-7.667,13.123-20.141-.152-27.8C53.122,51.79,43.965,49.9,34.913,50.065c-9.055-.167-18.192,1.726-25.067,5.721C-3.342,63.45-3.273,75.923,10,83.587c6.916,3.993,16.073,5.886,25.125,5.718A55.078,55.078,0,0,0,52.273,86.98l7.9,4.579a4.177,4.177,0,0,0-.7.846c-.258.462-.233.824.111,1.024l28.005,16.233a1.27,1.27,0,0,0,.433.14c1.474.227,4.694-.9,7.209-2.534a7.631,7.631,0,0,0,2.436-2.213c.342-.61.188-1.047-.544-1.164m-62-14.932c-8.171-.154-16.272-2.013-22.513-5.617C-.427,75.814-.5,63.559,12.459,56.031c6.2-3.6,14.283-5.463,22.45-5.618,8.171.154,16.271,2.015,22.512,5.618,13.04,7.528,13.114,19.78.154,27.311-6.2,3.6-14.281,5.462-22.45,5.617" transform="translate(0 -50.054)" fill="#52017b"/></g></g><g transform="translate(10.425 71.958)" opacity="0.7" style="mix-blend-mode:multiply;isolation:isolate"><g clip-path="url(#e)"><path d="M28.384,60.151,8.715,70.86,26.882,81.349h9.945Z" transform="translate(-8.714 -60.151)" fill="#52017b"/></g></g></g><path d="M76.772,59.241,35.7,82.954,14.441,70.679V63.494L76.772,52.055Z" transform="translate(2.835 10.218)" fill="#ebdaed"/><g clip-path="url(#c)"><g transform="translate(62.922 62.506)" opacity="0.9"><g clip-path="url(#g)"><path d="M52.6,55.079V68.835l15.419-8.9V52.25Z" transform="translate(-52.598 -52.249)" fill="#bf90b2"/></g></g><g transform="translate(62.922 63.802)" opacity="0.7" style="mix-blend-mode:multiply;isolation:isolate"><g clip-path="url(#h)"><path d="M60.954,53.333,52.6,54.867V68.623L60.772,63.9V55.277c0-.231.008-.278.182-.317Z" transform="translate(-52.598 -53.333)" fill="#e0aacc"/></g></g><path d="M50.224,59.528l-8.356,1.534V74.818L50.042,70.1V61.472c0-.231.008-.278.182-.317Z" transform="translate(8.219 11.685)" fill="#a091bc"/><path d="M66.478,52.07v7.216l.079-.045V52.056Z" transform="translate(13.049 10.218)" fill="#ebdaed"/><g transform="translate(17.276 68.931)" style="mix-blend-mode:multiply;isolation:isolate"><g clip-path="url(#i)"><path d="M33.9,57.62,14.442,62.4v7.186L35.7,81.861V74.676Z" transform="translate(-14.442 -57.62)" fill="#e2d4dd"/></g></g><path d="M76.772,54.07,35.7,77.783,14.441,65.507,55.513,41.8Z" transform="translate(2.835 8.204)" fill="#fef0ff"/><path d="M66.294,58.481,45.332,70.614,24.063,58.335,47.848,44.572l9.416,5.436-2.818,1.633Z" transform="translate(4.724 8.749)" fill="#d9caed"/><g transform="translate(26.899 61.091)" opacity="0.2"><g clip-path="url(#j)"><path d="M37.012,51.823,30.945,64.079l-.118-.069,6.066-12.256Zm-1.31-.757L29.635,63.322l.118.069L35.82,51.135Zm2.383,1.376L32.018,64.7l.118.068L38.2,52.511Zm1.192.689L33.21,65.387l.118.068L39.395,53.2Zm-5.331-1.613-5.5,11.116.118.069,5.6-11.31Zm6.522,2.3L34.4,66.075l.118.068,6.066-12.256ZM29.652,54l-3.591,7.256.118.069,3.687-7.449Zm-6.441,3.726-.726,1.465.12.068.821-1.658Zm2.146-1.242-1.681,3.4.12.069,1.777-3.589ZM27.5,55.245l-2.635,5.326.118.068,2.731-5.519ZM31.8,52.76l-4.547,9.186.118.069,4.643-9.38Zm9.86,1.747L35.593,66.763l.118.068,6.066-12.256Zm13.107,7.567L53.391,64.85l.215-.124,1.279-2.583ZM52.383,60.7,49.1,67.336l.214-.124L52.5,60.767Zm-1.192-.688L46.95,68.579l.214-.124,4.146-8.375Zm4.766,2.751-.419.846.215-.124.323-.652Zm-2.383-1.376-2.329,4.707.214-.124,2.235-4.514ZM50,59.322l-5.2,10.5.214-.124,5.1-10.306ZM45.234,56.57,39.167,68.826l.118.068,6.066-12.256Zm-1.192-.688L37.976,68.138l.118.068L44.161,55.95Zm-1.192-.688L36.784,67.45l.118.068,6.066-12.256Zm4.766,2.751L41.55,70.2l.118.068,6.066-12.256Zm-1.192-.688L40.359,69.514l.118.068,6.066-12.256Zm2.383,1.376L42.742,70.89l.108.062c.02-.012,6.077-12.25,6.077-12.25Z" transform="translate(-22.485 -51.067)" fill="#7f7799"/></g></g><g transform="translate(42.405 51.045)" opacity="0.6"><g clip-path="url(#k)"><path d="M58.972,48.105,44.863,56.264l-9.416-5.436,14.109-8.159Z" transform="translate(-35.447 -42.669)" fill="#e0aacc"/></g></g><g transform="translate(60.671 62.097)" opacity="0.6"><g clip-path="url(#l)"><path d="M68.43,52.818,53.747,61.3l-3.031-1.75,13.23-7.637Z" transform="translate(-50.716 -51.907)" fill="#e0aacc"/></g></g><path d="M39.062,51.351c-3.911,2.256-3.911,5.9-.02,8.143a15.57,15.57,0,0,0,14.086,0c.018-.011-14.066-8.143-14.066-8.143" transform="translate(7.091 10.08)" fill="#d4a8c6"/><path d="M57,61.675l-.553.319L35.166,49.708l.553-.319Z" transform="translate(6.903 9.695)" fill="#7f7799"/><path d="M25,60.507l-5.857,3.382-2.991-1.727,5.857-3.382Z" transform="translate(3.17 11.538)" fill="#3263a8"/><path d="M41.019,49.78a1.285,1.285,0,0,0-.681.841c-.03,0-1.229-.888-1.229-.888-.161-.118-.14-.164,0-.244l1.822-1.053-.323-.389-.095-.013L38.07,49.447l-.007.08,2.305,1.5.263-.051a.814.814,0,0,1,.482-.878,2.328,2.328,0,0,1,2.291.19c.754.435,1.017.943.38,1.31a2.243,2.243,0,0,1-1.713.075.489.489,0,0,0-.38.017.245.245,0,0,0,0,.449,2.808,2.808,0,0,0,2.3-.364c1.207-.7,1.024-1.437.1-1.973a3.067,3.067,0,0,0-3.066-.022" transform="translate(7.472 9.429)" fill="#6b6597"/><path d="M42.285,46.817c-1.207.7-.571,1.562.892,2.408s2.963,1.212,4.171.514.571-1.562-.892-2.407-2.963-1.213-4.171-.516m4.808,2.775c-.7.4-1.976-.11-3.169-.8s-2.078-1.427-1.383-1.829,1.976.11,3.169.8,2.078,1.427,1.383,1.829" transform="translate(8.176 9.118)" fill="#6b6597"/><path d="M45.529,44.944c-1.207.7-.571,1.562.892,2.408s2.963,1.212,4.171.514.571-1.562-.892-2.407-2.963-1.213-4.171-.516m4.808,2.775c-.7.4-1.976-.11-3.169-.8s-2.078-1.427-1.383-1.829,1.976.11,3.169.8,2.078,1.428,1.383,1.829" transform="translate(8.813 8.75)" fill="#6b6597"/><path d="M31.76,69.328a.816.816,0,0,0-.433.535c-.018,0-.781-.565-.781-.565-.1-.074-.087-.1,0-.156l1.158-.669-.206-.246-.06-.008-1.554.9c0,.05,1.461,1,1.461,1l.167-.032a.519.519,0,0,1,.306-.559,1.482,1.482,0,0,1,1.456.121c.48.278.647.6.242.833a1.418,1.418,0,0,1-1.087.048.316.316,0,0,0-.243.011.156.156,0,0,0,0,.285,1.778,1.778,0,0,0,1.461-.231c.768-.443.651-.913.061-1.254a1.951,1.951,0,0,0-1.949-.013" transform="translate(5.866 13.391)" fill="#f4c245"/><path d="M32.565,67.443c-.768.444-.362.994.567,1.531a2.662,2.662,0,0,0,2.651.327c.767-.443.362-.993-.567-1.53a2.663,2.663,0,0,0-2.651-.328m3.055,1.765c-.441.255-1.256-.069-2.015-.507s-1.32-.908-.878-1.163,1.256.069,2.013.507,1.321.908.879,1.163" transform="translate(6.313 13.193)" fill="#f4c245"/><path d="M34.626,66.253c-.768.444-.362.994.567,1.531a2.662,2.662,0,0,0,2.651.327c.767-.443.362-.993-.567-1.53a2.663,2.663,0,0,0-2.651-.328m3.055,1.765c-.441.255-1.256-.069-2.015-.507s-1.32-.908-.878-1.163,1.255.069,2.013.507,1.321.908.879,1.163" transform="translate(6.718 12.96)" fill="#f4c245"/><path d="M52.548,44.9l-.669,1.329-.23-.038.668-1.329Zm.486.374L52.365,46.6l.231.038.668-1.329Zm.715.414-.668,1.329.23.038.669-1.329Zm.717.413L53.8,47.428l.23.038.669-1.328Zm.715.414-.668,1.329.23.038.668-1.329Zm.717.413-.669,1.329.23.038.669-1.328Zm.715.414-.669,1.329.231.038.668-1.329Zm.717.413-.669,1.329.23.039.669-1.329Zm.715.414L57.377,49.5l.231.038.668-1.329Z" transform="translate(10.139 8.806)" fill="#6b6597"/><path d="M18.733,60.431a.775.775,0,0,0,0,1.467,2.813,2.813,0,0,0,2.541,0,.774.774,0,0,0,0-1.467,2.813,2.813,0,0,0-2.541,0M21.108,61.8a2.443,2.443,0,0,1-2.208,0,.673.673,0,0,1,0-1.275,2.447,2.447,0,0,1,2.208,0,.673.673,0,0,1,0,1.275" transform="translate(3.574 11.803)" fill="#f4c245"/><path d="M35.2,51.024l.919.179.778-.335-.012.561.792.323-.927.166-.288.535L35.9,52l-.97.007.58-.449Zm-2.89,3.749-.58.449.97-.007.561.458.288-.535.926-.166-.792-.324.012-.56-.778.335-.919-.181Zm0,3.6-.58.45.97-.007.561.457.288-.535.926-.166-.792-.323.012-.561-.778.335-.919-.179Zm3.2,3.219-.58.449.97-.007.56.458.288-.536.927-.166-.792-.323.012-.56-.778.335-.919-.181Zm5.575,1.848-.58.449.97-.007.56.458.288-.536.927-.166-.793-.323.013-.561-.778.336-.92-.181Zm6.237,0-.58.449.97-.007.56.458.288-.536.927-.166-.792-.323.012-.561-.778.336-.92-.181Zm5.575-1.848-.58.449.97-.007.56.458.288-.536.927-.166-.792-.323.012-.56-.778.335-.919-.181Z" transform="translate(6.228 9.985)" fill="#e8ab31"/><path d="M38.4,48.733l-9.964,5.753,21.3,12.3L59.7,61.034Z" transform="translate(5.581 9.566)" fill="#fef0ff"/><path d="M56.207,66.155,46.241,71.9V64.764l9.966-5.749Z" transform="translate(9.077 11.584)" fill="#ebdaed"/><path d="M57.15,61.681l-21.3-12.3,1.248-.72,21.3,12.3V68.1l-1.248.72Z" transform="translate(7.036 9.552)" fill="#b142cc"/><path d="M49.57,66.058l-21.3-12.3,1.248-.72,21.3,12.3v7.14L49.57,73.2Z" transform="translate(5.548 10.411)" fill="#b142cc"/><path d="M53.655,59.663l1.248-.72v7.138l-1.248.72Z" transform="translate(10.532 11.57)" fill="#8d2ca7"/><path d="M46.074,64.039l1.248-.72v7.14l-1.248.719Z" transform="translate(9.044 12.429)" fill="#8d2ca7"/><g transform="translate(19.645 63.743)" style="mix-blend-mode:multiply;isolation:isolate"><g clip-path="url(#m)"><path d="M31.319,53.284l-14.9,8.6L29.08,69.193h6.753Z" transform="translate(-16.422 -53.284)" fill="#e2d4dd"/></g></g><path d="M32.648,70.82,68.087,50.36V45L32.648,53.2Z" transform="translate(6.409 8.833)" fill="#d8d2b8"/><path d="M18.009,59.364,35.521,69.475V51.853L18.009,54Z" transform="translate(3.535 10.179)" fill="#b7b091"/><path d="M70.956,46.655,35.525,67.111,18.02,57,53.452,36.548Z" transform="translate(3.537 7.174)" fill="#fff9e1"/><path d="M19.123,57.084l15.759,9.1,34.467-19.9-15.759-9.1Zm46.86-12.229c.743.428.731,1.131-.024,1.566l-30.837,17.8a3,3,0,0,1-2.713.013l-9.848-5.685c-.742-.429-.731-1.131.024-1.567l30.838-17.8a3,3,0,0,1,2.712-.014Z" transform="translate(3.754 7.299)" fill="#687a51"/><path d="M33.924,45.731c-3.429,1.98-2.706,5.618,1.613,8.111s10.621,2.911,14.049.931,2.706-5.618-1.611-8.111-10.621-2.911-14.051-.931M49.5,54.722c-3.38,1.951-9.6,1.534-13.873-.932s-4.993-6.058-1.613-8.009,9.6-1.534,13.872.932,4.993,6.058,1.614,8.009" transform="translate(6.234 8.732)" fill="#a5aa9f"/><path d="M47.646,46.781c4.179,2.413,4.9,5.907,1.617,7.806s-9.342,1.48-13.521-.934-4.9-5.907-1.616-7.8,9.339-1.48,13.519.933" transform="translate(6.295 8.766)" fill="#a5aa9f"/><path d="M46.549,47.149c3.571,2.061,4.189,5.047,1.381,6.668s-7.978,1.264-11.549-.8S32.192,47.973,35,46.351s7.978-1.263,11.549.8" transform="translate(6.525 8.899)" fill="#fff9e1"/><path d="M49.612,46.022l-1.183.683.461.266,1.183-.683Z" transform="translate(9.506 9.034)" fill="#687a51"/><path d="M49.94,46.2l.461.266,5.087-2.937-.459-.266Z" transform="translate(9.803 8.493)" fill="#687a51"/><path d="M30.544,57.032l-1.183.683.461.266L31,57.3Z" transform="translate(5.763 11.195)" fill="#687a51"/><path d="M30.872,57.212l.461.266,5.087-2.937-.461-.266Z" transform="translate(6.06 10.654)" fill="#687a51"/><path d="M22.788,54.935l.633.366,6.144-3.548-.632-.365Z" transform="translate(4.473 10.087)" fill="#687a51"/><path d="M43.575,42.933l.633.365,6.144-3.547-.633-.365Z" transform="translate(8.554 7.731)" fill="#a5aa9f"/><path d="M55.5,45.86l-1.383-.8a6.2,6.2,0,0,0-.52.385l.072.042.179-.068a.194.194,0,0,1,.2.02l1.087.628c.075.043.066.068.013.1l-.15.1.09.053.857-.5-.09-.051-.177.086a.161.161,0,0,1-.181-.007" transform="translate(10.522 8.846)" fill="#687a51"/><path d="M55.032,44.516c-.449.258-.214.566.217.815a1.413,1.413,0,0,0,1.412.126c.449-.258.214-.566-.218-.815a1.414,1.414,0,0,0-1.41-.126m1.52.878c-.2.114-.657-.127-.925-.282s-.685-.42-.488-.534.656.127.924.282.685.42.489.534" transform="translate(10.755 8.711)" fill="#687a51"/><path d="M56.154,43.868c-.449.258-.214.566.217.815a1.413,1.413,0,0,0,1.412.126c.449-.258.214-.566-.218-.815a1.414,1.414,0,0,0-1.41-.126m1.52.878c-.2.114-.657-.127-.925-.282s-.684-.42-.488-.534.656.127.925.282.684.42.488.534" transform="translate(10.975 8.584)" fill="#687a51"/><path d="M45.579,39.965l-.926-.535a4.28,4.28,0,0,0-.349.258c.049.029.17-.018.17-.018a.129.129,0,0,1,.134.013l.729.421c.051.029.044.045.01.069l-.1.069.06.033.573-.33-.06-.035-.118.057a.109.109,0,0,1-.121,0" transform="translate(8.697 7.74)" fill="#fff9e1"/><path d="M45.263,39.064c-.3.173-.144.379.145.547a.95.95,0,0,0,.946.084c.3-.173.142-.379-.146-.546a.951.951,0,0,0-.945-.085m1.018.589c-.132.075-.439-.085-.62-.189s-.458-.281-.327-.358.439.085.62.189.458.281.327.358" transform="translate(8.853 7.65)" fill="#fff9e1"/><path d="M46.013,38.63c-.3.173-.142.379.146.547a.95.95,0,0,0,.946.084c.3-.173.142-.379-.146-.546a.953.953,0,0,0-.946-.085m1.019.589c-.132.077-.439-.085-.62-.189s-.458-.281-.327-.358.439.086.62.189.458.282.327.358" transform="translate(9.001 7.565)" fill="#fff9e1"/><path d="M23.056,52.969l-.926-.535a4.282,4.282,0,0,0-.349.258c.049.029.17-.018.17-.018a.129.129,0,0,1,.134.013l.729.421c.051.029.044.045.008.069l-.1.068.06.035.573-.33-.06-.035-.118.057a.109.109,0,0,1-.121,0" transform="translate(4.276 10.293)" fill="#fff9e1"/><path d="M22.74,52.068c-.3.173-.144.379.145.547a.95.95,0,0,0,.946.084c.3-.173.142-.379-.146-.546a.951.951,0,0,0-.945-.085m1.018.589c-.132.077-.439-.085-.62-.189s-.458-.281-.327-.356.439.085.62.188.458.282.327.358" transform="translate(4.432 10.203)" fill="#fff9e1"/><path d="M23.491,51.634c-.3.173-.144.379.146.547a.949.949,0,0,0,.946.084c.3-.173.142-.379-.147-.546a.945.945,0,0,0-.945-.085m1.019.589c-.133.075-.44-.085-.62-.189s-.458-.281-.328-.358.44.085.62.189.459.281.328.358" transform="translate(4.579 10.117)" fill="#fff9e1"/><path d="M34.178,60.1l.12.069c.1.055.1.147,0,.2l-1.148.663a.393.393,0,0,1-.354,0l-.12-.069c-.091-.053-.1-.138-.012-.195l.153-.105L31.4,59.854l-.207.079a.4.4,0,0,1-.313-.018l-.1-.056c-.086-.049-.1-.128-.024-.187l.647-.516a.37.37,0,0,1,.188-.06.437.437,0,0,1,.245.038l1.816,1.048.183-.089a.394.394,0,0,1,.339.007m2.9-2.754c.806.465.913.939.29,1.3a1.985,1.985,0,0,1-1.6.118c.311.336.249.66-.206.922a2.234,2.234,0,0,1-2.249-.166c-.806-.467-.913-.939-.29-1.3a1.985,1.985,0,0,1,1.6-.118c-.311-.337-.249-.66.206-.922a2.234,2.234,0,0,1,2.249.166" transform="translate(6.029 11.179)" fill="#fff9e1"/><path d="M33.476,59.935,31.62,58.863a8.389,8.389,0,0,0-.7.518l.1.056.24-.092a.262.262,0,0,1,.27.026l1.463.843c.1.059.086.092.017.141l-.2.136.12.069,1.15-.663-.121-.069-.237.115a.218.218,0,0,1-.243-.01" transform="translate(6.069 11.555)" fill="#a5aa9f"/><path d="M32.841,58.129c-.6.348-.286.761.293,1.095a1.9,1.9,0,0,0,1.9.169c.6-.347.286-.76-.293-1.095a1.9,1.9,0,0,0-1.9-.169m2.043,1.18c-.264.152-.882-.17-1.242-.378s-.92-.565-.656-.718.88.171,1.242.379.92.565.656.717" transform="translate(6.383 11.374)" fill="#a5aa9f"/><path d="M34.349,57.258c-.6.348-.287.761.292,1.095a1.9,1.9,0,0,0,1.9.169c.6-.347.286-.76-.293-1.095a1.9,1.9,0,0,0-1.895-.169m2.042,1.18c-.264.152-.882-.17-1.242-.378s-.919-.565-.656-.718.882.171,1.242.379.92.565.656.717" transform="translate(6.679 11.203)" fill="#a5aa9f"/><path d="M47.534,42.648c-1.079.622-1.093,1.622-.035,2.233a4.277,4.277,0,0,0,3.869-.019c1.078-.623,1.093-1.623.035-2.235a4.277,4.277,0,0,0-3.869.02m3.626,2.094a3.813,3.813,0,0,1-3.449.018c-.944-.546-.93-1.437.031-1.992a3.813,3.813,0,0,1,3.449-.017c.944.544.93,1.436-.031,1.991" transform="translate(9.17 8.279)" fill="#a5aa9f"/><path d="M28.461,53.66c-1.078.622-1.093,1.622-.035,2.233a4.277,4.277,0,0,0,3.869-.019c1.078-.623,1.093-1.623.035-2.235a4.277,4.277,0,0,0-3.869.02m3.626,2.094a3.813,3.813,0,0,1-3.449.018c-.944-.546-.93-1.437.031-1.992a3.817,3.817,0,0,1,3.449-.018c.944.546.93,1.437-.031,1.992" transform="translate(5.426 10.44)" fill="#a5aa9f"/><path d="M49.065,42.768a.474.474,0,0,1-.4.236l-.1.014a.475.475,0,0,0-.391.226l-.024.06a.482.482,0,0,1-.392.226c-.193.025-.257.151-.132.223l.994.574a.727.727,0,0,0,.361.085l1.536-.007.056-.033.014-.886a.248.248,0,0,0-.147-.208l-.994-.574c-.126-.073-.342-.035-.383.066" transform="translate(9.336 8.375)" fill="#687a51"/><path d="M29.984,53.784a.474.474,0,0,1-.4.236l-.1.014a.475.475,0,0,0-.391.226l-.024.06a.482.482,0,0,1-.392.226c-.191.025-.257.151-.132.223l.994.574a.727.727,0,0,0,.361.085l1.536-.007.056-.033.014-.886a.248.248,0,0,0-.147-.208l-.994-.574c-.126-.073-.342-.035-.383.066" transform="translate(5.591 10.537)" fill="#687a51"/><path d="M40.937,48.8l-.769.208-2.484-1.433a3.544,3.544,0,0,1,2.163.115.95.95,0,0,0,.792-.081c.233-.135.751-.615.172-.949a4.49,4.49,0,0,0-3.681.595l-.964-.556-.687.4.964.557c-1.363.842-1.793,1.926-.275,2.8a5.4,5.4,0,0,0,4.071.127l.867-.236,2.833,1.634a4.447,4.447,0,0,1-2.552-.14,1.132,1.132,0,0,0-.926.089.562.562,0,0,0-.016,1.011c.41.237,1.913.51,4.047-.639l1.254.724.687-.4L45.18,51.9c1.129-.652,2.048-1.921.325-2.93-1.337-.758-2.786-.646-4.569-.173m-1.721.451a2.768,2.768,0,0,1-2.177-.023c-.6-.348-.63-.874-.041-1.257Zm5.411,2.332-2.6-1.5a3.483,3.483,0,0,1,2.6.211c.712.41.656.916,0,1.292" transform="translate(6.912 9.124)" fill="#687a51"/><path d="M52.849,47.6l-3.013,1.741-.179-.1,3.013-1.741Z" transform="translate(9.747 9.323)" fill="#a5aa9f"/><path d="M40.082,54.969l-3.013,1.739-.179-.1L39.9,54.865Z" transform="translate(7.241 10.77)" fill="#a5aa9f"/><path d="M37.305,43.22l-7.541,4.355,17.52,10.115,7.541-4.353Z" transform="translate(5.843 8.484)" fill="#fef0ff"/><path d="M51.951,57.079,44.408,61.43v-5.4l7.543-4.351Z" transform="translate(8.717 10.144)" fill="#ebdaed"/><path d="M52.894,53.825,35.374,43.709l.944-.544L53.838,53.28v5.4l-.944.544Z" transform="translate(6.944 8.473)" fill="#b142cc"/><path d="M47.157,57.138,29.637,47.022l.944-.544L48.1,56.592V62l-.944.544Z" transform="translate(5.818 9.123)" fill="#b142cc"/><path d="M50.019,52.166l.944-.546v5.4l-.944.544Z" transform="translate(9.819 10.133)" fill="#8d2ca7"/><path d="M44.282,55.478l.944-.546v5.4l-.944.544Z" transform="translate(8.692 10.783)" fill="#8d2ca7"/></g><g transform="translate(18.882 25.668)"><g clip-path="url(#n)"><rect width="64.693" height="23.885" transform="translate(0 0)" fill="url(#o)"/></g></g><g transform="translate(18.897 29.163)"><g clip-path="url(#p)"><path d="M32.726,73.127,87.752,41.359V33.032L32.726,45.768Z" transform="translate(-12.473 -22.679)" fill="#d8d2b8"/><path d="M10,55.339l27.191,15.7V43.679L10,47.013Z" transform="translate(-16.934 -20.589)" fill="#b7b091"/><path d="M92.207,35.606,37.192,67.369,10.014,51.677,65.03,19.914Z" transform="translate(-16.931 -25.254)" fill="#fff9e1"/><path d="M11.726,51.8,36.194,65.927,89.71,35.03,65.241,20.9ZM84.485,32.813c1.153.665,1.135,1.755-.038,2.432L36.567,62.889a4.658,4.658,0,0,1-4.212.022L17.064,54.082c-1.152-.665-1.135-1.754.038-2.431L64.983,24.007a4.654,4.654,0,0,1,4.212-.022Z" transform="translate(-16.595 -25.06)" fill="#687a51"/><path d="M34.708,34.171c-5.325,3.074-4.2,8.725,2.5,12.6S53.7,51.286,59.026,48.212s4.2-8.725-2.5-12.6S40.032,31.1,34.708,34.171M58.89,48.133c-5.248,3.03-14.912,2.381-21.541-1.446S29.6,37.281,34.844,34.25,49.755,31.87,56.385,35.7,64.138,45.1,58.89,48.133" transform="translate(-12.744 -22.836)" fill="#a5aa9f"/><path d="M56.013,35.8c6.49,3.747,7.613,9.173,2.51,12.12s-14.5,2.3-20.99-1.45-7.614-9.172-2.511-12.12,14.5-2.3,20.991,1.45" transform="translate(-12.65 -22.783)" fill="#a5aa9f"/><path d="M54.309,36.373c5.544,3.2,6.5,7.836,2.145,10.353s-12.389,1.963-17.932-1.238-6.5-7.836-2.145-10.353,12.389-1.963,17.932,1.238" transform="translate(-12.292 -22.576)" fill="#fff9e1"/><path d="M59.066,34.624l-1.836,1.06.715.413,1.835-1.06Z" transform="translate(-7.663 -22.367)" fill="#687a51"/><path d="M59.575,34.9l.714.413,7.9-4.56-.714-.413Z" transform="translate(-7.202 -23.207)" fill="#687a51"/><path d="M29.459,51.718l-1.836,1.06.715.413,1.835-1.06Z" transform="translate(-13.475 -19.011)" fill="#687a51"/><path d="M29.968,52l.714.413,7.9-4.56-.714-.413Z" transform="translate(-13.014 -19.851)" fill="#687a51"/><path d="M17.417,48.462l.982.567,9.542-5.508-.983-.568Z" transform="translate(-15.478 -20.732)" fill="#687a51"/><path d="M49.692,29.828l.982.567,9.542-5.508-.983-.568Z" transform="translate(-9.142 -24.39)" fill="#a5aa9f"/><path d="M68.214,34.372l-2.146-1.239-.062,0-.748.6.114.066.279-.105a.3.3,0,0,1,.312.03l1.689.975c.117.068.1.106.02.162l-.232.159.14.08,1.328-.767-.139-.08-.275.134a.25.25,0,0,1-.28-.012" transform="translate(-6.087 -22.659)" fill="#687a51"/><path d="M67.48,32.285c-.7.4-.331.879.337,1.266a2.2,2.2,0,0,0,2.193.195c.7-.4.33-.879-.339-1.266a2.2,2.2,0,0,0-2.192-.195m2.361,1.364c-.305.176-1.019-.2-1.436-.438s-1.064-.652-.758-.829,1.019.2,1.436.438,1.063.653.758.829" transform="translate(-5.724 -22.868)" fill="#687a51"/><path d="M69.223,31.279c-.7.4-.331.879.337,1.264a2.2,2.2,0,0,0,2.193.2c.7-.4.33-.879-.339-1.266a2.2,2.2,0,0,0-2.192-.195m2.361,1.363c-.305.177-1.019-.2-1.436-.437s-1.064-.653-.758-.829,1.019.2,1.436.437,1.064.653.758.829" transform="translate(-5.382 -23.066)" fill="#687a51"/><path d="M52.8,25.219l-1.437-.83a6.615,6.615,0,0,0-.543.4l.077.044.187-.071a.2.2,0,0,1,.209.02l1.132.653c.078.044.067.071.013.108l-.156.106.093.054.89-.513-.093-.054-.184.089a.167.167,0,0,1-.188-.007" transform="translate(-8.92 -24.376)" fill="#fff9e1"/><path d="M52.312,23.821c-.467.269-.221.589.226.847a1.472,1.472,0,0,0,1.468.13c.467-.269.223-.589-.226-.847a1.472,1.472,0,0,0-1.468-.13m1.582.913c-.2.118-.682-.132-.962-.293s-.712-.437-.507-.555.682.132.962.293.712.437.507.555" transform="translate(-8.677 -24.516)" fill="#fff9e1"/><path d="M53.479,23.147c-.467.269-.221.589.226.847a1.472,1.472,0,0,0,1.468.13c.467-.269.221-.589-.226-.847a1.472,1.472,0,0,0-1.468-.13m1.582.913c-.2.118-.682-.132-.962-.293s-.712-.437-.507-.555.682.132.962.293.712.437.507.555" transform="translate(-8.448 -24.648)" fill="#fff9e1"/><path d="M17.832,45.41,16.4,44.58a6.615,6.615,0,0,0-.543.4l.078.044.187-.071a.194.194,0,0,1,.208.02l1.133.653c.077.044.067.071.013.108l-.157.106.095.054.889-.513-.092-.054-.185.089a.166.166,0,0,1-.188-.007" transform="translate(-15.785 -20.412)" fill="#fff9e1"/><path d="M17.34,44.012c-.467.269-.221.589.226.847a1.472,1.472,0,0,0,1.468.13c.467-.268.223-.589-.226-.847a1.472,1.472,0,0,0-1.468-.13m1.582.913c-.2.118-.682-.132-.962-.293s-.712-.437-.507-.555.682.132.962.293.712.437.507.555" transform="translate(-15.542 -20.552)" fill="#fff9e1"/><path d="M18.507,43.338c-.467.269-.221.589.226.847a1.472,1.472,0,0,0,1.468.13c.467-.269.221-.589-.226-.847a1.472,1.472,0,0,0-1.468-.13m1.582.913c-.2.118-.682-.132-.962-.293s-.712-.437-.507-.555.682.132.962.293.712.437.507.555" transform="translate(-15.313 -20.685)" fill="#fff9e1"/><path d="M35.1,56.484l.187.108c.151.087.148.228,0,.317L33.5,57.939a.608.608,0,0,1-.549,0l-.187-.108a.164.164,0,0,1-.018-.3l.238-.164L30.788,56.1l-.321.121a.613.613,0,0,1-.486-.026l-.152-.089c-.133-.077-.148-.2-.036-.288l1-.8a.565.565,0,0,1,.292-.095l.084,0a.567.567,0,0,1,.3.063l2.818,1.627.285-.138a.613.613,0,0,1,.524.011m4.5-4.276c1.253.724,1.416,1.458.449,2.017a3.075,3.075,0,0,1-2.481.184c.483.523.388,1.025-.319,1.433a3.473,3.473,0,0,1-3.492-.26c-1.253-.724-1.416-1.458-.45-2.017a3.078,3.078,0,0,1,2.482-.184c-.483-.523-.388-1.025.319-1.432a3.469,3.469,0,0,1,3.492.258" transform="translate(-13.063 -19.036)" fill="#fff9e1"/><path d="M34.013,56.225l-2.882-1.664-.084,0-1,.8.152.087.374-.142a.4.4,0,0,1,.42.041l2.268,1.31c.158.091.136.142.026.218l-.31.213.187.108,1.784-1.03-.187-.108-.368.179a.337.337,0,0,1-.377-.016" transform="translate(-12.999 -18.453)" fill="#a5aa9f"/><path d="M33.027,53.422c-.936.541-.445,1.181.453,1.7a2.951,2.951,0,0,0,2.944.262c.934-.54.445-1.181-.455-1.7a2.949,2.949,0,0,0-2.943-.263M36.2,55.253c-.41.237-1.369-.264-1.928-.587s-1.427-.877-1.017-1.114,1.367.266,1.927.589,1.428.876,1.018,1.113" transform="translate(-12.513 -18.734)" fill="#a5aa9f"/><path d="M35.368,52.07c-.936.541-.445,1.181.453,1.7a2.951,2.951,0,0,0,2.944.262c.934-.54.445-1.181-.455-1.7a2.949,2.949,0,0,0-2.943-.263M38.539,53.9c-.41.237-1.369-.264-1.928-.587s-1.427-.877-1.017-1.114,1.367.266,1.927.589,1.428.876,1.018,1.113" transform="translate(-12.053 -18.999)" fill="#a5aa9f"/><path d="M55.839,29.384c-1.674.965-1.7,2.519-.054,3.468a6.638,6.638,0,0,0,6.008-.031c1.675-.967,1.7-2.519.054-3.468a6.638,6.638,0,0,0-6.008.031m5.631,3.25a5.919,5.919,0,0,1-5.355.028c-1.465-.846-1.444-2.23.048-3.091a5.915,5.915,0,0,1,5.355-.028c1.465.846,1.444,2.23-.048,3.091" transform="translate(-8.185 -23.539)" fill="#a5aa9f"/><path d="M26.225,46.482c-1.674.965-1.7,2.519-.054,3.468a6.638,6.638,0,0,0,6.008-.031c1.675-.967,1.7-2.519.054-3.468a6.638,6.638,0,0,0-6.008.031m5.631,3.25a5.919,5.919,0,0,1-5.355.028c-1.465-.846-1.444-2.23.048-3.091a5.915,5.915,0,0,1,5.355-.028c1.465.846,1.444,2.23-.048,3.091" transform="translate(-13.998 -20.183)" fill="#a5aa9f"/><path d="M58.217,29.57a.741.741,0,0,1-.615.367l-.159.02a.744.744,0,0,0-.609.352L56.8,30.4a.739.739,0,0,1-.609.352c-.3.039-.4.233-.2.346l1.543.892a1.14,1.14,0,0,0,.56.132l2.387-.013.087-.05.022-1.377a.39.39,0,0,0-.228-.324l-1.543-.891c-.195-.112-.532-.054-.595.1" transform="translate(-7.927 -23.39)" fill="#687a51"/><path d="M28.589,46.676a.739.739,0,0,1-.615.367l-.159.02a.744.744,0,0,0-.609.352l-.037.092a.739.739,0,0,1-.609.352c-.3.039-.4.234-.2.346L27.9,49.1a1.141,1.141,0,0,0,.561.132l2.385-.012.087-.051.022-1.377a.39.39,0,0,0-.228-.324l-1.543-.891c-.195-.112-.531-.054-.595.1" transform="translate(-13.743 -20.033)" fill="#687a51"/><path d="M45.6,38.937l-1.2.323-3.854-2.226a5.5,5.5,0,0,1,3.358.179,1.475,1.475,0,0,0,1.23-.127c.361-.209,1.165-.955.268-1.473-.786-.453-3.145-.5-5.717.924l-1.5-.865-1.066.616,1.5.864c-2.116,1.309-2.784,2.991-.427,4.352,1.741,1,3.972.818,6.322.2l1.346-.367,4.4,2.54c-.456.177-1.517.378-3.961-.22a1.757,1.757,0,0,0-1.438.139.873.873,0,0,0-.024,1.57c.636.367,2.97.791,6.284-.992l1.946,1.123,1.066-.615-1.946-1.125c1.753-1.012,3.181-2.981.5-4.548-2.077-1.177-4.327-1-7.094-.268m-2.673.7a4.3,4.3,0,0,1-3.38-.036c-.937-.541-.98-1.358-.063-1.951Zm8.4,3.62-4.042-2.334a5.419,5.419,0,0,1,4.035.328c1.1.638,1.017,1.424.007,2.006" transform="translate(-11.692 -22.228)" fill="#687a51"/><path d="M64.092,37.071l-4.68,2.7-.279-.16,4.68-2.7Z" transform="translate(-7.289 -21.918)" fill="#a5aa9f"/><path d="M44.269,48.516l-4.68,2.7-.279-.16,4.68-2.7Z" transform="translate(-11.18 -19.671)" fill="#a5aa9f"/><path d="M39.957,30.273l-11.709,6.76,27.2,15.706,11.711-6.76Z" transform="translate(-13.352 -23.221)" fill="#fef0ff"/><path d="M62.7,51.791,50.985,58.547v-8.39L62.7,43.4Z" transform="translate(-8.888 -20.644)" fill="#ebdaed"/><path d="M64.162,46.74l-27.2-15.706,1.467-.846,27.2,15.7v8.39l-1.465.846Z" transform="translate(-11.642 -23.238)" fill="#b142cc"/><path d="M55.253,51.883,28.05,36.177l1.467-.846,27.2,15.7v8.39l-1.467.846Z" transform="translate(-13.391 -22.228)" fill="#b142cc"/><path d="M59.7,44.163l1.465-.847v8.39l-1.465.846Z" transform="translate(-7.178 -20.661)" fill="#8d2ca7"/><path d="M50.79,49.306l1.467-.847v8.39l-1.467.846Z" transform="translate(-8.927 -19.651)" fill="#8d2ca7"/></g></g><g clip-path="url(#c)"><g transform="translate(18.897 26.988)" opacity="0.6" style="mix-blend-mode:screen;isolation:isolate"><g clip-path="url(#r)"><path d="M25.328,54.537c12.652,7.3,33.178,7.3,45.748,0s12.5-19.195-.15-26.5-33.173-7.307-45.748,0-12.5,19.193.15,26.5" transform="translate(-15.796 -22.56)" fill="#ffbbfa"/></g></g><g transform="translate(18.903 26.988)" style="mix-blend-mode:multiply;isolation:isolate"><g clip-path="url(#s)"><g transform="translate(0 0)"><g clip-path="url(#t)"><rect width="65.607" height="21.744" transform="translate(-0.48 -1.828)" fill="url(#u)"/></g></g></g></g></g><g transform="translate(18.301 44.302)"><g clip-path="url(#v)"><rect width="65.857" height="26.08" transform="translate(-0.013 0)" fill="url(#w)"/></g></g><g transform="translate(18.316 25.33)"><g clip-path="url(#x)"><rect width="72.316" height="41.48" transform="translate(-3.244 -1.491)" fill="url(#y)"/></g></g><g transform="translate(70.129 59.305)"><g clip-path="url(#z)"><rect width="15.552" height="16.947" transform="translate(-4.325 7.492) rotate(-60)" fill="url(#aa)"/></g></g><g clip-path="url(#c)"><path d="M101.781,69.966,72.209,53a1.574,1.574,0,0,0-.5-.178c-1.554-.29-4.063,1.15-5.617,3.22a5.047,5.047,0,0,0-1.162,2.814,1.4,1.4,0,0,0,.665,1.3L95.172,77.123a1.4,1.4,0,0,1-.665-1.3,5.044,5.044,0,0,1,1.162-2.812c1.554-2.072,4.063-3.511,5.617-3.222a1.6,1.6,0,0,1,.5.178" transform="translate(12.746 10.362)" fill="#8821d8"/><path d="M97.593,68.484A1.372,1.372,0,0,0,96.432,67a3.9,3.9,0,0,0-2.256.439,9.328,9.328,0,0,0-3.36,2.783,5.035,5.035,0,0,0-1.162,2.813,1.371,1.371,0,0,0,1.162,1.481c1.553.288,4.063-1.151,5.617-3.222a5.049,5.049,0,0,0,1.16-2.812" transform="translate(17.599 13.145)" fill="#7717c1"/><g transform="translate(108.414 80.01)" style="mix-blend-mode:screen;isolation:isolate"><g clip-path="url(#ac)"><g transform="translate(0 0)"><g clip-path="url(#ad)"><rect width="5.617" height="3.884" transform="translate(0 -0.524)" fill="url(#ae)"/></g></g></g></g></g></g></g></g></svg>