<svg xmlns="http://www.w3.org/2000/svg" xmlns:xlink="http://www.w3.org/1999/xlink" width="195.323" height="127.804" viewBox="0 0 195.323 127.804"><defs><clipPath id="a"><rect width="120.89" height="61.672" fill="#9000f9"/></clipPath><clipPath id="b"><rect width="195.323" height="127.804" fill="none"/></clipPath><clipPath id="c"><rect width="195.323" height="127.803" fill="none"/></clipPath><clipPath id="d"><rect width="157.55" height="59.688" fill="none"/></clipPath><clipPath id="e"><path d="M88.228,11.875l-56.1,32.391.415.084,56.1-32.391a1.047,1.047,0,0,1,.731-.138l-.414-.083a.911.911,0,0,0-.186-.02,1.1,1.1,0,0,0-.548.156" transform="translate(-32.126 -11.718)" fill="none"/></clipPath><linearGradient id="f" x1="-0.798" y1="3.406" x2="-0.774" y2="3.406" gradientUnits="objectBoundingBox"><stop offset="0" stop-color="#8b3dce"/><stop offset="1" stop-color="#cb89f0"/></linearGradient><clipPath id="h"><path d="M31.545,36.888l.415.084a2.16,2.16,0,0,1,.852-2.293L32.4,34.6a2.162,2.162,0,0,0-.852,2.293" transform="translate(-31.485 -34.595)" fill="none"/></clipPath><linearGradient id="i" x1="-30.111" y1="33.056" x2="-29.152" y2="33.056" xlink:href="#f"/><clipPath id="k"><path d="M41.226,74.481l0,1.555a.872.872,0,0,0,.515.721L81.132,99.5a2.737,2.737,0,0,0,2.478,0l55.735-32.39a.867.867,0,0,0,.506-.71l.006-1.558Z" transform="translate(-41.222 -64.845)" fill="none"/></clipPath><linearGradient id="l" x1="-0.595" y1="1.014" x2="-0.58" y2="1.014" xlink:href="#f"/><clipPath id="m"><path d="M97.47,48.438,41.736,80.828a.757.757,0,0,0,0,1.433l39.4,22.747a2.737,2.737,0,0,0,2.478,0l55.735-32.39a.758.758,0,0,0-.011-1.434l-39.4-22.745a2.719,2.719,0,0,0-2.473,0" transform="translate(-41.225 -48.141)" fill="none"/></clipPath><linearGradient id="n" x1="-0.591" y1="1.036" x2="-0.576" y2="1.036" gradientUnits="objectBoundingBox"><stop offset="0" stop-color="#f5abff"/><stop offset="0.456" stop-color="#ffc5ff"/><stop offset="1" stop-color="#ffdeff"/></linearGradient><clipPath id="p"><rect width="34.407" height="19.865" fill="none"/></clipPath><clipPath id="q"><rect width="34.405" height="11.933" fill="none"/></clipPath><clipPath id="r"><rect width="56.774" height="32.779" fill="none"/></clipPath><clipPath id="s"><path d="M60.919,83.931a.992.992,0,0,0,.477.751l2.255,1.3c.262.151.475.061.475-.2a.983.983,0,0,0-.477-.75l-2.255-1.3a.486.486,0,0,0-.238-.073c-.142,0-.238.1-.238.275" transform="translate(-60.919 -83.656)" fill="none"/></clipPath><clipPath id="u"><rect width="60.565" height="72.717" fill="none"/></clipPath><clipPath id="v"><rect width="60.214" height="70.406" fill="none"/></clipPath><clipPath id="w"><rect width="59.943" height="75.296" fill="none"/></clipPath><clipPath id="x"><rect width="59.7" height="72.9" fill="none"/></clipPath><clipPath id="y"><rect width="58.555" height="76.828" fill="none"/></clipPath><clipPath id="aa"><rect width="56.656" height="71.927" fill="none"/></clipPath><clipPath id="ab"><rect width="23.079" height="27.784" fill="none"/></clipPath><clipPath id="ac"><rect width="23.079" height="13.68" fill="none"/></clipPath><clipPath id="ad"><rect width="0.556" height="14.458" fill="none"/></clipPath><clipPath id="ae"><rect width="12.846" height="15.463" fill="none"/></clipPath><clipPath id="af"><rect width="12.846" height="7.614" fill="none"/></clipPath><clipPath id="ag"><rect width="0.31" height="8.047" fill="none"/></clipPath><clipPath id="ah"><rect width="18.853" height="22.695" fill="none"/></clipPath><clipPath id="ai"><rect width="18.853" height="11.175" fill="none"/></clipPath><clipPath id="aj"><rect width="0.455" height="11.81" fill="none"/></clipPath><clipPath id="ak"><rect width="22.722" height="27.352" fill="none"/></clipPath><clipPath id="al"><rect width="22.722" height="13.468" fill="none"/></clipPath><clipPath id="am"><rect width="0.548" height="14.234" fill="none"/></clipPath><clipPath id="an"><rect width="14.292" height="17.205" fill="none"/></clipPath><clipPath id="ao"><rect width="14.292" height="8.471" fill="none"/></clipPath><clipPath id="ap"><rect width="0.345" height="8.953" fill="none"/></clipPath><clipPath id="aq"><rect width="31.46" height="18.646" fill="none"/></clipPath><clipPath id="ar"><rect width="0.759" height="19.707" fill="none"/></clipPath><clipPath id="as"><path d="M63.764,32.536,64.6,58.265l1.184.5,16.04-.282L95.31,41.959l.754-1.858,1.184-25.222Z" transform="translate(-63.764 -14.879)" fill="none"/></clipPath></defs><g transform="translate(15540.018 9034.545)"><g transform="translate(-15884.324 -11621.298)"><g transform="translate(386.301 2597.461)" clip-path="url(#a)"><path d="M57.56,90.884A33.324,33.324,0,1,1,90.884,57.56,33.362,33.362,0,0,1,57.56,90.884m0,24.236A57.56,57.56,0,1,0,0,57.56,57.56,57.56,0,0,0,57.56,115.12Z" transform="translate(2.497 4.113)" fill="#91b3fa"/></g><g transform="translate(430.653 2627.309)"><path d="M38.27,0A38.27,38.27,0,1,1,0,38.27,38.27,38.27,0,0,1,38.27,0Z" transform="translate(0 0)" fill="#31313c" opacity="0.444" style="mix-blend-mode:multiply;isolation:isolate"/><g transform="translate(14.942 15.821)"><path d="M415.253,50.721a.52.52,0,1,1-.52-.5A.509.509,0,0,1,415.253,50.721Z" transform="translate(-414.214 -50.224)" fill="#fff"/><path d="M423.7,50.721a.52.52,0,1,1-.519-.5A.509.509,0,0,1,423.7,50.721Z" transform="translate(-417.983 -50.224)" fill="#fff"/><path d="M432.145,50.721a.52.52,0,1,1-.519-.5A.509.509,0,0,1,432.145,50.721Z" transform="translate(-421.752 -50.224)" fill="#fff"/><path d="M440.592,50.721a.52.52,0,1,1-.52-.5A.509.509,0,0,1,440.592,50.721Z" transform="translate(-425.522 -50.224)" fill="#fff"/><path d="M449.038,50.721a.52.52,0,1,1-.519-.5A.509.509,0,0,1,449.038,50.721Z" transform="translate(-429.292 -50.224)" fill="#fff"/><path d="M457.484,50.721a.52.52,0,1,1-.519-.5A.508.508,0,0,1,457.484,50.721Z" transform="translate(-433.061 -50.224)" fill="#fff"/><path d="M465.931,50.721a.52.52,0,1,1-.52-.5A.509.509,0,0,1,465.931,50.721Z" transform="translate(-436.831 -50.224)" fill="#fff"/><path d="M474.377,50.721a.52.52,0,1,1-.519-.5A.508.508,0,0,1,474.377,50.721Z" transform="translate(-440.6 -50.224)" fill="#fff"/><path d="M482.823,50.721a.52.52,0,1,1-.519-.5A.509.509,0,0,1,482.823,50.721Z" transform="translate(-444.369 -50.224)" fill="#fff"/><path d="M491.27,50.721a.52.52,0,1,1-.52-.5A.509.509,0,0,1,491.27,50.721Z" transform="translate(-448.139 -50.224)" fill="#fff"/><path d="M499.716,50.721a.52.52,0,1,1-.52-.5A.509.509,0,0,1,499.716,50.721Z" transform="translate(-451.908 -50.224)" fill="#fff"/><g transform="translate(0 3.976)"><path d="M415.253,58.229a.52.52,0,1,1-.52-.5A.509.509,0,0,1,415.253,58.229Z" transform="translate(-414.214 -57.732)" fill="#fff"/><path d="M423.7,58.229a.52.52,0,1,1-.519-.5A.509.509,0,0,1,423.7,58.229Z" transform="translate(-417.983 -57.732)" fill="#fff"/><path d="M432.145,58.229a.52.52,0,1,1-.519-.5A.509.509,0,0,1,432.145,58.229Z" transform="translate(-421.752 -57.732)" fill="#fff"/><path d="M440.592,58.229a.52.52,0,1,1-.52-.5A.509.509,0,0,1,440.592,58.229Z" transform="translate(-425.522 -57.732)" fill="#fff"/><path d="M449.038,58.229a.52.52,0,1,1-.519-.5A.509.509,0,0,1,449.038,58.229Z" transform="translate(-429.292 -57.732)" fill="#fff"/><path d="M457.484,58.229a.52.52,0,1,1-.519-.5A.508.508,0,0,1,457.484,58.229Z" transform="translate(-433.061 -57.732)" fill="#fff"/><path d="M465.931,58.229a.52.52,0,1,1-.52-.5A.509.509,0,0,1,465.931,58.229Z" transform="translate(-436.831 -57.732)" fill="#fff"/><path d="M474.377,58.229a.52.52,0,1,1-.519-.5A.508.508,0,0,1,474.377,58.229Z" transform="translate(-440.6 -57.732)" fill="#fff"/><path d="M482.823,58.229a.52.52,0,1,1-.519-.5A.509.509,0,0,1,482.823,58.229Z" transform="translate(-444.369 -57.732)" fill="#fff"/><path d="M491.27,58.229a.52.52,0,1,1-.52-.5A.509.509,0,0,1,491.27,58.229Z" transform="translate(-448.139 -57.732)" fill="#fff"/><path d="M499.716,58.229a.52.52,0,1,1-.52-.5A.509.509,0,0,1,499.716,58.229Z" transform="translate(-451.908 -57.732)" fill="#fff"/></g><g transform="translate(0 7.951)"><ellipse cx="0.52" cy="0.497" rx="0.52" ry="0.497" fill="#fff"/><path d="M423.7,65.737a.52.52,0,1,1-.519-.5A.509.509,0,0,1,423.7,65.737Z" transform="translate(-417.983 -65.24)" fill="#fff"/><ellipse cx="0.52" cy="0.497" rx="0.52" ry="0.497" transform="translate(9.354)" fill="#fff"/><path d="M440.592,65.737a.52.52,0,1,1-.52-.5A.509.509,0,0,1,440.592,65.737Z" transform="translate(-425.522 -65.24)" fill="#fff"/><path d="M449.038,65.737a.52.52,0,1,1-.519-.5A.509.509,0,0,1,449.038,65.737Z" transform="translate(-429.292 -65.24)" fill="#fff"/><ellipse cx="0.52" cy="0.497" rx="0.52" ry="0.497" transform="translate(23.384)" fill="#fff"/><path d="M465.931,65.737a.52.52,0,1,1-.52-.5A.509.509,0,0,1,465.931,65.737Z" transform="translate(-436.831 -65.24)" fill="#fff"/><ellipse cx="0.52" cy="0.497" rx="0.52" ry="0.497" transform="translate(32.738)" fill="#fff"/><ellipse cx="0.52" cy="0.497" rx="0.52" ry="0.497" transform="translate(37.415)" fill="#fff"/><path d="M491.27,65.737a.52.52,0,1,1-.52-.5A.509.509,0,0,1,491.27,65.737Z" transform="translate(-448.139 -65.24)" fill="#fff"/><path d="M499.716,65.737a.52.52,0,1,1-.52-.5A.509.509,0,0,1,499.716,65.737Z" transform="translate(-451.908 -65.24)" fill="#fff"/></g><g transform="translate(0 11.927)"><ellipse cx="0.52" cy="0.497" rx="0.52" ry="0.497" transform="translate(0 0)" fill="#fff"/><path d="M423.7,73.244a.52.52,0,1,1-.519-.5A.508.508,0,0,1,423.7,73.244Z" transform="translate(-417.983 -72.747)" fill="#fff"/><ellipse cx="0.52" cy="0.497" rx="0.52" ry="0.497" transform="translate(9.354 0)" fill="#fff"/><path d="M440.592,73.244a.52.52,0,1,1-.52-.5A.509.509,0,0,1,440.592,73.244Z" transform="translate(-425.522 -72.747)" fill="#fff"/><path d="M449.038,73.244a.52.52,0,1,1-.519-.5A.509.509,0,0,1,449.038,73.244Z" transform="translate(-429.292 -72.747)" fill="#fff"/><ellipse cx="0.52" cy="0.497" rx="0.52" ry="0.497" transform="translate(23.384 0)" fill="#fff"/><path d="M465.931,73.244a.52.52,0,1,1-.52-.5A.509.509,0,0,1,465.931,73.244Z" transform="translate(-436.831 -72.747)" fill="#fff"/><ellipse cx="0.52" cy="0.497" rx="0.52" ry="0.497" transform="translate(32.738 0)" fill="#fff"/><ellipse cx="0.52" cy="0.497" rx="0.52" ry="0.497" transform="translate(37.415 0)" fill="#fff"/><path d="M491.27,73.244a.52.52,0,1,1-.52-.5A.509.509,0,0,1,491.27,73.244Z" transform="translate(-448.139 -72.747)" fill="#fff"/><path d="M499.716,73.244a.52.52,0,1,1-.52-.5A.509.509,0,0,1,499.716,73.244Z" transform="translate(-451.908 -72.747)" fill="#fff"/></g><g transform="translate(0 15.902)"><path d="M415.253,80.752a.52.52,0,1,1-.52-.5A.509.509,0,0,1,415.253,80.752Z" transform="translate(-414.214 -80.255)" fill="#fff"/><path d="M423.7,80.752a.52.52,0,1,1-.519-.5A.508.508,0,0,1,423.7,80.752Z" transform="translate(-417.983 -80.255)" fill="#fff"/><path d="M432.145,80.752a.52.52,0,1,1-.519-.5A.508.508,0,0,1,432.145,80.752Z" transform="translate(-421.752 -80.255)" fill="#fff"/><path d="M440.592,80.752a.52.52,0,1,1-.52-.5A.509.509,0,0,1,440.592,80.752Z" transform="translate(-425.522 -80.255)" fill="#fff"/><path d="M449.038,80.752a.52.52,0,1,1-.519-.5A.509.509,0,0,1,449.038,80.752Z" transform="translate(-429.292 -80.255)" fill="#fff"/><path d="M457.484,80.752a.52.52,0,1,1-.519-.5A.508.508,0,0,1,457.484,80.752Z" transform="translate(-433.061 -80.255)" fill="#fff"/><path d="M465.931,80.752a.52.52,0,1,1-.52-.5A.509.509,0,0,1,465.931,80.752Z" transform="translate(-436.831 -80.255)" fill="#fff"/><path d="M474.377,80.752a.52.52,0,1,1-.519-.5A.508.508,0,0,1,474.377,80.752Z" transform="translate(-440.6 -80.255)" fill="#fff"/><path d="M482.823,80.752a.52.52,0,1,1-.519-.5A.509.509,0,0,1,482.823,80.752Z" transform="translate(-444.369 -80.255)" fill="#fff"/><path d="M491.27,80.752a.52.52,0,1,1-.52-.5A.509.509,0,0,1,491.27,80.752Z" transform="translate(-448.139 -80.255)" fill="#fff"/><path d="M499.716,80.752a.52.52,0,1,1-.52-.5A.509.509,0,0,1,499.716,80.752Z" transform="translate(-451.908 -80.255)" fill="#fff"/></g><g transform="translate(0 19.878)"><ellipse cx="0.52" cy="0.497" rx="0.52" ry="0.497" transform="translate(0 0)" fill="#fff"/><path d="M423.7,88.26a.52.52,0,1,1-.519-.5A.508.508,0,0,1,423.7,88.26Z" transform="translate(-417.983 -87.763)" fill="#fff"/><ellipse cx="0.52" cy="0.497" rx="0.52" ry="0.497" transform="translate(9.354 0)" fill="#fff"/><path d="M440.592,88.26a.52.52,0,1,1-.52-.5A.509.509,0,0,1,440.592,88.26Z" transform="translate(-425.522 -87.763)" fill="#fff"/><path d="M449.038,88.26a.52.52,0,1,1-.519-.5A.509.509,0,0,1,449.038,88.26Z" transform="translate(-429.292 -87.763)" fill="#fff"/><ellipse cx="0.52" cy="0.497" rx="0.52" ry="0.497" transform="translate(23.384 0)" fill="#fff"/><path d="M465.931,88.26a.52.52,0,1,1-.52-.5A.509.509,0,0,1,465.931,88.26Z" transform="translate(-436.831 -87.763)" fill="#fff"/><ellipse cx="0.52" cy="0.497" rx="0.52" ry="0.497" transform="translate(32.738 0)" fill="#fff"/><ellipse cx="0.52" cy="0.497" rx="0.52" ry="0.497" transform="translate(37.415 0)" fill="#fff"/><path d="M491.27,88.26a.52.52,0,1,1-.52-.5A.509.509,0,0,1,491.27,88.26Z" transform="translate(-448.139 -87.763)" fill="#fff"/><path d="M499.716,88.26a.52.52,0,1,1-.52-.5A.509.509,0,0,1,499.716,88.26Z" transform="translate(-451.908 -87.763)" fill="#fff"/></g><g transform="translate(0 23.854)"><ellipse cx="0.52" cy="0.497" rx="0.52" ry="0.497" fill="#fff"/><path d="M423.7,95.768a.52.52,0,1,1-.519-.5A.509.509,0,0,1,423.7,95.768Z" transform="translate(-417.983 -95.271)" fill="#fff"/><ellipse cx="0.52" cy="0.497" rx="0.52" ry="0.497" transform="translate(9.354)" fill="#fff"/><path d="M440.592,95.768a.52.52,0,1,1-.52-.5A.509.509,0,0,1,440.592,95.768Z" transform="translate(-425.522 -95.271)" fill="#fff"/><path d="M449.038,95.768a.52.52,0,1,1-.519-.5A.509.509,0,0,1,449.038,95.768Z" transform="translate(-429.292 -95.271)" fill="#fff"/><ellipse cx="0.52" cy="0.497" rx="0.52" ry="0.497" transform="translate(23.384)" fill="#fff"/><path d="M465.931,95.768a.52.52,0,1,1-.52-.5A.509.509,0,0,1,465.931,95.768Z" transform="translate(-436.831 -95.271)" fill="#fff"/><ellipse cx="0.52" cy="0.497" rx="0.52" ry="0.497" transform="translate(32.738)" fill="#fff"/><ellipse cx="0.52" cy="0.497" rx="0.52" ry="0.497" transform="translate(37.415)" fill="#fff"/><path d="M491.27,95.768a.52.52,0,1,1-.52-.5A.509.509,0,0,1,491.27,95.768Z" transform="translate(-448.139 -95.271)" fill="#fff"/><path d="M499.716,95.768a.52.52,0,1,1-.52-.5A.509.509,0,0,1,499.716,95.768Z" transform="translate(-451.908 -95.271)" fill="#fff"/></g><g transform="translate(0 27.83)"><path d="M415.253,103.276a.52.52,0,1,1-.52-.5A.509.509,0,0,1,415.253,103.276Z" transform="translate(-414.214 -102.779)" fill="#fff"/><path d="M423.7,103.276a.52.52,0,1,1-.519-.5A.509.509,0,0,1,423.7,103.276Z" transform="translate(-417.983 -102.779)" fill="#fff"/><path d="M432.145,103.276a.52.52,0,1,1-.519-.5A.509.509,0,0,1,432.145,103.276Z" transform="translate(-421.752 -102.779)" fill="#fff"/><path d="M440.592,103.276a.52.52,0,1,1-.52-.5A.509.509,0,0,1,440.592,103.276Z" transform="translate(-425.522 -102.779)" fill="#fff"/><path d="M449.038,103.276a.52.52,0,1,1-.519-.5A.509.509,0,0,1,449.038,103.276Z" transform="translate(-429.292 -102.779)" fill="#fff"/><path d="M457.484,103.276a.52.52,0,1,1-.519-.5A.508.508,0,0,1,457.484,103.276Z" transform="translate(-433.061 -102.779)" fill="#fff"/><path d="M465.931,103.276a.52.52,0,1,1-.52-.5A.509.509,0,0,1,465.931,103.276Z" transform="translate(-436.831 -102.779)" fill="#fff"/><path d="M474.377,103.276a.52.52,0,1,1-.519-.5A.508.508,0,0,1,474.377,103.276Z" transform="translate(-440.6 -102.779)" fill="#fff"/><path d="M482.823,103.276a.52.52,0,1,1-.519-.5A.509.509,0,0,1,482.823,103.276Z" transform="translate(-444.369 -102.779)" fill="#fff"/><path d="M491.27,103.276a.52.52,0,1,1-.52-.5A.509.509,0,0,1,491.27,103.276Z" transform="translate(-448.139 -102.779)" fill="#fff"/><path d="M499.716,103.276a.52.52,0,1,1-.52-.5A.509.509,0,0,1,499.716,103.276Z" transform="translate(-451.908 -102.779)" fill="#fff"/></g><g transform="translate(0 31.805)"><ellipse cx="0.52" cy="0.497" rx="0.52" ry="0.497" fill="#fff"/><path d="M423.7,110.784a.52.52,0,1,1-.519-.5A.509.509,0,0,1,423.7,110.784Z" transform="translate(-417.983 -110.287)" fill="#fff"/><ellipse cx="0.52" cy="0.497" rx="0.52" ry="0.497" transform="translate(9.354)" fill="#fff"/><path d="M440.592,110.784a.52.52,0,1,1-.52-.5A.509.509,0,0,1,440.592,110.784Z" transform="translate(-425.522 -110.287)" fill="#fff"/><path d="M449.038,110.784a.52.52,0,1,1-.519-.5A.509.509,0,0,1,449.038,110.784Z" transform="translate(-429.292 -110.287)" fill="#fff"/><ellipse cx="0.52" cy="0.497" rx="0.52" ry="0.497" transform="translate(23.384)" fill="#fff"/><path d="M465.931,110.784a.52.52,0,1,1-.52-.5A.509.509,0,0,1,465.931,110.784Z" transform="translate(-436.831 -110.287)" fill="#fff"/><ellipse cx="0.52" cy="0.497" rx="0.52" ry="0.497" transform="translate(32.738)" fill="#fff"/><ellipse cx="0.52" cy="0.497" rx="0.52" ry="0.497" transform="translate(37.415)" fill="#fff"/><path d="M491.27,110.784a.52.52,0,1,1-.52-.5A.509.509,0,0,1,491.27,110.784Z" transform="translate(-448.139 -110.287)" fill="#fff"/><path d="M499.716,110.784a.52.52,0,1,1-.52-.5A.509.509,0,0,1,499.716,110.784Z" transform="translate(-451.908 -110.287)" fill="#fff"/></g><g transform="translate(0 35.781)"><path d="M415.253,118.291a.52.52,0,1,1-.52-.5A.509.509,0,0,1,415.253,118.291Z" transform="translate(-414.214 -117.794)" fill="#fff"/><path d="M423.7,118.291a.52.52,0,1,1-.519-.5A.509.509,0,0,1,423.7,118.291Z" transform="translate(-417.983 -117.794)" fill="#fff"/><path d="M432.145,118.291a.52.52,0,1,1-.519-.5A.509.509,0,0,1,432.145,118.291Z" transform="translate(-421.752 -117.794)" fill="#fff"/><path d="M440.592,118.291a.52.52,0,1,1-.52-.5A.509.509,0,0,1,440.592,118.291Z" transform="translate(-425.522 -117.794)" fill="#fff"/><path d="M449.038,118.291a.52.52,0,1,1-.519-.5A.509.509,0,0,1,449.038,118.291Z" transform="translate(-429.292 -117.794)" fill="#fff"/><path d="M457.484,118.291a.52.52,0,1,1-.519-.5A.509.509,0,0,1,457.484,118.291Z" transform="translate(-433.061 -117.794)" fill="#fff"/><path d="M465.931,118.291a.52.52,0,1,1-.52-.5A.509.509,0,0,1,465.931,118.291Z" transform="translate(-436.831 -117.794)" fill="#fff"/><path d="M474.377,118.291a.52.52,0,1,1-.519-.5A.509.509,0,0,1,474.377,118.291Z" transform="translate(-440.6 -117.794)" fill="#fff"/><path d="M482.823,118.291a.52.52,0,1,1-.519-.5A.509.509,0,0,1,482.823,118.291Z" transform="translate(-444.369 -117.794)" fill="#fff"/><path d="M491.27,118.291a.52.52,0,1,1-.52-.5A.509.509,0,0,1,491.27,118.291Z" transform="translate(-448.139 -117.794)" fill="#fff"/><path d="M499.716,118.291a.52.52,0,1,1-.52-.5A.509.509,0,0,1,499.716,118.291Z" transform="translate(-451.908 -117.794)" fill="#fff"/></g><g transform="translate(0 39.756)"><ellipse cx="0.52" cy="0.497" rx="0.52" ry="0.497" transform="translate(0 0)" fill="#fff"/><path d="M423.7,125.8a.52.52,0,1,1-.519-.5A.508.508,0,0,1,423.7,125.8Z" transform="translate(-417.983 -125.302)" fill="#fff"/><ellipse cx="0.52" cy="0.497" rx="0.52" ry="0.497" transform="translate(9.354 0)" fill="#fff"/><path d="M440.592,125.8a.52.52,0,1,1-.52-.5A.509.509,0,0,1,440.592,125.8Z" transform="translate(-425.522 -125.302)" fill="#fff"/><path d="M449.038,125.8a.52.52,0,1,1-.519-.5A.509.509,0,0,1,449.038,125.8Z" transform="translate(-429.292 -125.302)" fill="#fff"/><ellipse cx="0.52" cy="0.497" rx="0.52" ry="0.497" transform="translate(23.384 0)" fill="#fff"/><path d="M465.931,125.8a.52.52,0,1,1-.52-.5A.509.509,0,0,1,465.931,125.8Z" transform="translate(-436.831 -125.302)" fill="#fff"/><ellipse cx="0.52" cy="0.497" rx="0.52" ry="0.497" transform="translate(32.738 0)" fill="#fff"/><ellipse cx="0.52" cy="0.497" rx="0.52" ry="0.497" transform="translate(37.415 0)" fill="#fff"/><path d="M491.27,125.8a.52.52,0,1,1-.52-.5A.509.509,0,0,1,491.27,125.8Z" transform="translate(-448.139 -125.302)" fill="#fff"/><path d="M499.716,125.8a.52.52,0,1,1-.52-.5A.509.509,0,0,1,499.716,125.8Z" transform="translate(-451.908 -125.302)" fill="#fff"/></g><g transform="translate(0 43.732)"><ellipse cx="0.52" cy="0.497" rx="0.52" ry="0.497" transform="translate(0 0)" fill="#fff"/><path d="M423.7,133.307a.52.52,0,1,1-.519-.5A.508.508,0,0,1,423.7,133.307Z" transform="translate(-417.983 -132.81)" fill="#fff"/><ellipse cx="0.52" cy="0.497" rx="0.52" ry="0.497" transform="translate(9.354 0)" fill="#fff"/><path d="M440.592,133.307a.52.52,0,1,1-.52-.5A.509.509,0,0,1,440.592,133.307Z" transform="translate(-425.522 -132.81)" fill="#fff"/><path d="M449.038,133.307a.52.52,0,1,1-.519-.5A.509.509,0,0,1,449.038,133.307Z" transform="translate(-429.292 -132.81)" fill="#fff"/><ellipse cx="0.52" cy="0.497" rx="0.52" ry="0.497" transform="translate(23.384 0)" fill="#fff"/><path d="M465.931,133.307a.52.52,0,1,1-.52-.5A.509.509,0,0,1,465.931,133.307Z" transform="translate(-436.831 -132.81)" fill="#fff"/><ellipse cx="0.52" cy="0.497" rx="0.52" ry="0.497" transform="translate(32.738 0)" fill="#fff"/><ellipse cx="0.52" cy="0.497" rx="0.52" ry="0.497" transform="translate(37.415 0)" fill="#fff"/><path d="M491.27,133.307a.52.52,0,1,1-.52-.5A.509.509,0,0,1,491.27,133.307Z" transform="translate(-448.139 -132.81)" fill="#fff"/><path d="M499.716,133.307a.52.52,0,1,1-.52-.5A.509.509,0,0,1,499.716,133.307Z" transform="translate(-451.908 -132.81)" fill="#fff"/></g></g></g></g><g transform="translate(-15540.018 -9034.545)"><g clip-path="url(#b)"><g transform="translate(0 0.001)"><g clip-path="url(#c)"><g transform="translate(0 68.116)" opacity="0.7" style="mix-blend-mode:multiply;isolation:isolate"><g clip-path="url(#d)"><path d="M157.193,73.241,110.726,47.877,73.871,69.157,56.3,51.831,0,83.586l1.635.945H56.526l39.493,22.8a9.906,9.906,0,0,0,4.268,0l56.9-32.854a.714.714,0,0,0,0-1.238" transform="translate(0 -47.878)" fill="#52017b"/></g></g></g></g><g transform="translate(45.706 16.671)"><g clip-path="url(#e)"><rect width="57.25" height="32.632" transform="translate(0 -0.001)" fill="url(#f)"/></g></g><g transform="translate(0 0.001)"><g clip-path="url(#c)"><path d="M44.259,86.392l-12.317-50.1-.415-.084,12.317,50.1a1.24,1.24,0,0,0,.895,1l.415.084a1.242,1.242,0,0,1-.895-1" transform="translate(13.327 15.305)" fill="#8b3dce"/></g></g><g transform="translate(44.794 49.219)"><g clip-path="url(#h)"><rect width="1.482" height="2.377" transform="translate(-0.155 -0.001)" fill="url(#i)"/></g></g><g transform="translate(0 0.001)"><g clip-path="url(#c)"><path d="M102.737,62.9,90.42,12.794c-.215-.872-.943-1.258-1.629-.862l-56.1,32.391a2.163,2.163,0,0,0-.852,2.293l12.317,50.1c.213.872.942,1.256,1.628.861l56.1-32.391a2.162,2.162,0,0,0,.852-2.293" transform="translate(13.433 4.978)" fill="#291b2a"/><path d="M99.932,58.576,88.71,12.925,32.693,45.267,43.929,90.909Z" transform="translate(13.82 5.463)" fill="#101014"/></g></g><g transform="translate(58.648 92.257)"><g clip-path="url(#k)"><rect width="98.638" height="35.053" transform="translate(-0.001 -0.001)" fill="url(#l)"/></g></g><g transform="translate(58.651 68.491)"><g clip-path="url(#m)"><rect width="98.978" height="57.262" transform="translate(-0.172 -0.001)" fill="url(#n)"/></g></g><g transform="translate(0 0.001)"><g clip-path="url(#c)"><path d="M92.371,54.558a.185.185,0,0,1,0-.088.191.191,0,0,1,0-.09.291.291,0,0,1,.175-.31l2.609-1.505a1.013,1.013,0,0,1,.918,0l2.192,1.266a.29.29,0,0,1,.176.31.23.23,0,0,1,0,.088.238.238,0,0,1,0,.09.288.288,0,0,1-.176.309l-2.608,1.507a1.013,1.013,0,0,1-.918,0l-2.194-1.266a.291.291,0,0,1-.175-.31m4.386-2.121L98.951,53.7a1.013,1.013,0,0,0,.918,0l2.609-1.507a.289.289,0,0,0,.175-.309.237.237,0,0,0,0-.09.237.237,0,0,0,0-.09.29.29,0,0,0-.175-.309l-2.194-1.266a1.013,1.013,0,0,0-.918,0l-2.609,1.505a.291.291,0,0,0-.175.31.23.23,0,0,0,0,.088.238.238,0,0,0,0,.09.291.291,0,0,0,.175.31M88.334,57.3l2.194,1.266a1.013,1.013,0,0,0,.918,0l2.608-1.507a.285.285,0,0,0,.175-.309.191.191,0,0,0,0-.09.185.185,0,0,0,0-.088.287.287,0,0,0-.175-.31L91.86,55a1.013,1.013,0,0,0-.918,0L88.334,56.5a.286.286,0,0,0-.175.309.191.191,0,0,0,0,.09.185.185,0,0,0,0,.088.289.289,0,0,0,.175.31M56.646,84.407l2.194,1.266a1.013,1.013,0,0,0,.918,0l2.609-1.505a.291.291,0,0,0,.175-.31.237.237,0,0,0,0-.09.23.23,0,0,0,0-.088.291.291,0,0,0-.175-.31L60.173,82.1a1.013,1.013,0,0,0-.918,0L56.646,83.61a.289.289,0,0,0-.175.309.191.191,0,0,0,0,.09.185.185,0,0,0,0,.088.291.291,0,0,0,.175.31M65.84,70.262l2.194,1.266a1.013,1.013,0,0,0,.918,0l2.608-1.507a.287.287,0,0,0,.175-.309.191.191,0,0,0,0-.09.191.191,0,0,0,0-.09.288.288,0,0,0-.175-.309l-2.194-1.266a1.013,1.013,0,0,0-.918,0L65.84,69.464a.287.287,0,0,0-.175.31.185.185,0,0,0,0,.088.191.191,0,0,0,0,.09.287.287,0,0,0,.175.31M74.262,65.4l2.194,1.268a1.013,1.013,0,0,0,.918,0l2.609-1.507a.289.289,0,0,0,.175-.309.237.237,0,0,0,0-.09.237.237,0,0,0,0-.09.289.289,0,0,0-.175-.309l-2.194-1.268a1.022,1.022,0,0,0-.918,0L74.262,64.6a.291.291,0,0,0-.175.31.23.23,0,0,0,0,.088.238.238,0,0,0,0,.09.289.289,0,0,0,.175.309m8.424-4.863L84.88,61.8a1.013,1.013,0,0,0,.918,0l3.967-2.289a.291.291,0,0,0,.175-.31.23.23,0,0,0,0-.088.238.238,0,0,0,0-.09.289.289,0,0,0-.175-.309L87.57,57.448a1.013,1.013,0,0,0-.918,0l-3.967,2.291a.285.285,0,0,0-.175.309.191.191,0,0,0,0,.09.191.191,0,0,0,0,.09.285.285,0,0,0,.175.309m-4.213,2.431,2.194,1.268a1.022,1.022,0,0,0,.918,0l2.609-1.507a.291.291,0,0,0,.175-.31.23.23,0,0,0,0-.088.237.237,0,0,0,0-.09.289.289,0,0,0-.175-.309L82,60.663a1.013,1.013,0,0,0-.918,0L78.474,62.17a.291.291,0,0,0-.175.31.23.23,0,0,0,0,.088.237.237,0,0,0,0,.09.289.289,0,0,0,.175.309m-8.423,4.864L72.245,69.1a1.013,1.013,0,0,0,.918,0L75.77,67.59a.288.288,0,0,0,.176-.309.237.237,0,0,0,0-.09.237.237,0,0,0,0-.09.288.288,0,0,0-.176-.309l-2.192-1.266a1.016,1.016,0,0,0-.919,0l-2.608,1.505a.289.289,0,0,0-.175.31.185.185,0,0,0,0,.088.191.191,0,0,0,0,.09.289.289,0,0,0,.175.31m17.915-5.88,2.194,1.266a1.013,1.013,0,0,0,.918,0l2.609-1.505a.291.291,0,0,0,.175-.31.23.23,0,0,0,0-.088.237.237,0,0,0,0-.09.291.291,0,0,0-.175-.31l-2.194-1.266a1.016,1.016,0,0,0-.919,0l-2.608,1.507a.289.289,0,0,0-.175.309.191.191,0,0,0,0,.09.185.185,0,0,0,0,.088.291.291,0,0,0,.175.31M54.273,81.4l2.194,1.266a1.013,1.013,0,0,0,.918,0l2.609-1.505a.291.291,0,0,0,.175-.31.237.237,0,0,0,0-.09.23.23,0,0,0,0-.088.291.291,0,0,0-.175-.31L57.8,79.1a1.013,1.013,0,0,0-.918,0l-2.609,1.507a.289.289,0,0,0-.175.309.237.237,0,0,0,0,.09.23.23,0,0,0,0,.088.29.29,0,0,0,.175.31M83.755,64.382l2.194,1.266a1.013,1.013,0,0,0,.918,0l2.608-1.505a.289.289,0,0,0,.175-.31.185.185,0,0,0,0-.088.191.191,0,0,0,0-.09.289.289,0,0,0-.175-.31L87.28,62.079a1.013,1.013,0,0,0-.918,0l-2.608,1.507a.287.287,0,0,0-.175.309.191.191,0,0,0,0,.09.191.191,0,0,0,0,.09.287.287,0,0,0,.175.309m-4.213,2.431,2.2,1.268a1.019,1.019,0,0,0,.916,0l2.609-1.507a.291.291,0,0,0,.175-.31.185.185,0,0,0,0-.088.191.191,0,0,0,0-.09.289.289,0,0,0-.175-.309L83.069,64.51a1.013,1.013,0,0,0-.918,0l-2.609,1.507a.29.29,0,0,0-.175.309.237.237,0,0,0,0,.09.237.237,0,0,0,0,.09.289.289,0,0,0,.175.309m-4.211,2.431,2.194,1.268a1.013,1.013,0,0,0,.918,0l2.609-1.507a.291.291,0,0,0,.175-.31.23.23,0,0,0,0-.088.237.237,0,0,0,0-.09.289.289,0,0,0-.175-.309l-2.194-1.268a1.022,1.022,0,0,0-.918,0l-2.609,1.507a.291.291,0,0,0-.175.31.23.23,0,0,0,0,.088.237.237,0,0,0,0,.09.289.289,0,0,0,.175.309M58.484,78.972l2.194,1.266a1.013,1.013,0,0,0,.918,0l2.609-1.507a.288.288,0,0,0,.175-.309.237.237,0,0,0,0-.09.23.23,0,0,0,0-.088.291.291,0,0,0-.175-.31l-2.194-1.266a1.013,1.013,0,0,0-.918,0l-2.609,1.507a.288.288,0,0,0-.175.309.237.237,0,0,0,0,.09.23.23,0,0,0,0,.088.291.291,0,0,0,.175.31M62.7,76.541l2.2,1.266a1.013,1.013,0,0,0,.918,0L68.416,76.3a.289.289,0,0,0,.175-.309.191.191,0,0,0,0-.09.185.185,0,0,0,0-.088.291.291,0,0,0-.175-.31c-3.228-1.864-2.137-1.83-5.721.239a.291.291,0,0,0-.175.31.238.238,0,0,0,0,.09.23.23,0,0,0,0,.088.291.291,0,0,0,.175.31m4.213-2.431L69.1,75.376a1.013,1.013,0,0,0,.918,0l2.608-1.507a.287.287,0,0,0,.175-.309.191.191,0,0,0,0-.09.191.191,0,0,0,0-.09.288.288,0,0,0-.175-.309l-2.194-1.266a1.013,1.013,0,0,0-.918,0l-2.608,1.505a.289.289,0,0,0-.175.31.185.185,0,0,0,0,.088.191.191,0,0,0,0,.09.289.289,0,0,0,.175.31m4.211-2.431c2.153,1.242,2.527,1.6,3.112,1.266l2.609-1.507a.289.289,0,0,0,.175-.309.237.237,0,0,0,0-.09.237.237,0,0,0,0-.09.289.289,0,0,0-.175-.309l-2.194-1.266a1.013,1.013,0,0,0-.918,0L71.119,70.88a.291.291,0,0,0-.175.31.185.185,0,0,0,0,.088.191.191,0,0,0,0,.09.291.291,0,0,0,.175.31M63.61,87.705a.237.237,0,0,0,0-.09.23.23,0,0,0,0-.088.291.291,0,0,0-.175-.31l-2.194-1.266a1.013,1.013,0,0,0-.918,0l-3.967,2.291a.286.286,0,0,0-.175.309.191.191,0,0,0,0,.09.185.185,0,0,0,0,.088.289.289,0,0,0,.175.31L58.551,90.3a1.013,1.013,0,0,0,.918,0l3.967-2.291a.288.288,0,0,0,.175-.309m-5.281-1.416a.185.185,0,0,0,0-.088.191.191,0,0,0,0-.09.289.289,0,0,0-.175-.31L55.96,84.535a1.013,1.013,0,0,0-.918,0l-2.608,1.507a.287.287,0,0,0-.175.309.191.191,0,0,0,0,.09.191.191,0,0,0,0,.09.288.288,0,0,0,.175.309L54.629,88.1a1.013,1.013,0,0,0,.918,0L58.154,86.6a.289.289,0,0,0,.175-.31m3.3-13.6c3.163,1.825,2.069,1.868,5.721-.24a.289.289,0,0,0,.175-.309.238.238,0,0,0,0-.09.23.23,0,0,0,0-.088.291.291,0,0,0-.175-.31L65.154,70.39a1.013,1.013,0,0,0-.918,0L61.627,71.9a.288.288,0,0,0-.175.309.238.238,0,0,0,0,.09.23.23,0,0,0,0,.088.291.291,0,0,0,.175.31m44.13-9.288a.185.185,0,0,0,0-.088.191.191,0,0,0,0-.09.285.285,0,0,0-.175-.309l-2.194-1.268a1.013,1.013,0,0,0-.918,0l-2.608,1.507a.287.287,0,0,0-.175.309.191.191,0,0,0,0,.09.191.191,0,0,0,0,.09.287.287,0,0,0,.175.309l2.194,1.268a1.022,1.022,0,0,0,.918,0l2.608-1.507a.287.287,0,0,0,.175-.31m-49.8,19.88a.185.185,0,0,0,0-.088.191.191,0,0,0,0-.09.287.287,0,0,0-.175-.31l-2.194-1.266a1.013,1.013,0,0,0-.918,0L48.7,83.822a.288.288,0,0,0-.176.309.237.237,0,0,0,0,.09.237.237,0,0,0,0,.09.288.288,0,0,0,.176.309L50.9,85.885a1.013,1.013,0,0,0,.918,0L55.781,83.6a.287.287,0,0,0,.175-.31m1.46-8.161,2.194,1.266a1.013,1.013,0,0,0,.918,0l2.609-1.507a.288.288,0,0,0,.175-.309.237.237,0,0,0,0-.09.23.23,0,0,0,0-.088.291.291,0,0,0-.175-.31l-2.194-1.266a1.013,1.013,0,0,0-.918,0l-2.609,1.507a.289.289,0,0,0-.175.309.237.237,0,0,0,0,.09.23.23,0,0,0,0,.088.291.291,0,0,0,.175.31M53.2,77.557,55.4,78.823a1.013,1.013,0,0,0,.918,0l2.609-1.505a.291.291,0,0,0,.175-.31.237.237,0,0,0,0-.09.23.23,0,0,0,0-.088.291.291,0,0,0-.175-.31l-2.194-1.266a1.016,1.016,0,0,0-.919,0L53.2,76.76a.289.289,0,0,0-.175.309.191.191,0,0,0,0,.09.191.191,0,0,0,0,.09.29.29,0,0,0,.175.309M50.676,81.87a.185.185,0,0,0,0-.088.191.191,0,0,0,0-.09.289.289,0,0,0-.175-.309l-2.194-1.268a1.022,1.022,0,0,0-.918,0l-2.609,1.507a.29.29,0,0,0-.175.31.23.23,0,0,0,0,.088.237.237,0,0,0,0,.09.289.289,0,0,0,.175.309l2.194,1.268a1.022,1.022,0,0,0,.918,0L50.5,82.181a.291.291,0,0,0,.175-.31m-1.683-1.882,2.194,1.266a1.013,1.013,0,0,0,.918,0l2.608-1.505a.289.289,0,0,0,.175-.31.185.185,0,0,0,0-.088.191.191,0,0,0,0-.09.289.289,0,0,0-.175-.31l-2.194-1.266a1.013,1.013,0,0,0-.918,0l-2.608,1.507a.287.287,0,0,0-.175.309.191.191,0,0,0,0,.09.191.191,0,0,0,0,.09.287.287,0,0,0,.175.309m69.038-19.4a.289.289,0,0,0-.175-.309l-2.194-1.266a1.013,1.013,0,0,0-.918,0l-2.609,1.505a.291.291,0,0,0-.175.31.23.23,0,0,0,0,.088.237.237,0,0,0,0,.09.292.292,0,0,0,.175.31l2.194,1.266a1.016,1.016,0,0,0,.919,0l2.608-1.507a.289.289,0,0,0,.175-.309.191.191,0,0,0,0-.09.191.191,0,0,0,0-.09M101.34,65.333l-2.194-1.266a1.013,1.013,0,0,0-.918,0l-2.609,1.505a.291.291,0,0,0-.175.31.238.238,0,0,0,0,.09.23.23,0,0,0,0,.088.291.291,0,0,0,.175.31l2.194,1.266a1.013,1.013,0,0,0,.918,0l2.609-1.507a.289.289,0,0,0,.175-.309.237.237,0,0,0,0-.09.23.23,0,0,0,0-.088.291.291,0,0,0-.175-.31m8.455-4.846L107.6,59.221a1.013,1.013,0,0,0-.918,0l-2.609,1.507a.289.289,0,0,0-.175.309.238.238,0,0,0,0,.09.238.238,0,0,0,0,.09.289.289,0,0,0,.175.309l2.194,1.266a1.013,1.013,0,0,0,.918,0l2.609-1.505a.291.291,0,0,0,.175-.31.229.229,0,0,0,0-.088.237.237,0,0,0,0-.09.291.291,0,0,0-.175-.31M92.916,70.2l-2.194-1.266a1.013,1.013,0,0,0-.918,0L87.2,70.436a.287.287,0,0,0-.175.309.191.191,0,0,0,0,.09.185.185,0,0,0,0,.088.289.289,0,0,0,.175.31L89.39,72.5a1.013,1.013,0,0,0,.918,0l2.608-1.505a.287.287,0,0,0,.175-.31.191.191,0,0,0,0-.09.185.185,0,0,0,0-.088.287.287,0,0,0-.175-.31M108.11,58.6a.238.238,0,0,0,0,.09.23.23,0,0,0,0,.088.291.291,0,0,0,.175.31l2.194,1.266a1.013,1.013,0,0,0,.918,0l2.609-1.505a.291.291,0,0,0,.175-.31.231.231,0,0,0,0-.088.238.238,0,0,0,0-.09.291.291,0,0,0-.175-.31l-2.194-1.266a1.013,1.013,0,0,0-.918,0L108.285,58.3a.289.289,0,0,0-.175.309M76.069,79.923l-2.194-1.266a1.013,1.013,0,0,0-.918,0L70.35,80.162a.289.289,0,0,0-.175.31.185.185,0,0,0,0,.088.191.191,0,0,0,0,.09.286.286,0,0,0,.175.309l2.194,1.268a1.013,1.013,0,0,0,.918,0l2.608-1.507a.287.287,0,0,0,.175-.309.191.191,0,0,0,0-.09.191.191,0,0,0,0-.09.287.287,0,0,0-.175-.309m8.424-4.863L82.3,73.792a1.013,1.013,0,0,0-.918,0L78.772,75.3a.289.289,0,0,0-.175.309.237.237,0,0,0,0,.09.237.237,0,0,0,0,.09.289.289,0,0,0,.175.309l2.194,1.268a1.021,1.021,0,0,0,.918,0l2.609-1.507a.291.291,0,0,0,.175-.31.23.23,0,0,0,0-.088.238.238,0,0,0,0-.09.289.289,0,0,0-.175-.309m-4.211,2.431-2.194-1.268a1.022,1.022,0,0,0-.918,0L74.561,77.73a.291.291,0,0,0-.175.31.185.185,0,0,0,0,.088.191.191,0,0,0,0,.09.289.289,0,0,0,.175.309l2.194,1.268a1.022,1.022,0,0,0,.918,0l2.609-1.507a.291.291,0,0,0,.175-.31.23.23,0,0,0,0-.088.238.238,0,0,0,0-.09.289.289,0,0,0-.175-.309m-8.424,4.863-2.194-1.266a1.013,1.013,0,0,0-.918,0l-2.609,1.505a.291.291,0,0,0-.175.31.23.23,0,0,0,0,.088.237.237,0,0,0,0,.09.291.291,0,0,0,.175.31l2.194,1.266a1.016,1.016,0,0,0,.919,0l2.608-1.507a.287.287,0,0,0,.175-.309.191.191,0,0,0,0-.09.191.191,0,0,0,0-.09.288.288,0,0,0-.175-.309m-4.211,2.431-2.194-1.266a1.013,1.013,0,0,0-.918,0l-2.609,1.505a.291.291,0,0,0-.175.31.237.237,0,0,0,0,.09.23.23,0,0,0,0,.088.291.291,0,0,0,.175.31l2.194,1.266a1.013,1.013,0,0,0,.918,0l2.609-1.507a.289.289,0,0,0,.175-.309.237.237,0,0,0,0-.09.23.23,0,0,0,0-.088.291.291,0,0,0-.175-.31M88.7,72.627l-2.194-1.266a1.013,1.013,0,0,0-.918,0l-2.608,1.507a.288.288,0,0,0-.176.309.238.238,0,0,0,0,.09.238.238,0,0,0,0,.09.288.288,0,0,0,.176.309l2.192,1.266a1.013,1.013,0,0,0,.918,0L88.7,73.425a.291.291,0,0,0,.175-.31.185.185,0,0,0,0-.088.191.191,0,0,0,0-.09.291.291,0,0,0-.175-.31m8.424-4.863L94.934,66.5a1.013,1.013,0,0,0-.918,0L91.408,68a.289.289,0,0,0-.175.309.238.238,0,0,0,0,.09.23.23,0,0,0,0,.088.291.291,0,0,0,.175.31L93.6,70.067a1.013,1.013,0,0,0,.918,0l2.609-1.505a.291.291,0,0,0,.175-.31.237.237,0,0,0,0-.09.23.23,0,0,0,0-.088.291.291,0,0,0-.175-.31M74.215,85.349l-2.194-1.268a1.013,1.013,0,0,0-.918,0l-2.609,1.507a.289.289,0,0,0-.175.309.237.237,0,0,0,0,.09.237.237,0,0,0,0,.09.289.289,0,0,0,.175.309l2.194,1.266a1.013,1.013,0,0,0,.918,0l2.609-1.505a.291.291,0,0,0,.175-.31.23.23,0,0,0,0-.088.237.237,0,0,0,0-.09.288.288,0,0,0-.175-.309m4.211-2.433L76.233,81.65a1.013,1.013,0,0,0-.918,0l-2.608,1.507a.285.285,0,0,0-.175.309.191.191,0,0,0,0,.09.185.185,0,0,0,0,.088.287.287,0,0,0,.175.31L74.9,85.219a1.013,1.013,0,0,0,.918,0l2.608-1.505a.289.289,0,0,0,.175-.31.185.185,0,0,0,0-.088.191.191,0,0,0,0-.09.289.289,0,0,0-.175-.31M70,87.78,67.81,86.513a1.013,1.013,0,0,0-.918,0l-2.609,1.507a.29.29,0,0,0-.175.31.23.23,0,0,0,0,.088.237.237,0,0,0,0,.09.289.289,0,0,0,.175.309l2.194,1.268a1.022,1.022,0,0,0,.918,0L70,88.577a.291.291,0,0,0,.175-.31.23.23,0,0,0,0-.088.237.237,0,0,0,0-.09A.289.289,0,0,0,70,87.78m-4.211,2.431-2.2-1.268a1.022,1.022,0,0,0-.918,0l-2.608,1.507a.289.289,0,0,0-.175.31.185.185,0,0,0,0,.088.191.191,0,0,0,0,.09.287.287,0,0,0,.175.309l2.194,1.268a1.013,1.013,0,0,0,.918,0l2.609-1.507a.29.29,0,0,0,.175-.309.237.237,0,0,0,0-.09.237.237,0,0,0,0-.09.289.289,0,0,0-.175-.309M97.417,63.133l-2.194-1.266a1.013,1.013,0,0,0-.918,0l-3.967,2.291a.289.289,0,0,0-.175.309.191.191,0,0,0,0,.09.185.185,0,0,0,0,.088.291.291,0,0,0,.175.31l2.194,1.266a1.013,1.013,0,0,0,.918,0l3.967-2.289a.291.291,0,0,0,.175-.31.238.238,0,0,0,0-.09.23.23,0,0,0,0-.088.291.291,0,0,0-.175-.31m7.612,4.425-2.194-1.266a1.013,1.013,0,0,0-.918,0l-3.967,2.289a.291.291,0,0,0-.175.31.23.23,0,0,0,0,.088.238.238,0,0,0,0,.09.288.288,0,0,0,.175.309l2.194,1.268a1.013,1.013,0,0,0,.918,0l3.967-2.291a.287.287,0,0,0,.175-.309.191.191,0,0,0,0-.09.191.191,0,0,0,0-.09.287.287,0,0,0-.175-.309m8.616-4.847-2.194-1.266a1.013,1.013,0,0,0-.918,0l-2.609,1.505a.291.291,0,0,0-.175.31.23.23,0,0,0,0,.088.237.237,0,0,0,0,.09.291.291,0,0,0,.175.31l2.194,1.266a1.013,1.013,0,0,0,.918,0l2.609-1.507a.289.289,0,0,0,.175-.309.237.237,0,0,0,0-.09.229.229,0,0,0,0-.088.29.29,0,0,0-.175-.31m-4.211,2.431-2.194-1.266a1.013,1.013,0,0,0-.918,0l-2.609,1.505a.291.291,0,0,0-.175.31.237.237,0,0,0,0,.09.23.23,0,0,0,0,.088.291.291,0,0,0,.175.31l2.194,1.266a1.013,1.013,0,0,0,.918,0l2.609-1.507a.289.289,0,0,0,.175-.309.238.238,0,0,0,0-.09.231.231,0,0,0,0-.088.291.291,0,0,0-.175-.31m-9.879,5.62L97.36,69.5a1.013,1.013,0,0,0-.918,0L76.937,80.758a.288.288,0,0,0-.175.309.237.237,0,0,0,0,.09.23.23,0,0,0,0,.088.291.291,0,0,0,.175.31l2.194,1.266a1.013,1.013,0,0,0,.918,0L99.554,71.56a.291.291,0,0,0,.175-.31.185.185,0,0,0,0-.088.191.191,0,0,0,0-.09.291.291,0,0,0-.175-.31m-16.129.451-2.194-1.268a1.022,1.022,0,0,0-.918,0L77.7,71.452a.29.29,0,0,0-.175.309.237.237,0,0,0,0,.09.237.237,0,0,0,0,.09.289.289,0,0,0,.175.309L79.9,73.516a1.022,1.022,0,0,0,.918,0l2.609-1.507a.291.291,0,0,0,.175-.31.23.23,0,0,0,0-.088.238.238,0,0,0,0-.09.289.289,0,0,0-.175-.309m-4.211,2.431-2.2-1.268a1.019,1.019,0,0,0-.916,0l-2.609,1.507a.289.289,0,0,0-.175.31.185.185,0,0,0,0,.088.191.191,0,0,0,0,.09.286.286,0,0,0,.175.309l2.194,1.268a1.013,1.013,0,0,0,.918,0l2.609-1.507a.291.291,0,0,0,.175-.31.23.23,0,0,0,0-.088.238.238,0,0,0,0-.09.289.289,0,0,0-.175-.309m8.423-4.864-2.194-1.266a1.013,1.013,0,0,0-.918,0L81.915,69.02a.289.289,0,0,0-.175.309.237.237,0,0,0,0,.09.237.237,0,0,0,0,.09.289.289,0,0,0,.175.309l2.194,1.268a1.022,1.022,0,0,0,.918,0l2.609-1.507a.291.291,0,0,0,.175-.31.185.185,0,0,0,0-.088.191.191,0,0,0,0-.09.291.291,0,0,0-.175-.31m12.787-14.614a.191.191,0,0,0,0,.09.191.191,0,0,0,0,.09.287.287,0,0,0,.175.309l2.194,1.268a1.022,1.022,0,0,0,.918,0l2.608-1.507a.287.287,0,0,0,.175-.31.185.185,0,0,0,0-.088.191.191,0,0,0,0-.09.285.285,0,0,0-.175-.309l-2.194-1.268a1.013,1.013,0,0,0-.918,0L100.6,53.857a.287.287,0,0,0-.175.309M91.847,66.348l-2.194-1.266a1.013,1.013,0,0,0-.918,0l-2.608,1.507a.287.287,0,0,0-.175.309.191.191,0,0,0,0,.09.185.185,0,0,0,0,.088.289.289,0,0,0,.175.31l2.194,1.266a1.013,1.013,0,0,0,.918,0l2.608-1.505a.289.289,0,0,0,.175-.31.185.185,0,0,0,0-.088.191.191,0,0,0,0-.09.289.289,0,0,0-.175-.31M75,76.076l-2.194-1.266a1.013,1.013,0,0,0-.918,0l-2.608,1.505a.289.289,0,0,0-.175.31.185.185,0,0,0,0,.088.191.191,0,0,0,0,.09.289.289,0,0,0,.175.31l2.194,1.266a1.013,1.013,0,0,0,.918,0L75,76.872a.287.287,0,0,0,.175-.309.191.191,0,0,0,0-.09.191.191,0,0,0,0-.09A.287.287,0,0,0,75,76.076m-8.423,4.863-2.194-1.266a1.013,1.013,0,0,0-.918,0l-2.609,1.507a.288.288,0,0,0-.175.309.237.237,0,0,0,0,.09.23.23,0,0,0,0,.088.291.291,0,0,0,.175.31l2.194,1.266a1.013,1.013,0,0,0,.918,0l2.609-1.507a.288.288,0,0,0,.175-.309.237.237,0,0,0,0-.09.23.23,0,0,0,0-.088.291.291,0,0,0-.175-.31m4.211-2.431L68.6,77.241a1.013,1.013,0,0,0-.918,0l-2.609,1.505a.291.291,0,0,0-.175.31.237.237,0,0,0,0,.09.23.23,0,0,0,0,.088.291.291,0,0,0,.175.31l2.194,1.266a1.013,1.013,0,0,0,.918,0L70.789,79.3A.289.289,0,0,0,70.964,79a.191.191,0,0,0,0-.09.191.191,0,0,0,0-.09.289.289,0,0,0-.175-.309" transform="translate(18.854 21.146)" fill="#291b2a"/><path d="M50.505,81.831,47.9,83.338a1.013,1.013,0,0,1-.918,0l-2.194-1.266a.28.28,0,0,1,0-.531l2.609-1.505a1.013,1.013,0,0,1,.918,0L50.505,81.3a.279.279,0,0,1,0,.529m4.211-2.961L52.523,77.6a1.013,1.013,0,0,0-.918,0L49,79.109a.28.28,0,0,0,0,.531l2.194,1.266a1.013,1.013,0,0,0,.918,0L54.716,79.4a.279.279,0,0,0,0-.529m4.211-2.431-2.194-1.266a1.013,1.013,0,0,0-.918,0l-2.608,1.505a.28.28,0,0,0,0,.531L55.4,78.475a1.013,1.013,0,0,0,.918,0l2.608-1.507a.279.279,0,0,0,0-.529m4.211-2.431L60.945,72.74a1.019,1.019,0,0,0-.916,0L57.42,74.247a.279.279,0,0,0,0,.529l2.194,1.268a1.013,1.013,0,0,0,.918,0l2.608-1.507a.279.279,0,0,0,0-.529m4.213-2.431-2.194-1.268a1.013,1.013,0,0,0-.918,0l-2.609,1.507a.279.279,0,0,0,0,.529l2.194,1.268a1.022,1.022,0,0,0,.918,0l2.609-1.507a.279.279,0,0,0,0-.529m4.211-2.433-2.194-1.266a1.013,1.013,0,0,0-.918,0l-2.609,1.507a.279.279,0,0,0,0,.529l2.194,1.268a1.022,1.022,0,0,0,.918,0l2.609-1.507a.28.28,0,0,0,0-.531m4.211-2.431L73.58,65.446a1.013,1.013,0,0,0-.918,0l-2.608,1.507a.279.279,0,0,0,0,.529l2.194,1.266a1.013,1.013,0,0,0,.918,0l2.608-1.505a.28.28,0,0,0,0-.531m4.211-2.431-2.194-1.266a1.013,1.013,0,0,0-.918,0l-2.608,1.507a.279.279,0,0,0,0,.529l2.194,1.266a1.013,1.013,0,0,0,.918,0l2.608-1.505a.28.28,0,0,0,0-.531M84.2,61.849,82,60.583a1.013,1.013,0,0,0-.918,0l-2.609,1.505a.28.28,0,0,0,0,.531l2.194,1.266a1.013,1.013,0,0,0,.918,0L84.2,62.378a.279.279,0,0,0,0-.529m5.569-3.215-2.194-1.266a1.013,1.013,0,0,0-.918,0l-3.967,2.289a.28.28,0,0,0,0,.531l2.194,1.266a1.013,1.013,0,0,0,.918,0l3.967-2.291a.279.279,0,0,0,0-.529m15.819,4.2-2.194-1.266a1.013,1.013,0,0,0-.918,0l-2.609,1.505a.28.28,0,0,0,0,.531l2.2,1.266a1.01,1.01,0,0,0,.916,0l2.609-1.507a.279.279,0,0,0,0-.529m4.211-2.431L107.6,59.14a1.013,1.013,0,0,0-.918,0l-2.608,1.505a.28.28,0,0,0,0,.531l2.194,1.266a1.013,1.013,0,0,0,.918,0l2.608-1.507a.279.279,0,0,0,0-.529m4.213-2.431-2.194-1.266a1.016,1.016,0,0,0-.919,0l-2.608,1.505a.28.28,0,0,0,0,.531l2.194,1.266a1.013,1.013,0,0,0,.918,0L114.01,58.5a.279.279,0,0,0,0-.529m-4.574,7.085-2.194-1.266a1.013,1.013,0,0,0-.918,0L103.717,65.3a.279.279,0,0,0,0,.529L105.91,67.1a1.022,1.022,0,0,0,.918,0l2.608-1.507a.28.28,0,0,0,0-.531m4.211-2.431-2.192-1.266a1.016,1.016,0,0,0-.919,0l-2.608,1.507a.279.279,0,0,0,0,.529l2.194,1.266a1.013,1.013,0,0,0,.918,0l2.608-1.505a.28.28,0,0,0,0-.531M117.86,60.2l-2.194-1.266a1.013,1.013,0,0,0-.918,0l-2.609,1.507a.279.279,0,0,0,0,.529l2.194,1.266a1.013,1.013,0,0,0,.918,0l2.609-1.505a.28.28,0,0,0,0-.531M55.785,82.717l-2.194-1.266a1.013,1.013,0,0,0-.918,0L48.707,83.74a.28.28,0,0,0,0,.531L50.9,85.537a1.013,1.013,0,0,0,.918,0l3.967-2.291a.279.279,0,0,0,0-.529M60,80.286,57.8,79.018a1.022,1.022,0,0,0-.918,0l-2.608,1.507a.279.279,0,0,0,0,.529l2.194,1.268a1.013,1.013,0,0,0,.918,0L60,80.815a.279.279,0,0,0,0-.529m4.213-2.431-2.194-1.268a1.022,1.022,0,0,0-.918,0l-2.609,1.507a.279.279,0,0,0,0,.529l2.194,1.268a1.022,1.022,0,0,0,.918,0l2.609-1.507a.279.279,0,0,0,0-.529m4.211-2.433-2.194-1.266a1.013,1.013,0,0,0-.918,0L62.7,75.662a.279.279,0,0,0,0,.529l2.194,1.268a1.022,1.022,0,0,0,.918,0l2.609-1.507a.28.28,0,0,0,0-.531m4.211-2.431-2.194-1.266a1.013,1.013,0,0,0-.918,0l-2.609,1.507a.279.279,0,0,0,0,.529L69.1,75.026a1.013,1.013,0,0,0,.918,0l2.609-1.505a.28.28,0,0,0,0-.531m4.211-2.431-2.194-1.266a1.013,1.013,0,0,0-.918,0L71.123,70.8a.279.279,0,0,0,0,.529l2.194,1.266a1.013,1.013,0,0,0,.918,0l2.608-1.505a.28.28,0,0,0,0-.531m4.213-2.431-2.194-1.266a1.016,1.016,0,0,0-.919,0l-2.608,1.505a.28.28,0,0,0,0,.531l2.194,1.266a1.013,1.013,0,0,0,.918,0l2.609-1.505a.28.28,0,0,0,0-.531M85.267,65.7,83.073,64.43a1.013,1.013,0,0,0-.918,0l-2.609,1.505a.28.28,0,0,0,0,.531l2.194,1.266a1.013,1.013,0,0,0,.918,0l2.609-1.507a.279.279,0,0,0,0-.529m4.211-2.431L87.284,62a1.013,1.013,0,0,0-.918,0L83.757,63.5a.28.28,0,0,0,0,.531L85.951,65.3a1.013,1.013,0,0,0,.918,0l2.609-1.507a.279.279,0,0,0,0-.529m4.211-2.431L91.5,59.565a1.022,1.022,0,0,0-.918,0L87.97,61.072a.28.28,0,0,0,0,.531l2.194,1.266a1.013,1.013,0,0,0,.918,0l2.608-1.507a.279.279,0,0,0,0-.529M58.158,85.721l-2.194-1.266a1.013,1.013,0,0,0-.918,0L52.437,85.96a.28.28,0,0,0,0,.531l2.194,1.266a1.013,1.013,0,0,0,.918,0l2.609-1.507a.279.279,0,0,0,0-.529m4.211-2.431-2.194-1.268a1.013,1.013,0,0,0-.918,0L56.65,83.528a.279.279,0,0,0,0,.529l2.194,1.268a1.013,1.013,0,0,0,.918,0l2.608-1.507a.279.279,0,0,0,0-.529m4.211-2.431L64.387,79.59a1.013,1.013,0,0,0-.918,0L60.861,81.1a.279.279,0,0,0,0,.529l2.194,1.268a1.022,1.022,0,0,0,.918,0l2.608-1.507a.279.279,0,0,0,0-.529m4.213-2.433L68.6,77.159a1.013,1.013,0,0,0-.918,0l-2.609,1.507a.279.279,0,0,0,0,.529l2.194,1.266a1.013,1.013,0,0,0,.918,0l2.609-1.505a.28.28,0,0,0,0-.531m-5,11.7L63.6,88.864a1.013,1.013,0,0,0-.918,0l-2.608,1.505a.28.28,0,0,0,0,.531l2.194,1.266a1.013,1.013,0,0,0,.918,0L65.8,90.661a.28.28,0,0,0,0-.531M70.007,87.7l-2.192-1.266a1.016,1.016,0,0,0-.919,0l-2.608,1.505a.28.28,0,0,0,0,.531l2.194,1.266a1.013,1.013,0,0,0,.918,0l2.608-1.507a.279.279,0,0,0,0-.529m4.213-2.431L72.025,84a1.013,1.013,0,0,0-.918,0L68.5,85.506a.28.28,0,0,0,0,.531L70.692,87.3a1.013,1.013,0,0,0,.918,0L74.219,85.8a.279.279,0,0,0,0-.529m4.211-2.431-2.194-1.266a1.013,1.013,0,0,0-.918,0L72.71,83.075a.28.28,0,0,0,0,.531L74.9,84.871a1.013,1.013,0,0,0,.918,0l2.609-1.507a.279.279,0,0,0,0-.529m26.6-15.36-2.194-1.266a1.013,1.013,0,0,0-.918,0L97.955,68.5a.279.279,0,0,0,0,.529l2.194,1.266a1.013,1.013,0,0,0,.918,0l3.967-2.289a.28.28,0,0,0,0-.531M75,75.994l-2.194-1.266a1.013,1.013,0,0,0-.918,0l-2.609,1.507a.279.279,0,0,0,0,.529l2.194,1.266a1.013,1.013,0,0,0,.918,0L75,76.524a.28.28,0,0,0,0-.531m4.211-2.431L77.022,72.3a1.013,1.013,0,0,0-.918,0L73.5,73.8a.279.279,0,0,0,0,.529L75.69,75.6a1.013,1.013,0,0,0,.918,0l2.608-1.505a.28.28,0,0,0,0-.531m4.211-2.431-2.192-1.266a1.016,1.016,0,0,0-.919,0L77.708,71.37a.28.28,0,0,0,0,.531L79.9,73.167a1.013,1.013,0,0,0,.918,0l2.608-1.505a.28.28,0,0,0,0-.531M87.64,68.7l-2.194-1.266a1.013,1.013,0,0,0-.918,0l-2.609,1.505a.28.28,0,0,0,0,.531l2.194,1.266a1.013,1.013,0,0,0,.918,0l2.609-1.507a.279.279,0,0,0,0-.529m4.211-2.431L89.657,65a1.013,1.013,0,0,0-.918,0L86.13,66.507a.28.28,0,0,0,0,.531L88.324,68.3a1.013,1.013,0,0,0,.918,0L91.851,66.8a.279.279,0,0,0,0-.529m5.569-3.215-2.194-1.268a1.01,1.01,0,0,0-.916,0l-3.968,2.291a.28.28,0,0,0,0,.531l2.2,1.266a1.013,1.013,0,0,0,.918,0l3.965-2.291a.279.279,0,0,0,0-.529M63.438,87.136l-2.194-1.268a1.022,1.022,0,0,0-.918,0L56.36,88.159a.279.279,0,0,0,0,.529l2.194,1.268a1.013,1.013,0,0,0,.918,0l3.967-2.291a.279.279,0,0,0,0-.529M67.65,84.7l-2.194-1.268a1.013,1.013,0,0,0-.918,0L61.93,84.944a.279.279,0,0,0,0,.529l2.194,1.268a1.022,1.022,0,0,0,.918,0l2.609-1.507a.279.279,0,0,0,0-.529m4.211-2.433-2.194-1.266a1.013,1.013,0,0,0-.918,0l-2.609,1.507a.279.279,0,0,0,0,.529l2.194,1.266a1.013,1.013,0,0,0,.918,0L71.862,82.8a.28.28,0,0,0,0-.531m4.211-2.431-2.194-1.266a1.013,1.013,0,0,0-.918,0l-2.609,1.507a.279.279,0,0,0,0,.529l2.194,1.266a1.016,1.016,0,0,0,.919,0l2.608-1.505a.28.28,0,0,0,0-.531m4.211-2.431L78.09,76.143a1.013,1.013,0,0,0-.918,0L74.565,77.65a.279.279,0,0,0,0,.529l2.194,1.266a1.013,1.013,0,0,0,.918,0l2.608-1.507a.279.279,0,0,0,0-.529m19.274-6.728-2.194-1.268a1.022,1.022,0,0,0-.918,0L76.941,80.676a.279.279,0,0,0,0,.529l2.194,1.268a1.022,1.022,0,0,0,.918,0L99.558,71.21a.279.279,0,0,0,0-.529M84.5,74.978,82.3,73.712a1.013,1.013,0,0,0-.918,0l-2.609,1.505a.28.28,0,0,0,0,.531l2.194,1.266a1.013,1.013,0,0,0,.918,0L84.5,75.507a.279.279,0,0,0,0-.529m4.211-2.431L86.514,71.28a1.013,1.013,0,0,0-.918,0l-2.609,1.505a.28.28,0,0,0,0,.531l2.194,1.266a1.013,1.013,0,0,0,.918,0l2.609-1.507a.279.279,0,0,0,0-.529m4.211-2.431-2.194-1.268a1.022,1.022,0,0,0-.918,0L87.2,70.354a.28.28,0,0,0,0,.531l2.194,1.266a1.013,1.013,0,0,0,.918,0l2.609-1.507a.279.279,0,0,0,0-.529m4.211-2.431-2.194-1.268a1.022,1.022,0,0,0-.918,0l-2.608,1.507a.279.279,0,0,0,0,.529l2.194,1.268a1.013,1.013,0,0,0,.918,0l2.608-1.507a.279.279,0,0,0,0-.529m4.213-2.433-2.2-1.266a1.013,1.013,0,0,0-.918,0l-2.608,1.507a.279.279,0,0,0,0,.529l2.194,1.268a1.022,1.022,0,0,0,.918,0l2.609-1.507a.28.28,0,0,0,0-.531m-7.286-9.068-2.194-1.268a1.022,1.022,0,0,0-.918,0l-2.609,1.507a.279.279,0,0,0,0,.529l2.194,1.268a1.022,1.022,0,0,0,.918,0l2.609-1.507a.279.279,0,0,0,0-.529m4.211-2.433-2.194-1.266a1.013,1.013,0,0,0-.918,0L92.55,53.99a.279.279,0,0,0,0,.529l2.194,1.268a1.022,1.022,0,0,0,.918,0l2.608-1.507a.28.28,0,0,0,0-.531m4.211-2.431-2.194-1.266a1.013,1.013,0,0,0-.918,0l-2.608,1.507a.279.279,0,0,0,0,.529l2.194,1.266a1.013,1.013,0,0,0,.918,0l2.608-1.505a.28.28,0,0,0,0-.531m3.841,2.218-2.194-1.266a1.013,1.013,0,0,0-.918,0L100.6,53.775a.28.28,0,0,0,0,.531l2.194,1.266a1.016,1.016,0,0,0,.919,0l2.608-1.507a.279.279,0,0,0,0-.529" transform="translate(18.851 21.111)" fill="#412b42"/><g transform="translate(102.352 93.266)" opacity="0.2" style="mix-blend-mode:multiply;isolation:isolate"><g clip-path="url(#p)"><path d="M106.021,74.059,86.669,85.231a1.739,1.739,0,0,1-1.576,0L72.267,77.826a.48.48,0,0,1,0-.909L91.619,65.744a1.736,1.736,0,0,1,1.575,0l12.827,7.405a.48.48,0,0,1,0,.909" transform="translate(-71.941 -65.554)" fill="#f3befb"/></g></g><g transform="translate(102.353 93.266)" opacity="0.6" style="mix-blend-mode:multiply;isolation:isolate"><g clip-path="url(#q)"><path d="M72.267,77.149,91.619,65.975a1.748,1.748,0,0,1,1.576,0l12.826,7.407a.628.628,0,0,1,.307.339c.064-.2-.038-.417-.307-.572L93.195,65.743a1.748,1.748,0,0,0-1.576,0L72.267,76.915c-.269.156-.37.371-.307.572a.632.632,0,0,1,.307-.339" transform="translate(-71.941 -65.555)" fill="#cb89f0"/></g></g><g transform="translate(60.596 69.467)" opacity="0.6" style="mix-blend-mode:multiply;isolation:isolate"><g clip-path="url(#r)"><path d="M97.5,48.828,42.682,80.474l-.091.051,1.874,1.081L99.277,49.96l.09-.053ZM44.465,81.468l-1.633-.943L97.5,48.966l1.632.942Z" transform="translate(-42.592 -48.827)" fill="#cb89f0"/></g></g><path d="M88.751,55.238l-2.888-1.667a1.26,1.26,0,0,0-1.141,0l-6.61,3.816a.366.366,0,0,0-.221.374.237.237,0,0,0,0,.09.23.23,0,0,0,0,.088.366.366,0,0,0,.221.374l5.762,3.326a1.26,1.26,0,0,0,1.141,0l10.964-6.33a.365.365,0,0,0,.222-.374.316.316,0,0,0,0-.09.306.306,0,0,0,0-.088.365.365,0,0,0-.222-.374l-2.144-1.238a.838.838,0,0,0-.758,0l-3.683,2.1a.713.713,0,0,1-.642,0" transform="translate(32.925 22.426)" fill="#291b2a"/><path d="M95.982,54.3l-2.144-1.238a.838.838,0,0,0-.758,0l-3.685,2.1a.71.71,0,0,1-.64,0L85.866,53.49a1.26,1.26,0,0,0-1.141,0l-6.61,3.816a.348.348,0,0,0,0,.659l5.762,3.326a1.257,1.257,0,0,0,1.14,0l10.965-6.33a.348.348,0,0,0,0-.659" transform="translate(32.922 22.392)" fill="#412b42"/><path d="M61.4,84.681l2.255,1.3c.263.151.475.061.475-.2a.986.986,0,0,0-.477-.75l-2.255-1.3c-.262-.151-.475-.061-.475.2a.986.986,0,0,0,.477.751" transform="translate(25.752 35.363)" fill="#291b2a"/></g></g><g transform="translate(86.671 119.02)"><g clip-path="url(#s)"><path d="M63.274,85.625l.314.181,1.114-.642-.314-.182Zm-.69-.4.314.181,1.113-.642-.313-.182Zm-.69-.4.314.181,1.113-.643-.313-.181Zm-.69-.4.313.181,1.114-.643-.313-.181Z" transform="translate(-60.799 -83.601)" fill="#ad852c"/></g></g><g transform="translate(0 0.001)"><g clip-path="url(#c)"><g transform="translate(54.216 16.904)" opacity="0.3"><g clip-path="url(#u)"><g transform="translate(0.351 2.311)" style="mix-blend-mode:screen;isolation:isolate"><g clip-path="url(#v)"><path d="M98.567,52.8,44.322,83.911,38.353,44.62,92.6,13.506Z" transform="translate(-38.354 -13.506)" fill="#7b38d4"/></g></g><path d="M39.208,45.563l.994,6.552L92.7,22l-.994-6.55Z" transform="translate(-37.642 -10.373)" fill="#8821d8"/><path d="M92.723,14.318,38.477,45.431,38.107,43,92.353,11.882Z" transform="translate(-38.107 -11.881)" fill="#8821d8"/><path d="M74.165,15.184l-1.372.787-.208-1.363,1.373-.787Z" transform="translate(-23.532 -11.062)" fill="#6811bc"/><path d="M75.36,14.5l-1.372.787-.208-1.363,1.373-.785Z" transform="translate(-23.027 -11.351)" fill="#6811bc"/><path d="M73.957,13.913l.141.93.938-.538-.141-.93Zm.893.326-.616.353-.092-.612.616-.353Z" transform="translate(-22.952 -11.25)" fill="#fffff7"/><path d="M76.555,13.813l-1.372.787-.208-1.363,1.373-.787Z" transform="translate(-22.521 -11.641)" fill="#6811bc"/><path d="M75.17,13.33l.421.154-.31.573.135.05.312-.573.421.154.1-.185-.421-.154.312-.573L76,12.725l-.31.573-.423-.154Z" transform="translate(-22.439 -11.525)" fill="#fffff7"/><path d="M73.773,14.774l-.878.5-.026-.166.878-.5Z" transform="translate(-23.412 -10.729)" fill="#fffff7"/><path d="M39.208,45.563,44.666,81.5,81.3,60.479c0-.028,15.862-9.123,15.862-9.123L91.708,15.451Z" transform="translate(-37.641 -10.373)" fill="#8821d8"/></g></g><g transform="translate(62.702 14.328)" opacity="0.6"><g clip-path="url(#w)"><g transform="translate(0.242 2.396)" style="mix-blend-mode:screen;isolation:isolate"><g clip-path="url(#x)"><path d="M103.943,52.5,48.362,84.655l-4.12-40.74,55.58-32.159Z" transform="translate(-44.242 -11.756)" fill="#7b38d4"/></g></g><path d="M45.038,44.893l.687,6.792L99.512,20.564l-.687-6.792Z" transform="translate(-43.664 -8.507)" fill="#8821d8"/><path d="M99.907,12.6,44.327,44.756l-.255-2.525L99.651,10.072Z" transform="translate(-44.072 -10.071)" fill="#8821d8"/><path d="M80.923,13.5l-1.408.815L79.371,12.9l1.41-.815Z" transform="translate(-29.15 -9.221)" fill="#6811bc"/><path d="M82.151,12.785l-1.408.815L80.6,12.187l1.41-.815Z" transform="translate(-28.631 -9.522)" fill="#6811bc"/><path d="M80.772,12.176l.1.966.963-.558-.1-.965Zm.878.339-.632.366-.064-.633.632-.366Z" transform="translate(-28.558 -9.417)" fill="#fffff7"/><path d="M83.378,12.074l-1.408.815-.144-1.413,1.41-.815Z" transform="translate(-28.112 -9.822)" fill="#6811bc"/><path d="M82.013,11.573l.414.159-.337.595.132.051.339-.595.414.159.11-.191-.415-.159.339-.6-.134-.051-.337.595-.415-.159Z" transform="translate(-28.033 -9.702)" fill="#fffff7"/><path d="M80.547,13.07l-.9.522-.017-.172.9-.522Z" transform="translate(-29.042 -8.876)" fill="#fffff7"/><path d="M45.038,44.893l3.767,37.258L86.3,60.46c0-.03,16.29-9.46,16.29-9.46L98.824,13.772Z" transform="translate(-43.664 -8.507)" fill="#8821d8"/></g></g><g transform="translate(73.08 13.102)" opacity="0.2"><g clip-path="url(#y)"><path d="M109.921,52.231,51.366,86.038V43.016L109.921,9.209Z" transform="translate(-51.366 -9.21)" fill="#de78ff"/></g></g><g transform="translate(73.08 13.102)" style="mix-blend-mode:screen;isolation:isolate"><g clip-path="url(#y)"><path d="M109.921,52.231,51.366,86.038V43.016L109.921,9.209Z" transform="translate(-51.366 -9.21)" fill="#7b38d4"/></g></g><g transform="translate(74.028 16.258)" opacity="0.8"><g clip-path="url(#aa)"><path d="M52.032,44.138V83.356l56.656-32.741V11.429Z" transform="translate(-52.032 -11.428)" fill="#8821d8"/></g></g><path d="M109.921,10.1,51.366,43.905V41.238L109.921,7.431Z" transform="translate(21.714 3.14)" fill="#8821d8"/><path d="M89.987,11.046l-1.491.861V10.416l1.491-.861Z" transform="translate(37.409 4.038)" fill="#6811bc"/><path d="M91.286,10.3l-1.491.861V9.666L91.286,8.8Z" transform="translate(37.959 3.721)" fill="#6811bc"/><path d="M89.961,9.655v1.019l1.019-.588V9.067Zm.844.357-.669.387v-.67l.669-.386Z" transform="translate(38.029 3.832)" fill="#fffff7"/><path d="M92.585,9.546l-1.491.861V8.915l1.491-.861Z" transform="translate(38.508 3.404)" fill="#6811bc"/><path d="M91.266,9.016l.4.168-.4.629.128.054.4-.629.4.169.128-.2-.4-.169.4-.627-.128-.054-.4.627-.4-.168Z" transform="translate(38.58 3.531)" fill="#fffff7"/><path d="M89.645,10.6l-.955.551v-.181l.955-.552Z" transform="translate(37.492 4.402)" fill="#fffff7"/><g transform="translate(126.95 18.618)" style="mix-blend-mode:screen;isolation:isolate"><g clip-path="url(#ab)"><path d="M89.23,26.412V40.87l23.081-13.325V13.087Z" transform="translate(-89.23 -13.087)" fill="#f68aff"/></g></g><path d="M89.23,22.453V36.911l.868-1.175V22.82Z" transform="translate(37.72 9.491)" fill="#c460ea"/><g transform="translate(126.95 32.722)" opacity="0.7"><g clip-path="url(#ac)"><path d="M111.756,23,90.1,35.5l-.868,1.175,23.081-13.325Z" transform="translate(-89.23 -23)" fill="#c460ea"/></g></g><g transform="translate(149.473 18.618)" opacity="0.3"><g clip-path="url(#ad)"><path d="M105.061,14.443V27.19l.555.354V13.087Z" transform="translate(-105.061 -13.087)" fill="#c460ea"/></g></g><path d="M107.4,23.125c-.023-.007-7.758-.522-7.758-.522l-.037.091,7.755.515.519.339c.044-.081-.479-.423-.479-.423" transform="translate(42.106 9.554)" fill="#c460ea"/><path d="M99.256,24.519l-9.2,10.315-.831,1.125v.078l.1-.058.8-1.087L99.36,24.543Z" transform="translate(37.72 10.364)" fill="#c460ea"/><path d="M112.31,13.087l-.613,1.325-9.864,15.636L90.126,26.712l-.9-.3.819.37,11.82,3.366L111.8,14.41Z" transform="translate(37.72 5.531)" fill="#c460ea"/><g transform="translate(129.601 56.198)" style="mix-blend-mode:screen;isolation:isolate"><g clip-path="url(#ae)"><path d="M91.094,46.917v8.047l12.846-7.417V39.5Z" transform="translate(-91.094 -39.501)" fill="#f68aff"/></g></g><path d="M91.094,44.713V52.76l.484-.654V44.917Z" transform="translate(38.508 18.901)" fill="#c460ea"/><g transform="translate(129.601 64.047)" opacity="0.7"><g clip-path="url(#af)"><path d="M103.631,45.018l-12.053,6.96-.484.654,12.846-7.417Z" transform="translate(-91.094 -45.018)" fill="#c460ea"/></g></g><g transform="translate(142.137 56.198)" opacity="0.3"><g clip-path="url(#ag)"><path d="M99.9,40.255v7.1l.309.2V39.5Z" transform="translate(-99.905 -39.501)" fill="#c460ea"/></g></g><path d="M101.2,45.087c-.013,0-4.318-.29-4.318-.29-.021.05,4.3.337,4.3.337l.289.188c.026-.044-.266-.235-.266-.235" transform="translate(40.955 18.936)" fill="#c460ea"/><path d="M96.674,45.863,91.556,51.6l-.462.626a4.059,4.059,0,0,0,.5-.593l5.135-5.761Z" transform="translate(38.508 19.387)" fill="#c460ea"/><path d="M103.939,39.5l-.341.737-5.489,8.7-6.516-1.855-.5-.168.457.2L98.128,49l5.526-8.76Z" transform="translate(38.508 16.697)" fill="#c460ea"/><g transform="translate(90.834 20.863)" style="mix-blend-mode:screen;isolation:isolate"><g clip-path="url(#ah)"><path d="M63.845,25.549v11.81L82.7,26.474V14.664Z" transform="translate(-63.845 -14.665)" fill="#f68aff"/></g></g><path d="M63.845,22.315v11.81l.709-.96V22.616Z" transform="translate(26.989 9.433)" fill="#c460ea"/><g transform="translate(90.834 32.384)" opacity="0.7"><g clip-path="url(#ai)"><path d="M82.245,22.762,64.554,32.976l-.709.96L82.7,23.053Z" transform="translate(-63.845 -22.762)" fill="#c460ea"/></g></g><g transform="translate(109.233 20.863)" opacity="0.3"><g clip-path="url(#aj)"><path d="M76.777,15.773V26.186l.454.29V14.664Z" transform="translate(-76.777 -14.665)" fill="#c460ea"/></g></g><path d="M78.688,22.865c-.018-.006-6.337-.427-6.337-.427l-.031.074,6.335.421.424.277c.037-.067-.391-.346-.391-.346" transform="translate(30.572 9.484)" fill="#c460ea"/><path d="M72.035,24l-7.511,8.425-.679.921c.021.05.053.033.081.016l.656-.888,7.536-8.454Z" transform="translate(26.989 10.146)" fill="#c460ea"/><path d="M82.7,14.665l-.5,1.081L74.141,28.519,64.577,25.8l-.733-.246.67.3,9.655,2.75,8.11-12.857Z" transform="translate(26.989 6.198)" fill="#c460ea"/><g transform="translate(60.719 52.076)" style="mix-blend-mode:screen;isolation:isolate"><g clip-path="url(#ak)"><path d="M42.678,49.722V63.955L65.4,50.837V36.6Z" transform="translate(-42.678 -36.604)" fill="#f68aff"/></g></g><path d="M42.678,45.824V60.057l.855-1.157V46.186Z" transform="translate(18.041 19.37)" fill="#c460ea"/><g transform="translate(60.719 65.961)" opacity="0.7"><g clip-path="url(#al)"><path d="M64.854,46.363,43.533,58.672l-.855,1.158L65.4,46.711Z" transform="translate(-42.678 -46.363)" fill="#c460ea"/></g></g><g transform="translate(82.893 52.076)" opacity="0.3"><g clip-path="url(#am)"><path d="M58.264,37.939v12.55l.546.349V36.6Z" transform="translate(-58.264 -36.603)" fill="#c460ea"/></g></g><path d="M60.566,46.487c-.023-.007-7.637-.514-7.637-.514l-.037.088,7.634.508.511.333c.046-.08-.471-.415-.471-.415" transform="translate(22.359 19.433)" fill="#c460ea"/><path d="M52.549,47.859,43.5,58.013l-.818,1.11V59.2c.027-.014.064-.037.1-.057l.79-1.07,9.084-10.19Z" transform="translate(18.041 20.231)" fill="#c460ea"/><path d="M65.4,36.6l-.6,1.3L55.085,53.3,43.56,50.018l-.882-.3.807.363L55.121,53.4l9.773-15.495Z" transform="translate(18.041 15.473)" fill="#c460ea"/><g transform="translate(70.094 20.449)" style="mix-blend-mode:screen;isolation:isolate"><g clip-path="url(#an)"><path d="M49.268,22.625v8.953l14.293-8.252V14.373Z" transform="translate(-49.268 -14.373)" fill="#f68aff"/></g></g><path d="M49.268,20.173v8.953l.538-.728v-8Z" transform="translate(20.827 8.527)" fill="#c460ea"/><g transform="translate(70.094 29.182)" opacity="0.7"><g clip-path="url(#ao)"><path d="M63.216,20.512,49.806,28.254l-.538.728,14.291-8.252Z" transform="translate(-49.268 -20.512)" fill="#c460ea"/></g></g><g transform="translate(84.042 20.449)" opacity="0.3"><g clip-path="url(#ap)"><path d="M59.071,15.213v7.893l.343.221V14.374Z" transform="translate(-59.071 -14.373)" fill="#c460ea"/></g></g><path d="M60.513,20.59c-.014,0-4.8-.323-4.8-.323-.023.055,4.779.376,4.779.376l.322.209c.028-.05-.3-.262-.3-.262" transform="translate(23.549 8.567)" fill="#c460ea"/><path d="M55.477,21.453,49.783,27.84l-.515.7c.017.038.04.024.063.011l.5-.673,5.714-6.409Z" transform="translate(20.827 9.068)" fill="#c460ea"/><path d="M63.56,14.373l-.38.819-6.108,9.683-7.25-2.064-.555-.186.508.229,7.318,2.084,6.148-9.746Z" transform="translate(20.827 6.075)" fill="#c460ea"/><path d="M64.355,50.77V70.477L95.814,52.313V32.607Z" transform="translate(27.205 13.783)" fill="#f68aff"/><path d="M64.355,52.265l1.184.5,16.04-.28L95.062,35.96l.753-1.857L80.452,29.069Z" transform="translate(27.205 12.288)" fill="#c460ea"/><path d="M64.355,45.373V65.081l1.184-1.6v-17.6Z" transform="translate(27.205 19.18)" fill="#c460ea"/><g transform="translate(91.56 65.614)" opacity="0.7"><g clip-path="url(#aq)"><path d="M95.059,46.119,65.539,63.163l-1.184,1.6L95.814,46.6Z" transform="translate(-64.355 -46.119)" fill="#c460ea"/></g></g><g transform="translate(122.261 46.39)" opacity="0.3"><g clip-path="url(#ar)"><path d="M85.934,34.455l0,17.376.755.482V32.607Z" transform="translate(-85.934 -32.607)" fill="#c460ea"/></g></g><path d="M89.981,46.349c-.03-.01-13.419-.909-13.419-.909l-.1.121,13.462.9.709.461c.02-.013.041-.024.061-.036v-.075Z" transform="translate(32.323 19.208)" fill="#c460ea"/><path d="M65.487,63.375,64.355,64.91v.105l.137-.08,1.094-1.481L81.57,45.528l-.172,0Z" transform="translate(27.205 19.245)" fill="#c460ea"/></g></g><g transform="translate(90.719 21.168)"><g clip-path="url(#as)"><path d="M91.707,49.6l-24.94,14.4V36.175l24.94-14.4Z" transform="translate(-62.495 -11.963)" fill="#ffe1ff"/><path d="M79.135,31.216l3.793-2.19v.287L79.135,31.5Zm-.572,1.473v.287L81.71,31.16v-.289Zm-.3.458v-.287L74.5,35.034v.287Zm-1.111-.5,1.683-.972v-.287l-1.683.972Zm-.3.171V32.53l-2.093,1.208v.287Zm5.119-4.1,1.685-.972v-.287l-1.685.972Zm1.245.135v.287l3.5-2.019v-.287ZM85.46,28.7l-3.454,2v.287l3.454-1.995ZM74.2,35.492v-.287l-5.381,3.106V38.6Zm.27-2.439,3.767-2.175V30.59l-3.767,2.177Zm4.065-2.347,3.144-1.815V28.6l-3.144,1.815ZM74.18,33.225v-.287L68.837,36.02v.289Zm9.778-5.647L86.35,26.2v-.289L83.958,27.29Zm-9.487,6.331-5.658,3.268v.287L74.471,34.2Zm4.092.622v.287L81.71,33v-.287Zm-.3.458V34.7L74.5,36.877v.287Zm.024.841v.287l2.091-1.209V34.62Zm2.39-1.38v.287l1.682-.97v-.289Zm.105,1.08v.287L83.932,34v-.287Zm-3.77,3.318v.289l2.093-1.209v-.287ZM80.491,35.7l-3.767,2.175v.287l3.767-2.175Zm.6.8-1.683.972v.287l1.683-.972Zm5.364-5.379-3.793,2.19v.287l3.793-2.19ZM76.427,38.334v-.287l-7.6,4.388v.287Zm-3.548.908v-.287L68.831,41.29v.287ZM85.46,30.547l-3.454,2v.287l3.454-1.995ZM74.2,37.335v-.287l-5.381,3.106v.287Zm7.181-1.009v.287l3.793-2.19v-.289Zm2.844-2.784v.287l1.683-.972V32.57ZM71.6,42.26v-.287l-2.726,1.575v.287Zm5.118-3.241L71.9,41.8v.287l4.822-2.783Zm9.037-8.643v.287l2.02-1.165v-.287ZM78,36.288V36l-4.82,2.783v.287ZM86.207,32.4v.287l1.04-.6V31.8Zm.4.912-1.131.653v.289L86.6,33.6Zm-9.588,7.246v.287l2.093-1.208v-.287Zm-.563,1.754v-.287l-3.722,2.15v.287Zm4.635-4.1-1.683.972v.287l1.683-.972ZM77.27,42.694v.287l3.722-2.148v-.287Zm4.115-4.658v.287l3.793-2.19v-.289Zm2.87-.228,2.2-1.273v-.287l-2.2,1.272Zm-2.966,2.567v.287l1.63-.942v-.287Zm-9.684,3.6v-.287l-2.726,1.574v.287Zm5.118-3.242L71.9,43.511V43.8l4.822-2.784Zm.028,1.125v.287l3.767-2.175v-.287Zm7.209-4.161-3.146,1.815v.287l3.146-1.815Zm-2.064,3.474L79.8,42.374v.287l2.093-1.208ZM86.6,35.022l-1.131.653v.287l1.131-.653Zm-4.415,6.261,1.906-1.1v-.287l-1.906,1.1Zm1.024-1.733,2.443-1.41v-.287l-2.443,1.41ZM79.5,42.545l-4.82,2.783v.287l4.82-2.783ZM73.13,46.226,68.849,48.7v.287l4.281-2.473Zm-1.211-.442-3.062,1.768v.287l3.062-1.768Zm2.468,0V45.5l-.962.556v.287Zm-1.953-1.155v-.287l-3.568,2.062v.287Zm4.54-1.48v-.287l-4.759,2.747V45.9Zm2.161,3.406,3.793-2.19v.287l-3.793,2.19Zm-.868,1.931V48.2L74.5,50.377v.287Zm-1.111-.5,1.683-.972v-.287l-1.683.972Zm-.3.172v-.289l-2.093,1.209v.287Zm5.119-4.1,1.685-.972V42.8l-1.685.972Zm1.245.135v.287l3.5-2.019v-.287ZM74.2,50.835v-.287l-5.381,3.106v.287Zm.27-2.44,3.767-2.175v-.287l-3.767,2.175Zm4.065-2.346,3.144-1.815v-.287l-3.144,1.815ZM74.18,48.567v-.289l-5.342,3.084v.287Zm9.778-5.647,2.392-1.381v-.287l-2.392,1.38Zm-9.487,6.331L68.813,52.52v.287l5.658-3.268Zm-5.6,1.241,1.763-1.017v-.287L68.867,50.2ZM84.5,41.179v.287l2.1-1.209V39.97ZM80.41,43.828,84.2,41.637V41.35L80.41,43.541Zm-1.979,1.142L80.114,44v-.287l-1.683.972Zm-2.389,1.379,2.094-1.208v-.287l-2.094,1.208ZM70.926,49.3l4.82-2.784v-.287l-4.82,2.783Zm9.861-.807v.287l3.146-1.817v-.287Zm-3.77,3.318V52.1l2.093-1.208v-.287Zm3.474-3.147-3.767,2.175v.287l3.767-2.175Zm-4.038,4.9v-.289l-3.722,2.148v.289Zm4.635-4.106-1.683.972v.287l1.683-.972ZM76.427,51.3v-.287l-7.6,4.388v.287Zm.842,2.651v.287l3.722-2.148V51.8Zm4.115-4.658v.287l3.793-2.19V47.1Zm2.844-2.784V46.8l1.683-.972v-.287Zm.026,2.555,2.2-1.27v-.289l-2.2,1.272Zm-2.966,2.568v.287l1.63-.942v-.287Zm-9.684,3.6v-.287l-2.726,1.574V56.8Zm5.118-3.242L71.9,54.77v.287l4.822-2.783Zm.028,1.125V53.4l3.767-2.175v-.287Zm7.209-4.163-3.146,1.817v.287l3.146-1.815Zm2.249-3.581v.287l1.427-.824v-.287Zm.4.912-1.131.653v.289l1.131-.654ZM71.919,57.041,68.857,58.81V59.1l3.062-1.768Zm.515-1.151V55.6l-3.568,2.062v.287Zm4.54-1.48v-.287L72.215,56.87v.287Z" transform="translate(-61.63 -10.216)" fill="#ae52d8"/></g></g><g transform="translate(0 0.001)"><g clip-path="url(#c)"><path d="M84.734,20.535a6.64,6.64,0,0,0-3,5.2c0,1.916,1.344,2.692,3,1.734a6.638,6.638,0,0,0,3-5.2c0-1.915-1.344-2.692-3-1.734" transform="translate(34.55 8.507)" fill="#ff3636"/><path d="M84.292,24.46l-.267.155c-.12.068-.219.034-.228-.08l-.2-2.53a1.041,1.041,0,0,1,.511-.847l.105-.06c.3-.172.534-.054.511.256l-.2,2.762a.479.479,0,0,1-.228.343m-.134,1.485a1.062,1.062,0,0,0,.512-.808c0-.289-.229-.387-.512-.223a1.064,1.064,0,0,0-.512.81c0,.289.229.386.512.222" transform="translate(35.337 8.885)" fill="#ffe1ff"/></g></g></g></g></g></svg>